<?xml version="1.0" encoding="UTF-8" standalone="no"?>
<svg width="20px" height="20px" viewBox="0 0 20 20" version="1.1" xmlns="http://www.w3.org/2000/svg" xmlns:xlink="http://www.w3.org/1999/xlink">
    <!-- Generator: Sketch 43.1 (39012) - http://www.bohemiancoding.com/sketch -->
    <title>icon.tool.information</title>
    <desc>Created with Sketch.</desc>
    <defs></defs>
    <g id="icon" stroke="none" stroke-width="1" fill="none" fill-rule="evenodd">
        <g id="icon.other" transform="translate(-58.000000, -597.000000)">
            <g id="icon.toast.main" transform="translate(53.000000, 592.000000)">
                <g id="icon.tool.information" transform="translate(5.000000, 5.000000)">
                    <circle id="Oval" fill="#FFFFFF" cx="10" cy="10" r="10"></circle>
                    <path d="M10.8870192,10.8870192 L10.8870192,5.47836538 L9.11298077,5.47836538 L9.11298077,10.8870192 L10.8870192,10.8870192 Z M10.8870192,14.5216346 L10.8870192,12.7043269 L9.11298077,12.7043269 L9.11298077,14.5216346 L10.8870192,14.5216346 Z M10,1 C11.644239,1 13.1658584,1.41105358 14.5649038,2.23317308 C15.9206799,3.01202312 16.9879769,4.07932014 17.7668269,5.43509615 C18.5889464,6.83414161 19,8.35576101 19,10 C19,11.644239 18.5889464,13.1658584 17.7668269,14.5649038 C16.9879769,15.9206799 15.9206799,16.9879769 14.5649038,17.7668269 C13.1658584,18.5889464 11.644239,19 10,19 C8.35576101,19 6.83414161,18.5889464 5.43509615,17.7668269 C4.07932014,16.9735537 3.01202313,15.8990452 2.23317308,14.5432692 C1.41105358,13.1442238 1,11.6298158 1,10 C1,8.37018416 1.41105358,6.85577623 2.23317308,5.45673077 C3.02644627,4.10095476 4.10095476,3.02644627 5.45673077,2.23317308 C6.85577623,1.41105358 8.37018416,1 10,1 Z" id="error---material" fill="#4990E2" transform="translate(10.000000, 10.000000) scale(-1, -1) translate(-10.000000, -10.000000) "></path>
                </g>
            </g>
        </g>
    </g>
</svg>