<?xml version="1.0" encoding="UTF-8" standalone="no"?>
<svg width="38px" height="38px" viewBox="0 0 38 38" version="1.1" xmlns="http://www.w3.org/2000/svg" xmlns:xlink="http://www.w3.org/1999/xlink">
    <!-- Generator: Sketch 43.1 (39012) - http://www.bohemiancoding.com/sketch -->
    <title>icon ._tool ._remove_body</title>
    <desc>Created with Sketch.</desc>
    <defs></defs>
    <g id="Symbols" stroke="none" stroke-width="1" fill="none" fill-rule="evenodd">
        <g id="icon-._tool-._remove_body">
            <path d="M20.9152381,21.4444444 C20.9342746,20.3996739 20.9976831,19.3793131 21.1480931,18.4421834 C21.5750947,15.7817499 24.5950133,14.5150678 24.5950133,11.3571299 C24.5950133,8.19919207 22.3491241,7 20.5428734,7 C18.7366227,7 18.5825063,7.41389861 17.8750818,7.7748027 C17.4298323,8.00195396 16.9741192,8.06584046 16.3847437,7.64155916 C15.919207,7.30642731 15.1044375,6.99999999 13.436838,7 C11.7692384,7.00000001 9,8.08584861 9,11.3571297 C9,14.6284108 12.6456791,15.64544 12.9529649,19.2215282 C13.2602508,22.7976163 13.323982,24.443854 13.4368381,27.0900375 C13.5509386,29.7653991 20.9952742,30.0781767 20.9952742,27.0900375 C20.9952742,26.6927713 20.9891411,26.2804053 20.9801379,25.857442 L19.9520202,25.857442 C19.9380513,26.2216812 19.9161656,26.5747228 19.8831445,26.9127762 C19.7447097,28.3300041 14.7977475,28.4353414 14.6418702,26.9127762 C14.3732202,24.2886788 14.2577388,22.0290368 13.9504529,18.4529486 C13.6431671,14.8768604 10.2620743,14.3732799 10.2620743,11.359614 C10.2620743,8.34594819 12.6877566,8.10615978 13.6833616,8.1036868 C14.6789666,8.10121381 16.3214751,8.41825712 16.3214746,10.5941155 C16.3214744,11.3756925 17.4275353,11.4757873 17.4279805,10.5941154 C17.4289334,8.70710006 19.2161702,7.86748919 20.8465993,8.10121382 C22.4770285,8.33493845 23.5216028,9.45125454 23.5216028,11.5213048 C23.5216028,13.5913551 20.575985,15.4164114 20.1489834,18.0768449 C19.9843641,19.1025054 19.9453902,20.259252 19.9449128,21.4444444 L20.9152381,21.4444444 Z" id="Combined-Shape" fill="#EEEEEE"></path>
            <polygon id="Path-668" fill="#65A5BD" points="17.8888889 22.5555556 17.8888889 24.7777778 23.4444444 24.7777778 23.4444444 27 29 23.6666667 23.4444444 20.3333333 23.4444444 22.5555556"></polygon>
        </g>
    </g>
</svg>