<?xml version="1.0" encoding="UTF-8" standalone="no"?>
<svg width="38px" height="38px" viewBox="0 0 38 38" version="1.1" xmlns="http://www.w3.org/2000/svg" xmlns:xlink="http://www.w3.org/1999/xlink">
    <!-- Generator: Sketch 43.1 (39012) - http://www.bohemiancoding.com/sketch -->
    <title>icon ._tool ._bookmarks</title>
    <desc>Created with Sketch.</desc>
    <defs></defs>
    <g id="Symbols" stroke="none" stroke-width="1" fill="none" fill-rule="evenodd">
        <g id="icon-._tool-._bookmarks">
            <g>
                <rect id="Rectangle-1000" x="0" y="0" width="38" height="38"></rect>
                <g id="Group-13" transform="translate(8.000000, 7.000000)">
                    <path d="M20,15 L20,12 L21,12 L24,16 L22,16 L22,17 L12,17 L12,15 L20,15 Z M10,12 L12,12 L12,26 L10,26 L10,12 Z M22,16 L24,16 L24,26 L22,26 L22,16 Z M12,24 L22,24 L22,26 L12,26 L12,24 Z M13,18 L21,18 L21,19 L13,19 L13,18 Z M14,13 L18,13 L18,14 L14,14 L14,13 Z M13,20 L21,20 L21,21 L13,21 L13,20 Z M13,22 L21,22 L21,23 L13,23 L13,22 Z" id="Combined-Shape" fill="#FFFFFF"></path>
                    <path d="M13,11 L9,11 L9,13.5882353 L8.06666667,13 L6.93333333,13 L2.17333333,16 L2,16 L2,2.93333333 L3,2 L12,2 L13,2.93333333 L13,11 Z M7.5,4 L7,6 L4.5,6 L6.5,7.5 L5.5,10 L7.5,8.5 L9.5,10 L8.5,7.5 L10.5,6 L8,6 L7.5,4 Z" id="Combined-Shape" fill="#62A5BE"></path>
                    <path d="M3,0 L12,0 L12,1 L3,1 L3,0 Z M7,14 L8,14 L8,15 L7,15 L7,14 Z M0,3 L1,3 L1,19 L0,19 L0,3 Z M14,3 L15,3 L15,11 L14,11 L14,3 Z M3,0 L3,1 L1,3 L0,3 L3,0 Z M7,14 L7,15 L1,19 L1,18 L7,14 Z M8,14 L9,15 L9,16 L8,15 L8,14 Z M12,0 L15,3 L14,3 L12,1 L12,0 Z" id="Combined-Shape" fill="#FFFFFF"></path>
                </g>
            </g>
        </g>
    </g>
</svg>