<?xml version="1.0" encoding="UTF-8" standalone="no"?>
<svg width="38px" height="38px" viewBox="0 0 38 38" version="1.1" xmlns="http://www.w3.org/2000/svg" xmlns:xlink="http://www.w3.org/1999/xlink">
    <!-- Generator: Sketch 49.3 (51167) - http://www.bohemiancoding.com/sketch -->
    <title>2.5x</title>
    <desc>Created with Sketch.</desc>
    <defs></defs>
    <g id="2.5x" stroke="none" stroke-width="1" fill="none" fill-rule="evenodd">
        <path d="M9.34,14.808 C10.292,14.808 11.09,15.074 11.706,15.634 C12.308,16.194 12.616,16.908 12.616,17.79 C12.616,18.658 12.28,19.442 11.636,20.156 C11.244,20.562 10.558,21.094 9.564,21.766 C8.486,22.48 7.842,23.11 7.632,23.656 L12.63,23.656 L12.63,25 L5.742,25 C5.742,24.006 6.064,23.138 6.736,22.382 C7.1,21.948 7.856,21.346 8.99,20.562 C9.662,20.086 10.138,19.708 10.418,19.414 C10.866,18.91 11.104,18.364 11.104,17.776 C11.104,17.216 10.95,16.796 10.642,16.516 C10.334,16.236 9.872,16.096 9.284,16.096 C8.654,16.096 8.178,16.306 7.856,16.74 C7.52,17.16 7.352,17.762 7.324,18.574 L5.798,18.574 C5.812,17.454 6.134,16.558 6.764,15.886 C7.408,15.158 8.276,14.808 9.34,14.808 Z M15.29,22.998 C15.584,22.998 15.836,23.082 16.032,23.278 C16.228,23.46 16.326,23.698 16.326,23.992 C16.326,24.286 16.214,24.524 16.018,24.72 C15.822,24.902 15.57,25 15.29,25 C14.996,25 14.758,24.902 14.562,24.706 C14.366,24.51 14.268,24.272 14.268,23.992 C14.268,23.698 14.366,23.46 14.562,23.278 C14.758,23.082 14.996,22.998 15.29,22.998 Z M18.524,15.004 L24.544,15.004 L24.544,16.348 L19.756,16.348 L19.462,19.232 L19.504,19.232 C19.812,18.91 20.162,18.686 20.568,18.546 C20.932,18.392 21.352,18.322 21.8,18.322 C22.738,18.322 23.508,18.63 24.096,19.246 C24.684,19.862 24.992,20.702 24.992,21.78 C24.992,22.816 24.6,23.656 23.844,24.314 C23.13,24.902 22.276,25.196 21.282,25.196 C20.386,25.196 19.616,24.944 18.972,24.454 C18.258,23.922 17.866,23.18 17.796,22.256 L19.294,22.256 C19.35,22.816 19.574,23.25 19.952,23.53 C20.288,23.782 20.736,23.908 21.296,23.908 C21.912,23.908 22.43,23.712 22.85,23.334 C23.27,22.942 23.48,22.438 23.48,21.794 C23.48,21.094 23.298,20.548 22.934,20.156 C22.57,19.764 22.066,19.568 21.394,19.568 C20.946,19.568 20.568,19.638 20.232,19.806 C19.868,19.974 19.602,20.24 19.406,20.604 L17.978,20.604 L18.524,15.004 Z" fill="#EEEEEE"></path>
        <polygon id="Path" fill="#62A5BE" points="25.986 17.762 27.722 17.762 29.318 20.058 30.9 17.762 32.636 17.762 30.13 21.15 32.944 25 31.208 25 29.318 22.242 27.414 25 25.664 25 28.492 21.15"></polygon>
    </g>
</svg>