<?xml version="1.0" encoding="UTF-8"?>
<svg width="38px" height="38px" viewBox="0 0 38 38" version="1.1" xmlns="http://www.w3.org/2000/svg" xmlns:xlink="http://www.w3.org/1999/xlink">
    <!-- Generator: Sketch 62 (91390) - https://sketch.com -->
    <title>icon/tool/delete_all_roi</title>
    <desc>Created with Sketch.</desc>
    <g id="icon/tool/delete_all_roi" stroke="none" stroke-width="1" fill="none" fill-rule="evenodd">
        <rect id="Rectangle-891-Copy-7" x="0" y="0" width="38" height="37.9408816"></rect>
        <path d="M11.7745062,20.3114205 L11.7753086,24.1771427 L12.7432099,24.1771427 L12.7432099,25.1435381 L18.5506173,25.1435381 L18.5506173,26.1099335 L12.7432099,26.1099335 L12.7432099,27.0763289 L9.83950617,27.0763289 L9.83950617,24.1771427 L10.8074074,24.1771427 L10.8065062,20.3114205 L11.7745062,20.3114205 Z M16.6148148,12.5803976 C18.4954977,12.5803976 19.9281644,14.1770908 21.4549871,15.8190345 L21.4535479,17.1686334 C19.6506083,15.4015142 18.1252857,13.546793 16.6148148,13.546793 C13.7988057,13.546793 10.9615578,19.9932641 6.31141683,20.3002389 L5.96790123,20.311561 L5.96790123,19.3451656 C10.7882645,19.3451656 12.7437425,12.5803976 16.6148148,12.5803976 Z M12.7432099,7.74842046 L12.7432099,8.71481588 L26.2938272,8.71481588 L26.2938272,7.74842046 L29.1975309,7.74842046 L29.1975309,10.6476067 L28.2296296,10.6476067 L28.2296296,15.4795839 L27.2617284,15.4795839 L27.2617284,10.6476067 L26.2938272,10.6476067 L26.2938272,9.68121131 L12.7432099,9.68121131 L12.7432099,10.6476067 L11.7753086,10.6476067 L11.7745062,13.5464205 L10.8065062,13.5464205 L10.8074074,10.6476067 L9.83950617,10.6476067 L9.83950617,7.74842046 L12.7432099,7.74842046 Z" id="形状结合" fill="#FFFFFF"></path>
        <path d="M31.1398551,22.2438173 L29.1955938,31.8868521 L22.4111902,31.8827661 L20.5579357,22.2510607 L31.1398551,22.2438173 Z M24.3580247,23.2107472 L23.3901235,23.2107472 L23.3901235,30.9419106 L24.3580247,30.9419106 L24.3580247,23.2107472 Z M26.2938272,23.2107472 L25.3259259,23.2107472 L25.3259259,30.9419106 L26.2938272,30.9419106 L26.2938272,23.2107472 Z M28.2296296,23.2107472 L27.2617284,23.2107472 L27.2617284,30.9419106 L28.2296296,30.9419106 L28.2296296,23.2107472 Z M28.2296296,17.4123747 L28.2296296,19.3451656 L31.1333333,19.3451656 L32.1012346,21.2779564 L19.5185185,21.2779564 L20.4864198,19.3451656 L23.3901235,19.3451656 L23.3901235,17.4123747 L28.2296296,17.4123747 Z M27.2617284,18.3787701 L24.3580247,18.3787701 L24.3580247,19.3451656 L27.2617284,19.3451656 L27.2617284,18.3787701 Z" id="Rectangle-537" fill="#82B1FF"></path>
    </g>
</svg>