<?xml version="1.0" encoding="UTF-8" standalone="no"?>
<svg width="38px" height="38px" viewBox="0 0 38 38" version="1.1" xmlns="http://www.w3.org/2000/svg" xmlns:xlink="http://www.w3.org/1999/xlink">
    <!-- Generator: Sketch 47.1 (45422) - http://www.bohemiancoding.com/sketch -->
    <title>icon ._tool ._text.多层文本注释</title>
    <desc>Created with Sketch.</desc>
    <defs></defs>
    <g id="Symbols" stroke="none" stroke-width="1" fill="none" fill-rule="evenodd">
        <g id="icon-._tool-._text.多层文本注释">
            <g>
                <rect id="Rectangle-891-Copy-9" x="0" y="0" width="38" height="37.9408816"></rect>
                <path d="M17,22 L18,22 L18,23 L13,23 L13,22 L14,22 L14,6 L17,6 L17,22 Z M24,5.5 L24,9 L21.75,6 L9.25,6 L7,9 L7,5 L8.5,5 L24,5 L24,5.5 Z M12,23 L19,23 L19,24 L12,24 L12,23 Z" id="Combined-Shape" fill="#FFFFFF"></path>
                <path d="M28,29 L28,17 L29,17 L29,30 L28.5,30 L13,30 L13,29 L28,29 Z M25,26 L25,16 L19,16 L19,15 L26,15 L26,15.5 L26,27 L25.5,27 L9,27 L9,26.5 L9,24 L10,24 L10,26 L25,26 Z M18,32 L31,32 L31,33 L17,33 L17,32.5 L17,31 L18,31 L18,32 Z M10,15 L12,15 L12,16 L10,16 L10,15 Z M13,28 L14,28 L14,29 L13,29 L13,28 Z M9,15 L10,15 L10,21 L9,21 L9,15 Z M31,20 L32,20 L32,33 L31,33 L31,20 Z M27,17 L28,17 L28,18 L27,18 L27,17 Z M30,20 L31,20 L31,21 L30,21 L30,20 Z" id="Combined-Shape" fill="#61A5BE"></path>
            </g>
        </g>
    </g>
</svg>