<?xml version="1.0" encoding="UTF-8" standalone="no"?>
<svg width="38px" height="38px" viewBox="0 0 38 38" version="1.1" xmlns="http://www.w3.org/2000/svg" xmlns:xlink="http://www.w3.org/1999/xlink">
    <!-- Generator: Sketch 49.3 (51167) - http://www.bohemiancoding.com/sketch -->
    <title>2.0x</title>
    <desc>Created with Sketch.</desc>
    <defs></defs>
    <g id="2.0x" stroke="none" stroke-width="1" fill="none" fill-rule="evenodd">
        <path d="M9.34,14.808 C10.292,14.808 11.09,15.074 11.706,15.634 C12.308,16.194 12.616,16.908 12.616,17.79 C12.616,18.658 12.28,19.442 11.636,20.156 C11.244,20.562 10.558,21.094 9.564,21.766 C8.486,22.48 7.842,23.11 7.632,23.656 L12.63,23.656 L12.63,25 L5.742,25 C5.742,24.006 6.064,23.138 6.736,22.382 C7.1,21.948 7.856,21.346 8.99,20.562 C9.662,20.086 10.138,19.708 10.418,19.414 C10.866,18.91 11.104,18.364 11.104,17.776 C11.104,17.216 10.95,16.796 10.642,16.516 C10.334,16.236 9.872,16.096 9.284,16.096 C8.654,16.096 8.178,16.306 7.856,16.74 C7.52,17.16 7.352,17.762 7.324,18.574 L5.798,18.574 C5.812,17.454 6.134,16.558 6.764,15.886 C7.408,15.158 8.276,14.808 9.34,14.808 Z M15.29,22.998 C15.584,22.998 15.836,23.082 16.032,23.278 C16.228,23.46 16.326,23.698 16.326,23.992 C16.326,24.286 16.214,24.524 16.018,24.72 C15.822,24.902 15.57,25 15.29,25 C14.996,25 14.758,24.902 14.562,24.706 C14.366,24.51 14.268,24.272 14.268,23.992 C14.268,23.698 14.366,23.46 14.562,23.278 C14.758,23.082 14.996,22.998 15.29,22.998 Z M21.394,14.808 C22.57,14.808 23.48,15.298 24.124,16.292 C24.712,17.216 25.006,18.448 25.006,20.002 C25.006,21.542 24.712,22.788 24.124,23.712 C23.48,24.692 22.57,25.196 21.394,25.196 C20.218,25.196 19.308,24.692 18.664,23.712 C18.076,22.788 17.782,21.556 17.782,20.002 C17.782,18.434 18.076,17.202 18.664,16.292 C19.308,15.298 20.218,14.808 21.394,14.808 Z M21.394,16.096 C20.568,16.096 19.994,16.544 19.658,17.454 C19.406,18.07 19.294,18.924 19.294,20.002 C19.294,21.066 19.406,21.92 19.658,22.55 C19.994,23.446 20.568,23.908 21.394,23.908 C22.206,23.908 22.794,23.446 23.13,22.55 C23.368,21.92 23.494,21.066 23.494,20.002 C23.494,18.924 23.368,18.07 23.13,17.454 C22.794,16.544 22.206,16.096 21.394,16.096 Z" fill="#EEEEEE"></path>
        <polygon id="Path" fill="#62A5BE" points="25.986 17.762 27.722 17.762 29.318 20.058 30.9 17.762 32.636 17.762 30.13 21.15 32.944 25 31.208 25 29.318 22.242 27.414 25 25.664 25 28.492 21.15"></polygon>
    </g>
</svg>