<?xml version="1.0" encoding="UTF-8" standalone="no"?>
<svg width="38px" height="38px" viewBox="0 0 38 38" version="1.1" xmlns="http://www.w3.org/2000/svg" xmlns:xlink="http://www.w3.org/1999/xlink">
    <!-- Generator: Sketch 49.3 (51167) - http://www.bohemiancoding.com/sketch -->
    <title>4.0x</title>
    <desc>Created with Sketch.</desc>
    <defs></defs>
    <g id="4.0x" stroke="none" stroke-width="1" fill="none" fill-rule="evenodd">
        <path d="M10.194,15.004 L11.594,15.004 L11.594,21.612 L13.106,21.612 L13.106,22.83 L11.594,22.83 L11.594,25 L10.138,25 L10.138,22.83 L5.266,22.83 L5.266,21.388 L10.194,15.004 Z M10.096,16.936 L6.512,21.612 L10.138,21.612 L10.138,16.936 L10.096,16.936 Z M15.29,22.998 C15.584,22.998 15.836,23.082 16.032,23.278 C16.228,23.46 16.326,23.698 16.326,23.992 C16.326,24.286 16.214,24.524 16.018,24.72 C15.822,24.902 15.57,25 15.29,25 C14.996,25 14.758,24.902 14.562,24.706 C14.366,24.51 14.268,24.272 14.268,23.992 C14.268,23.698 14.366,23.46 14.562,23.278 C14.758,23.082 14.996,22.998 15.29,22.998 Z M21.394,14.808 C22.57,14.808 23.48,15.298 24.124,16.292 C24.712,17.216 25.006,18.448 25.006,20.002 C25.006,21.542 24.712,22.788 24.124,23.712 C23.48,24.692 22.57,25.196 21.394,25.196 C20.218,25.196 19.308,24.692 18.664,23.712 C18.076,22.788 17.782,21.556 17.782,20.002 C17.782,18.434 18.076,17.202 18.664,16.292 C19.308,15.298 20.218,14.808 21.394,14.808 Z M21.394,16.096 C20.568,16.096 19.994,16.544 19.658,17.454 C19.406,18.07 19.294,18.924 19.294,20.002 C19.294,21.066 19.406,21.92 19.658,22.55 C19.994,23.446 20.568,23.908 21.394,23.908 C22.206,23.908 22.794,23.446 23.13,22.55 C23.368,21.92 23.494,21.066 23.494,20.002 C23.494,18.924 23.368,18.07 23.13,17.454 C22.794,16.544 22.206,16.096 21.394,16.096 Z" fill="#EEEEEE"></path>
        <polygon id="Path" fill="#62A5BE" points="25.986 17.762 27.722 17.762 29.318 20.058 30.9 17.762 32.636 17.762 30.13 21.15 32.944 25 31.208 25 29.318 22.242 27.414 25 25.664 25 28.492 21.15"></polygon>
    </g>
</svg>