<?xml version="1.0" encoding="UTF-8" standalone="no"?>
<svg width="38px" height="38px" viewBox="0 0 38 38" version="1.1" xmlns="http://www.w3.org/2000/svg" xmlns:xlink="http://www.w3.org/1999/xlink">
    <!-- Generator: Sketch 44.1 (41455) - http://www.bohemiancoding.com/sketch -->
    <title>icon ._tool ._zoom_zone</title>
    <desc>Created with Sketch.</desc>
    <defs></defs>
    <g id="Symbols" stroke="none" stroke-width="1" fill="none" fill-rule="evenodd">
        <g id="icon-._tool-._zoom_zone">
            <g fill="#FFFFFF">
                <rect id="bg" fill-opacity="0" x="0" y="0" width="38" height="38"></rect>
                <g id="Group-3" transform="translate(4.500000, 6.500000)">
                    <path d="M26.5,16.5 L26.5,1.5 L1.5,1.5 L1.5,21.5 L18.5,21.5 L18.5,22.5 L27.5,22.5 L27.5,16.5 L26.5,16.5 Z M0.5,0.5 L27.5,0.5 L27.5,22.5 L0.5,22.5 L0.5,0.5 Z" id="Combined-Shape"></path>
                </g>
            </g>
            <path d="M26.8725587,22.5296054 L32.7367093,28.393756 C33.1191756,28.7762223 33.1272256,29.4139592 32.7388465,29.8023382 L31.8431662,30.6980185 C31.4600444,31.0811404 30.8241434,31.0854407 30.434584,30.6958813 L24.7182917,24.9795891 C23.3898843,25.9768386 21.7389464,26.5677242 19.9499998,26.5677242 C15.5593362,26.5677242 12,23.0083881 12,18.6177244 C12,14.2270608 15.5593362,10.6677246 19.9499998,10.6677246 C24.3406635,10.6677246 27.8999996,14.2270608 27.8999996,18.6177244 C27.8999996,20.0397863 27.5266242,21.3746418 26.8725587,22.5296054 Z M20,25 C23.5898509,25 26.5,22.0898509 26.5,18.5 C26.5,14.9101491 23.5898509,12 20,12 C16.4101491,12 13.5,14.9101491 13.5,18.5 C13.5,22.0898509 16.4101491,25 20,25 Z" id="Oval-5" fill="#61A5BE"></path>
            <path d="M19,17 L16,17 L16,19 L19,19 L19,22 L21,22 L21,19 L24,19 L24,17 L21,17 L21,14 L19,14 L19,17 Z" id="Combined-Shape" fill="#61A5BE"></path>
        </g>
    </g>
</svg>