<?xml version="1.0" encoding="UTF-8" standalone="no"?>
<svg width="38px" height="38px" viewBox="0 0 38 38" version="1.1" xmlns="http://www.w3.org/2000/svg" xmlns:xlink="http://www.w3.org/1999/xlink">
    <!-- Generator: Sketch 48.2 (47327) - http://www.bohemiancoding.com/sketch -->
    <title>icon.FFR.硬斑探测</title>
    <desc>Created with Sketch.</desc>
    <defs></defs>
    <g id="Symbols" stroke="none" stroke-width="1" fill="none" fill-rule="evenodd">
        <g id="icon.FFR.硬斑探测">
            <g id="icon-._tool-._grow_other">
                <g>
                    <rect id="bg" x="0" y="0" width="38" height="38"></rect>
                    <path d="M17.4063715,8.14139127 C11.5880137,7.62968235 8.55531445,7.89102945 8.30827375,8.92543255 C7.9377127,10.4770372 3.65039413,15.0793518 5.75151745,20.2442141 C7.15226633,23.6874557 10.4422251,26.7941139 15.6213938,29.5641886 C21.3058847,31.8539775 25.3711987,31.8539775 27.817336,29.5641886 C31.4865418,26.1295054 33.0163037,15.9323703 31.9720649,14.4106558 C31.2759058,13.3961795 26.4206746,11.3064246 17.4063715,8.14139127 Z" id="Path-2" stroke="#EEEEEE" fill-opacity="0.188858696" fill="#D8D8D8" stroke-dasharray="1"></path>
                    <path d="M20.4504567,14.5125215 L17.6922248,17.1897665 L20.330908,19.958999 L25.864871,14.9511687 C27.1114105,15.0544652 28.069533,15.7566862 28.7029699,16.8353597 C29.3588158,17.9521934 29.0628941,19.0681305 27.8152047,20.1831709 C27.7772298,24.4293036 27.0167859,26.8879432 25.5338731,27.5590895 C23.3095039,28.565809 20.3770409,28.2208145 18.8605947,26.3194728 C18.4392971,25.7912438 18.2059706,25.1279273 18.1606153,24.3295233 C17.5742554,23.9958331 17.070616,23.648661 16.649697,23.2880068 C16.2043049,24.3440496 15.8850011,24.939402 15.6917856,25.074064 C15.1653342,25.4409753 11.7472783,24.757174 10.6365689,23.3645508 C9.89609592,22.4361353 9.94841291,20.9379728 10.7935198,18.8700633 C11.1390144,18.2222424 11.4951405,17.6579123 11.8618981,17.1770732 C11.3099075,16.6805691 10.9123245,16.1588992 10.6691492,15.6120633 C9.89436459,13.8697809 11.475304,12.3172647 11.6119476,11.7938561 C11.7030433,11.444917 12.8213445,11.3567558 14.9668513,11.5293725 C18.2908559,12.5970451 20.0812119,13.30199 20.337919,13.6442071 C20.4354218,13.7741883 20.4720671,14.0918095 20.4504567,14.5125215 Z M24,26 C25.1045695,26 26,25.1045695 26,24 C26,22.8954305 25.1045695,22 24,22 C22.8954305,22 22,22.8954305 22,24 C22,25.1045695 22.8954305,26 24,26 Z M15,17 C16.1045695,17 17,16.1045695 17,15 C17,13.8954305 16.1045695,13 15,13 C13.8954305,13 13,13.8954305 13,15 C13,16.1045695 13.8954305,17 15,17 Z M14,23 C15.1045695,23 16,22.1045695 16,21 C16,19.8954305 15.1045695,19 14,19 C12.8954305,19 12,19.8954305 12,21 C12,22.1045695 12.8954305,23 14,23 Z" id="Combined-Shape" fill="#EEEEEE"></path>
                    <path d="M28.5366892,10.5123503 L20.3453664,18.4395038 L19.3676793,17.3630279 L27.4186804,9.47873202 C27.2378641,9.14518322 27.1351814,8.76310228 27.1351814,8.35703849 C27.1351814,7.05528208 28.1904634,6 29.4922198,6 C30.7939763,6 31.8492583,7.05528208 31.8492583,8.35703849 C31.8492583,9.6587949 30.7939763,10.714077 29.4922198,10.714077 C29.152071,10.714077 28.8287508,10.6420248 28.5366892,10.5123503 Z M29.4922198,9.53555773 C30.1430981,9.53555773 30.6707391,9.0079167 30.6707391,8.35703849 C30.6707391,7.70616028 30.1430981,7.17851924 29.4922198,7.17851924 C28.8413416,7.17851924 28.3137006,7.70616028 28.3137006,8.35703849 C28.3137006,9.0079167 28.8413416,9.53555773 29.4922198,9.53555773 Z" id="Combined-Shape" fill="#65A5BD"></path>
                </g>
            </g>
        </g>
    </g>
</svg>