<?xml version="1.0" encoding="UTF-8"?>
<svg width="38px" height="38px" viewBox="0 0 38 38" version="1.1" xmlns="http://www.w3.org/2000/svg" xmlns:xlink="http://www.w3.org/1999/xlink">
    <!-- Generator: Sketch 62 (91390) - https://sketch.com -->
    <title>icon/tool/arrow_with_text</title>
    <desc>Created with Sketch.</desc>
    <g id="icon/tool/arrow_with_text" stroke="none" stroke-width="1" fill="none" fill-rule="evenodd">
        <path d="M32,14 L28.5,24.5 L25.5,21.5 L15.9895924,31.0104076 L15,30.0208153 L24.51,20.51 L21.5,17.5 L32,14 Z" id="Combined-Shape" fill="#FFFFFF"></path>
        <path d="M8.26782524,9 L18.7021087,9 C18.7021087,9 18.6889747,11.7301138 18.9706421,12.5542642 C18.730843,12.6049935 18.7397952,12.6244196 18.5195099,12.6792422 C18.3316972,12.3383307 17.7240595,10.6250629 17.5954179,10.3576687 C17.4663649,10.0894195 17.3950421,10.0894194 17.056574,10.0894195 C16.7181059,10.0894195 14.7963042,10.0894195 14.7963042,10.0894195 C14.5213647,10.0894195 14.2984821,10.3090231 14.2984821,10.5815557 C14.2984821,10.5815557 14.2984822,19.7185384 14.2984823,20.2619356 C14.2984823,20.8053328 14.839472,21.080181 15.9489495,21.3436624 C15.9489379,21.5067171 15.9489493,21.6347849 15.9489493,21.6347849 L11.0260394,21.621454 C11.0260394,21.621454 11.0260393,21.5157085 11.0260393,21.3436624 C12.0938523,21.0816573 12.6554121,20.8308407 12.6574728,20.2619356 C12.6595336,19.6930306 12.6575728,10.5738131 12.6575728,10.5738131 C12.6575177,10.3025027 12.4413559,10.083195 12.1560142,10.0840164 C12.1560142,10.0840164 10.3468504,10.0894195 9.90980791,10.0894194 C9.47276542,10.0894194 9.49773864,10.0894195 9.36671552,10.3576687 C9.23569239,10.625918 8.79902862,12.0681081 8.44442636,12.6792422 C8.20658638,12.621362 8.26725466,12.6314533 8,12.5542642 C8.26725466,11.7233365 8.26782524,9 8.26782524,9 Z" id="Path-461" fill="#82B1FF"></path>
    </g>
</svg>