<?xml version="1.0" encoding="UTF-8" standalone="no"?>
<svg width="38px" height="38px" viewBox="0 0 38 38" version="1.1" xmlns="http://www.w3.org/2000/svg" xmlns:xlink="http://www.w3.org/1999/xlink">
    <!-- Generator: Sketch 49.3 (51167) - http://www.bohemiancoding.com/sketch -->
    <title>1.5x</title>
    <desc>Created with Sketch.</desc>
    <defs></defs>
    <g id="1.5x" stroke="none" stroke-width="1" fill="none" fill-rule="evenodd">
        <path d="M9.578,15.004 L10.726,15.004 L10.726,25 L9.2,25 L9.2,16.838 C8.598,17.412 7.828,17.832 6.904,18.098 L6.904,16.586 C7.352,16.474 7.814,16.278 8.318,15.998 C8.822,15.69 9.242,15.368 9.578,15.004 Z M13.946,22.998 C14.24,22.998 14.492,23.082 14.688,23.278 C14.884,23.46 14.982,23.698 14.982,23.992 C14.982,24.286 14.87,24.524 14.674,24.72 C14.478,24.902 14.226,25 13.946,25 C13.652,25 13.414,24.902 13.218,24.706 C13.022,24.51 12.924,24.272 12.924,23.992 C12.924,23.698 13.022,23.46 13.218,23.278 C13.414,23.082 13.652,22.998 13.946,22.998 Z M17.18,15.004 L23.2,15.004 L23.2,16.348 L18.412,16.348 L18.118,19.232 L18.16,19.232 C18.468,18.91 18.818,18.686 19.224,18.546 C19.588,18.392 20.008,18.322 20.456,18.322 C21.394,18.322 22.164,18.63 22.752,19.246 C23.34,19.862 23.648,20.702 23.648,21.78 C23.648,22.816 23.256,23.656 22.5,24.314 C21.786,24.902 20.932,25.196 19.938,25.196 C19.042,25.196 18.272,24.944 17.628,24.454 C16.914,23.922 16.522,23.18 16.452,22.256 L17.95,22.256 C18.006,22.816 18.23,23.25 18.608,23.53 C18.944,23.782 19.392,23.908 19.952,23.908 C20.568,23.908 21.086,23.712 21.506,23.334 C21.926,22.942 22.136,22.438 22.136,21.794 C22.136,21.094 21.954,20.548 21.59,20.156 C21.226,19.764 20.722,19.568 20.05,19.568 C19.602,19.568 19.224,19.638 18.888,19.806 C18.524,19.974 18.258,20.24 18.062,20.604 L16.634,20.604 L17.18,15.004 Z" fill="#EEEEEE"></path>
        <polygon id="Path" fill="#62A5BE" points="24.642 17.762 26.378 17.762 27.974 20.058 29.556 17.762 31.292 17.762 28.786 21.15 31.6 25 29.864 25 27.974 22.242 26.07 25 24.32 25 27.148 21.15"></polygon>
    </g>
</svg>