<?xml version="1.0" encoding="UTF-8" standalone="no"?>
<svg width="38px" height="38px" viewBox="0 0 38 38" version="1.1" xmlns="http://www.w3.org/2000/svg" xmlns:xlink="http://www.w3.org/1999/xlink">
    <!-- Generator: Sketch 43.1 (39012) - http://www.bohemiancoding.com/sketch -->
    <title>icon ._tool ._remove_body</title>
    <desc>Created with Sketch.</desc>
    <defs></defs>
    <g id="Symbols" stroke="none" stroke-width="1" fill="none" fill-rule="evenodd">
        <g id="icon-._tool-._remove_body">
            <g>
                <rect id="bg" fill-opacity="0" fill="#FFFFFF" x="0" y="0" width="38" height="38"></rect>
                <path d="M20.7237143,22 C20.7408471,21.0597065 20.7979148,20.1413818 20.9332838,19.297965 C21.3175852,16.9035749 24.035512,15.763561 24.035512,12.9214169 C24.035512,10.0792729 22.0142117,9 20.388586,9 C18.7629604,9 18.6242557,9.37250875 17.9875736,9.69732243 C17.5868491,9.90175856 17.1767073,9.95925641 16.6462693,9.57740325 C16.2272863,9.27578458 15.4939938,8.99999999 13.9931542,9 C12.4923146,9.00000001 10,9.97726375 10,12.9214168 C10,15.8655698 13.2811112,16.780896 13.5576684,19.9993753 C13.8342257,23.2178547 13.8915838,24.6994686 13.9931543,27.0810337 C14.0958447,29.4888592 20.7957468,29.770359 20.7957468,27.0810337 C20.7957468,26.7234942 20.790227,26.3523648 20.7821241,25.9716978 L19.8568182,25.9716978 C19.8442462,26.299513 19.8245491,26.6172505 19.7948301,26.9214986 C19.6702387,28.1970037 15.2179728,28.2918072 15.0776832,26.9214986 C14.8358982,24.5598109 14.7319649,22.5261331 14.4554076,19.3076537 C14.1788504,16.0891744 11.1358669,15.6359519 11.1358669,12.9236526 C11.1358669,10.2113534 13.3189809,9.99554381 14.2150254,9.99331812 C15.1110699,9.99109243 16.5893276,10.2764314 16.5893271,12.2347039 C16.5893269,12.9381232 17.5847817,13.0282086 17.5851824,12.2347039 C17.5860401,10.5363901 19.1945531,9.78074027 20.6619394,9.99109244 C22.1293257,10.2014446 23.0694425,11.2061291 23.0694425,13.0691744 C23.0694425,14.9322196 20.4183865,16.5747703 20.034085,18.9691604 C19.8859277,19.8922549 19.8508512,20.9333268 19.8504215,22 L20.7237143,22 Z" id="Combined-Shape" fill="#FFFFFF"></path>
                <polygon id="Path-668" fill="#62A5BE" points="18 23 18 25 23 25 23 27 28 24 23 21 23 23"></polygon>
            </g>
        </g>
    </g>
</svg>