<?xml version="1.0" encoding="UTF-8" standalone="no"?>
<svg width="38px" height="38px" viewBox="0 0 38 38" version="1.1" xmlns="http://www.w3.org/2000/svg" xmlns:xlink="http://www.w3.org/1999/xlink">
    <!-- Generator: Sketch 43.1 (39012) - http://www.bohemiancoding.com/sketch -->
    <title>icon_back</title>
    <desc>Created with Sketch.</desc>
    <defs></defs>
    <g id="Symbols" stroke="none" stroke-width="1" fill="none" fill-rule="evenodd">
        <g id="icon_back">
            <g>
                <rect id="Rectangle-1000" x="0" y="0" width="38" height="38"></rect>
                <path d="M23,13 C26.8659932,13 30,16.1340068 30,20 C30,23.8659932 26.8659932,27 23,27 L23,26 C26.3137085,26 29,23.3137085 29,20 C29,16.6862915 26.3137085,14 23,14 L23,13 Z" id="Combined-Shape" fill="#EEEEEE"></path>
                <path d="M17,26 L23,26 L23,27 L17,27 L17,26 Z M11,13 L23,13 L23,14 L11,14 L11,13 Z" id="Rectangle-90" fill="#EEEEEE"></path>
                <polygon id="Rectangle-91" fill="#EEEEEE" points="13.2426407 17.6852812 9 13.4426405 13.2426407 9.19999981"></polygon>
            </g>
        </g>
    </g>
</svg>