<?xml version="1.0" encoding="UTF-8"?>
<svg width="48px" height="48px" viewBox="0 0 48 48" version="1.1" xmlns="http://www.w3.org/2000/svg" xmlns:xlink="http://www.w3.org/1999/xlink">
    <!-- Generator: Sketch 62 (91390) - https://sketch.com -->
    <title>icon/light/windowing_re</title>
    <desc>Created with Sketch.</desc>
    <g id="icon/light/windowing_re" stroke="none" stroke-width="1" fill="none" fill-rule="evenodd">
        <rect id="Rectangle" fill-opacity="0" fill="#BCE6FF" x="0" y="0" width="48" height="48"></rect>
        <path d="M25,33 L25,36 L24,36 L24,33 L25,33 Z M30.2426407,31.363961 L29.5355339,32.0710678 L26,28.5355339 L29.5355339,25 L30.2426407,25.7071068 L27.949,28 L32,28 C34.209139,28 36,29.790861 36,32 C36,34.209139 34.209139,36 32,36 L32,35 C33.6568542,35 35,33.6568542 35,32 C35,30.3431458 33.6568542,29 32,29 L27.879,29 L30.2426407,31.363961 Z M17.4289322,29.863961 L18.136039,30.5710678 L16.0147186,32.6923882 L15.3076118,31.9852814 L17.4289322,29.863961 Z M24.5,16 C28.6421356,16 32,19.3578644 32,23.5 C32,23.6682137 31.9944622,23.835134 31.983559,24.0005886 L30.9810299,24.000332 C30.9936,23.8352028 31,23.6683488 31,23.5 C31,19.9101491 28.0898509,17 24.5,17 C20.9101491,17 18,19.9101491 18,23.5 C18,27.0898509 20.9101491,30 24.5,30 C24.6683488,30 24.8352028,29.9936 25.000332,29.9810299 L25.0005886,30.983559 C24.835134,30.9944622 24.6682137,31 24.5,31 C20.3578644,31 17,27.6421356 17,23.5 C17,19.3578644 20.3578644,16 24.5,16 Z M37,23 L37,24 L34,24 L34,23 L37,23 Z M15,23 L15,24 L12,24 L12,23 L15,23 Z M32.9852814,14.3076118 L33.6923882,15.0147186 L31.5710678,17.136039 L30.863961,16.4289322 L32.9852814,14.3076118 Z M16.0147186,14.3076118 L18.136039,16.4289322 L17.4289322,17.136039 L15.3076118,15.0147186 L16.0147186,14.3076118 Z M25,11 L25,14 L24,14 L24,11 L25,11 Z" id="Combined-Shape" fill="#FFFFFF"></path>
        <path d="M24.5,29 C21.4624339,29 19,26.5375661 19,23.5 C19,20.4624339 21.4624339,18 24.5,18 L24.5,29 Z" id="Oval" fill="#82B1FF"></path>
    </g>
</svg>