<?xml version="1.0" encoding="UTF-8"?>
<svg width="38px" height="38px" viewBox="0 0 38 38" version="1.1" xmlns="http://www.w3.org/2000/svg" xmlns:xlink="http://www.w3.org/1999/xlink">
    <!-- Generator: Sketch 62 (91390) - https://sketch.com -->
    <title>icon/tool/rotation_clockwise-1</title>
    <desc>Created with Sketch.</desc>
    <g id="icon/tool/rotation_clockwise-1" stroke="none" stroke-width="1" fill="none" fill-rule="evenodd">
        <g id="icon/tool/rotation_clockwise" transform="translate(19.000000, 19.000000) scale(-1, 1) translate(-19.000000, -19.000000) ">
            <g id="Group-15">
                <rect id="Rectangle-891" x="0" y="0" width="38" height="37.9408816"></rect>
                <g id="icon-._tool-._rotate_CW" transform="translate(5.000000, 10.982887)">
                    <path d="M13.0666667,2.79564391 L28,14.9101008 L13.0666667,14.9101008 L13.0666667,2.79564391 Z M13.9984234,4.77077577 L13.9627041,13.9690699 L25.2926239,14.0347404 L13.9984234,4.77077577 Z" id="Path-162" fill="#82B1FF"></path>
                    <polygon id="Path-166" fill="#FFFFFF" points="19.6 4.65940651 21.9333333 7.52745084 24.2666667 4.65940651"></polygon>
                    <polygon id="Path" fill="#FFFFFF" points="12.1333333 0 12.1333333 14.9101008 0 14.9101008"></polygon>
                    <path d="M16.8,1.8637626 L16.8,0.931881302 C16.8,0.940693228 21.72783,0.740266729 22.4418002,4.83102168 L21.5084669,4.83102168 C20.8254065,1.44232414 16.8,1.87037155 16.8,1.8637626 Z" id="Path" fill="#FFFFFF"></path>
                </g>
            </g>
        </g>
    </g>
</svg>