<?xml version="1.0" encoding="UTF-8" standalone="no"?>
<svg width="38px" height="38px" viewBox="0 0 38 38" version="1.1" xmlns="http://www.w3.org/2000/svg" xmlns:xlink="http://www.w3.org/1999/xlink">
    <!-- Generator: Sketch 43.1 (39012) - http://www.bohemiancoding.com/sketch -->
    <title>icon ._tool ._batch_parallel</title>
    <desc>Created with Sketch.</desc>
    <defs></defs>
    <g id="Symbols" stroke="none" stroke-width="1" fill="none" fill-rule="evenodd">
        <g id="icon-._tool-._batch_parallel">
            <g>
                <rect id="bg" fill-opacity="0" fill="#FFFFFF" x="0" y="0" width="38" height="38"></rect>
                <path d="M12,9 L13,9 L13,29 L12,29 L12,9 Z M14,9 L15,9 L15,29 L14,29 L14,9 Z M16,9 L17,9 L17,29 L16,29 L16,9 Z M21,9 L22,9 L22,29 L21,29 L21,9 Z M23,9 L24,9 L24,29 L23,29 L23,9 Z M25,9 L26,9 L26,29 L25,29 L25,9 Z" id="parallel_lines" fill="#FFFFFF"></path>
                <rect id="Rectangle-13" fill="#62A5BE" x="27" y="9" width="2" height="20"></rect>
                <rect id="Rectangle-12" fill="#62A5BE" x="18" y="9" width="2" height="20"></rect>
                <rect id="Path" fill="#62A5BE" x="9" y="9" width="2" height="20"></rect>
            </g>
        </g>
    </g>
</svg>