<?xml version="1.0" encoding="UTF-8" standalone="no"?>
<svg width="38px" height="38px" viewBox="0 0 38 38" version="1.1" xmlns="http://www.w3.org/2000/svg" xmlns:xlink="http://www.w3.org/1999/xlink">
    <!-- Generator: Sketch 43.1 (39012) - http://www.bohemiancoding.com/sketch -->
    <title>icon ._tool ._remove_探针</title>
    <desc>Created with Sketch.</desc>
    <defs></defs>
    <g id="Symbols" stroke="none" stroke-width="1" fill="none" fill-rule="evenodd">
        <g id="icon-._tool-._remove_探针">
            <g id="icon-._tool-._remove_body">
                <rect id="bg" fill-opacity="0" fill="#FFFFFF" x="0" y="0" width="38" height="38"></rect>
                <path d="M22.4221802,9.59211487 C21.7889739,9.18163915 21.0554844,9 20.388586,9 C18.7629604,9 18.6242557,9.37250875 17.9875736,9.69732243 C17.5868491,9.90175856 17.1767073,9.95925641 16.6462693,9.57740325 C16.2272863,9.27578458 15.4939938,8.99999999 13.9931542,9 C12.4923146,9.00000001 10,9.97726375 10,12.9214168 C10,15.8655698 13.2811112,16.780896 13.5576684,19.9993753 C13.8342257,23.2178547 13.8915838,24.6994686 13.9931543,27.0810337 C14.0958447,29.4888592 20.7957468,29.770359 20.7957468,27.0810337 C20.7957468,24.6904619 20.5489824,21.6923552 20.9332838,19.297965 C21.3175852,16.9035749 24.035512,15.763561 24.035512,12.9214169 C24.035512,12.6960949 24.0228078,12.4818528 23.9986038,12.27835 L23.0613208,13.248935 C22.9006523,15.0390461 20.4059812,16.6520611 20.034085,18.9691604 C19.6497836,21.3635505 20.0263107,24.551714 19.7948301,26.9214986 C19.6702387,28.1970037 15.2179728,28.2918072 15.0776832,26.9214986 C14.8358982,24.5598109 14.7319649,22.5261331 14.4554076,19.3076537 C14.1788504,16.0891744 11.1358669,15.6359519 11.1358669,12.9236526 C11.1358669,10.2113534 13.3189809,9.99554381 14.2150254,9.99331812 C15.1110699,9.99109243 16.5893276,10.2764314 16.5893271,12.2347039 C16.5893269,12.9381232 17.5847817,13.0282086 17.5851824,12.2347039 C17.5860401,10.5363901 19.1945531,9.78074027 20.6619394,9.99109244 C21.0515965,10.0469504 21.4040737,10.1588201 21.7116405,10.3279003 L22.4221802,9.59211487 Z" id="Combined-Shape" fill="#FFFFFF"></path>
                <path d="M23.1956306,9.8637729 C23.0702357,9.60230395 23,9.30935418 23,9 C23,7.8954305 23.8954305,7 25,7 C26.1045695,7 27,7.8954305 27,9 C27,10.1045695 26.1045695,11 25,11 C24.7302261,11 24.4729273,10.9465871 24.2381023,10.8497598 L17.0191327,18.0379542 L16.0971162,17.0227741 L23.1956306,9.8637729 Z M25,10 C25.5522847,10 26,9.55228475 26,9 C26,8.44771525 25.5522847,8 25,8 C24.4477153,8 24,8.44771525 24,9 C24,9.55228475 24.4477153,10 25,10 Z" id="Combined-Shape" fill="#62A5BE"></path>
            </g>
        </g>
    </g>
</svg>