<?xml version="1.0" encoding="UTF-8" standalone="no"?>
<svg width="38px" height="38px" viewBox="0 0 38 38" version="1.1" xmlns="http://www.w3.org/2000/svg" xmlns:xlink="http://www.w3.org/1999/xlink">
    <!-- Generator: Sketch 47.1 (45422) - http://www.bohemiancoding.com/sketch -->
    <title>icon ._tool ._适应窗口显示</title>
    <desc>Created with Sketch.</desc>
    <defs></defs>
    <g id="Symbols" stroke="none" stroke-width="1" fill="none" fill-rule="evenodd">
        <g id="icon-._tool-._适应窗口显示">
            <rect id="Rectangle-891-Copy-14" x="0" y="0.024085278" width="38" height="37.9408816"></rect>
            <rect id="Rectangle-2" fill="#FFFFFF" x="7" y="8" width="1" height="22"></rect>
            <rect id="Rectangle-2" fill="#FFFFFF" x="7" y="8" width="22" height="1"></rect>
            <rect id="Rectangle-2-Copy-2" fill="#FFFFFF" x="8" y="29" width="15" height="1"></rect>
            <rect id="Rectangle-2-Copy-3" fill="#FFFFFF" x="25" y="29" width="3" height="1"></rect>
            <rect id="Rectangle-2" fill="#FFFFFF" x="28" y="8" width="1" height="16"></rect>
            <rect id="Rectangle-2-Copy" fill="#FFFFFF" x="28" y="27" width="1" height="3"></rect>
            <path d="M29,32.9996939 C29.0169752,32.9998978 29.0339754,33 29.051,33 C31.3043218,33 33.131,31.209139 33.131,29 C33.131,26.790861 31.3043218,25 29.051,25 C29.0339754,25 29.0169752,25.0001022 29,25.0003061 L29,25.9404164 C29.0169668,25.9401392 29.0339671,25.94 29.051,25.94 C30.7409913,25.94 32.111,27.3100087 32.111,29 C32.111,30.6899913 30.7409913,32.06 29.051,32.06 C29.0339671,32.06 29.0169668,32.0598608 29,32.0595836 L29,32.9996939 Z" id="Combined-Shape" fill="#61A5BE"></path>
            <path d="M25,32 L29.4000001,32 L29.4000001,33 L25,33 L25,32 Z M23,25 L29.5,25 L29.5,26 L23,26 L23,25 Z" id="Rectangle-90" fill="#61A5BE"></path>
            <polygon id="Rectangle-91" fill="#61A5BE" points="24 28.4539654 20 25.5339654 24 22.6139653"></polygon>
            <g id="Group-2" transform="translate(9.000000, 10.000000)" fill-rule="nonzero" fill="#FFFFFF">
                <path d="M1.14644661,1.85355339 L2.72758544,3.43469222 C2.92284759,3.62995437 3.23943007,3.62995437 3.43469222,3.43469222 C3.62995437,3.23943007 3.62995437,2.92284759 3.43469222,2.72758544 L1.85355339,1.14644661 C1.65829124,0.951184464 1.34170876,0.951184464 1.14644661,1.14644661 C0.951184464,1.34170876 0.951184464,1.65829124 1.14644661,1.85355339 Z" id="Line"></path>
                <path d="M1,1.5 L1,2.5 C1,2.77614237 1.22385763,3 1.5,3 C1.77614237,3 2,2.77614237 2,2.5 L2,1.5 C2,1.22385763 1.77614237,1 1.5,1 C1.22385763,1 1,1.22385763 1,1.5 Z" id="Line"></path>
                <path d="M1.5,2 L2.5,2 C2.77614237,2 3,1.77614237 3,1.5 C3,1.22385763 2.77614237,1 2.5,1 L1.5,1 C1.22385763,1 1,1.22385763 1,1.5 C1,1.77614237 1.22385763,2 1.5,2 Z" id="Line"></path>
            </g>
            <g id="Group-2" transform="translate(25.000000, 12.000000) scale(-1, 1) translate(-25.000000, -12.000000) translate(23.000000, 10.000000)" fill-rule="nonzero" fill="#FFFFFF">
                <path d="M1.14644661,1.85355339 L2.72758544,3.43469222 C2.92284759,3.62995437 3.23943007,3.62995437 3.43469222,3.43469222 C3.62995437,3.23943007 3.62995437,2.92284759 3.43469222,2.72758544 L1.85355339,1.14644661 C1.65829124,0.951184464 1.34170876,0.951184464 1.14644661,1.14644661 C0.951184464,1.34170876 0.951184464,1.65829124 1.14644661,1.85355339 Z" id="Line"></path>
                <path d="M1,1.5 L1,2.5 C1,2.77614237 1.22385763,3 1.5,3 C1.77614237,3 2,2.77614237 2,2.5 L2,1.5 C2,1.22385763 1.77614237,1 1.5,1 C1.22385763,1 1,1.22385763 1,1.5 Z" id="Line"></path>
                <path d="M1.5,2 L2.5,2 C2.77614237,2 3,1.77614237 3,1.5 C3,1.22385763 2.77614237,1 2.5,1 L1.5,1 C1.22385763,1 1,1.22385763 1,1.5 C1,1.77614237 1.22385763,2 1.5,2 Z" id="Line"></path>
            </g>
            <g id="Group-2" transform="translate(11.000000, 26.000000) scale(1, -1) translate(-11.000000, -26.000000) translate(9.000000, 24.000000)" fill-rule="nonzero" fill="#FFFFFF">
                <path d="M1.14644661,1.85355339 L2.72758544,3.43469222 C2.92284759,3.62995437 3.23943007,3.62995437 3.43469222,3.43469222 C3.62995437,3.23943007 3.62995437,2.92284759 3.43469222,2.72758544 L1.85355339,1.14644661 C1.65829124,0.951184464 1.34170876,0.951184464 1.14644661,1.14644661 C0.951184464,1.34170876 0.951184464,1.65829124 1.14644661,1.85355339 Z" id="Line"></path>
                <path d="M1,1.5 L1,2.5 C1,2.77614237 1.22385763,3 1.5,3 C1.77614237,3 2,2.77614237 2,2.5 L2,1.5 C2,1.22385763 1.77614237,1 1.5,1 C1.22385763,1 1,1.22385763 1,1.5 Z" id="Line"></path>
                <path d="M1.5,2 L2.5,2 C2.77614237,2 3,1.77614237 3,1.5 C3,1.22385763 2.77614237,1 2.5,1 L1.5,1 C1.22385763,1 1,1.22385763 1,1.5 C1,1.77614237 1.22385763,2 1.5,2 Z" id="Line"></path>
            </g>
            <path d="M12,13 L14,13 L14,14 L12,14 L12,13 Z M15,13 L16,13 L16,14 L15,14 L15,13 Z M12,15 L13,15 L13,16 L12,16 L12,15 Z M12,17 L13,17 L13,18 L12,18 L12,17 Z M12,19 L13,19 L13,20 L12,20 L12,19 Z M12,21 L13,21 L13,22 L12,22 L12,21 Z M23,20 L24,20 L24,21 L23,21 L23,20 Z M23,18 L24,18 L24,19 L23,19 L23,18 Z M23,16 L24,16 L24,17 L23,17 L23,16 Z M23,13 L24,13 L24,15 L23,15 L23,13 Z M17,13 L18,13 L18,14 L17,14 L17,13 Z M19,13 L20,13 L20,14 L19,14 L19,13 Z M21,13 L22,13 L22,14 L21,14 L21,13 Z M12,23 L14,23 L14,24 L12,24 L12,23 Z M15,23 L16,23 L16,24 L15,24 L15,23 Z M17,23 L18,23 L18,24 L17,24 L17,23 Z M19,23 L20,23 L20,24 L19,24 L19,23 Z" id="Combined-Shape" fill="#FFFFFF"></path>
        </g>
    </g>
</svg>