<?xml version="1.0" encoding="UTF-8" standalone="no"?>
<svg width="38px" height="38px" viewBox="0 0 38 38" version="1.1" xmlns="http://www.w3.org/2000/svg" xmlns:xlink="http://www.w3.org/1999/xlink">
    <!-- Generator: Sketch 44.1 (41455) - http://www.bohemiancoding.com/sketch -->
    <title>icon ._tool ._zoom_zone1</title>
    <desc>Created with Sketch.</desc>
    <defs></defs>
    <g id="Symbols" stroke="none" stroke-width="1" fill="none" fill-rule="evenodd">
        <g id="icon-._tool-._zoom_zone1">
            <g id="icon-._tool-._zoom_zone">
                <rect id="bg" fill-opacity="0" fill="#FFFFFF" x="0" y="0" width="38" height="38"></rect>
                <g id="Group-3" transform="translate(3.500000, 5.500000)" stroke-width="1.5" stroke="#61A5BE">
                    <circle id="Oval-2" cx="15" cy="11.5" r="5.25"></circle>
                </g>
            </g>
            <path d="M26.6397236,22.2967703 L32.7367093,28.393756 C33.1191756,28.7762223 33.1272256,29.4139592 32.7388465,29.8023382 L31.8431662,30.6980185 C31.4600444,31.0811404 30.8241434,31.0854407 30.434584,30.6958813 L24.4597158,24.7210131 C22.8339959,26.0032047 20.7815031,26.7683341 18.5503047,26.7683341 C13.2758171,26.7683341 9,22.492517 9,17.2180294 C9,11.9435417 13.2758171,7.66772461 18.5503047,7.66772461 C23.8247924,7.66772461 28.1006095,11.9435417 28.1006095,17.2180294 C28.1006095,19.084379 27.5652512,20.825689 26.6397236,22.2967703 Z M18.5148771,25.6717615 C23.2033106,25.6717615 27.0040369,21.8710352 27.0040369,17.1826017 C27.0040369,12.4941682 23.2033106,8.69344195 18.5148771,8.69344195 C13.8264436,8.69344195 10.0257173,12.4941682 10.0257173,17.1826017 C10.0257173,21.8710352 13.8264436,25.6717615 18.5148771,25.6717615 Z" id="Oval-5" fill="#EEEEEE"></path>
        </g>
    </g>
</svg>