<?xml version="1.0" encoding="UTF-8" standalone="no"?>
<svg width="38px" height="38px" viewBox="0 0 38 38" version="1.1" xmlns="http://www.w3.org/2000/svg" xmlns:xlink="http://www.w3.org/1999/xlink">
    <!-- Generator: Sketch 43.1 (39012) - http://www.bohemiancoding.com/sketch -->
    <title>icon ._tool ._cut</title>
    <desc>Created with Sketch.</desc>
    <defs></defs>
    <g id="Symbols" stroke="none" stroke-width="1" fill="none" fill-rule="evenodd">
        <g id="icon-._tool-._cut">
            <g id="Group" transform="translate(8.000000, 6.000000)">
                <path d="M9.00994916,19.2924165 C9.38607256,19.9771579 9.6,20.7635962 9.6,21.6 C9.6,24.2509668 7.4509668,26.4 4.8,26.4 C2.1490332,26.4 0,24.2509668 0,21.6 C0,19.0033602 2.06185433,16.8882922 4.63766569,16.8026934 L19.2,0 L19.2,1.39608994 C19.2,1.95980301 18.9686243,2.78355991 18.6832079,3.25670505 L9.00994916,19.2924165 Z M4.8,24.6 C6.45685425,24.6 7.8,23.2568542 7.8,21.6 C7.8,19.9431458 6.45685425,18.6 4.8,18.6 C3.14314575,18.6 1.8,19.9431458 1.8,21.6 C1.8,23.2568542 3.14314575,24.6 4.8,24.6 Z M10.8,14.4 C11.4627417,14.4 12,13.8627417 12,13.2 C12,12.5372583 11.4627417,12 10.8,12 C10.1372583,12 9.6,12.5372583 9.6,13.2 C9.6,13.8627417 10.1372583,14.4 10.8,14.4 Z" id="cut" fill="#EEEEEE"></path>
                <path d="M16.9623343,16.8026934 C19.5381457,16.8882922 21.6,19.0033602 21.6,21.6 C21.6,24.2509668 19.4509668,26.4 16.8,26.4 C14.1490332,26.4 12,24.2509668 12,21.6 C12,20.7635962 12.2139274,19.9771579 12.5900508,19.2924165 L2.91679213,3.25670505 C2.63137572,2.78355991 2.4,1.95980301 2.4,1.39608994 L2.4,0 L16.9623343,16.8026934 Z M16.8,24.6 C18.4568542,24.6 19.8,23.2568542 19.8,21.6 C19.8,19.9431458 18.4568542,18.6 16.8,18.6 C15.1431458,18.6 13.8,19.9431458 13.8,21.6 C13.8,23.2568542 15.1431458,24.6 16.8,24.6 Z M10.8,14.4 C11.4627417,14.4 12,13.8627417 12,13.2 C12,12.5372583 11.4627417,12 10.8,12 C10.1372583,12 9.6,12.5372583 9.6,13.2 C9.6,13.8627417 10.1372583,14.4 10.8,14.4 Z" id="cut" fill="#65A5BD"></path>
            </g>
        </g>
    </g>
</svg>