<?xml version="1.0" encoding="UTF-8" standalone="no"?>
<svg width="38px" height="38px" viewBox="0 0 38 38" version="1.1" xmlns="http://www.w3.org/2000/svg" xmlns:xlink="http://www.w3.org/1999/xlink">
    <!-- Generator: Sketch 43.1 (39012) - http://www.bohemiancoding.com/sketch -->
    <title>icon.定义校准基线</title>
    <desc>Created with Sketch.</desc>
    <defs>
        <path d="M0,20 L27,20 L27,21 L0,21 L0,20 Z M0,17 L1,17 L1,20 L0,20 L0,17 Z M7,18 L8,18 L8,20 L7,20 L7,18 Z M20,18 L21,18 L21,20 L20,20 L20,18 Z M13,17 L14,17 L14,20 L13,20 L13,17 Z M26,17 L27,17 L27,20 L26,20 L26,17 Z" id="path-1"></path>
        <filter x="-1.9%" y="-12.5%" width="103.7%" height="150.0%" filterUnits="objectBoundingBox" id="filter-2">
            <feOffset dx="0" dy="1" in="SourceAlpha" result="shadowOffsetOuter1"></feOffset>
            <feColorMatrix values="0 0 0 0 1   0 0 0 0 1   0 0 0 0 1  0 0 0 0.6 0" type="matrix" in="shadowOffsetOuter1"></feColorMatrix>
        </filter>
    </defs>
    <g id="Symbols" stroke="none" stroke-width="1" fill="none" fill-rule="evenodd">
        <g id="icon.定义校准基线">
            <g id="icon-.motion_correction_baseline" transform="translate(6.000000, 8.000000)">
                <g id="Combined-Shape">
                    <use fill="black" fill-opacity="1" filter="url(#filter-2)" xlink:href="#path-1"></use>
                    <use fill="#EEEEEE" fill-rule="evenodd" xlink:href="#path-1"></use>
                </g>
                <path d="M6.95839993,9.75841455 C7.28842045,9.87791002 7.63629206,9.96013354 7.99692966,10 L7.99692966,9.24427888 C7.67727295,9.45787126 7.32872903,9.63161716 6.95839993,9.75841455 Z M6.95839993,1.24158545 C7.28842045,1.12208998 7.63629206,1.03986646 7.99692966,1 L7.99692966,1.75572112 C7.67727295,1.54212874 7.32872903,1.36838284 6.95839993,1.24158545 Z M12.1454884,8.18561929 C11.875432,8.55158547 11.5515855,8.87543204 11.1856193,9.14548838 L10.6784327,8.26701536 C10.8970176,8.0946894 11.0946894,7.89701761 11.2670154,7.67843265 L12.1454884,8.18561929 Z M12.649298,7.3147027 C12.8285057,6.90552726 12.9489628,6.46476004 13,6.00307034 L11.9858303,6.00307034 C11.9457613,6.28319671 11.8727248,6.55268817 11.7707769,6.80748833 L12.649298,7.3147027 Z M11.1856193,1.85451162 C11.5515855,2.12456796 11.875432,2.44841453 12.1454884,2.81438071 L11.2670154,3.32156735 C11.0946894,3.10298239 10.8970176,2.9053106 10.6784327,2.73298464 L11.1856193,1.85451162 Z M10.3147027,1.35070204 C9.90552726,1.17149432 9.46476004,1.05103721 9.00307034,1 L9.00307034,2.01416972 C9.28319671,2.05423866 9.55268817,2.12727525 9.80748833,2.2292231 L10.3147027,1.35070204 Z M10.3147027,9.64929796 C9.90552726,9.82850568 9.46476004,9.94896279 9.00307034,10 L9.00307034,8.98583028 C9.28319671,8.94576134 9.55268817,8.87272475 9.80748833,8.7707769 L10.3147027,9.64929796 Z M12.649298,3.6852973 C12.8285057,4.09447274 12.9489628,4.53523996 13,4.99692966 L11.9858303,4.99692966 C11.9457613,4.71680329 11.8727248,4.44731183 11.7707769,4.19251167 L12.649298,3.6852973 Z" id="Combined-Shape" fill="#EEEEEE"></path>
                <path d="M1.85451162,2.81438071 C2.12456796,2.44841453 2.44841453,2.12456796 2.81438071,1.85451162 L3.32156735,2.73298464 C3.10298239,2.9053106 2.9053106,3.10298239 2.73298464,3.32156735 L1.85451162,2.81438071 Z M1.35070204,3.6852973 C1.17149432,4.09447274 1.05103721,4.53523996 1,4.99692966 L2.01416972,4.99692966 C2.05423866,4.71680329 2.12727525,4.44731183 2.2292231,4.19251167 L1.35070204,3.6852973 Z M9.14548838,8.18561929 C8.87543204,8.55158547 8.55158547,8.87543204 8.18561929,9.14548838 L7.67843265,8.26701536 C7.89701761,8.0946894 8.0946894,7.89701761 8.26701536,7.67843265 L9.14548838,8.18561929 Z M9.64929796,7.3147027 C9.82850568,6.90552726 9.94896279,6.46476004 10,6.00307034 L8.98583028,6.00307034 C8.94576134,6.28319671 8.87272475,6.55268817 8.7707769,6.80748833 L9.64929796,7.3147027 Z M2.81438071,9.14548838 C2.44841453,8.87543204 2.12456796,8.55158547 1.85451162,8.18561929 L2.73298464,7.67843265 C2.9053106,7.89701761 3.10298239,8.0946894 3.32156735,8.26701536 L2.81438071,9.14548838 Z M3.6852973,9.64929796 C4.09447274,9.82850568 4.53523996,9.94896279 4.99692966,10 L4.99692966,8.98583028 C4.71680329,8.94576134 4.44731183,8.87272475 4.19251167,8.7707769 L3.6852973,9.64929796 Z M8.18561929,1.85451162 C8.55158547,2.12456796 8.87543204,2.44841453 9.14548838,2.81438071 L8.26701536,3.32156735 C8.0946894,3.10298239 7.89701761,2.9053106 7.67843265,2.73298464 L8.18561929,1.85451162 Z M7.3147027,1.35070204 C6.90552726,1.17149432 6.46476004,1.05103721 6.00307034,1 L6.00307034,2.01416972 C6.28319671,2.05423866 6.55268817,2.12727525 6.80748833,2.2292231 L7.3147027,1.35070204 Z M3.6852973,1.35070204 C4.09447274,1.17149432 4.53523996,1.05103721 4.99692966,1 L4.99692966,2.01416972 C4.71680329,2.05423866 4.44731183,2.12727525 4.19251167,2.2292231 L3.6852973,1.35070204 Z M7.3147027,9.64929796 C6.90552726,9.82850568 6.46476004,9.94896279 6.00307034,10 L6.00307034,8.98583028 C6.28319671,8.94576134 6.55268817,8.87272475 6.80748833,8.7707769 L7.3147027,9.64929796 Z M1.35070204,7.3147027 C1.17149432,6.90552726 1.05103721,6.46476004 1,6.00307034 L2.01416972,6.00307034 C2.05423866,6.28319671 2.12727525,6.55268817 2.2292231,6.80748833 L1.35070204,7.3147027 Z M9.64929796,3.6852973 C9.82850568,4.09447274 9.94896279,4.53523996 10,4.99692966 L8.98583028,4.99692966 C8.94576134,4.71680329 8.87272475,4.44731183 8.7707769,4.19251167 L9.64929796,3.6852973 Z" id="Combined-Shape" fill="#EEEEEE"></path>
                <path d="M0,5 L4,5 L4,6 L0,6 L0,5 Z M5,0 L6,0 L6,4 L5,4 L5,0 Z M5,7 L6,7 L6,11 L5,11 L5,7 Z M7,5 L11,5 L11,6 L7,6 L7,5 Z" id="Combined-Shape" fill="#EEEEEE"></path>
                <polygon id="Path-2" fill="#61A5BE" points="16 1 20 8 20 17 20 17 21 17 21 8 25 1"></polygon>
            </g>
        </g>
    </g>
</svg>