<?xml version="1.0" encoding="UTF-8"?>
<svg width="38px" height="38px" viewBox="0 0 38 38" version="1.1" xmlns="http://www.w3.org/2000/svg" xmlns:xlink="http://www.w3.org/1999/xlink">
    <!-- Generator: Sketch 62 (91390) - https://sketch.com -->
    <title>icon/tool/删除当前页图像</title>
    <desc>Created with Sketch.</desc>
    <g id="icon/tool/删除当前页图像" stroke="none" stroke-width="1" fill="none" fill-rule="evenodd">
        <rect id="bg" fill-opacity="0" fill="#FFFFFF" x="0" y="0" width="38" height="38"></rect>
        <path d="M27,14 L26,14 L26,6 L17,6 L17,17 L7,17 L7,26 L17,26 L17,27 L6,27 L6,5 L27,5 L27,14 Z M16,6 L7,6 L7,16 L16,16 L16,6 Z" id="Combined-Shape" fill="#FFFFFF"></path>
        <path d="M29.8461553,21.3406474 L27.6969806,32 L20.1975418,31.9954833 L18.1489655,21.3486543 L29.8461553,21.3406474 Z M22.3495609,22.409486 L21.2796487,22.409486 L21.2796487,30.9554674 L22.3495609,30.9554674 L22.3495609,22.409486 Z M24.4893853,22.409486 L23.4194731,22.409486 L23.4194731,30.9554674 L24.4893853,30.9554674 L24.4893853,22.409486 Z M26.6292096,22.409486 L25.5592975,22.409486 L25.5592975,30.9554674 L26.6292096,30.9554674 L26.6292096,22.409486 Z M26.6292096,16 L26.6292096,18.1364953 L29.8389462,18.1364953 L30.9088584,20.2729907 L17,20.2729907 L18.0699122,18.1364953 L21.2796487,18.1364953 L21.2796487,16 L26.6292096,16 Z M25.5592975,17.0682477 L22.3495609,17.0682477 L22.3495609,18.1364953 L25.5592975,18.1364953 L25.5592975,17.0682477 Z" id="Rectangle-537" fill="#82B1FF"></path>
    </g>
</svg>