<?xml version="1.0" encoding="UTF-8" standalone="no"?>
<svg width="38px" height="38px" viewBox="0 0 38 38" version="1.1" xmlns="http://www.w3.org/2000/svg" xmlns:xlink="http://www.w3.org/1999/xlink">
    <!-- Generator: Sketch 43.1 (39012) - http://www.bohemiancoding.com/sketch -->
    <title>icon.ROI.删除所有ROI分析</title>
    <desc>Created with Sketch.</desc>
    <defs></defs>
    <g id="Symbols" stroke="none" stroke-width="1" fill="none" fill-rule="evenodd">
        <g id="icon.ROI.删除所有ROI分析">
            <path d="M29,13.5 C29,11.0147186 26.9852814,9 24.5,9 C22.0147186,9 20,11.0147186 20,13.5" id="Oval-4" stroke="#61A5BE"></path>
            <path d="M8.80901699,29.5 L13,21.118034 L17.190983,29.5 L8.80901699,29.5 Z" id="Rectangle-2" stroke="#61A5BE"></path>
            <rect id="Rectangle-3" stroke="#61A5BE" x="8.5" y="9.5" width="8" height="8"></rect>
            <path d="M22.3076923,14 L27.6923077,14 L27.6923077,16.1538462 L30.9230769,16.1538462 L32,18.3076923 L18,18.3076923 L19.0769231,16.1538462 L22.3076923,16.1538462 L22.3076923,14 Z M23.3846154,15.0769231 L23.3846154,16.1538462 L26.6153846,16.1538462 L26.6153846,15.0769231 L23.3846154,15.0769231 Z M19.1564944,19.3920915 L30.9303333,19.3840197 L28.7670755,30.1299385 L21.2184946,30.1253852 L19.1564944,19.3920915 Z M22.3076923,20.4615385 L22.3076923,29.0769231 L23.3846154,29.0769231 L23.3846154,20.4615385 L22.3076923,20.4615385 Z M24.4615385,20.4615385 L24.4615385,29.0769231 L25.5384615,29.0769231 L25.5384615,20.4615385 L24.4615385,20.4615385 Z M26.6153846,20.4615385 L26.6153846,29.0769231 L27.6923077,29.0769231 L27.6923077,20.4615385 L26.6153846,20.4615385 Z" id="Rectangle-537" fill="#EEEEEE"></path>
        </g>
    </g>
</svg>