<?xml version="1.0" encoding="UTF-8" standalone="no"?>
<svg width="38px" height="38px" viewBox="0 0 38 38" version="1.1" xmlns="http://www.w3.org/2000/svg" xmlns:xlink="http://www.w3.org/1999/xlink">
    <!-- Generator: Sketch 43.1 (39012) - http://www.bohemiancoding.com/sketch -->
    <title>icon.删除时间点</title>
    <desc>Created with Sketch.</desc>
    <defs></defs>
    <g id="Symbols" stroke="none" stroke-width="1" fill="none" fill-rule="evenodd">
        <g id="icon.删除时间点">
            <path d="M6,21 L33,21 L33,22 L6,22 L6,21 Z M6,18 L7,18 L7,21 L6,21 L6,18 Z M13,19 L14,19 L14,21 L13,21 L13,19 Z M26,19 L27,19 L27,21 L26,21 L26,19 Z M19,18 L20,18 L20,21 L19,21 L19,18 Z M32,18 L33,18 L33,21 L32,21 L32,18 Z" id="Combined-Shape" fill="#EEEEEE"></path>
            <path d="M23.8181818,24.8181818 L19.7272727,24.8181818 L19.7272727,26.1818182 L23.8181818,26.1818182 L23.8181818,30.2727273 L25.1818182,30.2727273 L25.1818182,26.1818182 L29.2727273,26.1818182 L29.2727273,24.8181818 L25.1818182,24.8181818 L25.1818182,20.7272727 L23.8181818,20.7272727 L23.8181818,24.8181818 Z M24.5,33 C20.3578644,33 17,29.6421356 17,25.5 C17,21.3578644 20.3578644,18 24.5,18 C28.6421356,18 32,21.3578644 32,25.5 C32,29.6421356 28.6421356,33 24.5,33 Z" id="Combined-Shape" fill="#61A5BE" transform="translate(24.500000, 25.500000) rotate(45.000000) translate(-24.500000, -25.500000) "></path>
            <path d="M10,10 L11,10 L11,13 L10,13 L10,10 Z M10,13 L14,13 L14,14 L10,14 L10,13 Z" id="Combined-Shape" fill="#EEEEEE"></path>
            <path d="M11,18 C13.7614237,18 16,15.7614237 16,13 C16,10.2385763 13.7614237,8 11,8 C8.23857625,8 6,10.2385763 6,13 C6,15.7614237 8.23857625,18 11,18 Z" id="Oval-6" stroke="#EEEEEE"></path>
        </g>
    </g>
</svg>