<?xml version="1.0" encoding="UTF-8" standalone="no"?>
<svg width="38px" height="38px" viewBox="0 0 38 38" version="1.1" xmlns="http://www.w3.org/2000/svg" xmlns:xlink="http://www.w3.org/1999/xlink">
    <!-- Generator: Sketch 43.1 (39012) - http://www.bohemiancoding.com/sketch -->
    <title>icon_DSA</title>
    <desc>Created with Sketch.</desc>
    <defs></defs>
    <g id="Symbols" stroke="none" stroke-width="1" fill="none" fill-rule="evenodd">
        <g id="icon_DSA" fill="#EEEEEE">
            <path d="M5,25.0755906 L5,13.2945266 L8.59124088,13.2945266 C9.66180584,13.2945266 10.5267607,13.4245415 11.1861314,13.6845753 C11.8455021,13.9446091 12.416056,14.3850679 12.8978102,15.0059649 C13.6618043,15.993032 14.0437956,17.2931815 14.0437956,18.9064524 C14.0437956,20.864666 13.5693478,22.3823915 12.620438,23.4596744 C11.6715281,24.5369572 10.335775,25.0755906 8.61313869,25.0755906 L5,25.0755906 Z M6.53284672,23.8258426 L8.49635036,23.8258426 C9.89781723,23.8258426 10.890508,23.4145708 11.4744526,22.5920149 C12.1021929,21.7163909 12.4160584,20.5409497 12.4160584,19.0656559 C12.4160584,17.680578 12.1070591,16.5926978 11.4890511,15.8019828 C11.1143534,15.3190629 10.6666693,14.9887188 10.1459854,14.8109406 C9.62530153,14.6331624 8.84185438,14.5442746 7.79562044,14.5442746 L6.53284672,14.5442746 L6.53284672,23.8258426 Z M18.3138686,25.3701172 C17.5888042,25.3701172 16.6618061,25.1976484 15.5328467,24.8527056 L15.5328467,23.1969885 C16.7493978,23.8125787 17.7493878,24.1203692 18.5328467,24.1203692 C19.1362561,24.1203692 19.6216527,23.9479004 19.9890511,23.6029576 C20.3564495,23.2580148 20.540146,22.8042892 20.540146,22.2417671 C20.540146,21.7800744 20.4197092,21.3873762 20.1788321,21.0636607 C19.937955,20.7399452 19.4939205,20.3790873 18.8467153,19.9810764 L18.1021898,19.5114259 C17.1824772,18.9382902 16.5340651,18.3983302 16.1569343,17.8915296 C15.7798035,17.3847291 15.5912409,16.7943551 15.5912409,16.1203899 C15.5912409,15.212925 15.892941,14.4660024 16.4963504,13.8795997 C17.0997597,13.293197 17.8686085,13 18.8029197,13 C19.6350407,13 20.5133774,13.1512419 21.4379562,13.4537302 L21.4379562,14.9820844 C20.2992644,14.4938577 19.4501245,14.249748 18.8905109,14.249748 C18.3600947,14.249748 17.9221428,14.4036432 17.5766423,14.7114383 C17.2311418,15.0192335 17.0583942,15.4066249 17.0583942,15.8736244 C17.0583942,16.2663285 17.1849136,16.6139195 17.4379562,16.9164078 C17.6909988,17.218896 18.1532813,17.5797539 18.8248175,17.998992 L19.5985401,18.4766027 C20.5328514,19.0550452 21.184913,19.6016387 21.5547445,20.1163995 C21.9245761,20.6311602 22.1094891,21.2493946 22.1094891,21.971121 C22.1094891,22.9953358 21.7627772,23.8178793 21.0693431,24.4387763 C20.3759089,25.0596733 19.4574266,25.3701172 18.3138686,25.3701172 L18.3138686,25.3701172 Z M29.7226277,20.5701296 L27.8832117,15.4915358 L26.0364964,20.5701296 L29.7226277,20.5701296 Z M31.3430657,25.0755906 L30.1678832,21.8119175 L25.5912409,21.8119175 L24.4014599,25.0755906 L22.9781022,25.0755906 L27.2627737,13.2945266 L28.7810219,13.2945266 L33,25.0755906 L31.3430657,25.0755906 Z" id="DSA"></path>
        </g>
    </g>
</svg>