<?xml version="1.0" encoding="UTF-8" standalone="no"?>
<svg width="38px" height="38px" viewBox="0 0 38 38" version="1.1" xmlns="http://www.w3.org/2000/svg" xmlns:xlink="http://www.w3.org/1999/xlink">
    <!-- Generator: Sketch 43.1 (39012) - http://www.bohemiancoding.com/sketch -->
    <title>icon.vessel.截面轮廓编辑</title>
    <desc>Created with Sketch.</desc>
    <defs></defs>
    <g id="Symbols" stroke="none" stroke-width="1" fill="none" fill-rule="evenodd">
        <g id="icon.vessel.截面轮廓编辑">
            <path d="M23.3471372,11.3957661 C22.0178015,10.7164774 20.5119781,10.3333333 18.9166667,10.3333333 C13.5318904,10.3333333 9.16666667,14.698557 9.16666667,20.0833333 C9.16666667,25.4681096 13.5318904,29.8333333 18.9166667,29.8333333 C24.301443,29.8333333 28.6666667,25.4681096 28.6666667,20.0833333 C28.6666667,18.5411849 28.3086333,17.0826596 27.6711549,15.786346 L26.8419505,16.5707068 C27.3185329,17.6443891 27.5833333,18.8329375 27.5833333,20.0833333 C27.5833333,24.8698012 23.7031345,28.75 18.9166667,28.75 C14.1301988,28.75 10.25,24.8698012 10.25,20.0833333 C10.25,15.2968655 14.1301988,11.4166667 18.9166667,11.4166667 C20.1853316,11.4166667 21.3903286,11.6892615 22.4762812,12.1790745 L23.3471372,11.3957661 Z" id="Combined-Shape" fill="#EEEEEE"></path>
            <path d="M26.5,17.9166667 L30.8333333,17.9166667 L30.8333333,22.25 L26.5,22.25 L26.5,17.9166667 Z M7,17.9166667 L11.3333333,17.9166667 L11.3333333,22.25 L7,22.25 L7,17.9166667 Z M16.75,27.6666667 L21.0833333,27.6666667 L21.0833333,32 L16.75,32 L16.75,27.6666667 Z M16.75,8.16666667 L21.0833333,8.16666667 L21.0833333,12.5 L16.75,12.5 L16.75,8.16666667 Z" id="Rectangle-1086" fill="#61A5BE"></path>
            <polygon id="Path-81" fill="#EEEEEE" points="30.8333333 6 22.1666667 14.6666667 21.0833333 17.9166667 24.3333333 16.8333333 33 8.16666667"></polygon>
        </g>
    </g>
</svg>