<?xml version="1.0" encoding="UTF-8" standalone="no"?>
<svg width="63px" height="45px" viewBox="0 0 63 45" version="1.1" xmlns="http://www.w3.org/2000/svg" xmlns:xlink="http://www.w3.org/1999/xlink">
    <!-- Generator: Sketch 43.1 (39012) - http://www.bohemiancoding.com/sketch -->
    <title>icon.vessel.layout.9</title>
    <desc>Created with Sketch.</desc>
    <defs></defs>
    <g id="Symbols" stroke="none" stroke-width="1" fill="none" fill-rule="evenodd">
        <g id="icon.vessel.layout.9">
            <g id="Group-Copy-5">
                <polygon id="Combined-Shape" fill="#EEEEEE" points="63 0 63 45 0 45 0 0"></polygon>
                <polygon id="Path" fill="#61A5BE" points="2 2 61 2 61 43 2 43"></polygon>
                <text id="VR" font-family="ArialMT, Arial" font-size="10" font-weight="normal" letter-spacing="-0.636363626" fill="#EEEEEE">
                    <tspan x="8.69056284" y="16">VR</tspan>
                </text>
                <text id="A" font-family="ArialMT, Arial" font-size="10" font-weight="normal" letter-spacing="-0.636363626" fill="#EEEEEE">
                    <tspan x="12.4832209" y="36">A</tspan>
                </text>
                <text id="C" font-family="ArialMT, Arial" font-size="10" font-weight="normal" letter-spacing="-0.636363626" fill="#EEEEEE">
                    <tspan x="40.207342" y="26">C</tspan>
                </text>
                <text id="S" font-family="ArialMT, Arial" font-size="10" font-weight="normal" letter-spacing="-0.636363626" fill="#EEEEEE">
                    <tspan x="52.4832209" y="26">S</tspan>
                </text>
                <rect id="Rectangle-1853" fill="#EEEEEE" x="2" y="22" width="27" height="1"></rect>
                <rect id="Rectangle-1853" fill="#EEEEEE" x="29" y="11" width="10" height="1"></rect>
                <rect id="Rectangle-1853" fill="#EEEEEE" x="29" y="19" width="10" height="1"></rect>
                <rect id="Rectangle-1853" fill="#EEEEEE" x="29" y="28" width="10" height="1"></rect>
                <rect id="Rectangle-1853" fill="#EEEEEE" x="29" y="36" width="10" height="1"></rect>
                <polygon id="Rectangle-1853" fill="#EEEEEE" points="39 1 39 44 38 44 38 1"></polygon>
                <polygon id="Rectangle-1853" fill="#EEEEEE" points="30 1 30 44 29 44 29 1"></polygon>
                <polygon id="Rectangle-1853" fill="#EEEEEE" points="50 1 50 44 49 44 49 1"></polygon>
            </g>
        </g>
    </g>
</svg>