<?xml version="1.0" encoding="UTF-8" standalone="no"?>
<svg width="38px" height="38px" viewBox="0 0 38 38" version="1.1" xmlns="http://www.w3.org/2000/svg" xmlns:xlink="http://www.w3.org/1999/xlink">
    <!-- Generator: Sketch 43.1 (39012) - http://www.bohemiancoding.com/sketch -->
    <title>icon.vessel.隐藏其他中心线</title>
    <desc>Created with Sketch.</desc>
    <defs></defs>
    <g id="Symbols" stroke="none" stroke-width="1" fill="none" fill-rule="evenodd">
        <g id="icon.vessel.隐藏其他中心线">
            <g id="Group" transform="translate(0.000000, 4.000000)">
                <path d="M16.1612304,0.105389747 C12.7275396,3.88414374 7.30834139,11.1283999 11.1411897,16.9015223 C14.974038,22.6746447 19.5482845,22.7106173 22.1203832,28.3448127" id="Path-249" stroke="#61A5BE" transform="translate(15.972576, 14.225101) rotate(53.000000) translate(-15.972576, -14.225101) "></path>
                <circle id="Oval-18" fill="#61A5BE" transform="translate(27.100676, 6.100676) rotate(53.000000) translate(-27.100676, -6.100676) " cx="27.1006758" cy="6.1006758" r="1.5"></circle>
                <path d="M11.1006758,13.6006758 C11.9291029,13.6006758 12.6006758,12.9291029 12.6006758,12.1006758 C12.6006758,11.2722487 11.9291029,10.6006758 11.1006758,10.6006758 C10.2722487,10.6006758 9.6006758,11.2722487 9.6006758,12.1006758 C9.6006758,12.9291029 10.2722487,13.6006758 11.1006758,13.6006758 Z" id="Oval-18" fill="#61A5BE" transform="translate(11.100676, 12.100676) rotate(53.000000) translate(-11.100676, -12.100676) "></path>
                <circle id="Oval-18" fill="#61A5BE" transform="translate(8.100676, 28.100676) rotate(53.000000) translate(-8.100676, -28.100676) " cx="8.1006758" cy="28.1006758" r="1.5"></circle>
            </g>
            <g id="Group" transform="translate(19.081475, 16.253048) rotate(-45.000000) translate(-19.081475, -16.253048) translate(12.081475, 8.753048)">
                <path d="M4.38439982,2.10193888 C4.68948804,2.79266396 2.1956599,7.02107569 3.85520934,10.2056243 C5.51475879,13.390173 9.27994296,13.1605569 10.3759837,12.9530192" id="Path-249" stroke="#61A5BE" transform="translate(6.828283, 7.580536) rotate(53.000000) translate(-6.828283, -7.580536) "></path>
                <path d="M9.94333872,4.00395318 C10.7717658,4.00395318 11.4433387,3.3323803 11.4433387,2.50395318 C11.4433387,1.67552605 10.7717658,1.00395318 9.94333872,1.00395318 C9.11491159,1.00395318 8.44333872,1.67552605 8.44333872,2.50395318 C8.44333872,3.3323803 9.11491159,4.00395318 9.94333872,4.00395318 Z" id="Oval-18" fill="#61A5BE" transform="translate(9.943339, 2.503953) rotate(53.000000) translate(-9.943339, -2.503953) "></path>
                <path d="M3.90363401,7.35422875 C4.73206113,7.35422875 5.40363401,6.68265587 5.40363401,5.85422875 C5.40363401,5.02580162 4.73206113,4.35422875 3.90363401,4.35422875 C3.07520688,4.35422875 2.40363401,5.02580162 2.40363401,5.85422875 C2.40363401,6.68265587 3.07520688,7.35422875 3.90363401,7.35422875 Z" id="Oval-18" fill="#61A5BE" transform="translate(3.903634, 5.854229) rotate(53.000000) translate(-3.903634, -5.854229) "></path>
                <circle id="Oval-18" fill="#61A5BE" transform="translate(4.084403, 12.643247) rotate(53.000000) translate(-4.084403, -12.643247) " cx="4.08440282" cy="12.6432471" r="1.5"></circle>
            </g>
            <g id="Group-3" transform="translate(15.000000, 21.000000)" fill="#EEEEEE">
                <path d="M3.2542822,3.22273786 L4.90756389,4.87601955 C4.64588364,5.44654872 4.5,6.08123789 4.5,6.75 C4.5,9.23528137 6.51471863,11.25 9,11.25 C9.66876211,11.25 10.3034513,11.1041164 10.8739805,10.8424361 L11.9001072,11.8685629 C11.0176083,12.1824349 10.0488061,12.375 9,12.375 C3.4031471,12.375 0,6.75 0,6.75 C0,6.75 1.16411012,4.82138076 3.2542822,3.22273786 Z M6.09359529,1.64214298 C6.97985527,1.32194957 7.95124628,1.125 9,1.125 C14.604763,1.125 18,6.75 18,6.75 C18,6.75 16.8485968,8.69405834 14.7478566,10.2964043 L13.0870757,8.63562343 C13.3521233,8.06209119 13.5,7.42331482 13.5,6.75 C13.5,4.26471863 11.4852814,2.25 9,2.25 C8.32668518,2.25 7.68790881,2.39787665 7.11437657,2.66292427 L6.09359529,1.64214298 Z" id="Oval-22"></path>
                <polygon id="Path-345" points="3.35457297 0 15.7774267 12.4228537 14.6924727 13.5078077 2.25 1.065335"></polygon>
            </g>
        </g>
    </g>
</svg>