<?xml version="1.0" encoding="UTF-8"?>
<svg width="40px" height="40px" viewBox="0 0 40 40" version="1.1" xmlns="http://www.w3.org/2000/svg" xmlns:xlink="http://www.w3.org/1999/xlink">
    <!-- Generator: Sketch 64 (93537) - https://sketch.com -->
    <title>icon/light/icon_light_unknown-1</title>
    <desc>Created with Sketch.</desc>
    <g id="icon/light/icon_light_unknown-1" stroke="none" stroke-width="1" fill="none" fill-rule="evenodd">
        <path d="M15.5263393,24.1236185 C16.6309088,24.1236185 17.5263393,25.019049 17.5263393,26.1236185 C17.5263393,27.228188 16.6309088,28.1236185 15.5263393,28.1236185 C14.4217698,28.1236185 13.5263393,27.228188 13.5263393,26.1236185 C13.5263393,25.963604 13.545131,25.8079786 13.5806278,25.6588286 C13.4272778,25.6003933 13.2754634,25.5395843 13.1253579,25.4771191 L13.1253579,25.4771191 L13.5095607,24.5538704 C13.6888628,24.6284855 13.8708629,24.7006484 14.0555629,24.7703574 C14.4207282,24.3720583 14.9445206,24.1236185 15.5263393,24.1236185 Z M10.9536884,23.2061452 C11.4820935,23.5541698 12.0430388,23.8724343 12.6366631,24.1609198 L12.6366631,24.1609198 L12.1995707,25.0603364 C11.5673263,24.7530826 10.9686372,24.4134033 10.4036422,24.0412795 L10.4036422,24.0412795 Z M8.69816087,21.3399786 C9.14224727,21.8001456 9.62112699,22.2278288 10.1349706,22.6231335 L10.1349706,22.6231335 L9.52522071,23.4157274 C8.9725332,22.9905398 8.45693385,22.5300626 7.97859317,22.0344009 L7.97859317,22.0344009 Z M6.93460096,19.0505346 C7.27342293,19.6061944 7.64635793,20.1292136 8.05347085,20.6197721 L8.05347085,20.6197721 L7.28395056,21.2583945 C6.84577457,20.7304059 6.44470548,20.1679303 6.0808082,19.5711476 L6.0808082,19.5711476 Z" id="形状结合" fill="#82B1FF" transform="translate(11.803574, 23.587077) rotate(80.000000) translate(-11.803574, -23.587077) "></path>
        <path d="M26,18 L26,23 L31,23 L31,24 L26,24 L26,29 L25,29 L25,24 L20,24 L20,23 L25,23 L25,18 L26,18 Z M24.0890282,9.96961551 C25.1768168,9.77780903 26.2141335,10.504146 26.40594,11.5919347 C26.5977465,12.6797233 25.8714095,13.71704 24.7836209,13.9088465 C24.1273517,14.0245645 23.4894532,13.8060985 23.0445077,13.3756926 C20.4167185,14.4726903 18.3989064,15.5446646 16.9938699,16.5820187 C17.119538,16.7864929 17.20835,17.0175142 17.2524552,17.2676474 C17.4442617,18.3554361 16.7179247,19.3927528 15.630136,19.5845593 C14.5423474,19.7763658 13.5050307,19.0500288 13.3132242,17.9622402 C13.1214177,16.8744515 13.8477547,15.8371348 14.9355433,15.6453283 C15.4125654,15.5612164 15.8798815,15.6536671 16.2704462,15.8757344 C17.7382449,14.7647521 19.820595,13.6460797 22.5204754,12.5102081 C22.4980062,12.4383207 22.4802505,12.3633248 22.466709,12.2865274 C22.2749025,11.1987388 23.0012395,10.161422 24.0890282,9.96961551 Z" id="形状结合" fill="#FFFFFF" fill-rule="nonzero"></path>
    </g>
</svg>