<?xml version="1.0" encoding="UTF-8"?>
<svg width="38px" height="38px" viewBox="0 0 38 38" version="1.1" xmlns="http://www.w3.org/2000/svg" xmlns:xlink="http://www.w3.org/1999/xlink">
    <!-- Generator: Sketch 62 (91390) - https://sketch.com -->
    <title>icon/tool/窗口重置</title>
    <desc>Created with Sketch.</desc>
    <g id="icon/tool/窗口重置" stroke="none" stroke-width="1" fill="none" fill-rule="evenodd">
        <path d="M31,6 L31,14 L30,14 L30,7 L7,7 L7,30 L14,30 L14,31 L6,31 L6,6 L31,6 Z" id="Combined-Shape" fill="#FFFFFF"></path>
        <path d="M30.5236582,26.0389098 C30.2025553,26.0389098 29.9294328,26.2421698 29.8297802,26.5304303 C29.4902226,27.2362995 29.0288691,27.8904291 28.460479,28.4632481 C27.1354678,29.7899861 25.3749332,30.5217295 23.5,30.5217295 C21.6250541,30.5217295 19.8645247,29.7899913 18.5395083,28.4669553 C17.2181892,27.1402173 16.4874086,25.3773883 16.4874086,23.5000052 C16.4874086,23.0934834 16.1552332,22.7608751 15.7492405,22.7608751 C15.3432479,22.7608751 15.0110725,23.0934834 15.0110725,23.5000052 L15,23.5000052 L15,30.1521705 C15,30.5586923 15.3321754,30.8913006 15.738168,30.8913006 C16.1441607,30.8913006 16.4763361,30.5586923 16.4763361,30.1521705 L16.4763361,28.2747874 C18.0043427,30.5217468 20.5805529,32 23.5,32 C26.9029399,32 29.8371555,29.9932635 31.1917043,27.0995715 L31.1880135,27.0995715 C31.2359943,27.0034847 31.2618303,26.8926147 31.2618303,26.7780502 C31.2618303,26.3715284 30.9296549,26.0389202 30.5236623,26.0389202 L30.5236582,26.0389098 Z M31.2618262,16.1086994 C30.8558335,16.1086994 30.5236582,16.4413077 30.5236582,16.8478295 L30.5236582,18.7252126 C28.9956515,16.4782532 26.4194413,15 23.5000006,15 C20.0896669,15 17.1517662,17.0104264 15.8009198,19.9152053 L15.8046106,19.9152053 C15.7640113,20.0075964 15.7381755,20.1110752 15.7381755,20.2219446 C15.7381755,20.6284664 16.0703509,20.9610746 16.4763436,20.9610746 C16.7974464,20.9610746 17.0705689,20.7541178 17.1739118,20.4658573 C17.5134694,19.7599881 17.9711327,19.1095553 18.539521,18.5367294 C19.8645322,17.2099914 21.6250668,16.478248 23.5000063,16.478248 C25.3749459,16.478248 27.1354753,17.2099862 28.4604917,18.5330222 C29.7818108,19.8597602 30.5125914,21.6225892 30.5125914,23.4999723 C30.5125914,23.9064941 30.8447668,24.2391023 31.2507595,24.2391023 C31.6567521,24.2391023 31.9889275,23.9064941 31.9889275,23.4999723 L32,23.4999723 L32,16.847807 C32,16.4412852 31.6678246,16.1086769 31.261832,16.1086769 L31.2618262,16.1086994 Z" id="形状" fill="#82B1FF" transform="translate(23.500000, 23.500000) scale(1, -1) translate(-23.500000, -23.500000) "></path>
    </g>
</svg>