<?xml version="1.0" encoding="UTF-8"?>
<svg width="40px" height="40px" viewBox="0 0 40 40" version="1.1" xmlns="http://www.w3.org/2000/svg" xmlns:xlink="http://www.w3.org/1999/xlink">
    <!-- Generator: Sketch 64 (93537) - https://sketch.com -->
    <title>icon/light/icon_light_windowing_re</title>
    <desc>Created with Sketch.</desc>
    <g id="icon/light/icon_light_windowing_re" stroke="none" stroke-width="1" fill="none" fill-rule="evenodd">
        <path d="M21,29 L21,32 L20,32 L20,29 L21,29 Z M26.2426407,27.363961 L25.5355339,28.0710678 L22,24.5355339 L25.5355339,21 L26.2426407,21.7071068 L23.949,24 L28,24 C30.209139,24 32,25.790861 32,28 C32,30.209139 30.209139,32 28,32 L28,31 C29.6568542,31 31,29.6568542 31,28 C31,26.3431458 29.6568542,25 28,25 L23.879,25 L26.2426407,27.363961 Z M13.4289322,25.863961 L14.136039,26.5710678 L12.0147186,28.6923882 L11.3076118,27.9852814 L13.4289322,25.863961 Z M20.5,12 C24.6421356,12 28,15.3578644 28,19.5 C28,19.6682137 27.9944622,19.835134 27.983559,20.0005886 L26.9810299,20.000332 C26.9936,19.8352028 27,19.6683488 27,19.5 C27,15.9101491 24.0898509,13 20.5,13 C16.9101491,13 14,15.9101491 14,19.5 C14,23.0898509 16.9101491,26 20.5,26 C20.6683488,26 20.8352028,25.9936 21.000332,25.9810299 L21.0005886,26.983559 C20.835134,26.9944622 20.6682137,27 20.5,27 C16.3578644,27 13,23.6421356 13,19.5 C13,15.3578644 16.3578644,12 20.5,12 Z M33,19 L33,20 L30,20 L30,19 L33,19 Z M11,19 L11,20 L8,20 L8,19 L11,19 Z M28.9852814,10.3076118 L29.6923882,11.0147186 L27.5710678,13.136039 L26.863961,12.4289322 L28.9852814,10.3076118 Z M12.0147186,10.3076118 L14.136039,12.4289322 L13.4289322,13.136039 L11.3076118,11.0147186 L12.0147186,10.3076118 Z M21,7 L21,10 L20,10 L20,7 L21,7 Z" id="Combined-Shape" fill="#FFFFFF"></path>
        <path d="M21,25 C17.6862915,25 15,22.5375661 15,19.5 C15,16.4624339 17.6862915,14 21,14 L21,25 Z" id="Oval" fill="#82B1FF"></path>
    </g>
</svg>