<?xml version="1.0" encoding="UTF-8"?>
<svg width="40px" height="40px" viewBox="0 0 40 40" version="1.1" xmlns="http://www.w3.org/2000/svg" xmlns:xlink="http://www.w3.org/1999/xlink">
    <!-- Generator: Sketch 64 (93537) - https://sketch.com -->
    <title>icon/light/icon_light_print</title>
    <desc>Created with Sketch.</desc>
    <g id="icon/light/icon_light_print" stroke="none" stroke-width="1" fill="none" fill-rule="evenodd">
        <path d="M28,24 L28,29.5 C28,29.7761424 27.7761424,30 27.5,30 L13.5,30 C13.2238576,30 13,29.7761424 13,29.5 L13,24 L9.5,24 C9.22385763,24 9,23.7761424 9,23.5 L9,14.5 C9,14.2238576 9.22385763,14 9.5,14 L13,14 L13,10.5 C13,10.2238576 13.2238576,10 13.5,10 L27.5,10 C27.7761424,10 28,10.2238576 28,10.5 L28,14 L31.5,14 C31.7761424,14 32,14.2238576 32,14.5 L32,23.5 C32,23.7761424 31.7761424,24 31.5,24 L28,24 Z M28,23 L31,23 L31,15 L10,15 L10,23 L13,23 L13,19.5 C13,19.2238576 13.2238576,19 13.5,19 L27.5,19 C27.7761424,19 28,19.2238576 28,19.5 L28,23 Z M14,14 L27,14 L27,11 L14,11 L14,14 Z M14,20 L14,29 L27,29 L27,20 L14,20 Z" id="形状" fill="#FFFFFF" fill-rule="nonzero"></path>
        <path d="M25,25 L25,26 L16,26 L16,25 L25,25 Z M25,22 L25,23 L16,23 L16,22 L25,22 Z" id="形状结合" fill="#82B1FF" fill-rule="nonzero"></path>
    </g>
</svg>