<?xml version="1.0" encoding="UTF-8"?>
<svg width="40px" height="40px" viewBox="0 0 40 40" version="1.1" xmlns="http://www.w3.org/2000/svg" xmlns:xlink="http://www.w3.org/1999/xlink">
    <!-- Generator: Sketch 64 (93537) - https://sketch.com -->
    <title>icon/light/PAlist备份</title>
    <desc>Created with Sketch.</desc>
    <g id="icon/light/PAlist备份" stroke="none" stroke-width="1" fill="none" fill-rule="evenodd">
        <path d="M10,13 L13,13 L13,16 L10,16 L10,13 Z M10,19 L13,19 L13,22 L10,22 L10,19 Z M10,25 L13,25 L13,28 L10,28 L10,25 Z" id="Combined-Shape" fill="#82B1FF"></path>
        <path d="M29,26 L29,27 L16,27 L16,26 L29,26 Z M29,20 L29,21 L16,21 L16,20 L29,20 Z M29,14 L29,15 L16,15 L16,14 L29,14 Z" id="形状结合" fill="#FFFFFF"></path>
    </g>
</svg>