<?xml version="1.0" encoding="UTF-8" standalone="no"?>
<svg width="48px" height="48px" viewBox="0 0 48 48" version="1.1" xmlns="http://www.w3.org/2000/svg" xmlns:xlink="http://www.w3.org/1999/xlink">
    <!-- Generator: Sketch 43.1 (39012) - http://www.bohemiancoding.com/sketch -->
    <title>icon.massagebox.信息</title>
    <desc>Created with Sketch.</desc>
    <defs>
        <ellipse id="path-1" cx="24" cy="24" rx="24" ry="24"></ellipse>
    </defs>
    <g id="Symbols" stroke="none" stroke-width="1" fill="none" fill-rule="evenodd">
        <g id="icon.massagebox.信息">
            <g id="massagebox_information">
                <g id="Oval-19">
                    <use fill="#007FAA" fill-rule="evenodd" xlink:href="#path-1"></use>
                    <ellipse stroke="#FFFFFF" stroke-width="3" cx="24" cy="24" rx="22.5" ry="22.5"></ellipse>
                </g>
                <path d="M24.964,38 C24.4879976,38 24.0050024,38.0069999 23.515,38.021 C23.0249975,38.0350001 22.5700021,38.0559999 22.15,38.084 C21.7299979,38.1120001 21.3660015,38.1399999 21.058,38.168 C20.7499985,38.1960001 20.5540004,38.21 20.47,38.21 C20.47,38.1819999 20.4560001,38.0840008 20.428,37.916 C20.3999999,37.7479992 20.386,37.6220004 20.386,37.538 C20.386,37.2579986 20.5119987,37.0900003 20.764,37.034 C21.4920036,36.8939993 22.0799978,36.726001 22.528,36.53 C22.9760022,36.333999 23.2,36.0120022 23.2,35.564 L23.2,24.14 C23.2,23.2999958 23.0530015,22.6980018 22.759,22.334 C22.4649985,21.9699982 21.8280049,21.7460004 20.848,21.662 C20.4839982,21.6059997 20.302,21.4100017 20.302,21.074 C20.302,20.9339993 20.3299997,20.7520011 20.386,20.528 C20.7500018,20.528 21.2609967,20.5070002 21.919,20.465 C22.5770033,20.4229998 23.1159979,20.3740003 23.536,20.318 C24.1800032,20.2059994 24.7539975,20.0870006 25.258,19.961 C25.7620025,19.8349994 26.1259989,19.772 26.35,19.772 C26.742002,19.772 26.938,19.9819979 26.938,20.402 C26.938,20.794002 26.8960004,21.2629973 26.812,21.809 C26.7279996,22.3550027 26.686,23.0759955 26.686,23.972 L26.686,35.564 C26.686,36.0120022 26.9029978,36.333999 27.337,36.53 C27.7710022,36.726001 28.3799961,36.8939993 29.164,37.034 C29.3880011,37.0900003 29.5,37.2579986 29.5,37.538 C29.5,37.6220004 29.4930001,37.7479992 29.479,37.916 C29.4649999,38.0840008 29.4440001,38.1819999 29.416,38.21 C29.3319996,38.21 29.1430015,38.1960001 28.849,38.168 C28.5549985,38.1399999 28.1980021,38.1120001 27.778,38.084 C27.3579979,38.0559999 26.9030024,38.0350001 26.413,38.021 C25.9229975,38.0069999 25.4400024,38 24.964,38 Z M22.528,12.758 C22.528,12.0859966 22.7589977,11.5050024 23.221,11.015 C23.6830023,10.5249975 24.2639965,10.28 24.964,10.28 C25.6360034,10.28 26.1959978,10.5249975 26.644,11.015 C27.0920022,11.5050024 27.316,12.0859966 27.316,12.758 C27.316,13.4860036 27.0920022,14.0739978 26.644,14.522 C26.1959978,14.9700022 25.6360034,15.194 24.964,15.194 C24.2639965,15.194 23.6830023,14.9700022 23.221,14.522 C22.7589977,14.0739978 22.528,13.4860036 22.528,12.758 Z" id="i" fill="#FFFFFF"></path>
            </g>
        </g>
    </g>
</svg>