<?xml version="1.0" encoding="UTF-8"?>
<svg width="40px" height="40px" viewBox="0 0 40 40" version="1.1" xmlns="http://www.w3.org/2000/svg" xmlns:xlink="http://www.w3.org/1999/xlink">
    <!-- Generator: Sketch 64 (93537) - https://sketch.com -->
    <title>icon/light/icon_light_stenosis</title>
    <desc>Created with Sketch.</desc>
    <g id="icon/light/icon_light_stenosis" stroke="none" stroke-width="1" fill="none" fill-rule="evenodd">
        <polygon id="Path-10" fill="#82B1FF" points="27.7415699 10 29 11.3357523 26.9877123 13.244021 27.9938561 14.3322132 24 15 24.5707779 10.9389411 25.7238092 11.956172"></polygon>
        <polygon id="Path-10-Copy" fill="#82B1FF" transform="translate(13.500000, 27.500000) scale(-1, -1) translate(-13.500000, -27.500000) " points="14.7415699 25 16 26.3357523 13.9877123 28.244021 14.9938561 29.3322132 11 30 11.5707779 25.9389411 12.7238092 26.956172"></polygon>
        <path d="M19.3423657,12.1360062 C19.6466843,12.8828444 21.2868343,16.161014 21.4727125,16.6092718 C21.905734,17.6535322 22.2867039,18.3845049 22.7903668,19.0963385 C23.7364334,20.4334272 25.1955831,21.7795973 27.9273889,23.8069081 C28.3861926,23.9563168 28.7610728,24.2368394 29,24.662793 C29.8141602,26.1142578 28.7794922,28.2291016 27.1180664,29.3587891 C25.4566406,30.4884766 23.2347477,30.8943647 22.081818,29.8188477 C21.8191944,29.5738577 21.6762158,29.2511308 21.6339339,28.8827132 C20.6504747,25.2028633 17.3929747,20.088339 13.2179606,15.3318636 L13.1577186,15.2467481 C12.2728206,13.670143 13.0188231,11.7478718 14.6599632,10.8745036 C16.6112774,9.83606964 18.6876748,10.0855055 19.3423657,12.1360062 Z M24.5287343,25.6155371 C23.3114709,26.5080383 22.5879342,27.9017779 22.6090437,28.6599865 C22.6413313,28.774179 22.669732,28.8878046 22.696042,29.0001454 C22.7140793,29.0337805 22.7372457,29.0627073 22.7639496,29.0876182 C23.435936,29.7144845 25.1102648,29.5147255 26.5557843,28.5318436 C27.9261,27.6000965 28.6079258,26.0078989 28.1278374,25.1520091 C27.7139948,24.4142206 26.0504775,24.4997904 24.5287343,25.6155371 Z M22.0676967,27.010379 L22.0775654,26.9886973 C22.4894442,26.181831 23.1502058,25.3862837 23.937439,24.809082 C24.6576542,24.281018 25.4587882,23.9221762 26.2171353,23.7656104 C24.1005051,22.1262259 22.8497968,20.9116477 21.9740435,19.6739338 C21.4219928,18.893713 21.0082257,18.0998118 20.5489815,16.9923136 C20.3570103,16.529362 18.7153704,13.247327 18.4031249,12.4770896 C17.9736107,11.13505 16.6073875,10.9709268 15.1297528,11.7572821 C13.9694888,12.3747416 13.45411,13.670213 14.0061035,14.7139093 C17.6820886,18.9083978 20.6648918,23.3874602 22.0676967,27.010379 Z" id="Combined-Shape" fill="#FFFFFF"></path>
    </g>
</svg>