<?xml version="1.0" encoding="UTF-8" standalone="no"?>
<svg width="48px" height="48px" viewBox="0 0 48 48" version="1.1" xmlns="http://www.w3.org/2000/svg" xmlns:xlink="http://www.w3.org/1999/xlink">
    <!-- Generator: Sketch 43.1 (39012) - http://www.bohemiancoding.com/sketch -->
    <title>icon.massagebox.询问</title>
    <desc>Created with Sketch.</desc>
    <defs>
        <ellipse id="path-1" cx="24" cy="24" rx="24" ry="24"></ellipse>
    </defs>
    <g id="Symbols" stroke="none" stroke-width="1" fill="none" fill-rule="evenodd">
        <g id="icon.massagebox.询问">
            <g id="Group-2">
                <g id="Oval-19">
                    <use fill="#007FAA" fill-rule="evenodd" xlink:href="#path-1"></use>
                    <ellipse stroke="#FFFFFF" stroke-width="3" cx="24" cy="24" rx="22.5" ry="22.5"></ellipse>
                </g>
                <path d="M25.324,10.792 C22.732,10.792 20.716,11.584 19.276,13.168 C17.836,14.68 17.152,16.696 17.152,19.216 L19.996,19.216 C19.996,17.452 20.392,16.084 21.184,15.076 C22.048,13.888 23.38,13.312 25.18,13.312 C26.692,13.312 27.88,13.708 28.708,14.572 C29.5,15.364 29.932,16.48 29.932,17.92 C29.932,18.928 29.572,19.864 28.852,20.764 C28.636,21.052 28.204,21.484 27.628,22.06 C25.684,23.788 24.496,25.156 23.992,26.236 C23.56,27.136 23.344,28.18 23.344,29.368 L23.344,30.196 L26.224,30.196 L26.224,29.368 C26.224,28.396 26.44,27.532 26.908,26.74 C27.268,26.092 27.808,25.444 28.6,24.76 C30.184,23.356 31.156,22.42 31.516,21.988 C32.416,20.8 32.884,19.396 32.884,17.776 C32.884,15.616 32.2,13.924 30.868,12.7 C29.464,11.404 27.628,10.792 25.324,10.792 Z M24.784,32.716 C24.172,32.716 23.668,32.896 23.236,33.328 C22.804,33.724 22.624,34.228 22.624,34.84 C22.624,35.452 22.804,35.956 23.236,36.388 C23.668,36.784 24.172,37 24.784,37 C25.396,37 25.9,36.784 26.332,36.388 C26.764,35.992 26.98,35.488 26.98,34.84 C26.98,34.228 26.764,33.724 26.368,33.328 C25.936,32.896 25.396,32.716 24.784,32.716 Z" id="？" fill="#FFFFFF"></path>
            </g>
        </g>
    </g>
</svg>