<?xml version="1.0" encoding="UTF-8"?>
<svg width="40px" height="40px" viewBox="0 0 40 40" version="1.1" xmlns="http://www.w3.org/2000/svg" xmlns:xlink="http://www.w3.org/1999/xlink">
    <!-- Generator: Sketch 64 (93537) - https://sketch.com -->
    <title>icon/light/icon_light_re_ai_result</title>
    <desc>Created with Sketch.</desc>
    <g id="icon/light/icon_light_re_ai_result" stroke="none" stroke-width="1" fill="none" fill-rule="evenodd">
        <path d="M20.4431818,22.6717033 L16.5977273,22.6717033 L15.7931818,25 L14,25 L17.75,15 L19.2977273,15 L23.0545455,25 L21.2545455,25 L20.4431818,22.6717033 Z M17.0818182,21.2706044 L19.9590909,21.2706044 L18.5204545,17.1222527 L17.0818182,21.2706044 Z M26,25 L24.2818182,25 L24.2818182,15 L26,15 L26,25 Z" id="AI" fill="#82B1FF"></path>
        <path d="M8,20.5009288 C8,20.0737839 8.49839287,19.8433465 8.82100372,20.1213287 L8.82100372,20.1213287 L12.3023801,23.1211058 C12.5109274,23.3008035 12.535079,23.61643 12.3563241,23.8260774 C12.1775693,24.0357247 11.8635989,24.0600037 11.6550516,23.8803059 L11.6550516,23.8803059 L9.04963494,21.6353119 C9.61638363,27.4536438 14.4967834,32.0000743 20.433487,32.0000743 C25.1364121,32.0000743 29.3070782,29.1205739 31.0415039,24.8117433 C31.1445351,24.5557832 31.4344662,24.4322503 31.6890833,24.535825 C31.9437003,24.6393996 32.066585,24.9308601 31.9635538,25.1868202 C30.0783685,29.8701825 25.5451434,33 20.433487,33 C13.5666618,33 8,27.4039752 8,20.5009288 Z M20.5728183,8 C27.4361612,8 33,13.5960248 33,20.4990712 C33,20.9262161 32.5018599,21.1566535 32.1794126,20.8786713 L32.1794126,20.8786713 L28.6998018,17.8788942 C28.4913602,17.6991965 28.4672209,17.38357 28.6458851,17.1739226 C28.8245492,16.9642753 29.1383604,16.9399963 29.346802,17.1196941 L29.346802,17.1196941 L31.9508974,19.3646881 C31.3844361,13.5463562 26.5065113,8.9999257 20.5728183,8.9999257 C15.8610159,8.9999257 11.6844802,11.8932536 9.95852098,16.2173532 C9.85624162,16.4735969 9.56679601,16.59793 9.31202613,16.495059 C9.05725624,16.392188 8.93363825,16.1010679 9.03591762,15.8448243 C10.9119106,11.1448403 15.4515059,8 20.5728183,8 Z" id="形状结合" fill="#FFFFFF"></path>
    </g>
</svg>