<?xml version="1.0" encoding="UTF-8"?>
<svg width="40px" height="40px" viewBox="0 0 40 40" version="1.1" xmlns="http://www.w3.org/2000/svg" xmlns:xlink="http://www.w3.org/1999/xlink">
    <!-- Generator: Sketch 62 (91390) - https://sketch.com -->
    <title>icon/icon_light_unknown-5</title>
    <desc>Created with Sketch.</desc>
    <g id="icon/icon_light_unknown-5" stroke="none" stroke-width="1" fill="none" fill-rule="evenodd">
        <rect id="Rectangle-85" fill="#82B1FF" fill-rule="nonzero" x="9" y="30" width="22" height="1" rx="0.5"></rect>
        <rect id="Rectangle-85备份" fill="#82B1FF" fill-rule="nonzero" x="18" y="27" width="13" height="1" rx="0.5"></rect>
        <path d="M20.6090627,7.60732188 C21.0824496,7.60732188 21.4662056,7.99107781 21.4662056,8.46446474 L21.4662056,26.8889169 C21.4662056,27.0519659 21.4197004,27.2116325 21.3321474,27.3491804 L18.7043621,31.4774924 C18.4501656,31.876841 17.9203626,31.9945101 17.521014,31.7403136 C17.4164397,31.6737492 17.3275479,31.5852942 17.2604691,31.4810491 L14.60254,27.350445 C14.5135331,27.2121221 14.4662056,27.0511102 14.4662056,26.8866248 L14.4662056,8.46446474 C14.4662056,7.99107781 14.8499615,7.60732188 15.3233484,7.60732188 L20.6090627,7.60732188 Z M20.6082056,26.7633218 L15.3232056,26.7633218 L15.3233484,26.8866248 L17.9812774,31.0172289 L20.6090627,26.8889169 L20.6082056,26.7633218 Z M20.6082056,11.2073218 L15.3232056,11.2073218 L15.3232056,25.7633218 L20.6082056,25.7633218 L20.6082056,11.2073218 Z M20.6090627,8.46446474 L15.3233484,8.46446474 L15.3232056,10.2073218 L20.6082056,10.2073218 L20.6090627,8.46446474 Z" id="形状结合" fill="#FFFFFF" fill-rule="nonzero" transform="translate(17.966206, 19.740901) rotate(45.000000) translate(-17.966206, -19.740901) "></path>
    </g>
</svg>