<?xml version="1.0" encoding="UTF-8" standalone="no"?>
<svg width="48px" height="48px" viewBox="0 0 48 48" version="1.1" xmlns="http://www.w3.org/2000/svg" xmlns:xlink="http://www.w3.org/1999/xlink">
    <!-- Generator: Sketch 43.1 (39012) - http://www.bohemiancoding.com/sketch -->
    <title>icon.massagebox.错误</title>
    <desc>Created with Sketch.</desc>
    <defs>
        <ellipse id="path-1" cx="24" cy="24" rx="24" ry="24"></ellipse>
    </defs>
    <g id="Symbols" stroke="none" stroke-width="1" fill="none" fill-rule="evenodd">
        <g id="icon.massagebox.错误">
            <g id="Group-2">
                <g id="Oval-19">
                    <use fill="#D0011B" fill-rule="evenodd" xlink:href="#path-1"></use>
                    <ellipse stroke="#FFFFFF" stroke-width="3" cx="24" cy="24" rx="22.5" ry="22.5"></ellipse>
                </g>
                <path d="M32.484375,15.515625 C32.7656264,15.7968764 32.90625,16.1484354 32.90625,16.5703125 C32.90625,16.9921896 32.7656264,17.3437486 32.484375,17.625 L26.109375,24 L32.484375,30.375 C32.7656264,30.6562514 32.90625,31.0078104 32.90625,31.4296875 C32.90625,31.8515646 32.7656264,32.2031236 32.484375,32.484375 C32.2031236,32.7656264 31.8515646,32.90625 31.4296875,32.90625 C31.0078104,32.90625 30.6562514,32.7656264 30.375,32.484375 L24,26.109375 L17.625,32.484375 C17.3437486,32.7656264 16.9921896,32.90625 16.5703125,32.90625 C16.1484354,32.90625 15.7968764,32.7656264 15.515625,32.484375 C15.2343736,32.2031236 15.09375,31.8515646 15.09375,31.4296875 C15.09375,31.0078104 15.2343736,30.6562514 15.515625,30.375 L21.890625,24 L15.515625,17.625 C15.2343736,17.3437486 15.09375,16.9921896 15.09375,16.5703125 C15.09375,16.1484354 15.2343736,15.7968764 15.515625,15.515625 C15.7968764,15.2343736 16.1484354,15.09375 16.5703125,15.09375 C16.9921896,15.09375 17.3437486,15.2343736 17.625,15.515625 L24,21.890625 L30.375,15.515625 C30.6562514,15.2343736 31.0078104,15.09375 31.4296875,15.09375 C31.8515646,15.09375 32.2031236,15.2343736 32.484375,15.515625 Z" id="Close---simple-line-icons" fill="#FFFFFF"></path>
            </g>
        </g>
    </g>
</svg>