<?xml version="1.0" encoding="UTF-8"?>
<svg width="38px" height="38px" viewBox="0 0 38 38" version="1.1" xmlns="http://www.w3.org/2000/svg" xmlns:xlink="http://www.w3.org/1999/xlink">
    <!-- Generator: Sketch 62 (91390) - https://sketch.com -->
    <title>icon/tool/layout_5x6</title>
    <desc>Created with Sketch.</desc>
    <g id="icon/tool/layout_5x6" stroke="none" stroke-width="1" fill="none" fill-rule="evenodd">
        <rect id="Rectangle-1000" x="0" y="0" width="38" height="38"></rect>
        <path d="M11,6 L11,9.999 L14,9.999 L14,6 L15,6 L15,9.999 L18,9.999 L18,6 L19,6 L19,9.999 L22,9.999 L22,6 L23,6 L23,9.999 L26,9.999 L26,6 L27,6 L27,9.999 L30,10 L30,11 L27,10.999 L27,14.999 L30,15 L30,16 L27,15.999 L27,19.999 L30,20 L30,21 L27,20.999 L27,22 L26,22 L26,20.999 L23,20.999 L23,22 L22,22 L22,20.999 L19,20.999 L19,22 L18,22 L18,20.999 L15,20.999 L15,25 L17,25 L17,26 L15,26 L15,31 L14,31 L14,26 L11,26 L11,31 L10,31 L10,26 L6,26 L6,25 L10,25 L10,20.999 L7,21 L7,20 L10,19.999 L10,15.999 L7,16 L7,15 L10,14.999 L10,10.999 L7,11 L7,10 L10,9.999 L10,6 L11,6 Z M14,20.999 L11,20.999 L11,25 L14,25 L14,20.999 Z M14,15.999 L11,15.999 L11,19.999 L14,19.999 L14,15.999 Z M18,15.999 L15,15.999 L15,19.999 L18,19.999 L18,15.999 Z M22,15.999 L19,15.999 L19,19.999 L22,19.999 L22,15.999 Z M26,15.999 L23,15.999 L23,19.999 L26,19.999 L26,15.999 Z M14,10.999 L11,10.999 L11,14.999 L14,14.999 L14,10.999 Z M18,10.999 L15,10.999 L15,14.999 L18,14.999 L18,10.999 Z M22,10.999 L19,10.999 L19,14.999 L22,14.999 L22,10.999 Z M26,10.999 L23,10.999 L23,14.999 L26,14.999 L26,10.999 Z" id="形状结合" fill="#82B1FF"></path>
        <path d="M22.2382813,22.46875 L22.2382813,23.8339844 L19.4257813,23.8339844 L19.2441406,25.84375 L19.3406372,25.7567749 C19.4428101,25.673645 19.5620117,25.6020508 19.6982422,25.5419922 C19.8798828,25.4619141 20.0703125,25.4179688 20.2695313,25.4101562 C20.9804688,25.3984375 21.5263672,25.6435547 21.9072266,26.1455078 C22.2880859,26.6474609 22.4785156,27.3535156 22.4785156,28.2636719 C22.4785156,29.0761719 22.2626953,29.7558594 21.8310547,30.3027344 C21.3994141,30.8496094 20.7832031,31.1230469 19.9824219,31.1230469 C19.3027344,31.1230469 18.7158203,30.9052734 18.2216797,30.4697266 C17.7275391,30.0341797 17.4882813,29.4433594 17.5039063,28.6972656 L17.5039063,28.6972656 L17.515625,28.6679688 L19.1328125,28.5800781 L19.1375957,28.7389389 C19.1567283,29.0462572 19.2332589,29.2911551 19.3671875,29.4736328 C19.5234375,29.6865234 19.7285156,29.7929688 19.9824219,29.7929688 C20.2753906,29.7929688 20.4882813,29.6533203 20.6210938,29.3740234 C20.7539063,29.0947266 20.8203125,28.7285156 20.8203125,28.2753906 C20.8203125,27.7714844 20.7460938,27.3730469 20.5976563,27.0800781 C20.4492188,26.7871094 20.2226563,26.640625 19.9179688,26.640625 C19.6875,26.640625 19.5097656,26.703125 19.3847656,26.828125 C19.2597656,26.953125 19.1738281,27.1191406 19.1269531,27.3261719 L19.1269531,27.3261719 L17.6445313,27.2265625 L18.0664063,22.46875 L22.2382813,22.46875 Z M31.7773438,22.3457031 C32.0546875,22.3457031 32.3076172,22.3759766 32.5361328,22.4365234 C32.7646484,22.4970703 32.9980469,22.5878906 33.2363281,22.7089844 L33.2363281,22.7089844 L32.9550781,23.96875 L32.7535807,23.8863932 C32.6229384,23.83648 32.4996745,23.7965495 32.3837891,23.7666016 C32.2099609,23.7216797 32.0097656,23.6992188 31.7832031,23.6992188 C31.3769531,23.6992188 31.0517578,23.8837891 30.8076172,24.2529297 C30.5634766,24.6220703 30.4472656,25.1445312 30.4589844,25.8203125 L30.4589844,25.8203125 L30.4824219,25.84375 L30.5789844,25.7427344 C30.7146094,25.6139844 30.8777344,25.5089844 31.0683594,25.4277344 C31.3066406,25.3261719 31.5722656,25.2753906 31.8652344,25.2753906 C32.5097656,25.2753906 33.0126953,25.546875 33.3740234,26.0898438 C33.7353516,26.6328125 33.9160156,27.328125 33.9160156,28.1757812 C33.9160156,29.0273438 33.6835938,29.7314453 33.21875,30.2880859 C32.7539063,30.8447266 32.1542969,31.1230469 31.4199219,31.1230469 C30.6308594,31.1230469 29.9912109,30.8183594 29.5009766,30.2089844 C29.0107422,29.5996094 28.765625,28.7636719 28.765625,27.7011719 L28.765625,27.7011719 L28.765625,25.9433594 L28.7715047,25.6717733 C28.8146227,24.6934882 29.0948893,23.9080404 29.6123047,23.3154297 C30.1767578,22.6689453 30.8984375,22.3457031 31.7773438,22.3457031 Z M31,6 L31,21 L30,21 L30,7 L7,7 L7,30 L16,30 L16,31 L6,31 L6,6 L31,6 Z M24.9746094,24.6601562 L25.6132813,26.6582031 L25.6484375,26.6582031 L26.3164063,24.6601562 L28.1914063,24.6601562 L26.6210938,27.7949219 L28.2382813,31 L26.3691406,31 L25.671875,28.9433594 L25.6367188,28.9433594 L24.9394531,31 L23.0644531,31 L24.6757813,27.7949219 L23.1054688,24.6601562 L24.9746094,24.6601562 Z M31.4140625,26.5878906 C31.1835938,26.5878906 30.9863281,26.6279297 30.8222656,26.7080078 C30.6582031,26.7880859 30.5273438,26.9003906 30.4296875,27.0449219 L30.4296875,27.0449219 L30.4296875,27.71875 L30.4338531,27.9620056 C30.4532928,28.5127258 30.5407715,28.9453125 30.6962891,29.2597656 C30.8740234,29.6191406 31.1152344,29.7988281 31.4199219,29.7988281 C31.6699219,29.7988281 31.8710938,29.6396484 32.0234375,29.3212891 C32.1757813,29.0029297 32.2519531,28.6210938 32.2519531,28.1757812 C32.2519531,27.703125 32.1738281,27.3203125 32.0175781,27.0273438 C31.8613281,26.734375 31.6601563,26.5878906 31.4140625,26.5878906 Z" id="形状结合" fill="#FFFFFF"></path>
    </g>
</svg>