<?xml version="1.0" encoding="UTF-8" standalone="no"?>
<svg width="38px" height="38px" viewBox="0 0 38 38" version="1.1" xmlns="http://www.w3.org/2000/svg" xmlns:xlink="http://www.w3.org/1999/xlink">
    <!-- Generator: Sketch 46 (44423) - http://www.bohemiancoding.com/sketch -->
    <title>icon ._tool .头颈部血管自动提取中心线</title>
    <desc>Created with Sketch.</desc>
    <defs></defs>
    <g id="Symbols" stroke="none" stroke-width="1" fill="none" fill-rule="evenodd">
        <g id="icon-._tool-.头颈部血管自动提取中心线">
            <g>
                <rect id="Rectangle" x="0" y="0" width="38" height="38"></rect>
                <path d="M20.2427002,8.24679902 C17.7311188,7.61860912 14.6959417,8.25251169 13.1719281,9.43808965 C10.9167555,11.192459 11.1674486,12.2679025 10.347704,12.6307538 C9.54201825,12.8891462 10.9848311,13.2338864 11.3658819,14.2418855 C11.7469327,15.2498846 11.0078293,16.2035819 11.3658819,16.5581591 C11.7239345,16.9127362 11.6176327,16.5944932 11.3658819,17.7397206 C11.114131,18.884948 10.342915,19.1243376 10.6206736,19.8678414 C10.8984322,20.6113451 11.7978374,20.329472 12.2733207,21.7308095 C12.748804,23.1321469 13.9245393,23.8138746 14.5606159,23.9250966 C15.1966924,24.0363186 15.5133163,25.2389935 13.5076639,25.10038 C12.3797506,25.0224283 9.26246179,27.0498684 9,29.6219564 C10.1532035,29.6219564 21.9709619,29.6219564 21.9709619,29.6219564 L21.9709619,28.4900274 C21.9709619,28.4900274 12.3835768,28.4900274 11.2810165,28.4900274 C11.2810165,27.3275783 13.3427643,25.9374802 14.4622272,25.9350278 C16.4745032,25.9306196 16.3992973,23.5409944 15.5524372,23.1065249 C14.705577,22.6720555 13.6386695,22.3601934 13.253369,21.2659817 C12.8680685,20.1717699 11.4639946,19.6630605 12.0563275,19.0454749 C12.6486604,18.4278894 12.3451847,17.8426102 12.7532539,17.4113146 C13.1613231,16.9800189 13.7382974,16.8134762 12.9356612,16.361896 C12.0563275,15.8671642 12.5961289,15.6966591 12.625341,15.1396902 C12.6587435,14.502827 12.2733207,13.9140983 12.9356612,13.6437968 C13.326985,13.4840973 13.0875513,13.3448311 12.9356612,13.2981471 C12.2733207,13.0945741 11.281837,13.4188103 12.625341,11.6600454 C13.5076639,10.5050072 14.3834335,9.80259704 15.5524372,9.43808971 C16.1565119,9.24973301 17.6200322,9.07588078 19.0960233,9.26049312" id="Path-667" fill="#EEEEEE"></path>
                <polygon id="Path-668" fill="#65A5BD" transform="translate(26.000000, 28.000000) scale(1, -1) rotate(90.000000) translate(-26.000000, -28.000000) " points="20 27 20 29 26 29 26 31 32 28 26 25 26 27"></polygon>
                <path d="M23.7199625,5.02066429 L21.6295765,5 C21.8765255,6.23755829 22,7.0638358 22,7.47883253 C22,7.89382926 22,8.46201662 22,9.18339461 C20.8154762,9.03199716 20.1160148,9.17866594 19.9016156,9.62340094 C19.7949942,9.84456919 19.6098904,10.5136015 19.5800169,11.2032922 C19.5197839,12.5938928 19.6875055,14.4111315 19.5800169,15.209397 C19.4192175,16.4035752 18.5154889,19.0744985 17.9525104,20.0173463 C17.5771915,20.6459114 17.259688,21.2701681 17,21.8901163 L17.9525104,21.8901163 L19.5800169,18.0372223 C19.5800169,20.0227319 19.5800169,21.6517115 19.5800169,22.924161 C19.5800169,24.1966106 19.2275832,25.3851637 18.5227158,26.4898203 C19.6214513,24.804471 20.2029789,23.4387898 20.2672987,22.3927769 C20.3316184,21.346764 20.4315353,17.7755301 20.5670493,11.6790751 C20.4647143,10.6233081 20.5958724,10.0764281 20.9605235,10.038435 C21.3251745,10.000442 21.5481922,10.0697313 21.6295765,10.2463028 C21.9962298,10.4627548 22.2085382,10.7817512 22.2665016,11.2032922 C22.4724569,12.7011099 22.2566852,14.9104559 22.2665016,15.4265864 C22.2752441,15.886252 21.9477074,20.5724243 22.2665016,22.924161 C22.3933501,23.8599198 22.6844908,25.2185328 23.1399234,27 L23.7553734,16.6302461 L23.7199625,11.2032922 C24.5146882,11.2250502 25.0790666,11.3836445 25.4130976,11.6790751 C25.9141442,12.122221 26.1130805,13.8614899 25.9769662,15.4265864 C25.8862233,16.4699841 25.6982671,17.6802288 25.4130976,19.0573205 L27,15.4265864 C26.9974903,12.8363667 26.7611431,11.3254312 26.2909585,10.8937798 C25.8207739,10.4621285 24.9637753,10.1770136 23.7199625,10.038435 L23.7553734,7.22014565 C24.2544985,7.13956658 24.7168009,7.37573184 25.1422807,7.92864143 C25.5677605,8.48155102 26.0264552,9.11114321 26.5183647,9.817418 C26.4565623,8.69507777 26.1639812,7.91554928 25.6406215,7.47883253 C25.1172617,7.04211578 24.4888457,6.55158873 23.7553734,6.00725138 L23.7199625,5.02066429 Z" id="Path-2" fill="#EEEEEE"></path>
            </g>
        </g>
    </g>
</svg>