<?xml version="1.0" encoding="UTF-8"?>
<svg width="40px" height="40px" viewBox="0 0 40 40" version="1.1" xmlns="http://www.w3.org/2000/svg" xmlns:xlink="http://www.w3.org/1999/xlink">
    <!-- Generator: Sketch 64 (93537) - https://sketch.com -->
    <title>icon/light/icon_light_scissors</title>
    <desc>Created with Sketch.</desc>
    <g id="icon/light/icon_light_scissors" stroke="none" stroke-width="1" fill="none" fill-rule="evenodd">
        <path d="M10,17.4641016 L30.7320508,15 L30.7320508,17 L13.4834006,18.868684 C12.1605068,19.0120037 10.8534654,18.4849763 10,17.4641016 L10,17.4641016 L10,17.4641016 Z" id="矩形" fill="#82B1FF" transform="translate(20.366025, 17.049038) rotate(60.000000) translate(-20.366025, -17.049038) "></path>
        <path d="M27.9084936,8.27932852 C28.3658644,9.5288886 28.1687628,10.9243334 27.3831974,11.9983331 L27.3831974,11.9983331 L17.6579596,25.2941775 C18.486404,26.1103298 19,27.2451865 19,28.5 C19,30.9142733 17.0987635,32.8844891 14.7118357,32.995102 L14.5,33 C12.0147186,33 10,30.9852814 10,28.5 C10,26.0857267 11.9012365,24.1155109 14.2881643,24.004898 L14.5,24 C15.0158415,24 15.5114108,24.0867952 15.9729006,24.2465782 Z M28.5,24 C30.9852814,24 33,26.0147186 33,28.5 C33,30.9142733 31.0987635,32.8844891 28.7118357,32.995102 L28.5,33 C26.0147186,33 24,30.9852814 24,28.5 C24,26.0857267 25.9012365,24.1155109 28.2881643,24.004898 L28.5,24 Z M14.5,25 C12.5670034,25 11,26.5670034 11,28.5 C11,30.4329966 12.5670034,32 14.5,32 C16.4329966,32 18,30.4329966 18,28.5 C18,26.5670034 16.4329966,25 14.5,25 Z M28.5,25 C26.5670034,25 25,26.5670034 25,28.5 C25,30.4329966 26.5670034,32 28.5,32 C30.4329966,32 32,30.4329966 32,28.5 C32,26.5670034 30.4329966,25 28.5,25 Z" id="形状结合" fill="#FFFFFF"></path>
    </g>
</svg>