<?xml version="1.0" encoding="UTF-8"?>
<svg width="38px" height="38px" viewBox="0 0 38 38" version="1.1" xmlns="http://www.w3.org/2000/svg" xmlns:xlink="http://www.w3.org/1999/xlink">
    <!-- Generator: Sketch 62 (91390) - https://sketch.com -->
    <title>icon/tool/layout_4x5</title>
    <desc>Created with Sketch.</desc>
    <g id="icon/tool/layout_4x5" stroke="none" stroke-width="1" fill="none" fill-rule="evenodd">
        <rect id="Rectangle-1000" x="0" y="0" width="38" height="38"></rect>
        <path d="M11,6 L11,11.999 L15,11.999 L15,6 L16,6 L16,11.999 L20,11.999 L20,6 L21,6 L21,11.999 L25,11.999 L25,6 L26,6 L26,11.999 L30,12 L30,13 L26,12.999 L26,17.999 L30,18 L30,19 L26,18.999 L26,21 L25,21 L25,18.999 L21,18.999 L21,21 L20,21 L20,18.999 L16,18.999 L16,24 L18,24 L18,25 L16,25 L16,31 L15,31 L15,25 L11,25 L11,31 L10,31 L10,25 L7,25 L7,24 L10,24 L10,18.999 L7,19 L7,18 L10,17.999 L10,12.999 L7,13 L7,12 L10,11.999 L10,6 L11,6 Z M15,18.999 L11,18.999 L11,24 L15,24 L15,18.999 Z M15,12.999 L11,12.999 L11,17.999 L15,17.999 L15,12.999 Z M20,12.999 L16,12.999 L16,17.999 L20,17.999 L20,12.999 Z M25,12.999 L21,12.999 L21,17.999 L25,17.999 L25,12.999 Z" id="形状结合" fill="#82B1FF"></path>
        <path d="M33.5351562,22.46875 L33.5351562,23.8339844 L30.7226562,23.8339844 L30.5410156,25.84375 L30.6375122,25.7567749 C30.7396851,25.673645 30.8588867,25.6020508 30.9951172,25.5419922 C31.1767578,25.4619141 31.3671875,25.4179688 31.5664062,25.4101562 C32.2773438,25.3984375 32.8232422,25.6435547 33.2041016,26.1455078 C33.5849609,26.6474609 33.7753906,27.3535156 33.7753906,28.2636719 C33.7753906,29.0761719 33.5595703,29.7558594 33.1279297,30.3027344 C32.6962891,30.8496094 32.0800781,31.1230469 31.2792969,31.1230469 C30.5996094,31.1230469 30.0126953,30.9052734 29.5185547,30.4697266 C29.0244141,30.0341797 28.7851562,29.4433594 28.8007812,28.6972656 L28.8007812,28.6972656 L28.8125,28.6679688 L30.4296875,28.5800781 L30.4344707,28.7389389 C30.4536033,29.0462572 30.5301339,29.2911551 30.6640625,29.4736328 C30.8203125,29.6865234 31.0253906,29.7929688 31.2792969,29.7929688 C31.5722656,29.7929688 31.7851562,29.6533203 31.9179688,29.3740234 C32.0507812,29.0947266 32.1171875,28.7285156 32.1171875,28.2753906 C32.1171875,27.7714844 32.0429688,27.3730469 31.8945312,27.0800781 C31.7460938,26.7871094 31.5195312,26.640625 31.2148438,26.640625 C30.984375,26.640625 30.8066406,26.703125 30.6816406,26.828125 C30.5566406,26.953125 30.4707031,27.1191406 30.4238281,27.3261719 L30.4238281,27.3261719 L28.9414062,27.2265625 L29.3632812,22.46875 L33.5351562,22.46875 Z M31,6 L31,21 L30,21 L30,7 L7,7 L7,30 L16,30 L16,31 L6,31 L6,6 L31,6 Z M21.8867188,22.46875 L21.8867188,27.8007812 L22.625,27.8007812 L22.625,29.1367188 L21.8867188,29.1367188 L21.8867188,31 L20.2285156,31 L20.2285156,29.1367188 L17.3984375,29.1367188 L17.3105469,28.09375 L20.2226562,22.46875 L21.8867188,22.46875 Z M24.9746094,24.6601562 L25.6132812,26.6582031 L25.6484375,26.6582031 L26.3164062,24.6601562 L28.1914062,24.6601562 L26.6210938,27.7949219 L28.2382812,31 L26.3691406,31 L25.671875,28.9433594 L25.6367188,28.9433594 L24.9394531,31 L23.0644531,31 L24.6757812,27.7949219 L23.1054688,24.6601562 L24.9746094,24.6601562 Z M20.1933594,24.8476562 L20.1054688,25.0058594 L18.8222656,27.8007812 L20.2285156,27.8007812 L20.2285156,24.8535156 L20.1933594,24.8476562 Z" id="形状结合" fill="#FFFFFF"></path>
    </g>
</svg>