<?xml version="1.0" encoding="UTF-8"?>
<svg width="40px" height="40px" viewBox="0 0 40 40" version="1.1" xmlns="http://www.w3.org/2000/svg" xmlns:xlink="http://www.w3.org/1999/xlink">
    <!-- Generator: Sketch 64 (93537) - https://sketch.com -->
    <title>icon/light/icon_light_fasongdaojiaopian</title>
    <desc>Created with Sketch.</desc>
    <g id="icon/light/icon_light_fasongdaojiaopian" stroke="none" stroke-width="1" fill="none" fill-rule="evenodd">
        <path d="M27.2299316,11 L31,14.7142578 L31,29 L13,29 L13,28 L25,28 L25,22 L19,22 L19,21 L26,21 L26,28 L30,28 L30,15.1328463 L26.8200795,12 L26,12 L26,17 L18,17 L18,27 L13,27 L13,28 L13,28 L12.999,27 L8,27 L8,17 L12.999,17 L13,16.0423584 L13,16.042 L13,17 L17,17 L17,12 L14,12 L14,16.0423584 L13,16.042 L13,11 L27.2299316,11 Z M12.999,18 L9,18 L9,26 L12.999,26 L12.999,18 Z M17,18 L13,18 L13,26 L17,26 L17,18 Z M25,12 L18,12 L18,16 L25,16 L25,12 Z M24,13 L24,15 L22,15 L22,13 L24,13 Z" id="形状结合" fill="#FFFFFF" fill-rule="nonzero"></path>
        <polygon id="矩形备份" fill="#82B1FF" points="10 19 16 19 16 25 10 25"></polygon>
    </g>
</svg>