<?xml version="1.0" encoding="UTF-8"?>
<svg width="40px" height="40px" viewBox="0 0 40 40" version="1.1" xmlns="http://www.w3.org/2000/svg" xmlns:xlink="http://www.w3.org/1999/xlink">
    <!-- Generator: Sketch 64 (93537) - https://sketch.com -->
    <title>icon/light/icon_light_biaojizhijia</title>
    <desc>Created with Sketch.</desc>
    <g id="icon/light/icon_light_biaojizhijia" stroke="none" stroke-width="1" fill="none" fill-rule="evenodd">
        <path d="M20.7769317,14.0877545 C20.8485073,14.6243404 20.9188822,15.1349372 20.9882384,15.620045 C21.4467889,15.6614982 21.8988089,15.6600156 22.3444336,15.6159874 L22.6774551,15.5749951 L22.7523784,16.0827545 L23.1547863,16.0189444 C23.2698994,16.7416695 23.3812201,17.3867724 23.489817,17.9609334 L23.779894,17.9689677 L23.779894,17.9689677 L24.07309,17.9732254 L24.0640259,18.9731843 C23.939488,18.9720555 23.8156508,18.9701812 23.6925142,18.9675611 C23.7698608,19.3238564 23.8460878,19.6444521 23.9216193,19.9319617 L24.2378602,19.8989368 L24.2378602,19.8989368 L24.5786053,19.8544017 L24.7230411,20.8439159 C24.5567072,20.8681951 24.3890536,20.8892103 24.2200802,20.9069637 C24.3519787,21.2712989 24.4842407,21.5415221 24.6184782,21.7324153 L24.680497,21.8148346 L23.9028383,22.4435212 C23.6428711,22.1219528 23.4092079,21.6527229 23.1853309,20.9746579 C22.7807405,20.9852836 22.369399,20.9785367 21.9509536,20.9542905 C22.1731523,21.8211601 22.3938188,22.407354 22.6206021,22.7345964 L22.680497,22.8148346 L21.9028383,23.4435212 C21.8092262,23.327727 21.7184796,23.187174 21.6300561,23.0206077 C21.0585191,23.1042063 20.4817673,23.1350424 19.8999384,23.1122422 C20.0200384,23.4348662 20.1384391,23.6831552 20.254505,23.8558326 L20.3238592,23.9503555 L19.5462004,24.5790421 C19.2941759,24.2672984 19.0504365,23.7454755 18.8122373,23.0083334 C18.1171732,22.9026833 17.4144938,22.7222937 16.7051618,22.4673625 C16.8712395,23.042467 17.0447979,23.4624218 17.2231774,23.7241215 L17.2902905,23.8148346 L16.5126317,24.4435212 C16.1500221,23.9949884 15.8309031,23.1807616 15.5478083,21.9881837 C15.0594113,21.7593787 14.5680024,21.4960995 14.0736723,21.1983962 L13.7023784,20.968665 L14.2385419,20.1245509 C14.5915199,20.3487551 14.9419149,20.5539593 15.2897691,20.7402136 C15.2059437,20.2808864 15.1256446,19.7822043 15.0485967,19.2437808 C14.3587127,18.9612867 13.6539841,18.6441445 12.9351439,18.2926376 L12.9351439,18.2926376 L13.3744286,17.3942897 C13.8903155,17.6465541 14.3979739,17.8802864 14.8974015,18.0955169 C14.8478831,17.6997587 14.8005494,17.2853702 14.7545064,16.8529468 L14.7506445,16.8498715 L14.7045543,16.3760996 L14.7045543,16.3760996 L14.6570966,15.8914736 L15.652476,15.7954537 C15.6662965,15.9387222 15.6802544,16.0801813 15.6943472,16.2198264 C16.2835031,16.5191752 16.9112904,16.7802398 17.5774888,17.0030826 C17.5116886,16.5560195 17.4449057,16.0894841 17.3781099,15.603369 L17.1941558,15.512805 L17.1941558,15.512805 L17.0096281,15.4193607 L17.4674711,14.5303276 C17.7429251,14.6721836 18.0161602,14.8004917 18.2872107,14.9152923 C18.2939387,14.9142244 18.2941187,14.9155739 18.2942987,14.9169233 C18.8578606,15.1564659 19.4110756,15.3360294 19.9551843,15.4577366 C19.9178226,15.1927037 19.8803438,14.9212646 19.8425835,14.6428644 L19.7857113,14.2199741 L20.7769317,14.0877545 Z M19.2200626,20.5701192 L19.2343191,20.6407897 C19.3504034,21.1874624 19.4657513,21.6714221 19.5799351,22.0918522 C20.1390341,22.1363912 20.6912413,22.126922 21.2367633,22.0629522 C21.1222135,21.7169527 21.0105488,21.3171883 20.9003125,20.8603237 C20.3519255,20.7908004 19.7917741,20.6946451 19.2200626,20.5701192 Z M16.1237978,19.6601778 L16.1573288,19.8751994 C16.2402141,20.3901132 16.3258281,20.8583565 16.4138426,21.2793731 C17.1228734,21.5805177 17.8209961,21.8000429 18.5088049,21.9390312 C18.3857568,21.454685 18.2640609,20.9105023 18.1432483,20.3057064 C17.4851458,20.1264707 16.8117794,19.9111879 16.1237978,19.6601778 Z M21.5001539,18.8345257 C21.5726215,19.2318373 21.6443899,19.5994293 21.7157097,19.9379853 C22.1183217,19.9673537 22.5135284,19.9817362 22.9010704,19.9790837 C22.8208262,19.6618716 22.7412268,19.3124521 22.661178,18.9285528 C22.2656676,18.9044625 21.8790683,18.8735872 21.5001539,18.8345257 Z M18.8108244,18.3898582 L18.8139744,18.4032598 C18.8785155,18.7864303 18.942989,19.1508908 19.0073236,19.4965051 C19.5751119,19.6322136 20.1299698,19.7399916 20.6718231,19.818767 C20.6006797,19.4712858 20.5306891,19.1000039 20.4604797,18.7031861 C19.8908594,18.6189958 19.3414936,18.5143979 18.8108244,18.3898582 Z M15.8195465,17.3886628 L15.8599408,17.7265917 C15.8931527,18.0038548 15.9269712,18.2722334 15.9613684,18.5316803 C16.6361712,18.7919452 17.2945162,19.0174105 17.9371216,19.2076371 C17.874563,18.8588736 17.8123345,18.4916149 17.7502065,18.1077277 C17.0729687,17.9034174 16.429412,17.6640367 15.8195465,17.3886628 Z M22.2403832,16.6285876 L22.1623375,16.6339386 C21.8233326,16.655507 21.4818584,16.6556873 21.137974,16.6345486 C21.200069,17.0475548 21.2618022,17.4384964 21.3229279,17.8085965 C21.6936093,17.8520772 22.0737575,17.886663 22.4622884,17.9128829 C22.3898043,17.5152591 22.3158365,17.0879176 22.2403832,16.6285876 Z M18.4511598,16.0544418 L18.4669764,16.1653702 C18.5241184,16.5634782 18.5813076,16.9471173 18.6384946,17.3161931 C19.1658498,17.4542894 19.7151785,17.5700434 20.2860396,17.6643345 C20.2263806,17.2980423 20.1669319,16.9130736 20.1068844,16.5093126 C19.5605062,16.4092839 19.0086049,16.2578057 18.4511598,16.0544418 Z" id="形状结合" fill="#82B1FF" transform="translate(18.829093, 19.333398) rotate(-6.000000) translate(-18.829093, -19.333398) "></path>
        <path d="M10.2889103,14.2329818 C10.9950773,11.0828523 13.1717569,9.69413846 16.6327359,10.1524967 C16.7801072,10.172014 16.9111519,10.2560955 16.9903103,10.3819254 C17.5201212,11.2241106 18.709138,12.8289735 19.108771,13.3287483 C21.9329694,14.0149481 23.9429583,16.2439251 25.1322129,19.9460126 C25.9939392,20.3281991 27.5007341,21.2272887 28.9680045,21.9422525 C29.233135,22.0082947 29.4669265,22.1191237 29.655665,22.2693142 C29.7193987,22.3064112 29.7715237,22.3570507 29.8109292,22.4154541 C30.6377747,23.3353101 29.9604491,25.700148 28.952999,26.9759325 C28.0959305,28.0612811 26.665432,29.0981159 25.5273257,29.0072517 C25.4311167,29.0257461 25.3280236,29.0154118 25.2314517,28.9718856 C25.1781504,28.947862 25.1250044,28.9236984 25.0720233,28.8994047 C25.0056634,28.8739338 24.9416597,28.8419609 24.8795196,28.8046234 L24.964293,28.8497235 C22.5764877,27.7422946 20.5399443,26.3820324 19.7494056,25.6853265 C19.4652076,25.6206802 18.8207423,25.4688097 18.534918,25.3853912 C17.8429879,25.1834499 17.2056658,24.9211977 16.5997853,24.5615582 C14.6779878,23.4208144 13.3983659,21.4890579 13.0062311,18.5468369 C12.518208,17.9508103 11.1517871,16.0135101 10.3421437,14.5894812 C10.280693,14.4813995 10.2617142,14.3543003 10.2889103,14.2329818 Z M28.5710425,22.8606551 C27.8485501,22.7567133 26.7138935,23.2162873 25.9330978,24.3061971 C24.8269527,25.850261 24.7773707,27.5766127 25.3945577,27.9474561 L25.3898006,27.9440248 L25.4757136,27.9846421 C25.9926255,28.1594723 27.1584889,27.5477438 28.0377831,26.5151766 L28.1681916,26.3561927 C29.0358849,25.2573893 29.4218612,23.4198537 29.0624778,23.0774111 L29.0811933,23.1016341 C29.0139175,23.0709892 28.9464814,23.0398687 28.8789412,23.0083299 Z M16.271553,11.1160564 C13.5190221,10.8160191 11.9179901,11.8414787 11.308839,14.2658581 C12.0973261,15.6422156 13.4345057,17.5166037 13.8618086,18.0107046 C13.9268105,18.0858679 13.9679414,18.1786955 13.9799514,18.2773389 C14.310895,20.9955284 15.4229022,22.7000807 17.110217,23.7016399 C17.6374787,24.0146128 18.1986706,24.2455381 18.8150821,24.4254391 C19.0452876,24.4926251 19.2697819,24.5492337 19.5366755,24.6098783 C19.5108954,24.6040205 19.9995496,24.7124094 20.1066546,24.7390791 C20.190347,24.759919 20.2672257,24.8020536 20.3298202,24.8613887 C20.8514741,25.3558788 22.2521859,26.3295761 24.032892,27.2716249 C23.91526,26.2517725 24.2550362,24.9314697 25.1201725,23.7238291 C25.6998065,22.9147202 26.4090273,22.3940637 27.1102605,22.1160972 C26.0701582,21.5669386 25.1304254,21.0388227 24.5205801,20.7687516 C24.3882157,20.7101338 24.2877536,20.5970252 24.2451667,20.4586678 C23.369307,17.6131592 22.0335493,15.7427554 20.2342466,14.8085162 C19.7622485,14.5634439 19.2583523,14.3827922 18.7224923,14.2658581 C18.6131923,14.2420069 18.5150487,14.1821894 18.4437594,14.0959733 C18.0225639,13.5865865 16.8171173,11.9719231 16.271553,11.1160564 Z" id="形状结合" fill="#FFFFFF"></path>
    </g>
</svg>