<?xml version="1.0" encoding="UTF-8"?>
<svg width="149px" height="40px" viewBox="0 0 149 40" version="1.1" xmlns="http://www.w3.org/2000/svg" xmlns:xlink="http://www.w3.org/1999/xlink">
    <!-- Generator: Sketch 62 (91390) - https://sketch.com -->
    <title>icon/uii-logo</title>
    <desc>Created with Sketch.</desc>
    <g id="icon/uii-logo" stroke="none" stroke-width="1" fill="none" fill-rule="evenodd">
        <path d="M84.3095006,28.1382479 C85.0510299,28.1382479 85.6993723,28.2933815 86.2505625,28.6036486 L88.655576,28.6036486 L88.655576,29.2798719 C88.655576,29.5066056 88.5207525,29.6458281 88.2491228,29.6955504 L87.3906143,29.8387506 C87.5353513,30.1689067 87.6087111,30.530885 87.6087111,30.9306523 C87.6087111,31.3542863 87.5254378,31.7401314 87.3608738,32.0822208 C87.1943271,32.4262991 86.964334,32.7206551 86.6708946,32.9652889 C86.379438,33.2059448 86.030483,33.3929006 85.6260125,33.5221786 C85.221542,33.6514566 84.7813829,33.7170901 84.3095006,33.7170901 C84.129075,33.7170901 83.9526148,33.7071456 83.7801201,33.6872567 C83.609608,33.6673678 83.4430613,33.6415122 83.2784973,33.607701 C83.115916,33.7031678 82.9949714,33.8065902 82.9176462,33.9120015 C82.8383382,34.0194016 82.7986842,34.1307796 82.7986842,34.2421576 C82.7986842,34.4271245 82.8799749,34.566347 83.0425562,34.6558471 C83.2051375,34.7473361 83.4212516,34.8109807 83.6889159,34.8527474 C83.9545975,34.8925252 84.2619158,34.916392 84.60294,34.9283253 C84.9479295,34.9402587 85.2968845,34.9601476 85.6517876,34.9860032 C86.0047079,35.0158366 86.3536629,35.0615811 86.6966697,35.1272145 C87.0416593,35.1928479 87.3450122,35.3002481 87.6126765,35.449415 C87.8803408,35.5985819 88.0944723,35.8014489 88.2590362,36.0540382 C88.4216175,36.3066275 88.5029082,36.6367836 88.5029082,37.0464953 C88.5029082,37.4164292 88.4097213,37.7823854 88.2253304,38.1364082 C88.0409394,38.4924198 87.7712924,38.8086537 87.418372,39.0851097 C87.0674344,39.3615657 86.6391715,39.5823327 86.1316006,39.7493996 C85.6260125,39.9164665 85.0490472,40 84.4026874,40 C83.7622758,40 83.2011721,39.9383443 82.7273071,39.8130441 C82.2514594,39.6897328 81.8549197,39.520677 81.5376879,39.3078656 C81.2184734,39.0990319 80.9825323,38.8543982 80.8278818,38.5759533 C80.6732313,38.2994973 80.5959061,38.0130969 80.5959061,37.7127742 C80.5959061,37.3070402 80.7227988,36.960973 80.9785669,36.6725836 C81.234335,36.3841943 81.58329,36.1574606 82.0234491,35.9943714 C81.7855252,35.8829935 81.5951862,35.725871 81.4524319,35.5289707 C81.3076949,35.3300815 81.2363177,35.0715255 81.2363177,34.749325 C81.2363177,34.4947468 81.3295046,34.2302242 81.5158782,33.9537682 C81.7022519,33.6773122 81.9798297,33.442623 82.3505943,33.2516893 C81.9243141,33.0150112 81.5852727,32.7007662 81.3374353,32.3089545 C81.0915807,31.9151539 80.9666707,31.4577087 80.9666707,30.9306523 C80.9666707,30.5010516 81.0479613,30.1152066 81.214508,29.7711282 C81.3810547,29.4270499 81.6150132,29.1346828 81.9124179,28.892038 C82.2098227,28.6493931 82.5627431,28.4624373 82.971179,28.3331593 C83.3796149,28.2018924 83.8257221,28.1382479 84.3095006,28.1382479 Z M5.75379141,26.6652744 L5.75379141,39.9988067 L-1.28785871e-14,36.6674125 L-1.28785871e-14,29.9986575 L5.75379141,26.6652744 Z M83.0941063,36.2827608 C82.8244593,36.4239721 82.6043798,36.5930279 82.431885,36.7919171 C82.2593902,36.9868286 82.1741342,37.2155511 82.1741342,37.476096 C82.1741342,37.6451518 82.2157708,37.8022743 82.3030096,37.9514412 C82.392231,38.0966303 82.5270545,38.2239194 82.7094628,38.3313196 C82.8918711,38.4387198 83.1258295,38.5242421 83.4113381,38.5858978 C83.6928813,38.6475534 84.0358882,38.6793757 84.4344106,38.6793757 C85.2354208,38.6793757 85.8341958,38.5540755 86.234701,38.305464 C86.6332234,38.0568525 86.8314932,37.7386298 86.8314932,37.3488069 C86.8314932,37.1558844 86.7779604,37.0027397 86.6669293,36.887384 C86.5578808,36.7720282 86.4111611,36.6825281 86.2247875,36.6168946 C86.0384138,36.5512612 85.8222996,36.5035278 85.576445,36.4717055 C85.3286077,36.4418721 85.0649088,36.4199943 84.7853483,36.4040832 C84.5077704,36.390161 84.2222618,36.3782276 83.9347705,36.3643054 C83.6433138,36.3483942 83.3637533,36.3225386 83.0941063,36.2827608 Z M17.2659344,28.3327615 L17.2659344,38.3329107 L12.9495995,35.8348623 L12.9495995,30.8327988 L17.2659344,28.3327615 Z M58.255651,25.5731738 L58.255651,28.407345 L60.6428202,28.407345 L60.6428202,29.7220026 L58.255651,29.7220026 L58.255651,34.6226326 C58.255651,34.9348886 58.3309936,35.1715668 58.4816787,35.3346559 C58.6343465,35.4977451 58.8385644,35.5792897 59.0903671,35.5792897 C59.2311387,35.5792897 59.3520834,35.5613896 59.453201,35.5255896 C59.5543186,35.4878006 59.6415574,35.4480228 59.7149172,35.4062561 C59.7882771,35.3625004 59.8517234,35.3247115 59.9052563,35.2869225 C59.9587891,35.2511225 60.0103393,35.2332225 60.0618895,35.2332225 C60.1630071,35.2332225 60.2442977,35.2889114 60.3057614,35.4022783 L60.8470381,36.2893241 C60.5654949,36.5379356 60.2324016,36.7308582 59.8517234,36.862125 C59.4670799,36.9953808 59.0745056,37.0610142 58.6680523,37.0610142 C57.9542808,37.0610142 57.4030906,36.8581472 57.0184471,36.4563911 C56.6338035,36.052646 56.4414818,35.4838228 56.4414818,34.7499217 L56.4414818,29.7220026 L55.4937518,29.7220026 C55.3946169,29.7220026 55.3073782,29.6881915 55.2340183,29.6245469 C55.1586758,29.5589135 55.1249699,29.4614578 55.1249699,29.3301909 L55.1249699,28.5943008 L56.5168243,28.3914338 L56.9133641,25.8953743 C56.9411218,25.7979186 56.9887066,25.7203518 57.0581011,25.662674 C57.1255128,25.6010183 57.2147342,25.5731738 57.3257654,25.5731738 L58.255651,25.5731738 Z M65.2014408,28.1537612 C65.7288387,28.1537612 66.2185652,28.2412725 66.6706205,28.4123172 C67.1206931,28.5853508 67.5093021,28.8379401 67.8344646,29.172074 C68.1616099,29.5042189 68.4153953,29.9119418 68.5997863,30.3932537 C68.7802119,30.8765544 68.871416,31.4274775 68.871416,32.0400563 C68.871416,32.3244678 68.8416755,32.5114237 68.7782292,32.6068905 C68.7167655,32.7043462 68.6057344,32.7520796 68.4411704,32.7520796 L62.9134066,32.7520796 C62.9352163,33.243336 63.0125416,33.66697 63.1433997,34.0269594 C63.2702924,34.38496 63.4447699,34.6813049 63.660884,34.9179831 C63.8769982,35.1566501 64.1367317,35.3316726 64.4381019,35.4490172 C64.7374894,35.564373 65.0745481,35.6220508 65.4472955,35.6220508 C65.8002158,35.6220508 66.1075341,35.5802841 66.3672676,35.4987395 C66.6250185,35.417195 66.8510461,35.3257059 67.0394025,35.2282502 C67.2317242,35.1307945 67.3962882,35.0393055 67.5311117,34.9577609 C67.6659352,34.8762163 67.7888626,34.8344496 67.9018764,34.8344496 C68.0485961,34.8344496 68.1616099,34.8921275 68.2389351,35.0035054 L68.7544368,35.6717731 C68.5403053,35.9263513 68.2984161,36.1431406 68.0287691,36.3161742 C67.7591221,36.4911967 67.4716308,36.6343969 67.1682779,36.743786 C66.864925,36.853175 66.5516586,36.9327307 66.2304614,36.9804641 C65.9092643,37.0281975 65.5979806,37.0540531 65.2946277,37.0540531 C64.6978354,37.0540531 64.1466452,36.9526196 63.6370916,36.7517415 C63.1275381,36.5528523 62.6834136,36.2565074 62.3106663,35.8686735 C61.9359362,35.4788506 61.6444795,34.9955499 61.4323308,34.4187712 C61.2221647,33.8439814 61.115099,33.1796914 61.115099,32.4298791 C61.115099,31.8332115 61.2102685,31.272344 61.3986249,30.755232 C61.5869813,30.2341423 61.8566283,29.7826638 62.2095486,29.3988077 C62.5604863,29.0169404 62.9887492,28.7126399 63.4903719,28.489884 C63.9939774,28.2671281 64.5649946,28.1537612 65.2014408,28.1537612 Z M93.1295354,28.1537612 C93.6569333,28.1537612 94.1466598,28.2412725 94.5967324,28.4123172 C95.0487877,28.5853508 95.4354139,28.8379401 95.7625592,29.172074 C96.0877218,29.5042189 96.3434899,29.9119418 96.5258982,30.3932537 C96.7083064,30.8765544 96.7995106,31.4274775 96.7995106,32.0400563 C96.7995106,32.3244678 96.7697701,32.5114237 96.7063237,32.6068905 C96.6448601,32.7043462 96.533829,32.7520796 96.369265,32.7520796 L90.8415012,32.7520796 C90.8633109,33.243336 90.9386534,33.66697 91.0695116,34.0269594 C91.198387,34.38496 91.3708817,34.6813049 91.5869959,34.9179831 C91.8050927,35.1566501 92.0648263,35.3316726 92.3642138,35.4490172 C92.6655839,35.564373 93.0026427,35.6220508 93.3734074,35.6220508 C93.7263277,35.6220508 94.0356287,35.5802841 94.2933795,35.4987395 C94.553113,35.417195 94.777158,35.3257059 94.967497,35.2282502 C95.1598188,35.1307945 95.3224001,35.0393055 95.4592063,34.9577609 C95.5940298,34.8762163 95.7169571,34.8344496 95.829971,34.8344496 C95.974708,34.8344496 96.0877218,34.8921275 96.1670297,35.0035054 L96.6825314,35.6717731 C96.4683999,35.9263513 96.2265107,36.1431406 95.9568637,36.3161742 C95.6872167,36.4911967 95.3997253,36.6343969 95.0963725,36.743786 C94.7930196,36.853175 94.4777705,36.9327307 94.158556,36.9804641 C93.8373588,37.0281975 93.5260751,37.0540531 93.2227223,37.0540531 C92.62593,37.0540531 92.0727571,36.9526196 91.5632035,36.7517415 C91.05365,36.5528523 90.6115082,36.2565074 90.2387608,35.8686735 C89.8640308,35.4788506 89.5725741,34.9955499 89.3604253,34.4187712 C89.1502593,33.8439814 89.0431936,33.1796914 89.0431936,32.4298791 C89.0431936,31.8332115 89.1383631,31.272344 89.3267195,30.755232 C89.5150758,30.2341423 89.7847228,29.7826638 90.1376432,29.3988077 C90.4885809,29.0169404 90.9168438,28.7126399 91.4184665,28.489884 C91.922072,28.2671281 92.4930892,28.1537612 93.1295354,28.1537612 Z M118.246362,28.1537612 C118.773759,28.1537612 119.263486,28.2412725 119.715541,28.4123172 C120.165614,28.5853508 120.554223,28.8379401 120.879385,29.172074 C121.206531,29.5042189 121.460316,29.9119418 121.644707,30.3932537 C121.825133,30.8765544 121.916337,31.4274775 121.916337,32.0400563 C121.916337,32.3244678 121.886596,32.5114237 121.82315,32.6068905 C121.761686,32.7043462 121.650655,32.7520796 121.486091,32.7520796 L115.958327,32.7520796 C115.980137,33.243336 116.057462,33.66697 116.18832,34.0269594 C116.315213,34.38496 116.489691,34.6813049 116.705805,34.9179831 C116.921919,35.1566501 117.181652,35.3316726 117.483023,35.4490172 C117.78241,35.564373 118.119469,35.6220508 118.492216,35.6220508 C118.845137,35.6220508 119.152455,35.5802841 119.412188,35.4987395 C119.669939,35.417195 119.895967,35.3257059 120.084323,35.2282502 C120.276645,35.1307945 120.441209,35.0393055 120.576033,34.9577609 C120.710856,34.8762163 120.833783,34.8344496 120.946797,34.8344496 C121.093517,34.8344496 121.206531,34.8921275 121.283856,35.0035054 L121.799358,35.6717731 C121.585226,35.9263513 121.343337,36.1431406 121.07369,36.3161742 C120.804043,36.4911967 120.516552,36.6343969 120.213199,36.743786 C119.909846,36.853175 119.596579,36.9327307 119.275382,36.9804641 C118.954185,37.0281975 118.642901,37.0540531 118.339548,37.0540531 C117.742756,37.0540531 117.191566,36.9526196 116.682012,36.7517415 C116.170476,36.5528523 115.728334,36.2565074 115.355587,35.8686735 C114.980857,35.4788506 114.6894,34.9955499 114.477252,34.4187712 C114.267085,33.8439814 114.16002,33.1796914 114.16002,32.4298791 C114.16002,31.8332115 114.255189,31.272344 114.443546,30.755232 C114.631902,30.2341423 114.901549,29.7826638 115.254469,29.3988077 C115.605407,29.0169404 116.03367,28.7126399 116.535293,28.489884 C117.038898,28.2671281 117.609915,28.1537612 118.246362,28.1537612 Z M110.761278,28.1535624 C111.383845,28.1535624 111.933053,28.2569847 112.410883,28.4578628 C112.884748,28.6627187 113.309045,28.9491192 113.67981,29.3230309 L113.198014,29.983343 C113.142499,30.056932 113.088966,30.112621 113.039398,30.1523989 C112.989831,30.1921767 112.914488,30.2120656 112.819319,30.2120656 C112.724149,30.2120656 112.623032,30.1782544 112.519931,30.1086432 C112.414848,30.0430098 112.291921,29.9674319 112.149167,29.8858873 C112.00443,29.8043427 111.831935,29.7287648 111.6297,29.6611425 C111.425482,29.5955091 111.173679,29.559709 110.868343,29.559709 C110.475769,29.559709 110.13078,29.6313091 109.835358,29.7725205 C109.539935,29.9137318 109.292098,30.1146099 109.093828,30.3771437 C108.893576,30.6396774 108.744873,30.9579001 108.645738,31.3338007 C108.546603,31.7097013 108.497036,32.1313464 108.497036,32.5987361 C108.497036,33.0860146 108.550569,33.5156153 108.657635,33.8954937 C108.7647,34.2733832 108.919351,34.5916059 109.117621,34.8521507 C109.317873,35.1107067 109.559762,35.3095959 109.845271,35.4448406 C110.126814,35.5780963 110.446029,35.6477076 110.802914,35.6477076 C111.151869,35.6477076 111.433413,35.6039519 111.655475,35.5204185 C111.873572,35.4348961 112.05598,35.3414182 112.2027,35.2419736 C112.349419,35.1405401 112.474329,35.0470622 112.579412,34.9615398 C112.682513,34.8780063 112.793544,34.8342507 112.910523,34.8342507 C113.059225,34.8342507 113.170257,34.8919286 113.249565,35.0033065 L113.763083,35.6715743 C113.556883,35.9261524 113.324907,36.1429417 113.073104,36.3179642 C112.819319,36.4909978 112.551655,36.634198 112.270111,36.7435871 C111.990551,36.8529761 111.695129,36.9325318 111.393759,36.9822541 C111.090406,37.0279986 110.781105,37.0538542 110.471804,37.0538542 C109.936475,37.0538542 109.438818,36.9524207 108.974866,36.7515426 C108.510915,36.5526534 108.106444,36.2602863 107.759472,35.8804079 C107.4125,35.4985407 107.138887,35.0331399 106.940618,34.4842057 C106.740365,33.9332826 106.64123,33.3047927 106.64123,32.5987361 C106.64123,31.9622906 106.730451,31.3696008 106.910877,30.8266333 C107.091303,30.2796879 107.355002,29.8103094 107.701974,29.4165088 C108.044981,29.0227082 108.475226,28.712441 108.986762,28.4896851 C109.500281,28.2669292 110.091126,28.1535624 110.761278,28.1535624 Z M51.4369522,28.1527668 C51.9088345,28.1527668 52.3232185,28.2323225 52.6820869,28.3914338 C53.03699,28.5505452 53.3403429,28.7733011 53.5842148,29.0616905 C53.8280867,29.3480909 54.0124777,29.6941581 54.1373877,30.0979032 C54.2583323,30.5016483 54.3217787,30.9471601 54.3217787,31.4304609 L54.3217787,36.9277585 L52.5155402,36.9277585 L52.5155402,31.4304609 C52.5155402,30.8497044 52.3826994,30.3982259 52.1150351,30.0760254 C51.8473708,29.7538249 51.4429003,29.5947135 50.8956755,29.5947135 C50.4912049,29.5947135 50.1144922,29.6862026 49.7695026,29.8731584 C49.4225304,30.0581254 49.0973678,30.3127036 48.7940149,30.6349041 L48.7940149,36.9277585 L46.9798457,36.9277585 L46.9798457,28.2900003 L48.076278,28.2900003 C48.3241153,28.2900003 48.4807485,28.4053561 48.550143,28.6380565 L48.675053,29.4336133 C48.8614267,29.2406907 49.0537484,29.0676571 49.254001,28.9125236 C49.4542536,28.75739 49.6664023,28.6241342 49.8904473,28.5107674 C50.1164749,28.3974005 50.3563814,28.3098893 50.6101669,28.2462447 C50.8619696,28.186578 51.1375647,28.1527668 51.4369522,28.1527668 Z M102.522372,28.1527668 C102.994254,28.1527668 103.410621,28.2323225 103.767507,28.3914338 C104.124392,28.5505452 104.425763,28.7733011 104.671617,29.0616905 C104.915489,29.3480909 105.097897,29.6941581 105.222807,30.0979032 C105.345735,30.5016483 105.409181,30.9471601 105.409181,31.4304609 L105.409181,36.9277585 L103.602943,36.9277585 L103.602943,31.4304609 C103.602943,30.8497044 103.468119,30.3982259 103.200455,30.0760254 C102.934773,29.7538249 102.52832,29.5947135 101.981095,29.5947135 C101.576625,29.5947135 101.201895,29.6862026 100.854922,29.8731584 C100.509933,30.0581254 100.18477,30.3127036 99.8814173,30.6349041 L99.8814173,36.9277585 L98.0672481,36.9277585 L98.0672481,28.2900003 L99.1616977,28.2900003 C99.4095351,28.2900003 99.5681509,28.4053561 99.6375454,28.6380565 L99.7624554,29.4336133 C99.9488291,29.2406907 100.139168,29.0676571 100.341403,28.9125236 C100.541656,28.75739 100.751822,28.6241342 100.97785,28.5107674 C101.203877,28.3974005 101.441801,28.3098893 101.695587,28.2462447 C101.949372,28.186578 102.222984,28.1527668 102.522372,28.1527668 Z M79.3713914,28.288807 L79.3713914,36.9265651 L77.5572221,36.9265651 L77.5572221,28.288807 L79.3713914,28.288807 Z M75.6577969,24.3945564 L75.6577969,36.9265651 L73.8436276,36.9265651 L73.8436276,24.3945564 L75.6577969,24.3945564 Z M71.9878217,24.3945564 L71.9878217,36.9265651 L70.1736525,36.9265651 L70.1736525,24.3945564 L71.9878217,24.3945564 Z M44.979501,24.7346569 L44.979501,36.9265651 L42.9968024,36.9265651 L42.9968024,24.7346569 L44.979501,24.7346569 Z M28.7764913,29.9988564 L28.7764913,36.6676114 L25.8995956,35.0009199 L25.8995956,31.6675368 L28.7764913,29.9988564 Z M84.3095006,29.4330166 C83.7523623,29.4330166 83.3320302,29.572239 83.0465216,29.8467061 C82.7629957,30.125151 82.6202414,30.5010516 82.6202414,30.9744079 C82.6202414,31.1991527 82.6579126,31.4099753 82.7312725,31.6009089 C82.8026496,31.7918426 82.9116981,31.9569206 83.050487,32.096143 C83.1932413,32.2353655 83.3677187,32.3407768 83.5798675,32.4163547 C83.7900335,32.4939214 84.0319228,32.5317104 84.3095006,32.5317104 C84.8706043,32.5317104 85.2929191,32.3885102 85.576445,32.1001208 C85.8560055,31.8137204 85.9987598,31.4358309 85.9987598,30.9744079 C85.9987598,30.5010516 85.8560055,30.125151 85.576445,29.8467061 C85.2929191,29.572239 84.8706043,29.4330166 84.3095006,29.4330166 Z M118.280067,29.4763744 C117.621812,29.4763744 117.104327,29.6653192 116.727614,30.0432087 C116.350902,30.4210982 116.110995,30.9501434 116.009878,31.6343223 L120.288541,31.6343223 C120.288541,31.3300218 120.246905,31.0456103 120.157683,30.7830765 C120.070444,30.5205428 119.941569,30.2918202 119.77304,30.0988977 C119.60451,29.9039862 119.396327,29.7508415 119.144524,29.6414525 C118.894704,29.5300745 118.60523,29.4763744 118.280067,29.4763744 Z M93.1612586,29.4763744 C92.5030027,29.4763744 91.987501,29.6653192 91.6088056,30.0432087 C91.2340755,30.4210982 90.994169,30.9501434 90.8930514,31.6343223 L95.171715,31.6343223 C95.171715,31.3300218 95.1280956,31.0456103 95.0408569,30.7830765 C94.9536182,30.5205428 94.8247427,30.2918202 94.6562134,30.0988977 C94.487684,29.9039862 94.2775179,29.7508415 94.0276979,29.6414525 C93.7778779,29.5300745 93.4884039,29.4763744 93.1612586,29.4763744 Z M65.2351467,29.4763744 C64.5768908,29.4763744 64.0594064,29.6653192 63.6826937,30.0432087 C63.305981,30.4210982 63.0660744,30.9501434 62.9649568,31.6343223 L67.2436204,31.6343223 C67.2436204,31.3300218 67.2019838,31.0456103 67.114745,30.7830765 C67.0255236,30.5205428 66.8966482,30.2918202 66.7281188,30.0988977 C66.5595894,29.9039862 66.3514061,29.7508415 66.0996033,29.6414525 C65.8497833,29.5300745 65.5603093,29.4763744 65.2351467,29.4763744 Z M78.4434884,24.4641676 C78.6140005,24.4641676 78.7726164,24.4959899 78.9213188,24.5596344 C79.0700212,24.6272568 79.1988966,24.714768 79.3119104,24.8221682 C79.4249243,24.9335461 79.5141457,25.0608352 79.5795747,25.2100021 C79.6430211,25.3551913 79.676727,25.5123137 79.676727,25.6833584 C79.676727,25.8464476 79.6430211,26.0015812 79.5795747,26.1467703 C79.5141457,26.2959372 79.4249243,26.4232263 79.3119104,26.5346042 C79.1988966,26.6420044 79.0700212,26.7315045 78.9213188,26.7951491 C78.7726164,26.8607825 78.6140005,26.8926048 78.4434884,26.8926048 C78.2809071,26.8926048 78.1262567,26.8607825 77.9835024,26.7951491 C77.840748,26.7315045 77.7138553,26.6420044 77.6087723,26.5346042 C77.5017066,26.4232263 77.4144678,26.2959372 77.3510215,26.1467703 C77.2855924,26.0015812 77.2538693,25.8464476 77.2538693,25.6833584 C77.2538693,25.5123137 77.2855924,25.3551913 77.3510215,25.2100021 C77.4144678,25.0608352 77.5017066,24.9335461 77.6087723,24.8221682 C77.7138553,24.714768 77.840748,24.6272568 77.9835024,24.5596344 C78.1262567,24.4959899 78.2809071,24.4641676 78.4434884,24.4641676 Z M11.5111517,13.3341289 L11.5111517,26.6656722 L5.75537757,23.3322892 L5.75537757,16.6675119 L11.5111517,13.3341289 Z M23.0221051,15.0006215 L23.0221051,24.9987818 L18.7037875,22.5007334 L18.7037875,17.5006588 L23.0221051,15.0006215 Z M123.419421,11.2054177 C124.162933,11.2054177 124.809292,11.3605513 125.360483,11.6708185 L127.765496,11.6708185 L127.765496,12.3470418 C127.765496,12.5737755 127.630672,12.7129979 127.361025,12.7627202 L126.500534,12.9059204 C126.647254,13.2360765 126.720614,13.5980549 126.720614,13.9978222 C126.720614,14.4214562 126.63734,14.8073012 126.470794,15.1493907 C126.304247,15.493469 126.076237,15.787825 125.782797,16.0324587 C125.489358,16.2731147 125.140403,16.4600705 124.735932,16.5893485 C124.331462,16.7186265 123.891303,16.7842599 123.419421,16.7842599 C123.238995,16.7842599 123.062535,16.7743154 122.892023,16.7544265 C122.719528,16.7345376 122.552981,16.708682 122.388417,16.6748708 C122.225836,16.7703377 122.106874,16.8737601 122.027566,16.9791713 C121.948258,17.0865715 121.908604,17.1959606 121.908604,17.3093274 C121.908604,17.4942944 121.989895,17.6335168 122.152476,17.723017 C122.31704,17.814506 122.533154,17.8781505 122.800819,17.9179284 C123.0665,17.9596951 123.371836,17.9835618 123.714843,17.9954952 C124.05785,18.0074285 124.406805,18.0273174 124.761708,18.053173 C125.114628,18.0830064 125.463583,18.1287509 125.808572,18.1943844 C126.151579,18.2580289 126.456915,18.367418 126.724579,18.5165849 C126.992244,18.6657518 127.206375,18.8686188 127.368956,19.1212081 C127.531538,19.3737973 127.614811,19.7039534 127.614811,20.1136652 C127.614811,20.4835991 127.521624,20.8495552 127.337233,21.203578 C127.150859,21.5595897 126.881212,21.8758235 126.528292,22.1522795 C126.179337,22.4287355 125.749091,22.6495025 125.243503,22.8165695 C124.735932,22.9836364 124.158967,23.0671699 123.512607,23.0671699 C122.872196,23.0671699 122.311092,23.0055142 121.837227,22.880214 C121.361379,22.7569027 120.96484,22.5878469 120.647608,22.3750354 C120.328393,22.1662018 120.092452,21.921568 119.937802,21.6431232 C119.783151,21.3666672 119.705826,21.0802667 119.705826,20.779944 C119.705826,20.37421 119.832719,20.0281428 120.088487,19.7397535 C120.346238,19.4513641 120.69321,19.2246304 121.133369,19.0615413 C120.897428,18.9501633 120.707089,18.7930409 120.564335,18.5961406 C120.419598,18.3972514 120.346238,18.1386954 120.346238,17.8164949 C120.346238,17.5619167 120.439425,17.2973941 120.625798,17.0209381 C120.812172,16.7444821 121.08975,16.5097928 121.462497,16.3188592 C121.034234,16.082181 120.697175,15.7679361 120.449338,15.3761243 C120.201501,14.9823237 120.076591,14.5248786 120.076591,13.9978222 C120.076591,13.5702104 120.159864,13.1823764 120.326411,12.8382981 C120.490975,12.4942198 120.724933,12.2018527 121.022338,11.9592078 C121.319743,11.716563 121.674646,11.5296071 122.081099,11.4003292 C122.489535,11.2690623 122.935642,11.2054177 123.419421,11.2054177 Z M144.653925,11.2054177 C145.397437,11.2054177 146.043796,11.3605513 146.594987,11.6708185 L149,11.6708185 L149,12.3470418 C149,12.5737755 148.865176,12.7129979 148.595529,12.7627202 L147.735038,12.9059204 C147.881758,13.2360765 147.955118,13.5980549 147.955118,13.9978222 C147.955118,14.4214562 147.871844,14.8073012 147.705298,15.1493907 C147.538751,15.493469 147.310741,15.787825 147.017301,16.0324587 C146.723862,16.2731147 146.374907,16.4600705 145.970436,16.5893485 C145.565966,16.7186265 145.125807,16.7842599 144.653925,16.7842599 C144.473499,16.7842599 144.297039,16.7743154 144.126527,16.7544265 C143.954032,16.7345376 143.787485,16.708682 143.622921,16.6748708 C143.46034,16.7703377 143.341378,16.8737601 143.26207,16.9791713 C143.182762,17.0865715 143.143108,17.1959606 143.143108,17.3093274 C143.143108,17.4942944 143.224399,17.6335168 143.38698,17.723017 C143.551544,17.814506 143.767658,17.8781505 144.035323,17.9179284 C144.301004,17.9596951 144.60634,17.9835618 144.949347,17.9954952 C145.292354,18.0074285 145.641309,18.0273174 145.996212,18.053173 C146.349132,18.0830064 146.698087,18.1287509 147.043076,18.1943844 C147.386083,18.2580289 147.691419,18.367418 147.959083,18.5165849 C148.226748,18.6657518 148.440879,18.8686188 148.60346,19.1212081 C148.766042,19.3737973 148.849315,19.7039534 148.849315,20.1136652 C148.849315,20.4835991 148.756128,20.8495552 148.571737,21.203578 C148.385363,21.5595897 148.115716,21.8758235 147.762796,22.1522795 C147.413841,22.4287355 146.983595,22.6495025 146.478007,22.8165695 C145.970436,22.9836364 145.393471,23.0671699 144.747111,23.0671699 C144.1067,23.0671699 143.545596,23.0055142 143.071731,22.880214 C142.595883,22.7569027 142.199344,22.5878469 141.882112,22.3750354 C141.562897,22.1662018 141.326956,21.921568 141.172306,21.6431232 C141.017655,21.3666672 140.94033,21.0802667 140.94033,20.779944 C140.94033,20.37421 141.067223,20.0281428 141.324974,19.7397535 C141.580742,19.4513641 141.927714,19.2246304 142.367873,19.0615413 C142.131932,18.9501633 141.941593,18.7930409 141.798839,18.5961406 C141.654102,18.3972514 141.580742,18.1386954 141.580742,17.8164949 C141.580742,17.5619167 141.673929,17.2973941 141.860302,17.0209381 C142.046676,16.7444821 142.324254,16.5097928 142.697001,16.3188592 C142.268738,16.082181 141.931679,15.7679361 141.683842,15.3761243 C141.436005,14.9823237 141.311095,14.5248786 141.311095,13.9978222 C141.311095,13.5702104 141.394368,13.1823764 141.560915,12.8382981 C141.725479,12.4942198 141.959437,12.2018527 142.256842,11.9592078 C142.554247,11.716563 142.90915,11.5296071 143.315603,11.4003292 C143.724039,11.2690623 144.170146,11.2054177 144.653925,11.2054177 Z M143.43853,19.3499306 C143.168883,19.491142 142.948804,19.6601978 142.776309,19.859087 C142.605797,20.0539984 142.518558,20.282721 142.518558,20.5432659 C142.518558,20.7123217 142.562178,20.8694442 142.649416,21.0186111 C142.736655,21.1638002 142.873461,21.2910893 143.053887,21.3984894 C143.236295,21.5058896 143.470254,21.591412 143.755762,21.6530676 C144.039288,21.7147233 144.380312,21.7465455 144.780817,21.7465455 C145.579845,21.7465455 146.180603,21.6212453 146.579125,21.3726338 C146.977647,21.1240223 147.175917,20.8057996 147.175917,20.4159768 C147.175917,20.2230542 147.122384,20.0699096 147.011353,19.9545538 C146.904288,19.8391981 146.757568,19.7496979 146.571194,19.6840645 C146.384821,19.6184311 146.168706,19.5706977 145.920869,19.5388754 C145.673032,19.509042 145.409333,19.4871642 145.129772,19.4712531 C144.854177,19.4573308 144.568669,19.4453975 144.279195,19.4314752 C143.987738,19.4155641 143.708177,19.3897085 143.43853,19.3499306 Z M122.204026,19.3499306 C121.934379,19.491142 121.7143,19.6601978 121.541805,19.859087 C121.36931,20.0539984 121.284054,20.282721 121.284054,20.5432659 C121.284054,20.7123217 121.327674,20.8694442 121.414912,21.0186111 C121.502151,21.1638002 121.638957,21.2910893 121.819383,21.3984894 C122.001791,21.5058896 122.23575,21.591412 122.521258,21.6530676 C122.804784,21.7147233 123.145808,21.7465455 123.546313,21.7465455 C124.345341,21.7465455 124.946099,21.6212453 125.344621,21.3726338 C125.743143,21.1240223 125.941413,20.8057996 125.941413,20.4159768 C125.941413,20.2230542 125.88788,20.0699096 125.776849,19.9545538 C125.669784,19.8391981 125.523064,19.7496979 125.33669,19.6840645 C125.150316,19.6184311 124.934202,19.5706977 124.686365,19.5388754 C124.438528,19.509042 124.174829,19.4871642 123.895268,19.4712531 C123.619673,19.4573308 123.334165,19.4453975 123.044691,19.4314752 C122.753234,19.4155641 122.473673,19.3897085 122.204026,19.3499306 Z M44.8183076,7.80282124 L44.8183076,15.1418329 C44.8183076,15.6271225 44.8857194,16.0686566 45.0205429,16.466435 C45.1573491,16.8642134 45.3516536,17.2063028 45.6034563,17.4907144 C45.855259,17.7751259 46.1685254,17.9978818 46.5353246,18.1569932 C46.9060893,18.3141157 47.322456,18.3936713 47.7883902,18.3936713 C48.256307,18.3936713 48.6726738,18.3141157 49.0434384,18.1569932 C49.4102376,17.9978818 49.723504,17.7771148 49.9792722,17.4946921 C50.2350403,17.2122695 50.4313274,16.8721689 50.5661509,16.4743905 C50.7009744,16.0766121 50.7683862,15.6350781 50.7683862,15.1497884 L50.7683862,7.80282124 L52.7352232,7.80282124 L52.7352232,15.1497884 C52.7352232,15.8657896 52.6222094,16.5300795 52.3922164,17.1386805 C52.1661887,17.7492703 51.8370608,18.2743378 51.4107806,18.7178607 C50.9825177,19.1633726 50.4650333,19.5094398 49.8523794,19.7600402 C49.2417083,20.0106406 48.5556945,20.1379297 47.7883902,20.1379297 C47.0230685,20.1379297 46.3370548,20.0106406 45.7263836,19.7600402 C45.1137297,19.5094398 44.5962454,19.1633726 44.1699652,18.7178607 C43.7417023,18.2743378 43.4125743,17.7492703 43.1865467,17.1386805 C42.9565536,16.5300795 42.8435398,15.8657896 42.8435398,15.1497884 L42.8435398,7.80282124 L44.8183076,7.80282124 Z M69.6058076,8.64034368 L69.6058076,11.4745148 L71.9949594,11.4745148 L71.9949594,12.7891725 L69.6058076,12.7891725 L69.6058076,17.6898025 C69.6058076,18.0020585 69.6831328,18.2387367 69.8338179,18.4018258 C69.9864857,18.564915 70.188721,18.6464595 70.4425064,18.6464595 C70.583278,18.6464595 70.7042226,18.6285595 70.8053402,18.5927594 C70.9064579,18.5549705 70.9936966,18.5151926 71.0670565,18.4734259 C71.1384336,18.4296703 71.2038627,18.3918813 71.2573955,18.3540924 C71.3089457,18.3182923 71.3624786,18.3003923 71.412046,18.3003923 C71.5151464,18.3003923 71.596437,18.3560813 71.6579007,18.4694481 L72.1991774,19.356494 C71.9156515,19.6051055 71.5845408,19.798028 71.20188,19.9292949 C70.8192191,20.0625507 70.4246621,20.1281841 70.0201916,20.1281841 C69.3064201,20.1281841 68.7552299,19.9253171 68.3705863,19.5235609 C67.9859428,19.1198158 67.7916383,18.5509927 67.7916383,17.8170915 L67.7916383,12.7891725 L66.8458911,12.7891725 C66.7467562,12.7891725 66.6595174,12.7553613 66.5861576,12.6917168 C66.510815,12.6280722 66.4751264,12.5286276 66.4751264,12.3973607 L66.4751264,11.6614707 L67.8669809,11.4605926 L68.2635206,8.96254419 C68.2932611,8.86508848 68.3408459,8.78752169 68.4102403,8.72984382 C68.4756694,8.66818817 68.5668735,8.64034368 68.6779046,8.64034368 L69.6058076,8.64034368 Z M115.554253,11.1964677 C116.047945,11.1964677 116.490087,11.2780123 116.874731,11.4391126 C117.259374,11.5982239 117.584537,11.8269465 117.84427,12.1193136 C118.105987,12.4136697 118.306239,12.7617258 118.445028,13.1654708 C118.581834,13.5692159 118.651229,14.0167166 118.651229,14.507973 L118.651229,19.9913483 L117.840305,19.9913483 C117.66781,19.9913483 117.534969,19.9674816 117.443765,19.9117926 C117.354544,19.8580926 117.277219,19.7506924 117.215755,19.5856143 L117.039295,18.8835355 C116.819215,19.0804358 116.603101,19.2574472 116.38897,19.4125807 C116.176821,19.5697032 115.954759,19.6989812 115.726748,19.8063814 C115.498738,19.9137815 115.254866,19.9933372 114.99315,20.0490262 C114.731433,20.1007374 114.443942,20.1285819 114.12671,20.1285819 C113.779738,20.1285819 113.454576,20.0788596 113.153205,19.9853816 C112.851835,19.8899148 112.592102,19.7427368 112.372022,19.5498143 C112.151943,19.352914 111.979448,19.112258 111.852555,18.8258576 C111.725662,18.5374682 111.662216,18.1973677 111.662216,17.8095338 C111.662216,17.4753999 111.751437,17.1512105 111.927898,16.8369655 C112.106341,16.5187428 112.397797,16.2363202 112.806233,15.9837309 C113.212686,15.7331305 113.75198,15.5242968 114.418167,15.3612077 C115.086337,15.1981185 115.909156,15.1046406 116.886627,15.0827628 L116.886627,14.507973 C116.886627,13.8854498 116.755769,13.4240268 116.490087,13.1177374 C116.226388,12.813437 115.837779,12.6622812 115.326243,12.6622812 C114.977288,12.6622812 114.685831,12.7040479 114.44989,12.7915591 C114.211966,12.8790704 114.005766,12.9745372 113.831288,13.0759707 C113.656811,13.1774042 113.50216,13.272871 113.36932,13.3583934 C113.232513,13.4459046 113.089759,13.4916491 112.937091,13.4916491 C112.812181,13.4916491 112.709081,13.457838 112.621842,13.3941934 C112.534603,13.32856 112.463226,13.2490043 112.405728,13.1515486 L112.0766,12.5588588 C113.048122,11.6499351 114.208001,11.1964677 115.554253,11.1964677 Z M76.5535801,11.22292 C77.0809779,11.22292 77.5707045,11.3084423 78.0207771,11.4794871 C78.4728324,11.6525207 78.8594586,11.90511 79.1866039,12.2392438 C79.5117665,12.5713888 79.7675346,12.9791117 79.9499428,13.4604235 C80.1323511,13.9437243 80.2235553,14.4946474 80.2235553,15.1072261 C80.2235553,15.3916377 80.1938148,15.5785936 80.1303684,15.6740604 C80.0689048,15.7715161 79.9578736,15.8192495 79.7933097,15.8192495 L74.2655459,15.8192495 C74.2873556,16.3105058 74.3626981,16.7341398 74.4935562,17.0941293 C74.6224316,17.4521299 74.7949264,17.7484748 75.0110406,17.9851529 C75.2291374,18.22382 75.4888709,18.3988425 75.7882584,18.5161871 C76.0896286,18.6315428 76.4266874,18.6892207 76.797452,18.6892207 C77.1503724,18.6892207 77.4596734,18.647454 77.7174242,18.5659094 C77.9771577,18.4843648 78.2012027,18.3928758 78.3915417,18.2954201 C78.5838635,18.1979644 78.7464448,18.1064753 78.883251,18.0249308 C79.0180745,17.9433862 79.1410018,17.9016195 79.2540156,17.9016195 C79.3987526,17.9016195 79.5117665,17.9592973 79.5910744,18.0706753 L80.106576,18.738943 C79.8924446,18.9935212 79.6505554,19.2103104 79.3809083,19.383344 C79.1112613,19.5583665 78.82377,19.7015667 78.5204171,19.8109558 C78.2170642,19.9203449 77.9018152,19.9999006 77.5826007,20.047634 C77.2614035,20.0953674 76.9501198,20.121223 76.6467669,20.121223 C76.0499747,20.121223 75.4968017,20.0197895 74.9872482,19.8189114 C74.4776946,19.6200222 74.0355528,19.3236773 73.6628055,18.9358433 C73.2880755,18.5460205 72.9966188,18.0627197 72.78447,17.485941 C72.574304,16.9111512 72.4672382,16.2468613 72.4672382,15.497049 C72.4672382,14.9003814 72.5624078,14.3395138 72.7507641,13.8224019 C72.9391205,13.3013122 73.2087675,12.8498337 73.5616879,12.4659775 C73.9126255,12.0841102 74.3408884,11.7798098 74.8425112,11.5570539 C75.3461166,11.3342979 75.9171338,11.22292 76.5535801,11.22292 Z M88.7995199,7.46331737 L88.7995199,19.9913483 L87.7011049,19.9913483 C87.4592156,19.9913483 87.3045651,19.8779815 87.2371534,19.64727 L87.0765548,18.7065241 C86.7157036,19.1301581 86.3072677,19.4722475 85.8492643,19.7308035 C85.3892783,19.9893594 84.857915,20.1206263 84.2492265,20.1206263 C83.7654481,20.1206263 83.3272717,20.0231706 82.9327147,19.8262703 C82.5401403,19.6333478 82.2010989,19.3489362 81.9195557,18.9770134 C81.6399952,18.6050906 81.4199156,18.1436676 81.2652651,17.5927445 C81.1106146,17.0418214 81.0332894,16.4133315 81.0332894,15.6993193 C81.0332894,15.0569072 81.1205281,14.4622285 81.2910402,13.9152831 C81.463535,13.3663489 81.7093896,12.8910037 82.0305868,12.4872587 C82.3498013,12.0835136 82.7403929,11.7692686 83.1983963,11.5385572 C83.6563997,11.3098346 84.1699186,11.1964677 84.7389531,11.1964677 C85.246524,11.1964677 85.6767696,11.2780123 86.0316726,11.4391126 C86.384593,11.5982239 86.7018247,11.8229687 86.9853507,12.1113581 L86.9853507,7.46331737 L88.7995199,7.46331737 Z M65.3953488,11.3573691 L65.3953488,19.9931383 L63.5811795,19.9931383 L63.5811795,11.3573691 L65.3953488,11.3573691 Z M96.6902639,7.80321902 L96.6902639,19.9931383 L94.7075653,19.9931383 L94.7075653,7.80321902 L96.6902639,7.80321902 Z M136.991191,11.2221244 C137.463073,11.2221244 137.87944,11.2996912 138.236326,11.4607915 C138.593211,11.617914 138.894582,11.8406699 139.140436,12.1290592 C139.384308,12.4154597 139.566716,12.7615269 139.691626,13.165272 C139.814554,13.569017 139.878,14.0145289 139.878,14.4978296 L139.878,19.9931383 L138.071762,19.9931383 L138.071762,14.4978296 C138.071762,13.9170731 137.936938,13.4655947 137.669274,13.1433941 C137.403592,12.8211936 136.997139,12.6620823 136.449914,12.6620823 C136.045444,12.6620823 135.670714,12.7555602 135.323741,12.9405272 C134.978752,13.1254941 134.653589,13.3800723 134.350236,13.7022728 L134.350236,19.9931383 L132.536067,19.9931383 L132.536067,11.3573691 L133.630517,11.3573691 C133.878354,11.3573691 134.03697,11.4727248 134.106364,11.7054252 L134.231274,12.500982 C134.417648,12.3080595 134.607987,12.1350259 134.810222,11.9798923 C135.010475,11.8247587 135.220641,11.691503 135.446669,11.5781361 C135.672696,11.4647693 135.91062,11.3792469 136.164406,11.3136135 C136.418191,11.2539467 136.691803,11.2221244 136.991191,11.2221244 Z M58.9147,11.2221244 C59.3865823,11.2221244 59.8009663,11.2996912 60.1598348,11.4607915 C60.5147378,11.617914 60.8180907,11.8406699 61.0619627,12.1290592 C61.3058346,12.4154597 61.4902256,12.7615269 61.6151356,13.165272 C61.7360802,13.569017 61.8015092,14.0145289 61.8015092,14.4978296 L61.8015092,19.9931383 L59.9932881,19.9931383 L59.9932881,14.4978296 C59.9932881,13.9170731 59.8604473,13.4655947 59.592783,13.1433941 C59.3271014,12.8211936 58.9206481,12.6620823 58.3734233,12.6620823 C57.9689528,12.6620823 57.5942228,12.7555602 57.2472505,12.9405272 C56.9002782,13.1254941 56.5751157,13.3800723 56.2717628,13.7022728 L56.2717628,19.9931383 L54.4575935,19.9931383 L54.4575935,11.3573691 L55.5540259,11.3573691 C55.8018632,11.3573691 55.9584964,11.4727248 56.0278908,11.7054252 L56.1528009,12.500982 C56.3391745,12.3080595 56.5314963,12.1350259 56.7317489,11.9798923 C56.9320014,11.8247587 57.1441502,11.691503 57.3681951,11.5781361 C57.5942228,11.4647693 57.8341293,11.3792469 58.0879147,11.3136135 C58.3397174,11.2539467 58.6153126,11.2221244 58.9147,11.2221244 Z M130.669753,11.3573691 L130.669753,19.9931383 L128.853601,19.9931383 L128.853601,11.3573691 L130.669753,11.3573691 Z M107.661527,11.2233178 C108.123496,11.2233178 108.535897,11.2949179 108.898731,11.4420959 C109.261565,11.5892739 109.568883,11.8020854 109.818703,12.0805302 C110.068523,12.360964 110.258862,12.7030534 110.387737,13.1107763 C110.518595,13.5165103 110.582042,13.9799221 110.582042,14.4970341 L110.582042,19.9923428 L108.767873,19.9923428 L108.767873,14.4970341 C108.767873,13.890422 108.637014,13.4309879 108.375298,13.1227097 C108.113582,12.8164203 107.726956,12.6612867 107.21542,12.6612867 C106.985426,12.6612867 106.76733,12.7010646 106.565094,12.7806202 C106.362859,12.858187 106.184416,12.9755317 106.033731,13.1266875 C105.881063,13.2798321 105.762101,13.4707658 105.674863,13.6994884 C105.587624,13.926222 105.544005,14.1947225 105.544005,14.4970341 L105.544005,19.9923428 L103.729835,19.9923428 L103.729835,14.4970341 C103.729835,13.8665553 103.602943,13.4031434 103.35114,13.1048096 C103.097354,12.8104536 102.724607,12.6612867 102.234881,12.6612867 C101.897822,12.6612867 101.586538,12.7468091 101.297064,12.9198427 C101.011556,13.0908874 100.747857,13.3275655 100.505967,13.6258994 L100.505967,19.9923428 L98.6898154,19.9923428 L98.6898154,11.3565735 L99.7882305,11.3565735 C100.036068,11.3565735 100.192701,11.4739182 100.260113,11.7046296 L100.379075,12.4584197 C100.537691,12.2774306 100.700272,12.1123525 100.868801,11.9631856 C101.037331,11.8140187 101.217756,11.6827518 101.412061,11.5733628 C101.608348,11.4639737 101.814548,11.3784513 102.036611,11.3148068 C102.260656,11.2531512 102.500562,11.2233178 102.760296,11.2233178 C103.033908,11.2233178 103.287694,11.2611067 103.519669,11.3406624 C103.749662,11.4182292 103.951898,11.531596 104.13034,11.678774 C104.306801,11.8279409 104.459468,12.0029634 104.590327,12.213786 C104.686983,12.3689196 104.771372,12.5408344 104.843492,12.7253353 L104.911,12.912 L104.99291,12.7399036 C105.106859,12.5146656 105.242634,12.3164128 105.40125,12.1461637 C105.597537,11.9293744 105.817617,11.7543519 106.059506,11.6191073 C106.301395,11.4858515 106.559146,11.384418 106.830776,11.3207735 C107.104388,11.2531512 107.381966,11.2233178 107.661527,11.2233178 Z M116.886627,16.2164312 C116.240267,16.2402979 115.693042,16.2920091 115.250901,16.3735537 C114.804793,16.4550983 114.445925,16.5605096 114.17033,16.6858098 C113.892752,16.8150877 113.696465,16.9642546 113.573537,17.1392771 C113.454576,17.3162885 113.393112,17.5052333 113.393112,17.7160558 C113.393112,17.9169339 113.424835,18.0919564 113.490264,18.2371455 C113.553711,18.3803458 113.644915,18.4976904 113.759911,18.5911683 C113.874908,18.6846463 114.011714,18.7522686 114.166364,18.7960242 C114.319032,18.835802 114.489544,18.8576799 114.675918,18.8576799 C115.1478,18.8576799 115.554253,18.7681797 115.895278,18.5911683 C116.236302,18.412168 116.567412,18.1575899 116.886627,17.8174893 L116.886627,16.2164312 Z M85.1612679,12.6026144 C84.4534445,12.6026144 83.8982889,12.8631593 83.4977838,13.384249 C83.0992613,13.9073276 82.8990088,14.6810066 82.8990088,15.6993193 C82.8990088,16.2323424 82.9446109,16.6838209 83.0338323,17.0597215 C83.1250364,17.4336332 83.2539118,17.7419114 83.4224412,17.9785896 C83.5909706,18.2152677 83.7971713,18.3883013 84.0390605,18.4957015 C84.2809497,18.6011128 84.5525794,18.6568018 84.857915,18.6568018 C85.3179011,18.6568018 85.7164235,18.5553683 86.0514996,18.3544902 C86.3865757,18.155601 86.6958767,17.8711894 86.9853507,17.5032444 L86.9853507,13.4817047 C86.7315652,13.1555264 86.4520047,12.9268038 86.1486518,12.7955369 C85.8452989,12.6682478 85.516171,12.6026144 85.1612679,12.6026144 Z M123.419421,12.5001865 C122.862282,12.5001865 122.44195,12.6394089 122.156442,12.913876 C121.874898,13.1923209 121.730161,13.5682215 121.730161,14.0415778 C121.730161,14.2663226 121.767833,14.4771451 121.841192,14.6680788 C121.914552,14.8590124 122.021618,15.0240905 122.16239,15.1633129 C122.303161,15.3025353 122.477639,15.4079466 122.689788,15.4835245 C122.899954,15.5610913 123.143825,15.5988803 123.419421,15.5988803 C123.982507,15.5988803 124.404822,15.45568 124.686365,15.1672907 C124.965926,14.8808902 125.10868,14.5030007 125.10868,14.0415778 C125.10868,13.5682215 124.965926,13.1923209 124.686365,12.913876 C124.404822,12.6394089 123.982507,12.5001865 123.419421,12.5001865 Z M144.653925,12.5001865 C144.096786,12.5001865 143.676454,12.6394089 143.392928,12.913876 C143.109402,13.1923209 142.964665,13.5682215 142.964665,14.0415778 C142.964665,14.2663226 143.002337,14.4771451 143.075697,14.6680788 C143.149056,14.8590124 143.256122,15.0240905 143.396894,15.1633129 C143.537665,15.3025353 143.712143,15.4079466 143.924292,15.4835245 C144.134458,15.5610913 144.37833,15.5988803 144.653925,15.5988803 C145.217011,15.5988803 145.639326,15.45568 145.920869,15.1672907 C146.20043,14.8808902 146.343184,14.5030007 146.343184,14.0415778 C146.343184,13.5682215 146.20043,13.1923209 145.920869,12.913876 C145.639326,12.6394089 145.217011,12.5001865 144.653925,12.5001865 Z M76.5853033,12.5435443 C75.9270473,12.5435443 75.4115457,12.732489 75.0328503,13.1103785 C74.6581202,13.488268 74.4182137,14.0193022 74.3170961,14.7014922 L78.5957597,14.7014922 C78.5957597,14.3971917 78.5521403,14.1127801 78.4649016,13.8502464 C78.3776628,13.5877126 78.2487874,13.35899 78.080258,13.1660675 C77.9117287,12.9711561 77.7015626,12.8180114 77.4517426,12.7086223 C77.2019226,12.5972444 76.9124486,12.5435443 76.5853033,12.5435443 Z M17.2661327,-3.37507799e-14 L17.2661327,13.3335322 L11.5103586,10.0001492 L11.5103586,3.33338306 L17.2661327,-3.37507799e-14 Z M64.4674458,7.53074081 C64.6359752,7.53074081 64.7945911,7.56455198 64.9432935,7.62819652 C65.0919959,7.69382996 65.2248367,7.78134121 65.3358678,7.89073027 C65.4488816,8.00011933 65.5381031,8.12939732 65.6015494,8.27657533 C65.6649958,8.42176445 65.6987017,8.58087581 65.6987017,8.74993163 C65.6987017,8.91302078 65.6649958,9.06815436 65.6015494,9.21533237 C65.5381031,9.36251038 65.4488816,9.48979947 65.3358678,9.60117742 C65.2248367,9.71255538 65.0919959,9.80006663 64.9432935,9.86371117 C64.7945911,9.92735572 64.6359752,9.96116688 64.4674458,9.96116688 C64.3048645,9.96116688 64.150214,9.92735572 64.005477,9.86371117 C63.8627227,9.80006663 63.7378127,9.71255538 63.630747,9.60117742 C63.5236813,9.48979947 63.4384252,9.36251038 63.3729962,9.21533237 C63.3095498,9.06815436 63.2758439,8.91302078 63.2758439,8.74993163 C63.2758439,8.58087581 63.3095498,8.42176445 63.3729962,8.27657533 C63.4384252,8.12939732 63.5236813,8.00011933 63.630747,7.89073027 C63.7378127,7.78134121 63.8627227,7.69382996 64.005477,7.62819652 C64.150214,7.56455198 64.3048645,7.53074081 64.4674458,7.53074081 Z M129.74185,7.53074081 C129.910379,7.53074081 130.068995,7.56455198 130.217698,7.62819652 C130.3664,7.69382996 130.497258,7.78134121 130.610272,7.89073027 C130.723286,8.00011933 130.812507,8.12939732 130.875954,8.27657533 C130.941383,8.42176445 130.973106,8.58087581 130.973106,8.74993163 C130.973106,8.91302078 130.941383,9.06815436 130.875954,9.21533237 C130.812507,9.36251038 130.723286,9.48979947 130.610272,9.60117742 C130.497258,9.71255538 130.3664,9.80006663 130.217698,9.86371117 C130.068995,9.92735572 129.910379,9.96116688 129.74185,9.96116688 C129.579269,9.96116688 129.424618,9.92735572 129.279881,9.86371117 C129.137127,9.80006663 129.012217,9.71255538 128.905151,9.60117742 C128.798085,9.48979947 128.712829,9.36251038 128.649383,9.21533237 C128.583954,9.06815436 128.550248,8.91302078 128.550248,8.74993163 C128.550248,8.58087581 128.583954,8.42176445 128.649383,8.27657533 C128.712829,8.12939732 128.798085,8.00011933 128.905151,7.89073027 C129.012217,7.78134121 129.137127,7.69382996 129.279881,7.62819652 C129.424618,7.56455198 129.579269,7.53074081 129.74185,7.53074081 Z" id="形状结合" fill="#FFFFFF"></path>
    </g>
</svg>