<?xml version="1.0" encoding="UTF-8"?>
<svg width="40px" height="40px" viewBox="0 0 40 40" version="1.1" xmlns="http://www.w3.org/2000/svg" xmlns:xlink="http://www.w3.org/1999/xlink">
    <!-- Generator: Sketch 64 (93537) - https://sketch.com -->
    <title>icon/light/icon_light_unknown-3备份</title>
    <desc>Created with Sketch.</desc>
    <g id="icon/light/icon_light_unknown-3备份" stroke="none" stroke-width="1" fill="none" fill-rule="evenodd">
        <path d="M17.5,15 C21.6421356,15 25,18.3578644 25,22.5 C25,26.6421356 21.6421356,30 17.5,30 L7,30 L7,15 L17.5,15 Z M7,29 L17.5,29 C21.0898509,29 24,26.0898509 24,22.5 C24,18.9881894 21.2150038,16.1268494 17.7331341,16.004103 L17.5,16 L7,16 L7,29 Z" id="矩形" fill="#FFFFFF" fill-rule="nonzero" transform="translate(16.000000, 22.500000) scale(-1, 1) translate(-16.000000, -22.500000) "></path>
        <polygon id="矩形" fill="#82B1FF" transform="translate(27.000000, 15.500000) scale(-1, 1) translate(-27.000000, -15.500000) " points="23 15.5 31 11 31 20"></polygon>
    </g>
</svg>