<?xml version="1.0" encoding="UTF-8"?>
<svg width="40px" height="40px" viewBox="0 0 40 40" version="1.1" xmlns="http://www.w3.org/2000/svg" xmlns:xlink="http://www.w3.org/1999/xlink">
    <!-- Generator: Sketch 64 (93537) - https://sketch.com -->
    <title>icon/light/icon_light_help</title>
    <desc>Created with Sketch.</desc>
    <g id="icon/light/icon_light_help" stroke="none" stroke-width="1" fill="none" fill-rule="evenodd">
        <path d="M20,8 C26.627417,8 32,13.372583 32,20 C32,26.627417 26.627417,32 20,32 C13.372583,32 8,26.627417 8,20 C8,13.372583 13.372583,8 20,8 Z M20,9 C13.9248678,9 9,13.9248678 9,20 C9,26.0751322 13.9248678,31 20,31 C26.0751322,31 31,26.0751322 31,20 C31,13.9248678 26.0751322,9 20,9 Z" id="椭圆形" fill="#FFFFFF" fill-rule="nonzero"></path>
        <path d="M21.0366133,22.8846154 L21.0366133,22.5054945 C21.0366133,22.0604396 21.1327231,21.6648352 21.3409611,21.3021978 C21.5011442,21.0054945 21.7414188,20.7087912 22.0938215,20.3956044 C22.798627,19.7527473 23.2311213,19.3241758 23.3913043,19.1263736 C23.791762,18.5824176 24,17.9395604 24,17.1978022 C24,16.2087912 23.6956522,15.4340659 23.1029748,14.8736264 C22.4782609,14.2802198 21.6613272,14 20.6361556,14 C19.4828375,14 18.5858124,14.3626374 17.9450801,15.0879121 C17.3043478,15.7802198 17,16.7032967 17,17.8571429 L18.2654462,17.8571429 C18.2654462,17.0494505 18.4416476,16.4230769 18.7940503,15.9615385 C19.1784897,15.4175824 19.771167,15.1538462 20.5720824,15.1538462 C21.2448513,15.1538462 21.7734554,15.3351648 22.1418764,15.7307692 C22.4942792,16.0934066 22.6864989,16.6043956 22.6864989,17.2637363 C22.6864989,17.7252747 22.5263158,18.1538462 22.2059497,18.5659341 C22.1098398,18.6978022 21.9176201,18.8956044 21.6613272,19.1593407 C20.7963387,19.9505495 20.2677346,20.5769231 20.0434783,21.0714286 C19.8512586,21.4835165 19.7551487,21.9615385 19.7551487,22.5054945 L19.7551487,22.8846154 L21.0366133,22.8846154 Z M20.395881,26 C20.6681922,26 20.8924485,25.9010989 21.0846682,25.7197802 C21.2768879,25.5384615 21.3729977,25.3076923 21.3729977,25.010989 C21.3729977,24.7307692 21.2768879,24.5 21.1006865,24.3186813 C20.9084668,24.1208791 20.6681922,24.0384615 20.395881,24.0384615 C20.1235698,24.0384615 19.8993135,24.1208791 19.7070938,24.3186813 C19.5148741,24.5 19.4347826,24.7307692 19.4347826,25.010989 C19.4347826,25.2912088 19.5148741,25.521978 19.7070938,25.7197802 C19.8993135,25.9010989 20.1235698,26 20.395881,26 Z" id="？" fill="#82B1FF"></path>
    </g>
</svg>