<?xml version="1.0" encoding="UTF-8"?>
<svg width="38px" height="38px" viewBox="0 0 38 38" version="1.1" xmlns="http://www.w3.org/2000/svg" xmlns:xlink="http://www.w3.org/1999/xlink">
    <!-- Generator: Sketch 62 (91390) - https://sketch.com -->
    <title>icon/tool/自定义切割</title>
    <desc>Created with Sketch.</desc>
    <g id="icon/tool/自定义切割" stroke="none" stroke-width="1" fill="none" fill-rule="evenodd">
        <path d="M30.5596843,14 C30.6849291,14 30.8101737,14 30.9354186,14.1258741 L31.8121329,15.0069929 C32.0626224,15.2587407 32.0626224,15.6363618 31.8121329,15.8881117 L26.6771072,21.3007024 L29.6829817,24.0699308 C29.9334711,24.3216786 29.9334711,24.8251746 29.6829817,25.0769216 C24.547956,28.8531408 19.66341,31.1188723 14.7788641,32 L14.6536192,32 C14.1526392,32 13.7769049,31.3706311 14.1526392,30.9930092 L21.917805,22.6853269 L29.9334799,14.1259065 C30.1839693,14.1259065 30.4344599,14 30.5597028,14" id="路径" fill="#82B1FF"></path>
        <path d="M31,13 L30,13 L30,7 L7,7 L7,30 L12,30 L12,31 L6,31 L6,6 L31,6 L31,13 Z" id="形状结合" fill="#FFFFFF"></path>
    </g>
</svg>