<?xml version="1.0" encoding="UTF-8"?>
<svg width="40px" height="40px" viewBox="0 0 40 40" version="1.1" xmlns="http://www.w3.org/2000/svg" xmlns:xlink="http://www.w3.org/1999/xlink">
    <!-- Generator: Sketch 64 (93537) - https://sketch.com -->
    <title>icon/light/icon_light_move</title>
    <desc>Created with Sketch.</desc>
    <g id="icon/light/icon_light_move" stroke="none" stroke-width="1" fill="none" fill-rule="evenodd">
        <path d="M26.3858541,12.168971 L27.0929608,12.8760777 L20.020971,19.9467184 L27.0929608,27.0182134 L26.3858541,27.7253202 L19.313971,20.6537184 L12.3933537,27.5756849 L12.0942235,27.5758252 L11.5366117,27.0182134 L18.607971,19.9477184 L12.2437184,13.5831845 L12.9508252,12.8760777 L19.314971,19.2407184 L26.3858541,12.168971 Z" id="Combined-Shape" fill="#82B1FF" transform="translate(19.947146, 19.947146) rotate(-315.000000) translate(-19.947146, -19.947146) "></path>
        <path d="M11,23.02 L15.98,28 L11,28 L11,23.02 Z M28,23.02 L28,28 L23.019,28 L28,23.02 Z M28,11 L28,15.98 L23.02,11 L28,11 Z M15.98,11 L11,15.979 L11,11 L15.98,11 Z" id="Combined-Shape" fill="#FFFFFF" transform="translate(19.500000, 19.500000) rotate(-315.000000) translate(-19.500000, -19.500000) "></path>
    </g>
</svg>