<?xml version="1.0" encoding="UTF-8"?>
<svg width="48px" height="48px" viewBox="0 0 48 48" version="1.1" xmlns="http://www.w3.org/2000/svg" xmlns:xlink="http://www.w3.org/1999/xlink">
    <!-- Generator: Sketch 59.1 (86144) - https://sketch.com -->
    <title>icon/light/M2</title>
    <desc>Created with Sketch.</desc>
    <g id="icon/light/M2" stroke="none" stroke-width="1" fill="none" fill-rule="evenodd">
        <g id="编组" transform="translate(16.000000, 14.000000)">
            <path d="M14.0169964,0 L14.016,10 L13.016,10 L13.016,9.56 L12.576,10 L11.162,10 L13.016,8.146 L13.016,4.855 L7.871,10 L6.457,10 L13.0169964,3.44049367 L13.016,1 L12.195,1 L1.016,12.18 L1.016,15.441 L4.016,12.441 L4.016,13.855 L1.871,16 L4.016,16 L4.016,17 L0.016996404,17 L0.016,8.016 L6.21724894e-15,8.00082091 L0.016,7.984 L0.016996404,0 L14.0169964,0 Z M10.781,1 L8.414,1 L1.016,8.398 L1.016,10.766 L10.781,1 Z M7,1 L4.791,1 L1.016,4.774 L1.016,6.984 L7,1 Z M3.377,1 L1.016,1 L1.016,3.36 L3.377,1 Z" id="形状结合" fill="#337DFF"></path>
            <path d="M9.3289964,11.566 C10.3929964,11.566 11.1629964,11.972 11.6109964,12.784 C11.9329964,12.336 12.2829964,12.014 12.6469964,11.832 C12.9829964,11.65 13.3889964,11.566 13.8789964,11.566 C14.6209964,11.566 15.2369964,11.804 15.7269964,12.308 C16.2029964,12.798 16.4549964,13.442 16.4549964,14.254 L16.4549964,19 L14.9709964,19 L14.9709964,14.506 C14.9709964,13.918 14.8449964,13.484 14.5929964,13.218 C14.3409964,12.938 13.9209964,12.812 13.3609964,12.812 C12.9409964,12.812 12.6049964,12.966 12.3249964,13.274 C12.0449964,13.582 11.9049964,14.016 11.9049964,14.548 L11.9049964,19 L10.4209964,19 L10.4209964,14.52 C10.4209964,13.372 9.9169964,12.812 8.9369964,12.812 C8.4609964,12.812 8.0689964,12.994 7.7889964,13.358 C7.4809964,13.708 7.3409964,14.142 7.3409964,14.646 L7.3409964,19 L5.8569964,19 L5.8569964,11.762 L7.3409964,11.762 L7.3409964,12.56 C7.9289964,11.888 8.6009964,11.566 9.3289964,11.566 Z M19.5049964,7.176 C20.0489964,7.176 20.5049964,7.328 20.8569964,7.648 C21.2009964,7.968 21.3769964,8.376 21.3769964,8.88 C21.3769964,9.376 21.1849964,9.824 20.8169964,10.232 C20.5929964,10.464 20.2009964,10.768 19.6329964,11.152 C19.0169964,11.56 18.6489964,11.92 18.5289964,12.232 L21.3849964,12.232 L21.3849964,13 L17.4489964,13 C17.4489964,12.432 17.6329964,11.936 18.0169964,11.504 C18.2249964,11.256 18.6569964,10.912 19.3049964,10.464 C19.6889964,10.192 19.9609964,9.976 20.1209964,9.808 C20.3769964,9.52 20.5129964,9.208 20.5129964,8.872 C20.5129964,8.552 20.4249964,8.312 20.2489964,8.152 C20.0729964,7.992 19.8089964,7.912 19.4729964,7.912 C19.1129964,7.912 18.8409964,8.032 18.6569964,8.28 C18.4649964,8.52 18.3689964,8.864 18.3529964,9.328 L17.4809964,9.328 C17.4889964,8.688 17.6729964,8.176 18.0329964,7.792 C18.4009964,7.376 18.8969964,7.176 19.5049964,7.176 Z" id="形状" fill="#FFFFFF"></path>
        </g>
    </g>
</svg>