<?xml version="1.0" encoding="UTF-8"?>
<svg width="40px" height="40px" viewBox="0 0 40 40" version="1.1" xmlns="http://www.w3.org/2000/svg" xmlns:xlink="http://www.w3.org/1999/xlink">
    <!-- Generator: Sketch 64 (93537) - https://sketch.com -->
    <title>icon/light/icon_light_zoom_1</title>
    <desc>Created with Sketch.</desc>
    <g id="icon/light/icon_light_zoom_1" stroke="none" stroke-width="1" fill="none" fill-rule="evenodd">
        <path d="M17.9716735,10 C22.3743073,10 25.9433471,13.5690398 25.9433471,17.9716735 C25.9433471,19.9936487 25.19055,21.8397987 23.9499388,23.2451406 L30,29.2953969 L29.2953969,30 L23.2451406,23.9499388 C21.8397987,25.19055 19.9936487,25.9433471 17.9716735,25.9433471 C13.5690398,25.9433471 10,22.3743073 10,17.9716735 C10,13.5690398 13.5690398,10 17.9716735,10 Z M17.9716735,10.9964592 C14.119369,10.9964592 10.9964592,14.119369 10.9964592,17.9716735 C10.9964592,21.823978 14.119369,24.9468879 17.9716735,24.9468879 C21.823978,24.9468879 24.9468879,21.823978 24.9468879,17.9716735 C24.9468879,14.119369 21.823978,10.9964592 17.9716735,10.9964592 Z" id="Combined-Shape" fill="#FFFFFF"></path>
        <path d="M21,20.9411765 L21,22 L15,22 L15,20.9411765 L21,20.9411765 Z M18.5,13 L18.5,15.647 L21,15.6470588 L21,16.7058824 L18.5,16.705 L18.5,19.3529412 L17.5,19.3529412 L17.5,16.705 L15,16.7058824 L15,15.6470588 L17.5,15.647 L17.5,13 L18.5,13 Z" id="形状结合" fill="#82B1FF"></path>
    </g>
</svg>