<?xml version="1.0" encoding="UTF-8"?>
<svg width="48px" height="48px" viewBox="0 0 48 48" version="1.1" xmlns="http://www.w3.org/2000/svg" xmlns:xlink="http://www.w3.org/1999/xlink">
    <!-- Generator: Sketch 59.1 (86144) - https://sketch.com -->
    <title>icon/无异物插画</title>
    <desc>Created with Sketch.</desc>
    <g id="icon/无异物插画" stroke="none" stroke-width="1" fill="none" fill-rule="evenodd">
        <rect id="Rectangle" fill-opacity="0" fill="#F1F1F1" x="0" y="0" width="48" height="48"></rect>
        <path d="M29,6 L35,12 L35,24 L38.8393549,24 C39.5570686,24 40.2197555,24.3845721 40.5758412,25.0077221 L43.999,30.999 L44,31 L44,41 C44,42.1045695 43.1045695,43 42,43 L6,43 C4.8954305,43 4,42.1045695 4,41 L4,31 L4.001,30.999 L7.42415879,25.0077221 C7.7802445,24.3845721 8.44293138,24 9.16064507,24 L13,24 L13,7 C13,6.44771525 13.4477153,6 14,6 L29,6 Z M43,32 L29.917,32 L29.8727894,32.2348808 C29.3034645,34.9561719 26.8904131,37 24,37 C21.0273551,37 18.55962,34.8382245 18.0831273,32.0010063 L5,32 L5,41 C5,41.5522847 5.44771525,42 6,42 L42,42 C42.5522847,42 43,41.5522847 43,41 L43,32 Z M22.8420108,35.8652257 C22.8674674,35.871263 22.8931708,35.8771435 22.9189489,35.882825 C22.9636965,35.8926874 23.0086569,35.901948 23.0538333,35.9106007 L23.1140992,35.9217592 L23.1473526,35.9275886 C23.1801657,35.9332263 23.2130881,35.9385442 23.2461165,35.9435391 C23.280859,35.9487949 23.3159761,35.9537267 23.3512083,35.9582917 L23.3874301,35.9628506 L23.5283836,35.9780491 C23.5434171,35.9794556 23.5584699,35.9807955 23.5735417,35.9820685 L23.3874301,35.9628506 C23.4873639,35.9750654 23.5882972,35.984332 23.6900974,35.9905553 C23.7925378,35.9968185 23.8958974,36 24,36 C24.1041026,36 24.2074622,35.9968185 24.3099868,35.9905475 C24.3490668,35.9881574 24.3880659,35.985315 24.4269383,35.9820279 C24.4415301,35.9807955 24.4565829,35.9794556 24.4716164,35.9780491 L24.6129144,35.9628085 L24.6129144,35.9628085 L24.6484395,35.9583373 C24.6840239,35.9537267 24.719141,35.9487949 24.7541392,35.9435004 L24.8526474,35.9275886 L24.8859008,35.9217592 C24.9060549,35.9181557 24.9261672,35.9144315 24.9462369,35.9105872 C24.9913431,35.901948 25.0363035,35.8926874 25.0810391,35.8828277 C25.1068292,35.8771435 25.1325326,35.871263 25.1581597,35.8651853 L25.2414141,35.8446798 C25.2523819,35.8418778 25.2633352,35.8390395 25.2742738,35.8361651 L25.2923861,35.831369 C25.3222238,35.8234056 25.3516388,35.815263 25.3809437,35.8068596 C25.4163128,35.7967204 25.4519167,35.7860785 25.4873515,35.775053 L25.6585281,35.7183591 L25.6867249,35.7083525 C25.7184981,35.696967 25.7499081,35.6853509 25.7811677,35.6734301 L25.8265292,35.6558766 C25.8347915,35.6526327 25.8430431,35.6493675 25.8512839,35.6460809 L25.894606,35.6285669 L25.894606,35.6285669 C25.9181698,35.6189088 25.9412166,35.6092587 25.9641751,35.5994417 L26.0218465,35.5743496 L26.0218465,35.5743496 L26.0401787,35.5661897 C26.0465772,35.5633265 26.0529685,35.5604502 26.0593527,35.557561 L26.0794894,35.5483937 L26.0794894,35.5483937 C26.1162728,35.5315438 26.1522657,35.5145294 26.1880197,35.4971011 L26.2111824,35.4857362 C26.2171568,35.4827856 26.2231244,35.4798234 26.2290853,35.4768496 L26.246318,35.4682109 L26.246318,35.4682109 C26.2871423,35.4476414 26.3271804,35.4267798 26.3668962,35.4053968 L26.3897572,35.3930114 C26.4001358,35.3873535 26.4104922,35.38166 26.4208261,35.3759309 L26.4460726,35.3618386 C26.4801216,35.3427026 26.513867,35.3232133 26.5473606,35.303344 L26.6130909,35.2636655 C26.646865,35.2429194 26.6801392,35.2219351 26.7131455,35.2005724 C26.7478821,35.1780925 26.7825377,35.1550461 26.8168856,35.1315827 C26.8332915,35.1203754 26.8495868,35.1091013 26.8658114,35.0977332 L26.8796819,35.0879797 C26.8997401,35.0738243 26.9196895,35.0595249 26.9395286,35.0450832 L27.0001943,35.0002202 L27.0001943,35.0002202 C27.0119036,34.9914242 27.0235855,34.9825685 27.0352271,34.9736627 C27.0686444,34.9480982 27.1016998,34.9221458 27.1344164,34.8957898 C27.1602989,34.8749379 27.1858603,34.8539249 27.2112077,34.832665 C27.2469172,34.8027169 27.2823727,34.7721275 27.3173889,34.741054 C27.3344404,34.7259284 27.3520952,34.7100424 27.3696357,34.6940333 C27.3896484,34.675763 27.4090435,34.6577739 27.4282948,34.6396338 L27.4954333,34.5751876 L27.5725235,34.4981557 L27.6301288,34.4383542 C27.6530284,34.4141855 27.6756892,34.3897883 27.6981075,34.3651664 L27.5725235,34.4981557 C27.6403855,34.4288522 27.7062157,34.3576246 27.7699367,34.2845502 C27.7935752,34.2574412 27.8166423,34.2304098 27.8394241,34.2031319 C27.8662042,34.1710707 27.8928562,34.1383359 27.9190969,34.1052629 C27.9335909,34.0869953 27.9479361,34.068654 27.9621555,34.0502107 L28.0160089,33.9790611 L28.0160089,33.9790611 L28.0346951,33.9537465 C28.1426626,33.806517 28.2427656,33.6531595 28.3343854,33.4942929 C28.3402082,33.4841946 28.3459556,33.4741479 28.351669,33.4640794 C28.4448173,33.2999404 28.528999,33.1298897 28.6034743,32.9547173 C28.6089318,32.9418792 28.6142618,32.9291953 28.6195408,32.916485 C28.6580673,32.8237365 28.6939561,32.7293636 28.7270212,32.6336738 L28.7218392,32.6485935 C28.7428183,32.588487 28.7625773,32.5281993 28.7812091,32.4674188 L28.7891465,32.4412684 C28.7959179,32.4187363 28.8025312,32.3961495 28.8089887,32.3734971 L28.8213032,32.3295322 C28.8299866,32.297973 28.8383683,32.2662889 28.8464452,32.2344831 L28.8089887,32.3734971 C28.8410662,32.2609768 28.8693141,32.1467762 28.8935643,32.0311055 L28.8997409,32.0011864 L28.9121301,31.9381459 C28.920026,31.8965509 28.9274068,31.8547736 28.9342654,31.8128207 L28.8997409,32.0011864 C28.9211245,31.8960848 28.9392122,31.7896717 28.9538833,31.6820952 C28.9580462,31.6514066 28.961899,31.6210724 28.9654787,31.5906546 C28.9702851,31.5499583 28.9746094,31.5088585 28.9784334,31.4676061 C28.9832745,31.4152923 28.9873202,31.3627501 28.9905475,31.3099868 C28.9919342,31.2873707 28.9931686,31.2646758 28.9942512,31.2419401 L28.9953805,31.2168896 L28.9953805,31.2168896 L29,31 L29,31 L34,31 L34,13 L29,13 C28.4477153,13 28,12.5522847 28,12 L28,6.999 L14,7 L14,31 L19,31 L19,31 C19,31.0814569 19.0019479,31.1624589 19.0057996,31.2429619 L19,31 C19,31.1041245 19.0031828,31.2075056 19.0094565,31.3100514 C19.0126798,31.3627501 19.0167255,31.4152923 19.0215768,31.4676008 C19.0254989,31.5098794 19.0299352,31.5519039 19.0348889,31.5937699 C19.0381944,31.6217125 19.0417472,31.649709 19.0455305,31.6776323 L19.0569733,31.7572635 L19.0569733,31.7572635 L19.066552,31.8178048 C19.0730123,31.8570715 19.0799301,31.8961841 19.0872997,31.9351369 L19.1002591,32.0011864 L19.1064357,32.0311055 C19.1207718,32.0994873 19.1365051,32.1673553 19.1536043,32.2346783 C19.1616317,32.2662889 19.1700134,32.297973 19.1786968,32.3295322 L19.1910281,32.3735561 L19.1910281,32.3735561 C19.1974688,32.3961495 19.2040821,32.4187363 19.2108498,32.4412562 L19.2187098,32.467154 C19.2358633,32.5231122 19.2538958,32.5784338 19.272851,32.6333038 C19.3060439,32.7293636 19.3419327,32.8237365 19.3805455,32.9166928 L19.2780434,32.6482574 C19.3142286,32.7519064 19.35372,32.8539863 19.396392,32.9543736 C19.471001,33.1298897 19.5551827,33.2999404 19.6483955,33.4641944 C19.6540337,33.4741219 19.6597814,33.4841697 19.6655628,33.4941954 C19.7572344,33.6531595 19.8573374,33.806517 19.9653049,33.9537465 L19.9839762,33.979041 L19.9839762,33.979041 L20.0378445,34.0502107 C20.0520639,34.068654 20.0664091,34.0869953 20.080879,34.1052332 L19.9839762,33.979041 C20.0408265,34.055554 20.0998085,34.1303832 20.1608352,34.2034419 C20.1833577,34.2304098 20.2064248,34.2574412 20.2297725,34.2842215 C20.2525684,34.3103647 20.2753743,34.3359855 20.2984376,34.3613679 C20.3315009,34.397759 20.3652452,34.433818 20.3995111,34.4693708 L20.427275,34.49795 L20.427275,34.49795 L20.4644661,34.5355339 L20.5045667,34.5751876 C20.5268254,34.5969528 20.5492865,34.6185118 20.571947,34.6398616 L20.61017,34.6755008 C20.6167267,34.6815509 20.6232997,34.6875837 20.6298888,34.6935992 L20.6833276,34.7416896 C20.7176273,34.7721275 20.7530828,34.8027169 20.7889672,34.8328117 C20.8141397,34.8539249 20.8397011,34.8749379 20.8654728,34.8957005 C20.8983002,34.9221458 20.9313556,34.9480982 20.9647424,34.9736393 C20.9764145,34.9825685 20.9880964,34.9914242 20.9998183,35.0002297 L21.0604714,35.0450832 C21.0803105,35.0595249 21.1002599,35.0738243 21.1203181,35.0879797 L21.1342124,35.0977499 L21.1342124,35.0977499 C21.1504132,35.1091013 21.1667085,35.1203754 21.1830736,35.1315548 C21.2174623,35.1550461 21.2521179,35.1780925 21.2870737,35.2007143 C21.3198608,35.2219351 21.353135,35.2429194 21.3866707,35.2635191 L21.4528543,35.3034715 C21.486133,35.3232133 21.5198784,35.3427026 21.5538697,35.3618062 L21.5791739,35.3759309 C21.5895078,35.38166 21.5998642,35.3873535 21.6102428,35.3930114 L21.6331282,35.4054099 C21.6724943,35.4266046 21.7122013,35.4472994 21.7522167,35.4674725 C21.7653478,35.4740907 21.7780571,35.4804283 21.7907971,35.4867132 L21.8126039,35.4974051 L21.8126039,35.4974051 C21.8477343,35.5145294 21.8837272,35.5315438 21.9199526,35.5481382 L21.9487154,35.5612036 C21.9524149,35.56287 21.9561169,35.564532 21.9598213,35.5661897 L21.9199526,35.5481382 C21.9588492,35.5659504 21.9974483,35.5830366 22.0363003,35.5996449 C22.0587834,35.6092587 22.0818302,35.6189088 22.1049639,35.6283906 L22.1275337,35.6375767 C22.1447821,35.6445476 22.1620782,35.6514251 22.1794215,35.6582085 L22.2191873,35.6735654 L22.2191873,35.6735654 C22.2500919,35.6853509 22.2815019,35.696967 22.3130586,35.7082749 L22.3414719,35.7183591 L22.4824745,35.7655587 C22.4923835,35.7687113 22.5023059,35.7718339 22.5122417,35.7749264 C22.5480833,35.7860785 22.5836872,35.7967204 22.6194552,35.806974 C22.6483612,35.815263 22.6777762,35.8234056 22.7072988,35.8312849 L22.7257262,35.8361651 C22.7366648,35.8390395 22.7476181,35.8418778 22.7585859,35.8446798 L22.8420108,35.8652257 L22.8420108,35.8652257 Z M35,24.999 L35,31 L42.847,30.999 L39.7075981,25.5038611 C39.5295552,25.1922861 39.1982118,25 38.8393549,25 L35,24.999 Z M13,24.999 L9.16064507,25 C8.80178822,25 8.47044478,25.1922861 8.29240193,25.5038611 L5.152,30.999 L13,31 L13,24.999 Z M21.5355339,16.8284271 L23.6561471,18.9490404 L25.7781746,16.8284271 C25.9734367,16.633165 26.2900192,16.633165 26.4852814,16.8284271 C26.6805435,17.0236893 26.6805435,17.3402718 26.4852814,17.5355339 L24.3632539,19.6561471 L26.4852814,21.7781746 C26.6805435,21.9734367 26.6805435,22.2900192 26.4852814,22.4852814 C26.2900192,22.6805435 25.9734367,22.6805435 25.7781746,22.4852814 L23.6561471,20.3632539 L21.5355339,22.4852814 C21.3402718,22.6805435 21.0236893,22.6805435 20.8284271,22.4852814 C20.633165,22.2900192 20.633165,21.9734367 20.8284271,21.7781746 L22.9490404,19.6561471 L20.8284271,17.5355339 C20.633165,17.3402718 20.633165,17.0236893 20.8284271,16.8284271 C21.0236893,16.633165 21.3402718,16.633165 21.5355339,16.8284271 Z M29,7.414 L29,12 L33.586,12 L29,7.414 Z" id="形状结合" fill="#595959"></path>
    </g>
</svg>