<?xml version="1.0" encoding="UTF-8"?>
<svg width="40px" height="40px" viewBox="0 0 40 40" version="1.1" xmlns="http://www.w3.org/2000/svg" xmlns:xlink="http://www.w3.org/1999/xlink">
    <!-- Generator: Sketch 64 (93537) - https://sketch.com -->
    <title>icon/light/icon_light_windowing_pre</title>
    <desc>Created with Sketch.</desc>
    <g id="icon/light/icon_light_windowing_pre" stroke="none" stroke-width="1" fill="none" fill-rule="evenodd">
        <path d="M27.9316406,27.6802615 C28.5488312,27.6802615 29.0358055,27.8832742 29.3925781,28.2893057 C29.7493507,28.6953372 29.919922,29.3173474 29.9042969,30.1553549 L27.1542969,30.1553549 C27.1621094,30.4796612 27.2506502,30.7319678 27.4199219,30.9122821 C27.5891936,31.0925964 27.8001289,31.1827522 28.0527344,31.1827522 C28.2246102,31.1827522 28.36914,31.1360528 28.4863281,31.0426526 C28.6035162,30.9492523 28.692057,30.7987765 28.7519531,30.5912204 L29.8457031,30.7741283 C29.7050774,31.1736736 29.4830744,31.4778684 29.1796875,31.6867217 C28.8763006,31.8955749 28.4967471,32 28.0410156,32 C27.3196579,32 26.785809,31.7652058 26.4394531,31.2956102 C26.1660143,30.9194149 26.0292969,30.4446376 26.0292969,29.871264 C26.0292969,29.1863291 26.2089826,28.6499345 26.5683594,28.2620641 C26.9277362,27.8741938 27.3821587,27.6802615 27.9316406,27.6802615 Z M19.7636719,26.2014321 C20.4668004,26.2014321 20.9251291,26.2299707 21.1386719,26.2870486 C21.4667985,26.3726654 21.7415354,26.5588145 21.9628906,26.8455012 C22.1842459,27.132188 22.2949219,27.5025403 22.2949219,27.9565691 C22.2949219,28.3068199 22.2311204,28.6012856 22.1035156,28.8399751 C21.9759108,29.0786645 21.8138031,29.2661108 21.6171875,29.4023194 C21.4205719,29.5385281 21.2207041,29.6286839 21.0175781,29.6727895 C20.7415351,29.727273 20.3417995,29.7545143 19.8183594,29.7545143 L19.0644531,29.7545143 L19.0644531,31.9066002 L17.9082031,31.9066002 L17.9082031,26.2014321 L19.7636719,26.2014321 Z M25.1542969,27.6802615 C25.4042981,27.6802615 25.6451811,27.7490134 25.8769531,27.8865193 L25.5371094,28.8399751 C25.3522126,28.7206304 25.1803393,28.6609589 25.0214844,28.6609589 C24.8678378,28.6609589 24.7376307,28.7031181 24.6308594,28.7874377 C24.524088,28.8717574 24.4401045,29.0241791 24.3789062,29.2447073 C24.317708,29.4652356 24.2871094,29.9270409 24.2871094,30.630137 L24.2871094,31.9066002 L23.1894531,31.9066002 L23.1894531,27.7736613 L24.2089844,27.7736613 L24.2089844,28.3613014 C24.3834644,28.0836952 24.5403639,27.9007892 24.6796875,27.8125778 C24.8190111,27.7243665 24.9772127,27.6802615 25.1542969,27.6802615 Z M27.9980469,28.5169676 C27.7584623,28.5169676 27.5605477,28.6038804 27.4042969,28.7777086 C27.2480461,28.9515368 27.1712239,29.1876282 27.1738281,29.48599 L28.8144531,29.48599 C28.8066406,29.1694671 28.7246102,28.9288354 28.5683594,28.7640878 C28.4121086,28.5993402 28.2220063,28.5169676 27.9980469,28.5169676 Z M19.6230469,27.1665629 L19.0644531,27.1665629 L19.0644531,28.7854919 L19.6972656,28.7854919 C20.1529971,28.7854919 20.4576815,28.7556562 20.6113281,28.6959838 C20.7649747,28.6363114 20.8854162,28.5429126 20.9726562,28.4157846 C21.0598963,28.2886565 21.1035156,28.140775 21.1035156,27.9721357 C21.1035156,27.7645797 21.0423183,27.5933485 20.9199219,27.4584371 C20.7975254,27.3235257 20.6425791,27.2392073 20.4550781,27.2054795 C20.3170566,27.1795349 20.0397156,27.1665629 19.6230469,27.1665629 Z M13.4289322,25.7934855 L14.136039,26.4979505 L12.0147186,28.6113456 L11.3076118,27.9068806 L13.4289322,25.7934855 Z M20.5,11.98132 C24.6421356,11.98132 28,15.3266395 28,19.4533001 C28,21.1355257 27.4420001,22.6879103 26.5003401,23.9367656 L25.1896412,23.9373046 C26.3108737,22.7736959 27,21.1936744 27,19.4533001 C27,15.8768609 24.0898509,12.9775841 20.5,12.9775841 C16.9101491,12.9775841 14,15.8768609 14,19.4533001 C14,21.760694 15.2113148,23.7862271 17.0349749,24.9331678 L17,24.9327522 L16.9999515,26.0634399 C14.6210763,24.8106362 13,22.3205722 13,19.4533001 C13,15.3266395 16.3578644,11.98132 20.5,11.98132 Z M33,18.9551681 L33,19.9514321 L30,19.9514321 L30,18.9551681 L33,18.9551681 Z M11,18.9551681 L11,19.9514321 L8,19.9514321 L8,18.9551681 L11,18.9551681 Z M28.9852814,10.2952546 L29.6923882,10.9997197 L27.5710678,13.1131148 L26.863961,12.4086498 L28.9852814,10.2952546 Z M12.0147186,10.2952546 L14.136039,12.4086498 L13.4289322,13.1131148 L11.3076118,10.9997197 L12.0147186,10.2952546 Z M21,7 L21,9.98879203 L20,9.98879203 L20,7 L21,7 Z" id="Combined-Shape" fill="#FFFFFF"></path>
        <path d="M21,25 C17.6862915,25 15,22.5375661 15,19.5 C15,16.4624339 17.6862915,14 21,14 L21,25 Z" id="Oval" fill="#82B1FF"></path>
    </g>
</svg>