<?xml version="1.0" encoding="UTF-8"?>
<svg width="40px" height="40px" viewBox="0 0 40 40" version="1.1" xmlns="http://www.w3.org/2000/svg" xmlns:xlink="http://www.w3.org/1999/xlink">
    <!-- Generator: Sketch 64 (93537) - https://sketch.com -->
    <title>icon/light/icon_light_length</title>
    <desc>Created with Sketch.</desc>
    <g id="icon/light/icon_light_length" stroke="none" stroke-width="1" fill="none" fill-rule="evenodd">
        <path d="M31,17 L31,23 L9,23 L9,17 L31,17 Z M28,21 L27,21 L27,18 L25,18 L25,20 L24,20 L24,18 L22,18 L22,21 L21,21 L21,18 L19,18 L19,20 L18,20 L18,18 L16,18 L16,21 L15,21 L15,18 L13,18 L13,20 L12,20 L12,18 L10,18 L10,22 L30,22 L30,18 L28,18 L28,21 Z" id="Combined-Shape" fill="#FFFFFF" transform="translate(20.000000, 20.000000) rotate(-45.000000) translate(-20.000000, -20.000000) "></path>
    </g>
</svg>