<?xml version="1.0" encoding="UTF-8"?>
<svg width="40px" height="40px" viewBox="0 0 40 40" version="1.1" xmlns="http://www.w3.org/2000/svg" xmlns:xlink="http://www.w3.org/1999/xlink">
    <!-- Generator: Sketch 64 (93537) - https://sketch.com -->
    <title>icon/light/icon_light_unknown-2</title>
    <desc>Created with Sketch.</desc>
    <g id="icon/light/icon_light_unknown-2" stroke="none" stroke-width="1" fill="none" fill-rule="evenodd">
        <path d="M23.0699576,19.7909551 L23.0696651,26.3762047 C23.6524141,26.5820403 24.0699576,27.1377364 24.0699576,27.7909551 C24.0699576,28.6193823 23.3983847,29.2909551 22.5699576,29.2909551 C21.7415304,29.2909551 21.0699576,28.6193823 21.0699576,27.7909551 C21.0699576,27.1381084 21.4870256,26.5826732 22.0692546,26.3765567 L22.0699576,19.7909551 L23.0699576,19.7909551 Z M22.5699576,27.2909551 C22.2938152,27.2909551 22.0699576,27.5148128 22.0699576,27.7909551 C22.0699576,28.0670975 22.2938152,28.2909551 22.5699576,28.2909551 C22.8460999,28.2909551 23.0699576,28.0670975 23.0699576,27.7909551 C23.0699576,27.5148128 22.8460999,27.2909551 22.5699576,27.2909551 Z" id="形状结合" fill="#82B1FF" transform="translate(22.569958, 24.540955) rotate(-45.000000) translate(-22.569958, -24.540955) "></path>
        <path d="M18.4975517,20.481633 L28.0986263,22.3204517 L30.2856846,28.4908966 L31.585569,27.1926056 L33.7068894,29.3139259 L27.3429283,35.6778869 L25.221608,33.5565666 L26.3936846,32.3828966 L20.3204517,30.0986263 L18.4975517,20.481633 Z M31.5852191,28.6068208 L30.6566046,29.5357836 L27.4218891,32.770499 L27.4206846,32.7698966 L26.6354716,33.5565683 L27.3425784,34.2636751 L32.2923258,29.3139276 L31.5852191,28.6068208 Z M19.7533432,21.7404643 L21.1979623,29.360954 L27.1694791,31.6074323 L29.5022244,29.274687 L27.3469629,23.1949829 L19.7533432,21.7404643 Z M24.0890282,9.96961551 C25.1768168,9.77780903 26.2141335,10.504146 26.40594,11.5919347 C26.5977465,12.6797233 25.8714095,13.71704 24.7836209,13.9088465 C24.1874562,14.0139664 23.6064513,13.8433119 23.1714802,13.4885219 C20.6314779,14.5455671 18.6571605,15.579198 17.2508907,16.5811146 L17.0687598,16.7135007 C17.1547566,16.8840368 17.2175813,17.0698677 17.2524552,17.2676474 C17.4442617,18.3554361 16.7179247,19.3927528 15.630136,19.5845593 C15.1494664,19.6693143 14.6786517,19.5747963 14.2862873,19.3490363 C12.6665413,21.1625812 11.5922674,23.3872891 11.0626934,26.0314805 C11.5006077,26.3230263 11.8229742,26.7869237 11.9216345,27.3464545 C12.113441,28.4342431 11.387104,29.4715598 10.2993154,29.6633663 C9.21152677,29.8551728 8.17421,29.1288358 7.98240351,28.0410472 C7.79059703,26.9532586 8.51693406,25.9159418 9.60472267,25.7241353 C9.77587822,25.693956 9.94578425,25.6865068 10.1113439,25.6996195 C10.6866854,22.9266837 11.8410412,20.5731304 13.5711989,18.648645 C13.4464365,18.4441621 13.3574027,18.2127889 13.3132242,17.9622402 C13.1214177,16.8744515 13.8477547,15.8371348 14.9355433,15.6453283 C15.4692951,15.5512135 15.9908951,15.6781535 16.4064202,15.9603829 C17.866702,14.8700056 19.9203858,13.7712294 22.5695387,12.6558835 C22.5238156,12.538454 22.4893643,12.415012 22.466709,12.2865274 C22.2749025,11.1987388 23.0012395,10.161422 24.0890282,9.96961551 Z" id="形状结合" fill="#FFFFFF" fill-rule="nonzero"></path>
    </g>
</svg>