<?xml version="1.0" encoding="UTF-8"?>
<svg width="40px" height="40px" viewBox="0 0 40 40" version="1.1" xmlns="http://www.w3.org/2000/svg" xmlns:xlink="http://www.w3.org/1999/xlink">
    <!-- Generator: Sketch 64 (93537) - https://sketch.com -->
    <title>打印</title>
    <desc>Created with Sketch.</desc>
    <g id="打印" stroke="none" stroke-width="1" fill="none" fill-rule="evenodd">
        <path d="M28,8 C28.5522847,8 29,8.44771525 29,9 L29,13 L32,13 C32.5522847,13 33,13.4477153 33,14 L33,24 C33,24.5522847 32.5522847,25 32,25 L29,25 L29,31.0714286 C29,31.5842644 28.5522847,32 28,32 L13,32 C12.4477153,32 12,31.5842644 12,31.0714286 L12,25 L9,25 C8.44771525,25 8,24.5522847 8,24 L8,14 C8,13.4477153 8.44771525,13 9,13 L12,13 L12,13 L12,9 C12,8.44771525 12.4477153,8 13,8 L28,8 Z M28,20 L13,20 L13,31 L28,31 L28,20 Z M32,14 L9,14 L9,24 L12,24 L12,19.9285714 C12,19.4157356 12.4477153,19 13,19 L28,19 C28.5522847,19 29,19.4157356 29,19.9285714 L29,24 L32,24 L32,14 Z M28,9 L13,9 L13,13 L28,13 L28,9 Z" id="形状结合" fill="#FFFFFF"></path>
        <path d="M25.5,27 C25.7761424,27 26,27.2238576 26,27.5 C26,27.7761424 25.7761424,28 25.5,28 L15.5,28 C15.2238576,28 15,27.7761424 15,27.5 C15,27.2238576 15.2238576,27 15.5,27 L25.5,27 Z M25.5,23 C25.7761424,23 26,23.2238576 26,23.5 C26,23.7761424 25.7761424,24 25.5,24 L15.5,24 C15.2238576,24 15,23.7761424 15,23.5 C15,23.2238576 15.2238576,23 15.5,23 L25.5,23 Z M29,16 C29.5522847,16 30,16.4477153 30,17 C30,17.5522847 29.5522847,18 29,18 C28.4477153,18 28,17.5522847 28,17 C28,16.4477153 28.4477153,16 29,16 Z" id="形状结合" fill="#337DFF"></path>
    </g>
</svg>