<?xml version="1.0" encoding="UTF-8"?>
<svg width="48px" height="48px" viewBox="0 0 48 48" version="1.1" xmlns="http://www.w3.org/2000/svg" xmlns:xlink="http://www.w3.org/1999/xlink">
    <!-- Generator: Sketch 59.1 (86144) - https://sketch.com -->
    <title>icon/light/fasongdaoPACS</title>
    <desc>Created with Sketch.</desc>
    <g id="icon/light/fasongdaoPACS" stroke="none" stroke-width="1" fill="none" fill-rule="evenodd">
        <rect id="矩形" fill="#337DFF" x="15" y="15" width="15" height="1"></rect>
        <rect id="矩形备份" fill="#FFFFFF" x="17" y="17" width="14" height="1"></rect>
        <rect id="矩形备份-4" fill="#FFFFFF" x="17" y="31" width="4" height="1"></rect>
        <rect id="矩形" fill="#337DFF" x="15" y="15" width="1" height="15"></rect>
        <rect id="矩形备份-2" fill="#FFFFFF" x="17" y="17" width="1" height="14"></rect>
        <rect id="矩形备份-3" fill="#FFFFFF" x="31" y="17" width="1" height="7"></rect>
        <rect id="矩形" fill="#337DFF" x="13" y="13" width="15" height="1"></rect>
        <rect id="矩形" fill="#337DFF" x="13" y="13" width="1" height="15"></rect>
        <g id="保存" transform="translate(23.000000, 24.000000)" fill="#FFFFFF" fill-rule="nonzero">
            <path d="M10.7612593,3.52570368 L7.47429631,0.238740716 L7.47429633,0.238740741 C7.32152492,0.0859222222 7.11430733,0 6.89822226,0 L0.81481485,0 L0.814814815,0 C0.364805324,0 0,0.364805324 0,0.814814815 C0,0.814814815 0,0.814814815 0,0.814814815 L0,10.1851852 L0,10.1851853 C0,10.6351948 0.364805324,11 0.814814815,11 L10.1851852,11 L10.1851851,11 C10.6351946,11 11,10.6351948 11,10.1851853 L11,4.1017779 L11,4.10195192 C11,3.88586685 10.9141676,3.67863143 10.7613827,3.52582692 L10.7612593,3.52570368 Z M2.64814816,0.81481479 L5.0925926,0.81481479 L5.0925926,2.24074072 L2.64814816,2.24074072 L2.64814816,0.81481479 Z M8.35185186,10.1851852 L2.64814816,10.1851852 L2.64814816,8.35185183 L8.35185186,8.35185183 L8.35185186,10.1851852 Z M10.1851852,10.1851852 L9.16666668,10.1851852 L9.16666668,7.94444442 L9.16666668,7.94444442 C9.16666668,7.71943967 8.98426402,7.53703701 8.75925927,7.53703701 L2.24074075,7.53703701 L2.24074073,7.53703701 C2.01573599,7.53703702 1.83333333,7.71943967 1.83333333,7.94444442 C1.83333333,7.94444442 1.83333333,7.94444442 1.83333333,7.94444442 L1.83333333,10.1851852 L0.814814807,10.1851852 L0.814814807,0.81481479 L1.83333333,0.81481479 L1.83333333,2.64814812 L1.83333333,2.64814818 C1.83333336,2.87315293 2.01573599,3.05555559 2.24074073,3.05555559 L5.49999999,3.05555559 L5.49999997,3.05555559 C5.72500472,3.0555556 5.90740738,2.87315293 5.90740738,2.64814818 L5.90740738,0.81481479 L6.8982222,0.81481479 L10.1851852,4.10177781 L10.1851852,10.1851852 L10.1851852,10.1851852 Z" id="形状"></path>
        </g>
    </g>
</svg>