<?xml version="1.0" encoding="UTF-8"?>
<svg width="38px" height="38px" viewBox="0 0 38 38" version="1.1" xmlns="http://www.w3.org/2000/svg" xmlns:xlink="http://www.w3.org/1999/xlink">
    <!-- Generator: Sketch 62 (91390) - https://sketch.com -->
    <title>icon/tool/layout_3x4</title>
    <desc>Created with Sketch.</desc>
    <g id="icon/tool/layout_3x4" stroke="none" stroke-width="1" fill="none" fill-rule="evenodd">
        <rect id="Rectangle-1000" x="0" y="0" width="38" height="38"></rect>
        <path d="M13,6 L13,13.999 L18,13.999 L18,6 L19,6 L19,13.999 L23.999,13.999 L24,6 L25,6 L24.999,13.999 L30,14 L30,15 L24.999,14.999 L25,21 L24,21 L23.999,14.999 L19,14.999 L19,21 L18,21 L18,14.999 L13,14.999 L13,21.999 L16,22 L16,23 L13,22.999 L13,31 L12,31 L12,22.999 L7,23 L7,22 L12,21.999 L12,14.999 L7,15 L7,14 L12,13.999 L12,6 L13,6 Z" id="形状结合" fill="#82B1FF"></path>
        <path d="M19.8183594,22.3457031 C20.5917969,22.3457031 21.2089844,22.5576172 21.6699219,22.9814453 C22.1308594,23.4052734 22.3613281,24.0039062 22.3613281,24.7773438 C22.3613281,25.1640625 22.2617188,25.5224609 22.0625,25.8525391 C21.8632813,26.1826172 21.5898438,26.4394531 21.2421875,26.6230469 C21.640625,26.7871094 21.9453125,27.0419922 22.15625,27.3876953 C22.3671875,27.7333984 22.4726563,28.1445312 22.4726563,28.6210938 C22.4726563,29.3984375 22.2236328,30.0097656 21.7255859,30.4550781 C21.2275391,30.9003906 20.5898438,31.1230469 19.8125,31.1230469 C19.1289063,31.1230469 18.5410156,30.9130859 18.0488281,30.4931641 C17.5566406,30.0732422 17.3203125,29.4726562 17.3398438,28.6914062 L17.3398438,28.6914062 L17.3515625,28.65625 L18.96875,28.65625 L18.9759115,28.8155924 C18.999783,29.0732964 19.0833333,29.2916667 19.2265625,29.4707031 C19.3984375,29.6855469 19.6113281,29.7929688 19.8652344,29.7929688 C20.1542969,29.7929688 20.3837891,29.6845703 20.5537109,29.4677734 C20.7236328,29.2509766 20.8085938,28.9609375 20.8085938,28.5976562 C20.8085938,28.1445312 20.7255859,27.8134766 20.5595703,27.6044922 C20.3935547,27.3955078 20.1484375,27.2910156 19.8242188,27.2910156 L19.8242188,27.2910156 L18.9921875,27.2910156 L18.9921875,26.0019531 L19.8242188,26.0019531 L19.9467873,25.9954959 C20.1825973,25.9696668 20.3624442,25.8663504 20.4863281,25.6855469 C20.6308594,25.4746094 20.703125,25.1796875 20.703125,24.8007812 C20.703125,24.46875 20.6308594,24.1992188 20.4863281,23.9921875 C20.3417969,23.7851562 20.1347656,23.6816406 19.8652344,23.6816406 C19.6464844,23.6816406 19.4580078,23.7734375 19.2998047,23.9570312 C19.1416016,24.140625 19.0625,24.3808594 19.0625,24.6777344 L19.0625,24.6777344 L17.4511719,24.6777344 L17.4394531,24.6425781 L17.4408301,24.4435645 C17.4666699,23.8576855 17.6878906,23.3722656 18.1044922,22.9873047 C18.5673828,22.5595703 19.1386719,22.3457031 19.8183594,22.3457031 Z M24.9746094,24.6601562 L25.6132813,26.6582031 L25.6484375,26.6582031 L26.3164063,24.6601562 L28.1914063,24.6601562 L26.6210938,27.7949219 L28.2382813,31 L26.3691406,31 L25.671875,28.9433594 L25.6367188,28.9433594 L24.9394531,31 L23.0644531,31 L24.6757813,27.7949219 L23.1054688,24.6601562 L24.9746094,24.6601562 Z M33.1835938,22.46875 L33.1835938,27.8007812 L33.921875,27.8007812 L33.921875,29.1367188 L33.1835938,29.1367188 L33.1835938,31 L31.5253906,31 L31.5253906,29.1367188 L28.6953125,29.1367188 L28.6074219,28.09375 L31.5195313,22.46875 L33.1835938,22.46875 Z M31,6 L31,21 L30,21 L30,7 L7,7 L7,30 L16,30 L16,31 L6,31 L6,6 L31,6 Z M31.4902344,24.8476562 L31.4023438,25.0058594 L30.1191406,27.8007812 L31.5253906,27.8007812 L31.5253906,24.8535156 L31.4902344,24.8476562 Z" id="形状结合" fill="#FAFAFA" fill-rule="nonzero"></path>
    </g>
</svg>