<?xml version="1.0" encoding="UTF-8"?>
<svg width="24px" height="24px" viewBox="0 0 24 24" version="1.1" xmlns="http://www.w3.org/2000/svg" xmlns:xlink="http://www.w3.org/1999/xlink">
    <!-- Generator: Sketch 59.1 (86144) - https://sketch.com -->
    <title>icon/light/delete_mini</title>
    <desc>Created with Sketch.</desc>
    <g id="icon/light/delete_mini" stroke="none" stroke-width="1" fill="none" fill-rule="evenodd">
        <rect id="矩形" fill-opacity="0" fill="#BCE6FF" x="0" y="0" width="24" height="24"></rect>
        <path d="M12,4 C16.418278,4 20,7.581722 20,12 C20,16.418278 16.418278,20 12,20 C7.581722,20 4,16.418278 4,12 C4,7.581722 7.581722,4 12,4 Z M12,5 C8.13400675,5 5,8.13400675 5,12 C5,15.8659932 8.13400675,19 12,19 C15.8659932,19 19,15.8659932 19,12 C19,8.13400675 15.8659932,5 12,5 Z M9.85355339,9.14644661 L11.9748737,11.267767 L14.0961941,9.14644661 C14.2914562,8.95118446 14.6080387,8.95118446 14.8033009,9.14644661 C14.998563,9.34170876 14.998563,9.65829124 14.8033009,9.85355339 L12.6819805,11.9748737 L14.8033009,14.0961941 C14.998563,14.2914562 14.998563,14.6080387 14.8033009,14.8033009 C14.6080387,14.998563 14.2914562,14.998563 14.0961941,14.8033009 L11.9748737,12.6819805 L9.85355339,14.8033009 C9.65829124,14.998563 9.34170876,14.998563 9.14644661,14.8033009 C8.95118446,14.6080387 8.95118446,14.2914562 9.14644661,14.0961941 L11.267767,11.9748737 L9.14644661,9.85355339 C8.95118446,9.65829124 8.95118446,9.34170876 9.14644661,9.14644661 C9.34170876,8.95118446 9.65829124,8.95118446 9.85355339,9.14644661 Z" id="Combined-Shape" fill="#CF4949"></path>
    </g>
</svg>