<?xml version="1.0" encoding="UTF-8"?>
<svg width="24px" height="24px" viewBox="0 0 24 24" version="1.1" xmlns="http://www.w3.org/2000/svg" xmlns:xlink="http://www.w3.org/1999/xlink">
    <title>icon/light/show_table_list_1</title>
    <g id="icon/light/show_table_list_1" stroke="none" stroke-width="1" fill="none" fill-rule="evenodd">
        <rect id="Rectangle" fill-opacity="0" fill="#BCE6FF" x="0" y="0" width="24" height="24"></rect>
        <path d="M19,4 C19.5522847,4 20,4.44771525 20,5 L20,19 C20,19.5522847 19.5522847,20 19,20 L5,20 C4.44771525,20 4,19.5522847 4,19 L4,5 C4,4.44771525 4.44771525,4 5,4 L19,4 Z M19,4.5 L5,4.5 C4.75454011,4.5 4.55039163,4.67687516 4.50805567,4.91012437 L4.5,5 L4.5,19 C4.5,19.2454599 4.67687516,19.4496084 4.91012437,19.4919443 L5,19.5 L19,19.5 C19.2454599,19.5 19.4496084,19.3231248 19.4919443,19.0898756 L19.5,19 L19.5,5 C19.5,4.75454011 19.3231248,4.55039163 19.0898756,4.50805567 L19,4.5 Z M11.5,7 L12.5,7 C12.7761424,7 13,7.22385763 13,7.5 L13,11 L16.5,11 C16.7761424,11 17,11.2238576 17,11.5 L17,12.5 C17,12.7761424 16.7761424,13 16.5,13 L13,13 L13,16.5 C13,16.7761424 12.7761424,17 12.5,17 L11.5,17 C11.2238576,17 11,16.7761424 11,16.5 L11,13 L7.5,13 C7.22385763,13 7,12.7761424 7,12.5 L7,11.5 C7,11.2238576 7.22385763,11 7.5,11 L11,11 L11,7.5 C11,7.22385763 11.2238576,7 11.5,7 Z" id="形状结合" fill="#C3CAD9"></path>
    </g>
</svg>