<?xml version="1.0" encoding="UTF-8"?>
<svg width="40px" height="40px" viewBox="0 0 40 40" version="1.1" xmlns="http://www.w3.org/2000/svg" xmlns:xlink="http://www.w3.org/1999/xlink">
    <title>icon/light/delete</title>
    <g id="icon/light/delete" stroke="none" stroke-width="1" fill="none" fill-rule="evenodd">
        <rect x="0" y="0" width="40" height="40"></rect>
        <g id="减" transform="translate(20.000000, 20.500000) scale(1, -1) translate(-20.000000, -20.500000) translate(10.000000, 20.000000)" fill="#FFFFFF" fill-rule="nonzero">
            <path d="M19.0055058,1 L10.9941211,0.998219743 L9.00503187,0.997790461 L0.994065796,0.996010204 C0.444826971,0.99589657 -0.00025104978,0.772822086 0,0.497777613 C0.000227033096,0.222823149 0.445457323,0 0.994494239,0 L9.00590353,0.00176763135 L10.9950174,0.00220953918 C10.9950174,0.00220953918 12.7130305,0.00258831733 13.5720259,0.0027777064 C15.3833311,0.00318173642 19.0059342,0.00397717053 19.0059342,0.00397717053 C19.555173,0.00410342991 20.000251,0.227178851 20,0.502234421 C20,0.777164225 19.5545919,1 19.0055058,1 L19.0055058,1 Z" id="路径"></path>
        </g>
    </g>
</svg>