<?xml version="1.0" encoding="UTF-8" standalone="no"?>
<svg width="28px" height="28px" viewBox="0 0 28 28" version="1.1" xmlns="http://www.w3.org/2000/svg" xmlns:xlink="http://www.w3.org/1999/xlink">
    <!-- Generator: Sketch 43.1 (39012) - http://www.bohemiancoding.com/sketch -->
    <title>icon.lung Nodule.确定</title>
    <desc>Created with Sketch.</desc>
    <defs></defs>
    <g id="Symbols" stroke="none" stroke-width="1" fill="none" fill-rule="evenodd">
        <g id="icon.lung-Nodule.确定">
            <path d="M12.3958441,12.9511699 C12.4369993,13.0650649 12.4594096,13.1301718 12.4594096,13.1301718 C12.4594096,13.1301718 12.8168938,14.2278821 12.7572908,14.5003719 C12.6976879,14.7728616 12.122105,18.3082797 11.8938497,18.9105904 C11.6655944,19.5129011 7.46184795,21.336538 6.44726115,20.9076907 C5.43267434,20.4788433 6.44726115,14.1611962 6.5486931,12.687827 C6.65012505,11.2144577 9.04961216,8.98482565 10.0410794,8.98482565 C10.7972328,8.98482565 11.8066348,11.3959734 12.2431818,12.5404924 L12.2431818,6.54656528 C12.2431818,6.24470561 12.4970958,6 12.7905669,6 C13.0928794,6 13.337952,6.23676226 13.337952,6.54656528 L13.337952,12.5694408 C13.337952,12.8713005 13.084038,13.1160061 12.7905669,13.1160061 C12.6354735,13.1160061 12.4954453,13.0536919 12.3958441,12.9511699 Z M13.4205905,13.1301718 C13.4205905,13.1301718 14.8474534,8.98482565 15.8389207,8.98482565 C16.830388,8.98482565 19.2298751,11.2144577 19.331307,12.687827 C19.432739,14.1611962 20.4473258,20.4788433 19.432739,20.9076907 C18.4181522,21.336538 14.2144058,19.5129011 13.9861505,18.9105904 C13.7578952,18.3082797 13.1823123,14.7728616 13.1227093,14.5003719 C13.0631063,14.2278821 13.4205905,13.1301718 13.4205905,13.1301718 Z" id="Combined-Shape" stroke-opacity="0.6" stroke="#EEEEEE" fill-opacity="0.22" fill="#EEEEEE"></path>
            <path d="M13.5185076,18.9291623 L13.5185076,13.4077071 L11.3224292,13.4077071 L11.3224292,18.9291623 L11.2162387,18.9291623 L11.2162387,21.1252407 L22.4162385,21.1252407 L22.4162385,18.9291623 L13.5185076,18.9291623 Z" id="Combined-Shape" fill="#2EE442" transform="translate(16.816239, 17.266474) rotate(-50.000000) translate(-16.816239, -17.266474) "></path>
            <rect id="Rectangle-3" fill="#61A5BE" x="8" y="13" width="3" height="3"></rect>
            <rect id="Rectangle" fill="#61A5BE" x="7" y="14" width="5" height="1"></rect>
            <rect id="Rectangle-2" fill="#61A5BE" x="9" y="12" width="1" height="5"></rect>
        </g>
    </g>
</svg>