<?xml version="1.0" encoding="UTF-8" standalone="no"?>
<svg width="38px" height="38px" viewBox="0 0 38 38" version="1.1" xmlns="http://www.w3.org/2000/svg" xmlns:xlink="http://www.w3.org/1999/xlink">
    <!-- Generator: Sketch 43.1 (39012) - http://www.bohemiancoding.com/sketch -->
    <title>iicon.lung Nodule.编辑肺结节轮廓</title>
    <desc>Created with Sketch.</desc>
    <defs></defs>
    <g id="Symbols" stroke="none" stroke-width="1" fill="none" fill-rule="evenodd">
        <g id="iicon.lung-Nodule.编辑肺结节轮廓">
            <g id="edit_outside" transform="translate(8.000000, 8.000000)">
                <path d="M15.0607312,4.53186138 C14.1290461,3.99272411 13.0952551,3.61042808 11.9954649,3.42107993 C11.8125555,2.71328554 11.169713,2.19047619 10.4047619,2.19047619 C9.63981079,2.19047619 8.99696834,2.71328554 8.81405889,3.42107993 C4.94726423,4.08681639 1.8963402,7.13774042 1.23060374,11.0045351 C0.522809354,11.1874445 0,11.830287 0,12.5952381 C0,13.3601892 0.522809354,14.0030317 1.23060374,14.1859411 C1.8963402,18.0527358 4.94726423,21.1036598 8.81405889,21.7693963 C8.99696834,22.4771906 9.63981079,23 10.4047619,23 C11.169713,23 11.8125555,22.4771906 11.9954649,21.7693963 C15.8622596,21.1036598 18.9131836,18.0527358 19.5789201,14.1859411 C20.2867145,14.0030317 20.8095238,13.3601892 20.8095238,12.5952381 C20.8095238,11.830287 20.2867145,11.1874445 19.5789201,11.0045351 C19.3895719,9.90474489 19.0072759,8.87095393 18.4681386,7.93926879 L17.6625687,8.7448387 C18.0491605,9.47203028 18.3296604,10.2642174 18.4834253,11.100757 C17.9171749,11.360055 17.5238095,11.9317088 17.5238095,12.5952381 C17.5238095,13.2587674 17.9171749,13.8304212 18.4834253,14.0897192 C17.8697813,17.4281762 15.2377,20.0602575 11.899243,20.6739014 C11.639945,20.1076511 11.0682912,19.7142857 10.4047619,19.7142857 C9.74123263,19.7142857 9.16957878,20.1076511 8.9102808,20.6739014 C5.57182378,20.0602575 2.9397425,17.4281762 2.32609856,14.0897192 C2.89234889,13.8304212 3.28571429,13.2587674 3.28571429,12.5952381 C3.28571429,11.9317088 2.89234889,11.360055 2.32609856,11.100757 C2.9397425,7.76229997 5.57182378,5.13021869 8.9102808,4.51657475 C9.16957878,5.08282508 9.74123263,5.47619048 10.4047619,5.47619048 C11.0682912,5.47619048 11.639945,5.08282508 11.899243,4.51657475 C12.7357826,4.67033963 13.5279697,4.95083953 14.2551613,5.33743129 L15.0607312,4.53186138 Z" id="Combined-Shape" fill="#EEEEEE"></path>
                <path d="M12.5952381,8.21428571 L14.7857143,10.4047619 L12.047619,10.9539185 L12.5952381,8.21428571 Z M20.8095238,0 L23,2.19047619 L15.3333333,9.85714286 L13.1428571,7.66666667 L20.8095238,0 Z" id="Combined-Shape" fill="#61A5BE"></path>
            </g>
        </g>
    </g>
</svg>