<?xml version="1.0" encoding="UTF-8" standalone="no"?>
<svg width="28px" height="28px" viewBox="0 0 28 28" version="1.1" xmlns="http://www.w3.org/2000/svg" xmlns:xlink="http://www.w3.org/1999/xlink">
    <!-- Generator: Sketch 43.1 (39012) - http://www.bohemiancoding.com/sketch -->
    <title>icon.lung Nodule.匹配</title>
    <desc>Created with Sketch.</desc>
    <defs></defs>
    <g id="Symbols" stroke="none" stroke-width="1" fill="none" fill-rule="evenodd">
        <g id="icon.lung-Nodule.匹配">
            <rect id="Rectangle-9" stroke="#EEEEEE" x="10.5" y="10.5" width="12" height="12"></rect>
            <rect id="Rectangle-10" fill="#EEEEEE" x="5" y="5" width="12" height="1"></rect>
            <rect id="Rectangle-10-Copy" fill="#EEEEEE" x="5" y="17" width="4" height="1"></rect>
            <rect id="Rectangle" fill="#EEEEEE" x="5" y="6" width="1" height="11"></rect>
            <rect id="Rectangle-Copy" fill="#EEEEEE" x="17" y="5" width="1" height="4"></rect>
            <path d="M16.4169291,15.7127743 C16.4392349,15.7744796 16.4513893,15.8097907 16.4513893,15.8097907 C16.4513893,15.8097907 16.6424001,16.3963189 16.6105531,16.5419155 C16.5787061,16.6875121 16.2711608,18.5765554 16.1491995,18.8983818 C16.0272382,19.2202082 13.7810941,20.1946132 13.2389804,19.9654717 C12.6968668,19.7363301 13.2389804,16.3606873 13.2931775,15.5734372 C13.3473746,14.7861871 14.6294676,13.5948509 15.159228,13.5948509 C15.5632556,13.5948509 16.1025989,14.8831745 16.3358546,15.4947134 L16.3358546,12.298354 C16.3358546,12.1335776 16.4715258,12 16.6283332,12 C16.7898646,12 16.9208118,12.1265067 16.9208118,12.298354 L16.9208118,15.5038678 C16.9208118,15.6686441 16.7851405,15.8022217 16.6283332,15.8022217 C16.545206,15.8022217 16.4701786,15.7687186 16.4169291,15.7127743 Z M16.9649671,15.8097907 C16.9649671,15.8097907 17.727368,13.5948509 18.2571284,13.5948509 C18.7868888,13.5948509 20.0689819,14.7861871 20.123179,15.5734372 C20.177376,16.3606873 20.7194897,19.7363301 20.177376,19.9654717 C19.6352624,20.1946132 17.3891182,19.2202082 17.2671569,18.8983818 C17.1451956,18.5765554 16.8376504,16.6875121 16.8058034,16.5419155 C16.7739563,16.3963189 16.9649671,15.8097907 16.9649671,15.8097907 Z" id="Combined-Shape-Copy" stroke-opacity="0.5" stroke="#EEEEEE" fill-opacity="0.498839447" fill="#61A5BE"></path>
            <path d="M11.9208118,10 L11.9208118,7.29835396 C11.9208118,7.12650672 11.7898646,7 11.6283332,7 C11.4715258,7 11.3358546,7.13357762 11.3358546,7.29835396 L11.3358546,10 L11.9208118,10 Z M11.136298,10 C10.8661127,9.36741053 10.4720985,8.59485092 10.159228,8.59485092 C9.62946763,8.59485092 8.34737457,9.78618707 8.29317749,10.5734372 C8.23898041,11.3606873 7.69686676,14.7363301 8.23898041,14.9654717 C8.38909164,15.028921 8.66985699,15.00009 9,14.9183861 L9,10 L11.136298,10 Z M12.2800585,10 C12.5502437,9.36741053 12.944258,8.59485092 13.2571284,8.59485092 C13.6679222,8.59485092 14.5310911,9.3111973 14.923323,10 L12.2800585,10 Z" id="Combined-Shape" stroke-opacity="0.5" stroke="#EEEEEE" fill-opacity="0.498839447" fill="#61A5BE"></path>
        </g>
    </g>
</svg>