<?xml version="1.0" encoding="UTF-8" standalone="no"?>
<svg width="38px" height="38px" viewBox="0 0 38 38" version="1.1" xmlns="http://www.w3.org/2000/svg" xmlns:xlink="http://www.w3.org/1999/xlink">
    <!-- Generator: Sketch 43.1 (39012) - http://www.bohemiancoding.com/sketch -->
    <title>icon.lung Nodule.自由切割</title>
    <desc>Created with Sketch.</desc>
    <defs>
        <rect id="path-1" x="15" y="14" width="12" height="12"></rect>
    </defs>
    <g id="Symbols" stroke="none" stroke-width="1" fill="none" fill-rule="evenodd">
        <g id="icon.lung-Nodule.自由切割">
            <polygon id="Combined-Shape" fill="#EEEEEE" points="12 7 12 8 8 8 8 12 7 12 7 7 7.5 7"></polygon>
            <polygon id="Combined-Shape" fill="#EEEEEE" points="12 31 12 30 8 30 8 26 7 26 7 31 7.5 31"></polygon>
            <polygon id="Combined-Shape" fill="#EEEEEE" transform="translate(28.500000, 28.500000) scale(-1, 1) translate(-28.500000, -28.500000) " points="31 31 31 30 27 30 27 26 26 26 26 31 26.5 31"></polygon>
            <polygon id="Combined-Shape" fill="#EEEEEE" transform="translate(28.500000, 9.500000) scale(-1, -1) translate(-28.500000, -9.500000) " points="31 12 31 11 27 11 27 7 26 7 26 12 26.5 12"></polygon>
            <g id="Rectangle-11">
                <use fill-opacity="0.5" fill="#61A5BE" fill-rule="evenodd" xlink:href="#path-1"></use>
                <rect stroke="#61A5BE" stroke-width="1" x="15.5" y="14.5" width="11" height="11"></rect>
            </g>
        </g>
    </g>
</svg>