<?xml version="1.0" encoding="UTF-8" standalone="no"?>
<svg width="48px" height="48px" viewBox="0 0 48 48" version="1.1" xmlns="http://www.w3.org/2000/svg" xmlns:xlink="http://www.w3.org/1999/xlink">
    <!-- Generator: Sketch 49.3 (51167) - http://www.bohemiancoding.com/sketch -->
    <title>icon.massagebox.3</title>
    <desc>Created with Sketch.</desc>
    <defs></defs>
    <g id="Page-1" stroke="none" stroke-width="1" fill="none" fill-rule="evenodd">
        <g id="icon.other" transform="translate(-54.000000, -869.000000)">
            <g id="icon.massagebox.3" transform="translate(54.000000, 869.000000)">
                <circle id="Oval-19-Copy-3" fill="#007FAA" fill-rule="evenodd" cx="24" cy="24" r="24"></circle>
                <path d="M24,47 C36.7025492,47 47,36.7025492 47,24 C47,11.2974508 36.7025492,1 24,1 C11.2974508,1 1,11.2974508 1,24 C1,36.7025492 11.2974508,47 24,47 Z M24,48 C10.745166,48 0,37.254834 0,24 C0,10.745166 10.745166,0 24,0 C37.254834,0 48,10.745166 48,24 C48,37.254834 37.254834,48 24,48 Z" id="Oval-19-Copy-3" fill="#FFFFFF" fill-rule="nonzero"></path>
                <path d="M24.4748972,12 C22.1040047,12 20.2599772,12.7244394 18.9428147,14.1733181 C17.6256522,15.5563388 17,17.4003663 17,19.7054006 L19.6013959,19.7054006 C19.6013959,18.0918766 19.9636156,16.8405722 20.688055,15.9185584 C21.4783525,14.8318994 22.6967278,14.3050344 24.343181,14.3050344 C25.7262016,14.3050344 26.8128606,14.6672541 27.5702291,15.4575516 C28.2946685,16.1819909 28.6898172,17.2027919 28.6898172,18.5199544 C28.6898172,19.4419681 28.3605266,20.2981238 27.7019453,21.1213503 C27.504371,21.3847828 27.1092222,21.7799316 26.5823572,22.3067966 C24.8041878,23.8873916 23.7175288,25.138696 23.2565219,26.1265678 C22.8613731,26.9497944 22.6637988,27.9047372 22.6637988,28.9913963 L22.6637988,29.7487647 L25.2981238,29.7487647 L25.2981238,28.9913963 C25.2981238,28.1023116 25.4956981,27.3120141 25.923776,26.5875747 C26.2530666,25.9948516 26.7470025,25.4021285 27.4714419,24.7764763 C28.9203207,23.4922428 29.8094053,22.6360872 30.138696,22.2409385 C30.9619225,21.1542794 31.3900003,19.870046 31.3900003,18.3882381 C31.3900003,16.4124944 30.7643482,14.8648284 29.5459728,13.7452403 C28.2617394,12.5597941 26.5823572,12 24.4748972,12 Z M23.9809613,32.0537991 C23.4211672,32.0537991 22.9601603,32.2184444 22.5650116,32.6135932 C22.1698628,32.9758129 22.0052175,33.4368197 22.0052175,33.9966138 C22.0052175,34.5564079 22.1698628,35.0174147 22.5650116,35.4125635 C22.9601603,35.7747832 23.4211672,35.9723576 23.9809613,35.9723576 C24.5407553,35.9723576 25.0017622,35.7747832 25.396911,35.4125635 C25.7920597,35.0503438 25.9896341,34.5893369 25.9896341,33.9966138 C25.9896341,33.4368197 25.7920597,32.9758129 25.42984,32.6135932 C25.0346913,32.2184444 24.5407553,32.0537991 23.9809613,32.0537991 Z" id="？-copy" fill="#FFFFFF" fill-rule="evenodd"></path>
                <path d="M24,44 C35.045695,44 44,35.045695 44,24 C44,12.954305 35.045695,4 24,4 C12.954305,4 4,12.954305 4,24 C4,35.045695 12.954305,44 24,44 Z M24,47 C11.2974508,47 1,36.7025492 1,24 C1,11.2974508 11.2974508,1 24,1 C36.7025492,1 47,11.2974508 47,24 C47,36.7025492 36.7025492,47 24,47 Z" id="Oval-3-Copy-2" fill="#FFFFFF" fill-rule="nonzero" opacity="0.3"></path>
            </g>
        </g>
    </g>
</svg>