<?xml version="1.0" encoding="UTF-8" standalone="no"?>
<svg width="48px" height="48px" viewBox="0 0 48 48" version="1.1" xmlns="http://www.w3.org/2000/svg" xmlns:xlink="http://www.w3.org/1999/xlink">
    <!-- Generator: Sketch 49.3 (51167) - http://www.bohemiancoding.com/sketch -->
    <title>icon.massagebox.2</title>
    <desc>Created with Sketch.</desc>
    <defs></defs>
    <g id="Page-1" stroke="none" stroke-width="1" fill="none" fill-rule="evenodd">
        <g id="icon.other" transform="translate(-55.000000, -790.000000)">
            <g id="icon.massagebox.2" transform="translate(55.000000, 790.000000)">
                <circle id="Oval-19-Copy-2" fill="#D0021B" fill-rule="evenodd" cx="24" cy="24" r="24"></circle>
                <path d="M24,47 C36.7025492,47 47,36.7025492 47,24 C47,11.2974508 36.7025492,1 24,1 C11.2974508,1 1,11.2974508 1,24 C1,36.7025492 11.2974508,47 24,47 Z M24,48 C10.745166,48 0,37.254834 0,24 C0,10.745166 10.745166,0 24,0 C37.254834,0 48,10.745166 48,24 C48,37.254834 37.254834,48 24,48 Z" id="Oval-19-Copy-2" fill="#FFFFFF" fill-rule="nonzero"></path>
                <path d="M24,44 C35.045695,44 44,35.045695 44,24 C44,12.954305 35.045695,4 24,4 C12.954305,4 4,12.954305 4,24 C4,35.045695 12.954305,44 24,44 Z M24,47 C11.2974508,47 1,36.7025492 1,24 C1,11.2974508 11.2974508,1 24,1 C36.7025492,1 47,11.2974508 47,24 C47,36.7025492 36.7025492,47 24,47 Z" id="Oval-3-Copy" fill="#FFFFFF" fill-rule="nonzero" opacity="0.3"></path>
                <path d="M32.390625,15.421875 C32.6718764,15.7031264 32.8125,16.0546854 32.8125,16.4765625 C32.8125,16.8984396 32.6718764,17.2499986 32.390625,17.53125 L26.015625,23.90625 L32.390625,30.28125 C32.6718764,30.5625014 32.8125,30.9140604 32.8125,31.3359375 C32.8125,31.7578146 32.6718764,32.1093736 32.390625,32.390625 C32.1093736,32.6718764 31.7578146,32.8125 31.3359375,32.8125 C30.9140604,32.8125 30.5625014,32.6718764 30.28125,32.390625 L23.90625,26.015625 L17.53125,32.390625 C17.2499986,32.6718764 16.8984396,32.8125 16.4765625,32.8125 C16.0546854,32.8125 15.7031264,32.6718764 15.421875,32.390625 C15.1406236,32.1093736 15,31.7578146 15,31.3359375 C15,30.9140604 15.1406236,30.5625014 15.421875,30.28125 L21.796875,23.90625 L15.421875,17.53125 C15.1406236,17.2499986 15,16.8984396 15,16.4765625 C15,16.0546854 15.1406236,15.7031264 15.421875,15.421875 C15.7031264,15.1406236 16.0546854,15 16.4765625,15 C16.8984396,15 17.2499986,15.1406236 17.53125,15.421875 L23.90625,21.796875 L30.28125,15.421875 C30.5625014,15.1406236 30.9140604,15 31.3359375,15 C31.7578146,15 32.1093736,15.1406236 32.390625,15.421875 Z" id="Close---simple-line-icons-Copy" fill="#FFFFFF" fill-rule="evenodd"></path>
            </g>
        </g>
    </g>
</svg>