<?xml version="1.0" encoding="UTF-8" standalone="no"?>
<svg width="48px" height="48px" viewBox="0 0 48 48" version="1.1" xmlns="http://www.w3.org/2000/svg" xmlns:xlink="http://www.w3.org/1999/xlink">
    <!-- Generator: Sketch 49.3 (51167) - http://www.bohemiancoding.com/sketch -->
    <title>icon.massagebox.1</title>
    <desc>Created with Sketch.</desc>
    <defs>
        <rect id="path-1" x="23" y="12" width="3" height="18" rx="1.5"></rect>
    </defs>
    <g id="Page-1" stroke="none" stroke-width="1" fill="none" fill-rule="evenodd">
        <g id="icon.other" transform="translate(-54.000000, -709.000000)">
            <g id="icon.massagebox.1" transform="translate(54.000000, 709.000000)">
                <circle id="Oval-19-Copy" fill="#D48700" fill-rule="evenodd" cx="24" cy="24" r="24"></circle>
                <path d="M24,47 C36.7025492,47 47,36.7025492 47,24 C47,11.2974508 36.7025492,1 24,1 C11.2974508,1 1,11.2974508 1,24 C1,36.7025492 11.2974508,47 24,47 Z M24,48 C10.745166,48 0,37.254834 0,24 C0,10.745166 10.745166,0 24,0 C37.254834,0 48,10.745166 48,24 C48,37.254834 37.254834,48 24,48 Z" id="Oval-19-Copy" fill-opacity="0.98" fill="#FFFFFF" fill-rule="nonzero"></path>
                <g id="Rectangle-Copy">
                    <use fill="#FFFFFF" fill-rule="evenodd" xlink:href="#path-1"></use>
                    <rect stroke="#FFFFFF" stroke-width="1" x="23.5" y="12.5" width="2" height="17" rx="1"></rect>
                </g>
                <rect id="Rectangle-2-Copy" fill="#FFFFFF" fill-rule="evenodd" x="23" y="33" width="3" height="4" rx="1.5"></rect>
                <path d="M24,44 C35.045695,44 44,35.045695 44,24 C44,12.954305 35.045695,4 24,4 C12.954305,4 4,12.954305 4,24 C4,35.045695 12.954305,44 24,44 Z M24,47 C11.2974508,47 1,36.7025492 1,24 C1,11.2974508 11.2974508,1 24,1 C36.7025492,1 47,11.2974508 47,24 C47,36.7025492 36.7025492,47 24,47 Z" id="Oval-3-Copy-4" fill="#FFFFFF" fill-rule="nonzero" opacity="0.3"></path>
            </g>
        </g>
    </g>
</svg>