<?xml version="1.0" encoding="UTF-8" standalone="no"?>
<svg width="37px" height="37px" viewBox="0 0 37 37" version="1.1" xmlns="http://www.w3.org/2000/svg" xmlns:xlink="http://www.w3.org/1999/xlink">
    <!-- Generator: Sketch 43.1 (39012) - http://www.bohemiancoding.com/sketch -->
    <title>icon.vessel.两个参考面</title>
    <desc>Created with Sketch.</desc>
    <defs></defs>
    <g id="Symbols" stroke="none" stroke-width="1" fill="none" fill-rule="evenodd">
        <g id="icon.vessel.两个参考面">
            <rect id="Rectangle" x="0" y="0" width="37" height="37"></rect>
            <g id="icon——11" transform="translate(8.000000, 8.000000)">
                <path d="M1,10 L9,10 L9,12 L1,12 L1,10 Z M0,9 L1,9 L1,13 L0,13 L0,9 Z" id="Combined-Shape" fill="#61A5BE"></path>
                <path d="M1,3 L9,3 L9,5 L1,5 L1,3 Z M0,2 L1,2 L1,6 L0,6 L0,2 Z" id="Combined-Shape" fill="#EEEEEE"></path>
                <path d="M1,17 L9,17 L9,19 L1,19 L1,17 Z M0,16 L1,16 L1,20 L0,20 L0,16 Z" id="Combined-Shape" fill="#EEEEEE"></path>
                <path d="M20,3 L20,5 L12,5 L12,3 L20,3 Z M21,2 L21,6 L20,6 L20,2 L21,2 Z" id="Combined-Shape" fill="#EEEEEE"></path>
                <path d="M21,16 L21,20 L20,20 L20,16 L21,16 Z M20,17 L20,19 L12,19 L12,17 L20,17 Z" id="Combined-Shape" fill="#EEEEEE"></path>
                <path d="M21,9 L21,13 L20,13 L20,9 L21,9 Z M20,10 L20,12 L12,12 L12,10 L20,10 Z" id="Combined-Shape" fill="#61A5BE"></path>
                <rect id="Rectangle-71" fill="#EEEEEE" x="10" y="0" width="1" height="22"></rect>
            </g>
        </g>
    </g>
</svg>