<?xml version="1.0" encoding="UTF-8" standalone="no"?>
<svg width="38px" height="38px" viewBox="0 0 38 38" version="1.1" xmlns="http://www.w3.org/2000/svg" xmlns:xlink="http://www.w3.org/1999/xlink">
    <!-- Generator: Sketch 43.1 (39012) - http://www.bohemiancoding.com/sketch -->
    <title>icon ._tool ._player</title>
    <desc>Created with Sketch.</desc>
    <defs></defs>
    <g id="Symbols" stroke="none" stroke-width="1" fill="none" fill-rule="evenodd">
        <g id="icon-._tool-._player">
            <g id="Group-12">
                <rect id="Rectangle-891" x="0" y="0" width="38" height="37.9408816"></rect>
                <polygon id="Triangle-6" fill="#62A5BE" points="20.5 19.5 11.5 24 11.5 15"></polygon>
                <path d="M6,14.0001262 C6,12.3432023 7.3360431,11 9.00012207,11 L21.9998779,11 C23.6567996,11 25,12.3339615 25,14.0001262 L25,24.9998738 C25,26.6567977 23.6639569,28 21.9998779,28 L9.00012207,28 C7.3432004,28 6,26.6660385 6,24.9998738 L6,14.0001262 Z M7,14.9994225 L7,24.0005775 C7,25.6556493 8.34320226,27 10.0001262,27 L20.9998738,27 C22.6660385,27 24,25.6571128 24,24.0005775 L24,14.9994225 C24,13.3443507 22.6567977,12 20.9998738,12 L10.0001262,12 C8.33396149,12 7,13.3428872 7,14.9994225 Z" id="Combined-Shape" fill="#FFFFFF"></path>
                <path d="M24.5,17.8858177 L32.0670166,13 L32.0670166,26 L24.5,21.1141823 L24.5,19.8228365 L31.0670166,24.0629812 L31.0670166,14.9370188 L24.5,19.1771635 L24.5,17.8858177 Z" id="Combined-Shape" fill="#FFFFFF"></path>
            </g>
        </g>
    </g>
</svg>