<?xml version="1.0" encoding="UTF-8" standalone="no"?>
<svg width="38px" height="38px" viewBox="0 0 38 38" version="1.1" xmlns="http://www.w3.org/2000/svg" xmlns:xlink="http://www.w3.org/1999/xlink">
    <!-- Generator: Sketch 43.1 (39012) - http://www.bohemiancoding.com/sketch -->
    <title>icon.colon.连接</title>
    <desc>Created with Sketch.</desc>
    <defs></defs>
    <g id="Symbols" stroke="none" stroke-width="1" fill="none" fill-rule="evenodd">
        <g id="icon.colon.连接">
            <g id="link" transform="translate(12.000000, 8.000000)">
                <path d="M0,0 L11,0 L11,10 L0,10 L0,0 Z M1,1 L1,9 L10,9 L10,1 L1,1 Z M2,2 L9,2 L9,8 L2,8 L2,2 Z" id="Combined-Shape" fill="#EEEEEE"></path>
                <path d="M0,13 L11,13 L11,23 L0,23 L0,13 Z M1,14 L1,22 L10,22 L10,14 L1,14 Z M2,15 L9,15 L9,21 L2,21 L2,15 Z" id="Combined-Shape-Copy" fill="#61A5BE"></path>
                <path d="M13,7.0085302 C13,5.8992496 13.8938998,5 15.0048815,5 L15.9951185,5 C17.102384,5 18,5.90195036 18,7.0085302 L18,14.9914698 C18,16.1007504 17.1061002,17 15.9951185,17 L15.0048815,17 C13.897616,17 13,16.0980496 13,14.9914698 L13,7.0085302 Z M14,7.49710104 L14,14.502899 C14,15.328344 14.6715729,16 15.5,16 C16.3342028,16 17,15.329725 17,14.502899 L17,7.49710104 C17,6.67165598 16.3284271,6 15.5,6 C14.6657972,6 14,6.67027497 14,7.49710104 Z M13,10 L13,12 L14,12 L14,10 L13,10 Z M17,10 L17,12 L18,12 L18,10 L17,10 Z M15,8 L16,8 L16,14 L15,14 L15,8 Z" id="Combined-Shape" fill="#F5F5F5"></path>
            </g>
        </g>
    </g>
</svg>