<?xml version="1.0" encoding="UTF-8" standalone="no"?>
<svg width="24px" height="24px" viewBox="0 0 24 24" version="1.1" xmlns="http://www.w3.org/2000/svg" xmlns:xlink="http://www.w3.org/1999/xlink">
    <!-- Generator: Sketch 44.1 (41455) - http://www.bohemiancoding.com/sketch -->
    <title>icon.play.反向</title>
    <desc>Created with Sketch.</desc>
    <defs></defs>
    <g id="Symbols" stroke="none" stroke-width="1" fill="none" fill-rule="evenodd">
        <g id="icon.play.反向">
            <g id="Group">
                <g id="Group-5" transform="translate(3.000000, 3.000000)" fill="#61A5BE">
                    <rect id="Rectangle" x="0" y="2" width="1" height="9"></rect>
                    <rect id="Rectangle-Copy" x="14" y="9" width="1" height="2"></rect>
                    <rect id="Rectangle-Copy" x="14" y="3" width="1" height="3"></rect>
                    <rect id="Rectangle-2" x="5" y="10" width="10" height="1"></rect>
                    <rect id="Rectangle-2" x="0" y="10" width="2" height="1"></rect>
                    <rect id="Rectangle-2-Copy" x="0" y="2" width="3" height="1"></rect>
                    <polygon id="Triangle" transform="translate(6.500000, 2.500000) rotate(-90.000000) translate(-6.500000, -2.500000) " points="6.5 1 9 4 4 4"></polygon>
                    <rect id="Rectangle-2-Copy-2" x="7" y="2" width="8" height="1"></rect>
                </g>
                <g id="Group-5" transform="translate(13.500000, 15.500000) scale(-1, -1) translate(-13.500000, -15.500000) translate(6.000000, 10.000000)" fill="#FFFFFF">
                    <rect id="Rectangle" x="0" y="2" width="1" height="9"></rect>
                    <rect id="Rectangle-Copy" x="14" y="2" width="1" height="9"></rect>
                    <rect id="Rectangle-2" x="0" y="10" width="15" height="1"></rect>
                    <rect id="Rectangle-2-Copy" x="0" y="2" width="3" height="1"></rect>
                    <polygon id="Triangle" transform="translate(6.500000, 2.500000) rotate(-90.000000) translate(-6.500000, -2.500000) " points="6.5 1 9 4 4 4"></polygon>
                    <rect id="Rectangle-2-Copy-2" x="7" y="2" width="8" height="1"></rect>
                </g>
            </g>
        </g>
    </g>
</svg>