<?xml version="1.0" encoding="UTF-8" standalone="no"?>
<svg width="38px" height="38px" viewBox="0 0 38 38" version="1.1" xmlns="http://www.w3.org/2000/svg" xmlns:xlink="http://www.w3.org/1999/xlink">
    <!-- Generator: Sketch 43.1 (39012) - http://www.bohemiancoding.com/sketch -->
    <title>icon ._tool ._save displayer</title>
    <desc>Created with Sketch.</desc>
    <defs></defs>
    <g id="Symbols" stroke="none" stroke-width="1" fill="none" fill-rule="evenodd">
        <g id="icon-._tool-._save-displayer">
            <g id="Group-9-Copy-2">
                <rect id="Rectangle-1000" x="0" y="0" width="38" height="38"></rect>
                <g id="Group-13" transform="translate(7.000000, 7.000000)">
                    <path d="M21,14 L21,11 L22,11 L25,15 L23,15 L23,16 L13,16 L13,14 L21,14 Z M11,11 L13,11 L13,25 L11,25 L11,11 Z M23,15 L25,15 L25,25 L23,25 L23,15 Z M13,23 L23,23 L23,25 L13,25 L13,23 Z M14,17 L22,17 L22,18 L14,18 L14,17 Z M15,12 L19,12 L19,13 L15,13 L15,12 Z M14,19 L22,19 L22,20 L14,20 L14,19 Z M14,21 L22,21 L22,22 L14,22 L14,21 Z" id="Combined-Shape" fill="#FFFFFF"></path>
                    <path d="M17,0.5 L17,0 L0.5,0 L0,0 L0,16 L1,16 L1,1 L16,1 L16,10 L17,10 L17,0.5 Z M0,16 L10,16 L10,17 L0,17 L0,16 Z" id="Combined-Shape" fill="#FFFFFF"></path>
                    <rect id="Rectangle-16" fill="#62A5BE" x="2" y="2" width="6" height="6"></rect>
                    <rect id="Rectangle-16-Copy-2" fill="#62A5BE" x="9" y="2" width="6" height="6"></rect>
                    <rect id="Rectangle-16-Copy" fill="#62A5BE" x="2" y="9" width="6" height="6"></rect>
                    <rect id="Rectangle-16-Copy" fill="#62A5BE" x="9" y="9" width="1" height="6"></rect>
                    <rect id="Rectangle-16-Copy" fill="#62A5BE" x="10" y="9" width="5" height="1"></rect>
                </g>
            </g>
        </g>
    </g>
</svg>