<?xml version="1.0" encoding="UTF-8" standalone="no"?>
<svg width="38px" height="38px" viewBox="0 0 38 38" version="1.1" xmlns="http://www.w3.org/2000/svg" xmlns:xlink="http://www.w3.org/1999/xlink">
    <!-- Generator: Sketch 44.1 (41455) - http://www.bohemiancoding.com/sketch -->
    <title>icon.vessel.当前中心线显示隐藏</title>
    <desc>Created with Sketch.</desc>
    <defs></defs>
    <g id="Symbols" stroke="none" stroke-width="1" fill="none" fill-rule="evenodd">
        <g id="icon.vessel.当前中心线显示隐藏">
            <g id="Group" transform="translate(5.000000, 6.000000)">
                <path d="M12.8630674,-1.32186772 C13.998957,2.20557417 11.5750093,5.99710134 10.6056088,8.66932106 C9.63620843,11.3415408 9.410839,14.2006635 10.9459535,16.5128875 C14.7788018,22.2860099 17.2627256,21.7134258 19.8348243,27.3476213" id="Path-249" stroke="#61A5BE" transform="translate(14.835458, 13.012877) rotate(53.000000) translate(-14.835458, -13.012877) "></path>
                <circle id="Oval-18" fill="#61A5BE" transform="translate(25.100676, 3.100676) rotate(53.000000) translate(-25.100676, -3.100676) " cx="25.1006758" cy="3.1006758" r="1.5"></circle>
                <path d="M9.1006758,15.6006758 C9.92910292,15.6006758 10.6006758,14.9291029 10.6006758,14.1006758 C10.6006758,13.2722487 9.92910292,12.6006758 9.1006758,12.6006758 C8.27224868,12.6006758 7.6006758,13.2722487 7.6006758,14.1006758 C7.6006758,14.9291029 8.27224868,15.6006758 9.1006758,15.6006758 Z" id="Oval-18" fill="#61A5BE" transform="translate(9.100676, 14.100676) rotate(53.000000) translate(-9.100676, -14.100676) "></path>
                <path d="M15.1006758,8.6006758 C15.9291029,8.6006758 16.6006758,7.92910292 16.6006758,7.1006758 C16.6006758,6.27224868 15.9291029,5.6006758 15.1006758,5.6006758 C14.2722487,5.6006758 13.6006758,6.27224868 13.6006758,7.1006758 C13.6006758,7.92910292 14.2722487,8.6006758 15.1006758,8.6006758 Z" id="Oval-18" fill="#61A5BE" transform="translate(15.100676, 7.100676) rotate(53.000000) translate(-15.100676, -7.100676) "></path>
                <circle id="Oval-18" fill="#61A5BE" transform="translate(6.100676, 26.100676) rotate(53.000000) translate(-6.100676, -26.100676) " cx="6.1006758" cy="26.1006758" r="1.5"></circle>
            </g>
            <path d="M24.3391304,32.826087 C18.9531734,32.826087 15.6782609,27.4130435 15.6782609,27.4130435 C15.6782609,27.4130435 18.9455614,22 24.3391304,22 C29.7326995,22 33,27.4130435 33,27.4130435 C33,27.4130435 29.7940287,32.826087 24.3391304,32.826087 Z M24.3391304,31.7434783 C26.7307635,31.7434783 28.6695652,29.8046766 28.6695652,27.4130435 C28.6695652,25.0214104 26.7307635,23.0826087 24.3391304,23.0826087 C21.9474973,23.0826087 20.0086957,25.0214104 20.0086957,27.4130435 C20.0086957,29.8046766 21.9474973,31.7434783 24.3391304,31.7434783 Z M24.3391304,29.5782609 C23.1433139,29.5782609 22.173913,28.60886 22.173913,27.4130435 C22.173913,26.2172269 23.1433139,25.2478261 24.3391304,25.2478261 C25.534947,25.2478261 26.5043478,26.2172269 26.5043478,27.4130435 C26.5043478,28.60886 25.534947,29.5782609 24.3391304,29.5782609 Z" id="Oval-22" fill="#EEEEEE"></path>
        </g>
    </g>
</svg>