<?xml version="1.0" encoding="UTF-8"?>
<svg width="38px" height="38px" viewBox="0 0 38 38" version="1.1" xmlns="http://www.w3.org/2000/svg" xmlns:xlink="http://www.w3.org/1999/xlink">
    <!-- Generator: Sketch 62 (91390) - https://sketch.com -->
    <title>icon/tool/show_info</title>
    <desc>Created with Sketch.</desc>
    <g id="icon/tool/show_info" stroke="none" stroke-width="1" fill="none" fill-rule="evenodd">
        <rect id="bg" fill-opacity="0" fill="#FFFFFF" x="0" y="0" width="38" height="38"></rect>
        <path d="M16,30 L16,31 L6,31 L6,30 L16,30 Z M32,30 L32,31 L22,31 L22,30 L32,30 Z M13,28 L13,29 L6,29 L6,28 L13,28 Z M32,28 L32,29 L25,29 L25,28 L32,28 Z M11,26 L11,27 L6,27 L6,26 L11,26 Z M32,26 L32,27 L27,27 L27,26 L32,26 Z M11,9 L11,10 L6,10 L6,9 L11,9 Z M32,9 L32,10 L27,10 L27,9 L32,9 Z M13,7 L13,8 L6,8 L6,7 L13,7 Z M32,7 L32,8 L25,8 L25,7 L32,7 Z M16,5 L16,6 L6,6 L6,5 L16,5 Z M32,5 L32,6 L22,6 L22,5 L32,5 Z" id="Combined-Shape" fill="#82B1FF"></path>
        <path d="M19,13 C23.9820116,13 27,18 27,18 C27,18 24.038661,23 19,23 C14.0250196,23 11,18 11,18 C11,18 14.0179884,13 19,13 Z M19,14 C16.790861,14 15,15.790861 15,18 C15,20.209139 16.790861,22 19,22 C21.209139,22 23,20.209139 23,18 C23,15.790861 21.209139,14 19,14 Z M19,16 C20.1045695,16 21,16.8954305 21,18 C21,19.1045695 20.1045695,20 19,20 C17.8954305,20 17,19.1045695 17,18 C17,16.8954305 17.8954305,16 19,16 Z" id="形状结合" fill="#FFFFFF"></path>
    </g>
</svg>