<?xml version="1.0" encoding="UTF-8" standalone="no"?>
<svg width="38px" height="38px" viewBox="0 0 38 38" version="1.1" xmlns="http://www.w3.org/2000/svg" xmlns:xlink="http://www.w3.org/1999/xlink">
    <!-- Generator: Sketch 44.1 (41455) - http://www.bohemiancoding.com/sketch -->
    <title>icon.血管.显示染色血管</title>
    <desc>Created with Sketch.</desc>
    <defs></defs>
    <g id="Symbols" stroke="none" stroke-width="1" fill="none" fill-rule="evenodd">
        <g id="icon.血管.显示染色血管">
            <g id="Group-9" transform="translate(16.134308, 18.108356) rotate(85.000000) translate(-16.134308, -18.108356) translate(6.134308, 6.108356)" stroke="#EEEEEE">
                <path d="M13.1697112,23.1473645 C10.2884704,21.7068901 5.77790765,17.3127671 3.76949458,13.7181315 C1.7003241,10.0147529 0.174294805,7.67369586 0.581721232,3.26339715 C1.02188947,1.57903969 2.31260654,0.224562238 5.19511771,0.224562238 C8.07762889,0.224562238 8.6384249,1.84343605 8.6384249,1.84343605 C8.6384249,1.84343605 8.57097158,4.45662728 9.68247049,6.98488672 C10.7939694,9.51314616 12.0907008,11.0331851 14.4263421,13.2498988 C16.7619835,15.4666126 19.1734139,15.8857385 19.1734139,16.2454062 L19.116916,16.3144651 C19.0672518,16.257027 19.0130662,16.2035072 18.9543023,16.1541985 C17.8877844,15.2592837 15.7171183,16.0903404 14.1059839,18.0104156 C12.4948495,19.9304908 12.0533506,22.2124911 13.1198686,23.1074059 C13.1362251,23.1211306 13.1528413,23.1344494 13.1697112,23.1473645 L13.1697112,23.1473645 Z" id="Combined-Shape" fill="#61A5BE"></path>
                <path d="M17.968187,21.2511888 C19.5793214,19.3311136 20.0208203,17.0491133 18.9543023,16.1541985 C17.8877844,15.2592837 15.7171183,16.0903404 14.1059839,18.0104156 C12.4948495,19.9304908 12.0533506,22.2124911 13.1198686,23.1074059 C14.1863865,24.0023207 16.3570526,23.171264 17.968187,21.2511888 L17.968187,21.2511888 Z" id="Oval-20"></path>
            </g>
            <path d="M23.3391304,32.826087 C17.9531734,32.826087 14.6782609,27.4130435 14.6782609,27.4130435 C14.6782609,27.4130435 17.9455614,22 23.3391304,22 C28.7326995,22 32,27.4130435 32,27.4130435 C32,27.4130435 28.7940287,32.826087 23.3391304,32.826087 Z M23.3391304,31.7434783 C25.7307635,31.7434783 27.6695652,29.8046766 27.6695652,27.4130435 C27.6695652,25.0214104 25.7307635,23.0826087 23.3391304,23.0826087 C20.9474973,23.0826087 19.0086957,25.0214104 19.0086957,27.4130435 C19.0086957,29.8046766 20.9474973,31.7434783 23.3391304,31.7434783 Z M23.3391304,29.5782609 C22.1433139,29.5782609 21.173913,28.60886 21.173913,27.4130435 C21.173913,26.2172269 22.1433139,25.2478261 23.3391304,25.2478261 C24.534947,25.2478261 25.5043478,26.2172269 25.5043478,27.4130435 C25.5043478,28.60886 24.534947,29.5782609 23.3391304,29.5782609 Z" id="Oval-22" fill="#EEEEEE"></path>
        </g>
    </g>
</svg>