<?xml version="1.0" encoding="UTF-8" standalone="no"?>
<svg width="38px" height="38px" viewBox="0 0 38 38" version="1.1" xmlns="http://www.w3.org/2000/svg" xmlns:xlink="http://www.w3.org/1999/xlink">
    <!-- Generator: Sketch 43.1 (39012) - http://www.bohemiancoding.com/sketch -->
    <title>icon.vessel.中心线提取.两点</title>
    <desc>Created with Sketch.</desc>
    <defs></defs>
    <g id="Symbols" stroke="none" stroke-width="1" fill="none" fill-rule="evenodd">
        <g id="icon.vessel.中心线提取.两点">
            <g id="Group-9" transform="translate(8.000000, 5.000000)">
                <path d="M13.9812014,26.2310547 C10.9999997,24.8811043 6.07983399,20.141114 3.9251954,16.2847656 C1.77055681,12.4284172 0.181494138,9.99066162 0.605749512,5.39819336 C1.06409911,3.6442627 2.40812988,2.23383789 5.40970459,2.23383789 C8.4112793,2.23383789 8.99523926,3.91958008 8.99523926,3.91958008 C8.99523926,3.91958008 8.92499975,6.64071045 10.0824097,9.27340088 C11.2398196,11.9060913 12.5901131,13.4889162 15.0222293,15.7971924 C17.4543454,18.1054686 19.9653811,18.5419067 19.9653811,18.9164307" id="Combined-Shape" stroke="#EEEEEE"></path>
                <path d="M18.7103718,24.1289796 C20.3880549,22.1295947 20.8477901,19.7533353 19.7372191,18.8214556 C18.6266481,17.8895759 16.3663215,18.7549598 14.6886385,20.7543446 C13.0109554,22.7537295 12.5512202,25.1299889 13.6617912,26.0618686 C14.7723622,26.9937483 17.0326887,26.1283644 18.7103718,24.1289796 L18.7103718,24.1289796 Z" id="Oval-20" stroke="#EEEEEE"></path>
                <polygon id="Path-81" fill="#EEEEEE" points="17.409 0 9.401 8.03478261 8.4 11.0478261 11.403 10.0434783 19.411 2.00869565"></polygon>
                <path d="M5.26192017,7.49486084 C5.26192017,8.87183228 6.24298077,11.4921141 7.85513306,14.0824829 C9.46728535,16.6728518 10.3522156,17.3675781 12.6314026,19.098053" id="Path-249" stroke="#61A5BE"></path>
                <circle id="Oval-18" fill="#61A5BE" cx="5.25" cy="7.45" r="2.1"></circle>
                <circle id="Oval-18" fill="#61A5BE" cx="11.6" cy="18" r="2.1"></circle>
            </g>
        </g>
    </g>
</svg>