<?xml version="1.0" encoding="UTF-8" standalone="no"?>
<svg width="28px" height="28px" viewBox="0 0 28 28" version="1.1" xmlns="http://www.w3.org/2000/svg" xmlns:xlink="http://www.w3.org/1999/xlink">
    <!-- Generator: Sketch 43.1 (39012) - http://www.bohemiancoding.com/sketch -->
    <title>icon.vessel.已选择平扫序列</title>
    <desc>Created with Sketch.</desc>
    <defs>
        <path d="M17.5,24 C14.4624339,24 12,21.5375661 12,18.5 C12,15.4624339 14.4624339,13 17.5,13 C20.5375661,13 23,15.4624339 23,18.5 C23,21.5375661 20.5375661,24 17.5,24 Z M13.1,19.2225397 L15.7165476,21.8390873 L16.5887302,20.9669048 L13.9721825,18.3503571 L13.1,19.2225397 Z M15.7165476,21.8390873 L16.5887302,22.7112698 L21.8218254,17.4781746 L20.9496429,16.6059921 L15.7165476,21.8390873 Z" id="path-1"></path>
        <filter x="-22.7%" y="-22.7%" width="145.5%" height="145.5%" filterUnits="objectBoundingBox" id="filter-2">
            <feGaussianBlur stdDeviation="2.5" in="SourceAlpha" result="shadowBlurInner1"></feGaussianBlur>
            <feOffset dx="0" dy="0" in="shadowBlurInner1" result="shadowOffsetInner1"></feOffset>
            <feComposite in="shadowOffsetInner1" in2="SourceAlpha" operator="arithmetic" k2="-1" k3="1" result="shadowInnerInner1"></feComposite>
            <feColorMatrix values="0 0 0 0 0.643137255   0 0 0 0 0.933333333   0 0 0 0 0.737254902  0 0 0 0.75 0" type="matrix" in="shadowInnerInner1"></feColorMatrix>
        </filter>
    </defs>
    <g id="Symbols" stroke="none" stroke-width="1" fill="none" fill-rule="evenodd">
        <g id="icon.vessel.已选择平扫序列">
            <rect id="Rectangle-3" stroke="#EEEEEE" x="8.5" y="9.5" width="10" height="9"></rect>
            <rect id="Rectangle-4" fill="#EEEEEE" x="13" y="8" width="1" height="12"></rect>
            <rect id="Rectangle-5" fill="#EEEEEE" x="8" y="12" width="10.0151367" height="1"></rect>
            <rect id="Rectangle-5-Copy" fill="#EEEEEE" x="8" y="15" width="10.0151367" height="1"></rect>
            <g id="Combined-Shape">
                <use fill="#3DA557" fill-rule="evenodd" xlink:href="#path-1"></use>
                <use fill="black" fill-opacity="1" filter="url(#filter-2)" xlink:href="#path-1"></use>
            </g>
        </g>
    </g>
</svg>