<?xml version="1.0" encoding="UTF-8" standalone="no"?>
<svg width="38px" height="38px" viewBox="0 0 38 38" version="1.1" xmlns="http://www.w3.org/2000/svg" xmlns:xlink="http://www.w3.org/1999/xlink">
    <!-- Generator: Sketch 43.1 (39012) - http://www.bohemiancoding.com/sketch -->
    <title>多点提取</title>
    <desc>Created with Sketch.</desc>
    <defs></defs>
    <g id="Symbols" stroke="none" stroke-width="1" fill="none" fill-rule="evenodd">
        <g id="多点提取">
            <g id="Group-36" transform="translate(6.000000, 7.000000)">
                <path d="M16.8290405,4.66007117 C13.7427905,1.91999999 9.45560303,1.92000001 7.03497813,1.92 C4.61435324,1.91999999 2.93435313,5.73051427 2.93435313,7.70302676 C2.93435313,9.67553924 0.0881031321,9.84485373 0.0881031321,11.2191221 C0.0881031321,12.5933904 -0.693771797,17.4677634 2.40091563,19.5559741 C5.49560306,21.6441847 5.24810324,20.8512291 7.86279063,22.7691848 C10.477478,24.6871404 13.9565406,21.7561205 15.620603,21.7561204 C17.2846654,21.7561203 20.8509157,17.6305228 20.8509156,15.0841931 C20.8509155,12.5378635 19.9152905,7.40014235 16.8290405,4.66007117 Z" id="Path-132" stroke="#EEEEEE" fill-opacity="0.188858696" fill="#D8D8D8" stroke-dasharray="1"></path>
                <polyline id="Path-133" stroke="#EEEEEE" points="7.1915625 8.66247492 12.12 11.8841513 6.72 17.1234908 14.4871875 17.5345485"></polyline>
                <ellipse id="Oval-18" fill="#65A5BD" cx="6.72" cy="7.69926421" rx="1.92" ry="1.9264214"></ellipse>
                <ellipse id="Oval-18" fill="#65A5BD" cx="12.48" cy="11.552107" rx="1.92" ry="1.9264214"></ellipse>
                <ellipse id="Oval-18" fill="#65A5BD" cx="6.72" cy="16.3681605" rx="1.92" ry="1.9264214"></ellipse>
                <ellipse id="Oval-18" fill="#65A5BD" cx="14.4" cy="16.3681605" rx="1.92" ry="1.9264214"></ellipse>
                <polygon id="Path-81" fill="#EEEEEE" points="24.6109091 0 15.5345455 9.10671937 14.4 12.5217391 17.8036364 11.3833992 26.88 2.27667984"></polygon>
            </g>
        </g>
    </g>
</svg>