<?xml version="1.0" encoding="UTF-8" standalone="no"?>
<svg width="38px" height="38px" viewBox="0 0 38 38" version="1.1" xmlns="http://www.w3.org/2000/svg" xmlns:xlink="http://www.w3.org/1999/xlink">
    <!-- Generator: Sketch 48.2 (47327) - http://www.bohemiancoding.com/sketch -->
    <title>icon.FFR.血管生长</title>
    <desc>Created with Sketch.</desc>
    <defs></defs>
    <g id="Symbols" stroke="none" stroke-width="1" fill="none" fill-rule="evenodd">
        <g id="icon.FFR.血管生长">
            <g id="Group-4">
                <g id="icon-._tool-._grow_vessel">
                    <rect id="bg" x="0" y="0" width="38" height="38"></rect>
                    <path d="M23.1345741,12.1629527 L18.4126874,16.9093305 C18.3926387,14.0280676 18.2422154,14.3978504 17.113731,14.3099887 C13.6776661,14.0424632 13.445853,17.3620749 13.4458527,21.9812599 C13.4458524,26.600445 13.7481867,26.739106 12.585051,28.9573609 C11.4219153,31.1756159 6.65451614,31.9602198 9.45728727,30.5290634 C12.2600584,29.097907 12.2739872,27.3678072 12.2739872,25.1504311 C12.2739872,22.933055 6.54886057,25.2025991 4,27.6631744 C6.05702556,25.0409439 8.8555847,24.0133339 10.64967,22.9330553 C12.4437552,21.8527767 11.7101015,19.5613977 12.2739872,16.1748936 C12.8378729,12.7883895 14.5351918,12.3879169 16.2736327,12.0093942 C18.0120736,11.6308715 18.41577,11.51681 18.41577,9.44769313 C18.41577,7.37857624 19.3624753,6.99999999 20.4172532,7 C21.4720311,7.00000001 22.1143551,7.72590882 22.1143551,9.44769313 C22.1143551,10.7279409 22.175036,11.5544312 23.1345741,12.1629527 Z M26.8042133,13.4050996 C28.1586779,13.882738 29.5255938,14.6426692 31.2490152,16.5077865 C33.9365682,19.4163041 33.0953186,21.7685658 32.6615051,24.9700618 C32.2276915,28.1715578 32.1086418,25.9214397 32.1086427,23.9504982 C32.1086436,21.9795566 31.0672896,22.8778252 28.9467041,23.1321905 C26.8261185,23.3865558 28.9081366,28.3570767 28.1255215,27.5688981 C27.3429064,26.7807196 26.3916949,24.116222 27.3429064,22.616125 C28.2941179,21.116028 30.987368,22.3172797 30.987368,19.7920325 C30.987368,17.5876504 28.0567337,15.6030903 25.4765937,14.7385117 L26.8042133,13.4050996 Z M21.8192903,18.4117722 C21.7493364,19.0719963 21.6673219,19.779996 21.5353945,20.5095161 C20.8850302,24.1058386 20.4317236,34.3748684 19.9663672,32.3131942 C19.5315593,30.3868591 18.5555805,23.9447964 18.4293175,19.3908646 L19.6176588,20.6230096 L21.8192903,18.4117722 Z" id="Combined-Shape" fill="#EEEEEE"></path>
                    <path d="M27.7741592,8.5666227 C27.6092226,8.23565437 27.5164521,7.86241383 27.5164521,7.46750557 C27.5164521,6.10473988 28.6211919,5 29.9839576,5 C31.3467233,5 32.4514632,6.10473988 32.4514632,7.46750557 C32.4514632,8.83027127 31.3467233,9.93501115 29.9839576,9.93501115 C29.6027469,9.93501115 29.2417269,9.84856455 28.9194315,9.69420534 L19.569208,19.3071965 L18.5406036,18.1630962 L27.7741592,8.5666227 Z" id="Combined-Shape" fill="#65A5BD"></path>
                </g>
            </g>
        </g>
    </g>
</svg>