<?xml version="1.0" encoding="UTF-8"?>
<svg width="48px" height="48px" viewBox="0 0 48 48" version="1.1" xmlns="http://www.w3.org/2000/svg" xmlns:xlink="http://www.w3.org/1999/xlink">
    <!-- Generator: Sketch 61 (89581) - https://sketch.com -->
    <title>Viewer-help</title>
    <desc>Created with Sketch.</desc>
    <g id="Viewer-help" stroke="none" stroke-width="1" fill="none" fill-rule="evenodd">
        <rect id="Rectangle" fill-opacity="0" fill="#BCE6FF" x="0" y="0" width="48" height="48"></rect>
        <circle id="椭圆形" stroke="#FFFFFF" cx="24.5" cy="24.5" r="12"></circle>
        <path d="M25.04,27.78 L25.04,27.32 C25.04,26.78 25.16,26.3 25.42,25.86 C25.62,25.5 25.92,25.14 26.36,24.76 C27.24,23.98 27.78,23.46 27.98,23.22 C28.48,22.56 28.74,21.78 28.74,20.88 C28.74,19.68 28.36,18.74 27.62,18.06 C26.84,17.34 25.82,17 24.54,17 C23.1,17 21.98,17.44 21.18,18.32 C20.38,19.16 20,20.28 20,21.68 L21.58,21.68 C21.58,20.7 21.8,19.94 22.24,19.38 C22.72,18.72 23.46,18.4 24.46,18.4 C25.3,18.4 25.96,18.62 26.42,19.1 C26.86,19.54 27.1,20.16 27.1,20.96 C27.1,21.52 26.9,22.04 26.5,22.54 C26.38,22.7 26.14,22.94 25.82,23.26 C24.74,24.22 24.08,24.98 23.8,25.58 C23.56,26.08 23.44,26.66 23.44,27.32 L23.44,27.78 L25.04,27.78 Z M24.24,31.56 C24.58,31.56 24.86,31.44 25.1,31.22 C25.34,31 25.46,30.72 25.46,30.36 C25.46,30.02 25.34,29.74 25.12,29.52 C24.88,29.28 24.58,29.18 24.24,29.18 C23.9,29.18 23.62,29.28 23.38,29.52 C23.14,29.74 23.04,30.02 23.04,30.36 C23.04,30.7 23.14,30.98 23.38,31.22 C23.62,31.44 23.9,31.56 24.24,31.56 Z" id="？" fill="#3D7FF2" fill-rule="nonzero"></path>
    </g>
</svg>