<?xml version="1.0" encoding="UTF-8" standalone="no"?>
<svg width="30px" height="30px" viewBox="0 0 30 30" version="1.1" xmlns="http://www.w3.org/2000/svg" xmlns:xlink="http://www.w3.org/1999/xlink">
    <!-- Generator: Sketch 49.3 (51167) - http://www.bohemiancoding.com/sketch -->
    <title>icon.mrs.删除.30</title>
    <desc>Created with Sketch.</desc>
    <defs></defs>
    <g id="icon.mrs.删除.30" stroke="none" stroke-width="1" fill="none" fill-rule="evenodd">
        <g id="icon.mrs.导入.30">
            <g>
                <rect id="Rectangle" x="0" y="0" width="30" height="30"></rect>
            </g>
        </g>
        <g id="icon_10" transform="translate(8.000000, 5.000000)">
            <path d="M2.01989135,6.00919753 L12.0714547,6.00230486 C12.6357827,6.00191788 13.0362449,6.44626723 12.9827689,6.99477535 L11.9157855,17.9389207 C11.8623526,18.4869865 11.3728507,18.9318667 10.8225487,18.9316005 L3.16501124,18.9278964 C2.60833366,18.9276271 2.12881937,18.4832058 2.07974597,17.9352468 L1.10060554,7.00205649 C1.05157171,6.45453931 1.46311042,6.00957933 2.01989135,6.00919753 Z M3.59771718,8.83419648 L3.59771718,16.0962476 C3.59771718,16.3667544 3.82245011,16.5872637 4.09967223,16.5872637 L4.29576217,16.5872637 C4.56634514,16.5872637 4.79771722,16.3674283 4.79771722,16.0962476 L4.79771722,8.83419648 C4.79771722,8.56368966 4.57298429,8.34318034 4.29576217,8.34318034 L4.09967223,8.34318034 C3.82908926,8.34318034 3.59771718,8.56301575 3.59771718,8.83419648 Z M6.59771718,8.83419648 L6.59771718,16.0962476 C6.59771718,16.3667544 6.82245011,16.5872637 7.09967223,16.5872637 L7.29576217,16.5872637 C7.56634514,16.5872637 7.79771722,16.3674283 7.79771722,16.0962476 L7.79771722,8.83419648 C7.79771722,8.56368966 7.57298429,8.34318034 7.29576217,8.34318034 L7.09967223,8.34318034 C6.82908926,8.34318034 6.59771718,8.56301575 6.59771718,8.83419648 Z M9.59771718,8.83419648 L9.59771718,16.0962476 C9.59771718,16.3667544 9.82245011,16.5872637 10.0996722,16.5872637 L10.2957622,16.5872637 C10.5663451,16.5872637 10.7977172,16.3674283 10.7977172,16.0962476 L10.7977172,8.83419648 C10.7977172,8.56368966 10.5729843,8.34318034 10.2957622,8.34318034 L10.0996722,8.34318034 C9.82908926,8.34318034 9.59771718,8.56301575 9.59771718,8.83419648 Z" id="Combined-Shape" fill="#EEEEEE"></path>
            <rect id="Rectangle" fill="#61A5BE" x="0" y="2" width="14" height="2" rx="1"></rect>
            <path d="M4,1.0093689 C4,0.451909848 4.45097518,0 4.99077797,0 L9.00922203,0 C9.55641359,0 10,0.443353176 10,1.0093689 L10,2.9906311 C10,3.54809015 9.54902482,4 9.00922203,4 L4.99077797,4 C4.44358641,4 4,3.55664682 4,2.9906311 L4,1.0093689 Z M5,1.5 C5,1.76806641 5.21959471,2 5.49047852,2 L8.50952148,2 C8.78494263,2 9,1.77614237 9,1.5 C9,1.23193359 8.78040529,1 8.50952148,1 L5.49047852,1 C5.21505737,1 5,1.22385763 5,1.5 Z" id="Combined-Shape" fill="#61A5BE"></path>
        </g>
    </g>
</svg>