<?xml version="1.0" encoding="UTF-8" standalone="no"?>
<svg width="30px" height="30px" viewBox="0 0 30 30" version="1.1" xmlns="http://www.w3.org/2000/svg" xmlns:xlink="http://www.w3.org/1999/xlink">
    <!-- Generator: Sketch 49.3 (51167) - http://www.bohemiancoding.com/sketch -->
    <title>icon.batch.save</title>
    <desc>Created with Sketch.</desc>
    <defs></defs>
    <g id="icon.batch.save" stroke="none" stroke-width="1" fill="none" fill-rule="evenodd">
        <g>
            <rect id="Rectangle-2" x="0" y="0" width="30" height="30"></rect>
            <path d="M11,6 L11,10 L19,10 L19,6 L21,6 L21,7 L22,7 L22,8 L23,8 L23,24 L7,24 L7,6 L11,6 Z M9,13 L9,22 L21,22 L21,13 L9,13 Z" id="Path-245" fill="#EEEEEE"></path>
            <path d="M11,19 L19,19 L19,20 L11,20 L11,19 Z M11,17 L19,17 L19,18 L11,18 L11,17 Z M11,15 L19,15 L19,16 L11,16 L11,15 Z M15,6 L18,6 L18,9 L15,9 L15,6 Z" id="Combined-Shape" fill="#61A5BE"></path>
        </g>
    </g>
</svg>