<?xml version="1.0" encoding="UTF-8" standalone="no"?>
<svg width="24px" height="24px" viewBox="0 0 24 24" version="1.1" xmlns="http://www.w3.org/2000/svg" xmlns:xlink="http://www.w3.org/1999/xlink">
    <!-- Generator: Sketch 44.1 (41455) - http://www.bohemiancoding.com/sketch -->
    <title>Gray Rainbow copy</title>
    <desc>Created with Sketch.</desc>
    <defs>
        <linearGradient x1="0%" y1="50%" x2="100%" y2="50%" id="linearGradient-1">
            <stop stop-color="#000000" offset="0%"></stop>
            <stop stop-color="#FFFFFF" offset="100%"></stop>
        </linearGradient>
        <rect id="path-2" x="0" y="0" width="24" height="24"></rect>
    </defs>
    <g id="Symbols" stroke="none" stroke-width="1" fill="none" fill-rule="evenodd">
        <g id="Gray-Rainbow-copy">
            <g>
                <g id="Rectangle-Copy-7">
                    <use fill="url(#linearGradient-1)" fill-rule="evenodd" xlink:href="#path-2"></use>
                    <rect stroke="#FFFFFF" stroke-width="1" x="0.5" y="0.5" width="23" height="23"></rect>
                </g>
                <rect id="Rectangle-9" fill="#F1CDC0" x="22.5" y="0" width="1" height="24"></rect>
                <rect id="Rectangle-9-Copy" fill="#E6D3B6" x="21" y="0" width="1" height="24"></rect>
                <rect id="Rectangle-9-Copy-2" fill="#E3DA7F" x="19.5" y="0" width="1" height="24"></rect>
                <rect id="Rectangle-9-Copy-3" fill="#C1CBA0" x="18" y="0" width="1" height="24"></rect>
                <rect id="Rectangle-9-Copy-4" fill="#A0BF88" x="16.5" y="0" width="1" height="24"></rect>
                <rect id="Rectangle-9-Copy-5" fill="#80B479" x="15" y="0" width="1" height="24"></rect>
                <rect id="Rectangle-9-Copy-6" fill="#789F80" x="13.5" y="0" width="1" height="24"></rect>
                <rect id="Rectangle-9-Copy-7" fill="#608980" x="12" y="0" width="1" height="24"></rect>
                <rect id="Rectangle-9-Copy-8" fill="#448B94" x="10.5" y="0" width="1" height="24"></rect>
                <rect id="Rectangle-9-Copy-9" fill="#406077" x="9" y="0" width="1" height="24"></rect>
                <rect id="Rectangle-9-Copy-10" fill="#2B417C" x="7.5" y="0" width="1" height="24"></rect>
                <rect id="Rectangle-9-Copy-11" fill="#29285E" x="6" y="0" width="1" height="24"></rect>
                <rect id="Rectangle-9-Copy-12" fill="#2A1A46" x="4.5" y="0" width="1" height="24"></rect>
                <rect id="Rectangle-9-Copy-13" fill="#301A5B" x="3" y="0" width="1" height="24"></rect>
                <rect id="Rectangle-9-Copy-14" fill="#2C0E3B" x="1.5" y="0" width="1" height="24"></rect>
                <rect id="Rectangle" stroke="#FFFFFF" x="0.5" y="0.5" width="23" height="23"></rect>
            </g>
        </g>
    </g>
</svg>