<?xml version="1.0" encoding="UTF-8" standalone="no"?>
<svg width="38px" height="38px" viewBox="0 0 38 38" version="1.1" xmlns="http://www.w3.org/2000/svg" xmlns:xlink="http://www.w3.org/1999/xlink">
    <!-- Generator: Sketch 43.1 (39012) - http://www.bohemiancoding.com/sketch -->
    <title>icon ._tool ._适应窗口显示</title>
    <desc>Created with Sketch.</desc>
    <defs>
        <polyline id="path-1" points="19.9343262 24 12 24 12 13 12 13 24 13 24 21.2497762"></polyline>
        <mask id="mask-2" maskContentUnits="userSpaceOnUse" maskUnits="objectBoundingBox" x="0" y="0" width="12" height="11" fill="white">
            <use xlink:href="#path-1"></use>
        </mask>
    </defs>
    <g id="Symbols" stroke="none" stroke-width="1" fill="none" fill-rule="evenodd">
        <g id="icon-._tool-._适应窗口显示">
            <rect id="Rectangle-891-Copy-14" x="0" y="0.024085278" width="38" height="37.9408816"></rect>
            <rect id="Rectangle-2" fill="#FFFFFF" x="7" y="8" width="1" height="22"></rect>
            <rect id="Rectangle-2" fill="#FFFFFF" x="7" y="8" width="22" height="1"></rect>
            <rect id="Rectangle-2-Copy-2" fill="#FFFFFF" x="8" y="29" width="15" height="1"></rect>
            <rect id="Rectangle-2-Copy-3" fill="#FFFFFF" x="25" y="29" width="3" height="1"></rect>
            <rect id="Rectangle-2" fill="#FFFFFF" x="28" y="8" width="1" height="16"></rect>
            <rect id="Rectangle-2-Copy" fill="#FFFFFF" x="28" y="27" width="1" height="3"></rect>
            <path d="M29,32.9996939 C29.0169752,32.9998978 29.0339754,33 29.051,33 C31.3043218,33 33.131,31.209139 33.131,29 C33.131,26.790861 31.3043218,25 29.051,25 C29.0339754,25 29.0169752,25.0001022 29,25.0003061 L29,25.9404164 C29.0169668,25.9401392 29.0339671,25.94 29.051,25.94 C30.7409913,25.94 32.111,27.3100087 32.111,29 C32.111,30.6899913 30.7409913,32.06 29.051,32.06 C29.0339671,32.06 29.0169668,32.0598608 29,32.0595836 L29,32.9996939 Z" id="Combined-Shape" fill="#61A5BE"></path>
            <path d="M25,32 L29.4000001,32 L29.4000001,33 L25,33 L25,32 Z M23,25 L29.5,25 L29.5,26 L23,26 L23,25 Z" id="Rectangle-90" fill="#61A5BE"></path>
            <polygon id="Rectangle-91" fill="#61A5BE" points="24 28.4539654 20 25.5339654 24 22.6139653"></polygon>
            <use id="Rectangle-76" stroke="#FFFFFF" mask="url(#mask-2)" stroke-width="2" stroke-dasharray="1,1" xlink:href="#path-1"></use>
            <g id="Group" transform="translate(9.000000, 10.000000)" stroke-linecap="round" stroke="#FFFFFF">
                <g id="Group-2">
                    <path d="M1.5,1.5 L3.08113883,3.08113883" id="Line"></path>
                    <path d="M1.5,1.5 L1.5,2.5" id="Line"></path>
                    <path d="M1.5,1.5 L2.5,1.5" id="Line"></path>
                </g>
                <g id="Group-2" transform="translate(16.000000, 2.000000) scale(-1, 1) translate(-16.000000, -2.000000) translate(14.000000, 0.000000)">
                    <path d="M1.5,1.5 L3.08113883,3.08113883" id="Line"></path>
                    <path d="M1.5,1.5 L1.5,2.5" id="Line"></path>
                    <path d="M1.5,1.5 L2.5,1.5" id="Line"></path>
                </g>
                <g id="Group-2" transform="translate(2.000000, 16.000000) scale(1, -1) translate(-2.000000, -16.000000) translate(0.000000, 14.000000)">
                    <path d="M1.5,1.5 L3.08113883,3.08113883" id="Line"></path>
                    <path d="M1.5,1.5 L1.5,2.5" id="Line"></path>
                    <path d="M1.5,1.5 L2.5,1.5" id="Line"></path>
                </g>
            </g>
        </g>
    </g>
</svg>