<?xml version="1.0" encoding="UTF-8" standalone="no"?>
<svg width="63px" height="45px" viewBox="0 0 63 45" version="1.1" xmlns="http://www.w3.org/2000/svg" xmlns:xlink="http://www.w3.org/1999/xlink">
    <!-- Generator: Sketch 43.1 (39012) - http://www.bohemiancoding.com/sketch -->
    <title>icon.vessel.layout.16</title>
    <desc>Created with Sketch.</desc>
    <defs></defs>
    <g id="Symbols" stroke="none" stroke-width="1" fill="none" fill-rule="evenodd">
        <g id="icon.vessel.layout.16">
            <g id="Group-Copy-6">
                <polygon id="Combined-Shape" fill="#EEEEEE" points="63 0 63 45 0 45 0 0"></polygon>
                <polygon id="Path" fill="#61A5BE" points="2 2 61 2 61 43 2 43"></polygon>
                <text id="VR" font-family="ArialMT, Arial" font-size="10" font-weight="normal" letter-spacing="-0.636363626" fill="#EEEEEE">
                    <tspan x="3.69056284" y="28">VR</tspan>
                </text>
                <text id="C" font-family="ArialMT, Arial" font-size="10" font-weight="normal" line-spacing="9" letter-spacing="-0.636363626" fill="#EEEEEE">
                    <tspan x="42" y="13">C</tspan>
                    <tspan x="42.2758789" y="22">P</tspan>
                    <tspan x="42" y="31">R</tspan>
                </text>
                <text id="C" font-family="ArialMT, Arial" font-size="10" font-weight="normal" line-spacing="9" letter-spacing="-0.636363626" fill="#EEEEEE">
                    <tspan x="31" y="22">C</tspan>
                </text>
                <rect id="Rectangle-1853" fill="#EEEEEE" x="22" y="34" width="40" height="1"></rect>
                <rect id="Rectangle-1853" fill-opacity="0.313717165" fill="#2B2C2D" x="22" y="35" width="39" height="8"></rect>
                <rect id="Rectangle-1853-Copy-2" fill-opacity="0.313717165" fill="#2B2C2D" x="52" y="2" width="9" height="32"></rect>
                <rect id="Rectangle-1853" fill="#EEEEEE" x="21.6972656" y="8" width="7" height="1"></rect>
                <rect id="Rectangle-1853" fill="#EEEEEE" x="21.6972656" y="14" width="7" height="1"></rect>
                <rect id="Rectangle-1853" fill="#EEEEEE" x="21.6972656" y="21" width="7" height="1"></rect>
                <rect id="Rectangle-1853" fill="#EEEEEE" x="21.6972656" y="28" width="7" height="1"></rect>
                <polygon id="Rectangle-1853" fill="#EEEEEE" points="29 34 28 34 28 1 29 1"></polygon>
                <polygon id="Rectangle-1853" fill="#EEEEEE" points="22 1 22 44 21 44 21 1"></polygon>
                <polygon id="Rectangle-1853" fill="#EEEEEE" points="52 1 52 34 51 34 51 1"></polygon>
                <polygon id="Rectangle-1853" fill="#EEEEEE" points="41 1 41 34 40 34 40 1"></polygon>
            </g>
        </g>
    </g>
</svg>