<?xml version="1.0" encoding="UTF-8" standalone="no"?>
<svg width="63px" height="45px" viewBox="0 0 63 45" version="1.1" xmlns="http://www.w3.org/2000/svg" xmlns:xlink="http://www.w3.org/1999/xlink">
    <!-- Generator: Sketch 43.1 (39012) - http://www.bohemiancoding.com/sketch -->
    <title>icon.vessel.layout.14</title>
    <desc>Created with Sketch.</desc>
    <defs></defs>
    <g id="Symbols" stroke="none" stroke-width="1" fill="none" fill-rule="evenodd">
        <g id="icon.vessel.layout.14">
            <g id="Group-Copy-5">
                <polygon id="Combined-Shape" fill="#EEEEEE" points="63 0 63 45 0 45 0 0"></polygon>
                <polygon id="Path" fill="#61A5BE" points="2 2 61 2 61 43 2 43"></polygon>
                <text id="VR" font-family="ArialMT, Arial" font-size="10" font-weight="normal" letter-spacing="-0.636363626" fill="#EEEEEE">
                    <tspan x="10.1905628" y="16">VR</tspan>
                </text>
                <text id="C" font-family="ArialMT, Arial" font-size="10" font-weight="normal" letter-spacing="-0.636363626" fill="#EEEEEE">
                    <tspan x="13.207342" y="36">C</tspan>
                </text>
                <text id="C" font-family="ArialMT, Arial" font-size="10" font-weight="normal" line-spacing="9" letter-spacing="-0.636363626" fill="#EEEEEE">
                    <tspan x="41" y="13">C</tspan>
                    <tspan x="41.2758789" y="22">P</tspan>
                    <tspan x="41" y="31">R</tspan>
                </text>
                <rect id="Rectangle-1853" fill="#EEEEEE" x="2" y="22" width="29" height="1"></rect>
                <rect id="Rectangle-1853" fill="#EEEEEE" x="31" y="34" width="31" height="1"></rect>
                <rect id="Rectangle-1853" fill-opacity="0.313717165" fill="#2B2C2D" x="32" y="35" width="29" height="8"></rect>
                <rect id="Rectangle-1853-Copy-2" fill-opacity="0.313717165" fill="#2B2C2D" x="50" y="2" width="11" height="32"></rect>
                <rect id="Rectangle-1853" fill="#EEEEEE" x="32" y="8" width="7" height="1"></rect>
                <rect id="Rectangle-1853" fill="#EEEEEE" x="32" y="14" width="7" height="1"></rect>
                <rect id="Rectangle-1853" fill="#EEEEEE" x="32" y="20" width="7" height="1"></rect>
                <rect id="Rectangle-1853" fill="#EEEEEE" x="32" y="27" width="7" height="1"></rect>
                <polygon id="Rectangle-1853" fill="#EEEEEE" points="39 1 39 34 38 34 38 1"></polygon>
                <polygon id="Rectangle-1853" fill="#EEEEEE" points="32 1 32 44 31 44 31 1"></polygon>
                <polygon id="Rectangle-1853" fill="#EEEEEE" points="51 1 51 34 50 34 50 1"></polygon>
            </g>
        </g>
    </g>
</svg>