<?xml version="1.0" encoding="UTF-8" standalone="no"?>
<svg width="63px" height="45px" viewBox="0 0 63 45" version="1.1" xmlns="http://www.w3.org/2000/svg" xmlns:xlink="http://www.w3.org/1999/xlink">
    <!-- Generator: Sketch 43.1 (39012) - http://www.bohemiancoding.com/sketch -->
    <title>icon.vessel.layout.17</title>
    <desc>Created with Sketch.</desc>
    <defs></defs>
    <g id="Symbols" stroke="none" stroke-width="1" fill="none" fill-rule="evenodd">
        <g id="icon.vessel.layout.17">
            <g id="Group-Copy-9">
                <polygon id="Combined-Shape" fill="#EEEEEE" points="63 0 63 45 0 45 0 0"></polygon>
                <polygon id="Path" fill="#61A5BE" points="2 2 61 2 61 43 2 43"></polygon>
                <text id="VR" font-family="ArialMT, Arial" font-size="10" font-weight="normal" letter-spacing="-0.636363626" fill="#EEEEEE">
                    <tspan x="25.1905628" y="28">VR</tspan>
                </text>
                <rect id="Rectangle-1853" fill-opacity="0.313717165" fill="#2B2C2D" x="41" y="34" width="20" height="9"></rect>
                <rect id="Rectangle-1853-Copy-2" fill-opacity="0.313717165" fill="#2B2C2D" x="55" y="2" width="6" height="32"></rect>
                <polygon id="Rectangle-1853" fill="#EEEEEE" points="42 1 42 44 41 44 41 1"></polygon>
                <text id="C" font-family="ArialMT, Arial" font-size="10" font-weight="normal" line-spacing="9" fill="#EEEEEE">
                    <tspan x="7.5" y="13">C</tspan>
                    <tspan x="7.77587891" y="22">P</tspan>
                    <tspan x="7.5" y="31">R</tspan>
                </text>
                <rect id="Rectangle-1853" fill-opacity="0.313717165" fill="#2B2C2D" x="2" y="34" width="20" height="9"></rect>
                <rect id="Rectangle-1853" fill="#EEEEEE" x="2" y="34" width="20" height="1"></rect>
                <rect id="Rectangle-1853-Copy-2" fill-opacity="0.313717165" fill="#2B2C2D" x="15" y="2" width="7" height="32"></rect>
                <rect id="Rectangle-1853" fill="#EEEEEE" x="2" y="8" width="6" height="1"></rect>
                <rect id="Rectangle-1853" fill="#EEEEEE" x="2" y="14" width="6" height="1"></rect>
                <rect id="Rectangle-1853" fill="#EEEEEE" x="2" y="20" width="6" height="1"></rect>
                <rect id="Rectangle-1853" fill="#EEEEEE" x="2" y="27" width="6" height="1"></rect>
                <polygon id="Rectangle-1853" fill="#EEEEEE" points="8 1 8 35 7 35 7 1"></polygon>
                <polygon id="Rectangle-1853" fill="#EEEEEE" points="22 1 22 44 21 44 21 1"></polygon>
                <polygon id="Rectangle-1853" fill="#EEEEEE" points="16 1 16 34 15 34 15 1"></polygon>
                <text id="C" font-family="ArialMT, Arial" font-size="10" font-weight="normal" line-spacing="9" fill="#EEEEEE">
                    <tspan x="47.5" y="13">C</tspan>
                    <tspan x="47.7758789" y="22">P</tspan>
                    <tspan x="47.5" y="31">R</tspan>
                </text>
                <rect id="Rectangle-1853" fill="#EEEEEE" x="42" y="34" width="20" height="1"></rect>
                <rect id="Rectangle-1853" fill="#EEEEEE" x="42" y="8" width="6" height="1"></rect>
                <rect id="Rectangle-1853" fill="#EEEEEE" x="42" y="14" width="6" height="1"></rect>
                <rect id="Rectangle-1853" fill="#EEEEEE" x="42" y="20" width="6" height="1"></rect>
                <rect id="Rectangle-1853" fill="#EEEEEE" x="42" y="26" width="6" height="1"></rect>
                <polygon id="Rectangle-1853" fill="#EEEEEE" points="48 1 48 35 47 35 47 1"></polygon>
                <polygon id="Rectangle-1853" fill="#EEEEEE" points="56 1 56 34 55 34 55 1"></polygon>
            </g>
        </g>
    </g>
</svg>