<?xml version="1.0" encoding="UTF-8" standalone="no"?>
<svg width="38px" height="38px" viewBox="0 0 38 38" version="1.1" xmlns="http://www.w3.org/2000/svg" xmlns:xlink="http://www.w3.org/1999/xlink">
    <!-- Generator: Sketch 43.1 (39012) - http://www.bohemiancoding.com/sketch -->
    <title>icon.自动定义静脉</title>
    <desc>Created with Sketch.</desc>
    <defs></defs>
    <g id="Symbols" stroke="none" stroke-width="1" fill="none" fill-rule="evenodd">
        <g id="icon.自动定义静脉">
            <path d="M10.7017508,17.5770516 C10.6571691,17.7769726 10.7017508,18.1388505 10.5695731,18.482443 C10.4373953,18.8260354 10.1975946,18.7654322 10.086837,19.6838845 C9.97607939,20.6023369 9.80924636,22.9244158 10.7562589,25.6045414 C11.7032714,28.2846669 14.1789481,30.6198068 15.6578062,31.2707691 C17.1366643,31.9217314 18.4871759,31.9104118 18.8091741,31.9318319 C19.1311723,31.953252 19.5938814,31.5236308 19.6384631,31.1800384 C19.6682417,30.9505338 19.7960757,30.5101558 19.8776855,30.2430096 C19.9592954,30.5101558 20.0871294,30.9505338 20.116908,31.1800384 C20.1614896,31.5236308 20.6241988,31.953252 20.946197,31.9318319 C21.2681952,31.9104118 22.6187068,31.9217314 24.0975649,31.2707691 C25.576423,30.6198068 28.0520997,28.2846669 28.9991122,25.6045414 C29.9461247,22.9244158 29.7792917,20.6023369 29.6685341,19.6838845 C29.5577765,18.7654322 29.3179757,18.8260354 29.185798,18.482443 C29.0536203,18.1388505 29.098202,17.7769726 29.0536203,17.5770516 C29.0090386,17.3771306 28.7115952,17.0612276 28.6339255,16.7822438 C28.5562559,16.5032599 28.5132415,15.625558 28.2919004,15.304953 C28.0705593,14.984348 28.0721266,14.8539117 27.9714695,14.4657376 C27.8708124,14.0775634 27.8291913,13.6839908 27.6639256,13.2528023 C27.4986599,12.8216138 27.0690387,12.2828023 26.9467874,12.1060429 C26.824536,11.9292835 27.1005593,11.6879154 26.9022057,11.377411 C26.703852,11.0669065 26.5732416,11.256727 26.3964822,10.9676426 C26.2197228,10.6785582 26.2611698,10.4950071 25.9522326,10.0836714 C25.6432955,9.67233565 25.2136743,9.28207175 24.904563,9.00622257 C24.5954517,8.73037339 23.792459,8.76328722 23.3135541,8.5304524 C22.8346493,8.29761758 22.6625919,8 21.9123657,8 C21.1621395,8 21.4480892,8.34359244 20.8417086,8.34359244 M19.9232563,11.1474609 L19.8776855,17.3945812 L19.8321148,12.1060429 M15.616333,8.67565918 C15.1374282,8.908494 15.1599194,8.73037339 14.8508081,9.00622257 C14.5416968,9.28207175 14.1120756,9.67233565 13.8031385,10.0836714 C13.4942013,10.4950071 13.5356483,10.6785582 13.3588889,10.9676426" id="Combined-Shape" stroke-opacity="0.798460145" stroke="#EEEEEE"></path>
            <path d="M13.0252156,25.0881268 C12.8676276,23.0496357 13.2494131,20.9148859 20.1130236,21.0026154 C26.9766342,21.0903448 26.6724242,23.5926647 26.6724242,24.6523227 C26.6724242,25.7119807 26.9303325,29.254057 20.2941687,29.435202 C13.6580049,29.6163471 13.1828037,27.1266179 13.0252156,25.0881268 Z" id="Path-3" fill-opacity="0.501981431" fill="#61A5BE"></path>
            <path d="M18.3128662,14.7480469 C18.3128662,15.6905783 18.3008735,18.8921827 18.1840869,19.3211284 C18.8153343,19.1133731 19.5461235,18.9946614 20.3249998,18.9946614 C20.6735261,18.9946614 21.0124238,19.0184313 21.3370827,19.0633129 C21.2533991,18.6358509 21.1995351,18.0360509 21.1995351,17.2639126 C21.1995351,13.8044492 21.4415811,11 21.7401601,11 C22.038739,11 22.2807851,13.8044492 22.2807851,17.2639126 C22.2807851,18.1331255 22.2125259,18.7839429 22.1103087,19.2163649 C23.6082138,19.6082906 24.6499996,20.4782025 24.6499996,21.4884114 C24.6499996,22.7857751 22.9317767,23.8517461 20.7358459,23.9710566 C20.6271921,26.7653485 20.1961783,28.8525043 19.6810175,28.8525043 C19.1542263,28.8525043 18.7154244,26.670044 18.6193258,23.7807365 C17.0788376,23.3991574 16,22.5164278 16,21.4884114 C16,20.7128532 16.6140233,20.0199853 17.5770613,19.562609 C17.418452,19.1757363 17.2998838,18.4095041 17.2998838,17.2639126 L18.3128662,14.7480469 Z" id="Combined-Shape" fill-opacity="0.795459692" fill="#61A5BE"></path>
            <path d="M21.0448672,5.14208984 L15.8388932,19.0649671 L12.2295469,19.0649671 L7.09130859,5.14208984 L10.5361538,5.14208984 L13.7777919,14.9842787 C13.9390683,15.4696494 14.0390581,15.9280481 14.0777644,16.3594887 L14.1358236,16.3594887 C14.187432,15.9160637 14.2970983,15.4456806 14.4648257,14.9483255 L17.7064638,5.14208984 L21.0448672,5.14208984 Z" id="V" fill="#0FD4E5"></path>
            <rect id="Rectangle-6" stroke="#EEEEEE" x="20.5" y="23.5" width="6" height="6"></rect>
            <rect id="Rectangle-7" fill="#EEEEEE" x="17" y="26" width="3" height="1"></rect>
            <rect id="Rectangle-7" fill="#EEEEEE" x="27" y="26" width="3" height="1"></rect>
            <rect id="Rectangle-7" fill="#EEEEEE" transform="translate(23.500000, 21.500000) scale(-1, 1) rotate(90.000000) translate(-23.500000, -21.500000) " x="22" y="21" width="3" height="1"></rect>
            <rect id="Rectangle-7" fill="#EEEEEE" transform="translate(23.500000, 31.500000) scale(-1, 1) rotate(90.000000) translate(-23.500000, -31.500000) " x="22" y="31" width="3" height="1"></rect>
        </g>
    </g>
</svg>