<?xml version="1.0" encoding="UTF-8" standalone="no"?>
<svg width="38px" height="38px" viewBox="0 0 38 38" version="1.1" xmlns="http://www.w3.org/2000/svg" xmlns:xlink="http://www.w3.org/1999/xlink">
    <!-- Generator: Sketch 43.1 (39012) - http://www.bohemiancoding.com/sketch -->
    <title>icon.lung Nodule.自动提取</title>
    <desc>Created with Sketch.</desc>
    <defs>
        <text id="text-1" font-family=".PingFangSC-Semibold, .PingFang SC" font-size="12" font-weight="500" fill="#61A5BE">
            <tspan x="10" y="28">auto</tspan>
        </text>
        <filter x="-5.8%" y="-10.7%" width="111.5%" height="121.4%" filterUnits="objectBoundingBox" id="filter-2">
            <feOffset dx="1" dy="0" in="SourceAlpha" result="shadowOffsetOuter1"></feOffset>
            <feColorMatrix values="0 0 0 0 0.933333333   0 0 0 0 0.933333333   0 0 0 0 0.933333333  0 0 0 1 0" type="matrix" in="shadowOffsetOuter1" result="shadowMatrixOuter1"></feColorMatrix>
            <feOffset dx="0" dy="-1" in="SourceAlpha" result="shadowOffsetOuter2"></feOffset>
            <feColorMatrix values="0 0 0 0 0.933333333   0 0 0 0 0.933333333   0 0 0 0 0.933333333  0 0 0 1 0" type="matrix" in="shadowOffsetOuter2" result="shadowMatrixOuter2"></feColorMatrix>
            <feOffset dx="-1" dy="0" in="SourceAlpha" result="shadowOffsetOuter3"></feOffset>
            <feColorMatrix values="0 0 0 0 0.933333333   0 0 0 0 0.933333333   0 0 0 0 0.933333333  0 0 0 1 0" type="matrix" in="shadowOffsetOuter3" result="shadowMatrixOuter3"></feColorMatrix>
            <feOffset dx="0" dy="1" in="SourceAlpha" result="shadowOffsetOuter4"></feOffset>
            <feColorMatrix values="0 0 0 0 0.933333333   0 0 0 0 0.933333333   0 0 0 0 0.933333333  0 0 0 1 0" type="matrix" in="shadowOffsetOuter4" result="shadowMatrixOuter4"></feColorMatrix>
            <feMerge>
                <feMergeNode in="shadowMatrixOuter1"></feMergeNode>
                <feMergeNode in="shadowMatrixOuter2"></feMergeNode>
                <feMergeNode in="shadowMatrixOuter3"></feMergeNode>
                <feMergeNode in="shadowMatrixOuter4"></feMergeNode>
            </feMerge>
        </filter>
    </defs>
    <g id="Symbols" stroke="none" stroke-width="1" fill="none" fill-rule="evenodd">
        <g id="icon.lung-Nodule.自动提取">
            <path d="M17.7611109,17.6902885 C17.8323339,17.8872373 17.871168,18.0000589 17.871168,18.0000589 C17.871168,18.0000589 18.4728128,19.8475021 18.3725012,20.3061016 C18.2721896,20.7647011 17.3034852,26.7147997 16.9193322,27.7284868 C16.5351791,28.742174 9.46028594,31.8113498 7.75273923,31.0896009 C6.04519253,30.367852 7.75273923,19.73527 7.92344892,17.2555937 C8.09415861,14.7759174 12.1324886,11.0234531 13.8011252,11.0234531 C15.0737291,11.0234531 16.7725498,15.0814078 17.5072572,17.0076301 L17.5072572,6.91986781 C17.5072572,6.41183885 17.9161666,6 18.4285048,6 C18.9372957,6 19.3497523,6.41224853 19.3497523,6.91986781 L19.3497523,17.0563502 C19.3497523,17.5643791 18.9408429,17.976218 18.4285048,17.976218 C18.1658822,17.976218 17.9289262,17.8663821 17.7611109,17.6902885 Z M19.4888326,18.0000589 C19.4888326,18.0000589 21.8902389,11.0234531 23.5588754,11.0234531 C25.227512,11.0234531 29.265842,14.7759174 29.4365517,17.2555937 C29.6072614,19.73527 31.3148081,30.367852 29.6072614,31.0896009 C27.8997147,31.8113498 20.8248215,28.742174 20.4406684,27.7284868 C20.0565154,26.7147997 19.087811,20.7647011 18.9874994,20.3061016 C18.8871878,19.8475021 19.4888326,18.0000589 19.4888326,18.0000589 Z" id="Combined-Shape" stroke-opacity="0.5" stroke="#EEEEEE" fill-opacity="0.194180254" fill="#EEEEEE"></path>
            <g id="auto" fill-opacity="1" fill="#61A5BE">
                <use filter="url(#filter-2)" xlink:href="#text-1"></use>
                <use xlink:href="#text-1"></use>
            </g>
        </g>
    </g>
</svg>