<?xml version="1.0" encoding="UTF-8" standalone="no"?>
<svg width="38px" height="39px" viewBox="0 0 38 39" version="1.1" xmlns="http://www.w3.org/2000/svg" xmlns:xlink="http://www.w3.org/1999/xlink">
    <!-- Generator: Sketch 43.1 (39012) - http://www.bohemiancoding.com/sketch -->
    <title>icon ._tool ._reset once</title>
    <desc>Created with Sketch.</desc>
    <defs></defs>
    <g id="Symbols" stroke="none" stroke-width="1" fill="none" fill-rule="evenodd">
        <g id="icon-._tool-._reset-once">
            <g id="Group-7">
                <rect id="Rectangle-2" fill-opacity="0" fill="#FFFFFF" x="0" y="0.5" width="38" height="38"></rect>
                <g id="icon_11-copy-2" transform="translate(4.000000, 6.000000)">
                    <path d="M9.28018623,21.8283718 C11.2294856,23.1967796 13.6044201,24 16.1669569,24 C22.7943739,24 28.1669569,18.627417 28.1669569,12 C28.1669569,5.372583 22.7943739,0 16.1669569,0 C9.96462983,0 4.86132635,4.70547928 4.23218005,10.7413042 L5.21832694,10.9300566 C5.75627039,5.35700256 10.4527974,1 16.1669569,1 C22.2420891,1 27.1669569,5.92486775 27.1669569,12 C27.1669569,18.0751322 22.2420891,23 16.1669569,23 C13.8429255,23 11.6872275,22.2792792 9.91117779,21.0491524 L9.28018623,21.8283718 Z" id="Combined-Shape" fill="#EEEEEE"></path>
                    <polygon id="Rectangle-91" fill="#EEEEEE" transform="translate(4.663003, 10.208574) rotate(-74.000000) translate(-4.663003, -10.208574) " points="2.54168277 10.2085743 6.78432346 5.96593356 6.78432346 14.4512149"></polygon>
                    <circle id="Oval-82" fill="#61A5BE" cx="8" cy="20" r="3"></circle>
                </g>
            </g>
        </g>
    </g>
</svg>