<?xml version="1.0" encoding="UTF-8"?>
<svg width="10px" height="10px" viewBox="0 0 10 10" version="1.1" xmlns="http://www.w3.org/2000/svg" xmlns:xlink="http://www.w3.org/1999/xlink">
    <!-- Generator: Sketch 50.2 (55047) - http://www.bohemiancoding.com/sketch -->
    <title>icon/closed</title>
    <desc>Created with Sketch.</desc>
    <defs></defs>
    <g id="icon/closed" stroke="none" stroke-width="1" fill="none" fill-rule="evenodd">
        <g>
            <rect id="Rectangle-10" x="0" y="0" width="10" height="10"></rect>
            <path d="M6.61813568,5 L9.72887365,8.11073797 C10.0216217,8.40348606 10.0201795,8.87956676 9.72910281,9.17064341 L9.17064341,9.72910281 C8.87802189,10.0217243 8.40275856,10.0208942 8.11073797,9.72887365 L5,6.61813568 L1.88926203,9.72887365 C1.59651394,10.0216217 1.12043324,10.0201795 0.829356588,9.72910281 L0.270897191,9.17064341 C-0.0217243335,8.87802189 -0.0208942363,8.40275856 0.271126353,8.11073797 L3.38186432,5 L0.271126353,1.88926203 C-0.0216217344,1.59651394 -0.0201794572,1.12043324 0.270897191,0.829356588 L0.829356588,0.270897191 C1.12197811,-0.0217243335 1.59724144,-0.0208942363 1.88926203,0.271126353 L5,3.38186432 L8.11073797,0.271126353 C8.40348606,-0.0216217344 8.87956676,-0.0201794572 9.17064341,0.270897191 L9.72910281,0.829356588 C10.0217243,1.12197811 10.0208942,1.59724144 9.72887365,1.88926203 L6.61813568,5 Z" id="icon/close" fill="#FFFFFF"></path>
        </g>
    </g>
</svg>