<?xml version="1.0" encoding="UTF-8" standalone="no"?>
<svg width="38px" height="38px" viewBox="0 0 38 38" version="1.1" xmlns="http://www.w3.org/2000/svg" xmlns:xlink="http://www.w3.org/1999/xlink">
    <!-- Generator: Sketch 43.1 (39012) - http://www.bohemiancoding.com/sketch -->
    <title>icon ._tool ._polygon</title>
    <desc>Created with Sketch.</desc>
    <defs></defs>
    <g id="Symbols" stroke="none" stroke-width="1" fill="none" fill-rule="evenodd">
        <g id="icon-._tool-._polygon">
            <g id="Group-30-Copy-3">
                <rect id="Rectangle-891-Copy-8" x="0" y="0" width="38" height="37.9408816"></rect>
                <g id="Group-38" transform="translate(4.000000, 5.000000)">
                    <g id="Group-41">
                        <path d="M8.10884325,26.0972614 L8.47798028,26.9668938 L7.62484005,27.3290303 L7.10198517,26.0972614 L6.66728873,26.0972614 L6.66728873,25.1704437 L6.70857438,25.1704437 L1.10638225,11.9725061 L1.95952248,11.6103696 L2.05835937,11.8432147 L14.6570996,2 L15.118177,2.59015217 L15.5792544,2 L28.1779947,11.8432147 L28.2768316,11.6103696 L29.1299718,11.9725061 L23.3500082,25.5892471 L23.3500082,26.0972614 L23.1343689,26.0972614 L22.611514,27.3290303 L21.7583738,26.9668938 L22.1275108,26.0972614 L8.10884325,26.0972614 Z M7.71543245,25.1704437 L22.5209216,25.1704437 L27.8030834,12.7264504 L15.118177,2.81591545 L2.43327071,12.7264504 L7.71543245,25.1704437 Z" id="Combined-Shape" fill="#FFFFFF"></path>
                        <path d="M12.5,0 L17.5,0 L17.5,5 L12.5,5 L12.5,0 Z M4,23 L9,23 L9,28 L4,28 L4,23 Z M21,23 L26,23 L26,28 L21,28 L21,23 Z M25,10 L30,10 L30,15 L25,15 L25,10 Z M0,10 L5,10 L5,15 L0,15 L0,10 Z" id="Combined-Shape" fill="#62A5BE"></path>
                    </g>
                </g>
            </g>
        </g>
    </g>
</svg>