<?xml version="1.0" encoding="UTF-8" standalone="no"?>
<svg width="38px" height="38px" viewBox="0 0 38 38" version="1.1" xmlns="http://www.w3.org/2000/svg" xmlns:xlink="http://www.w3.org/1999/xlink">
    <!-- Generator: Sketch 43.1 (39012) - http://www.bohemiancoding.com/sketch -->
    <title>icon ._tool ._reset all</title>
    <desc>Created with Sketch.</desc>
    <defs></defs>
    <g id="Symbols" stroke="none" stroke-width="1" fill="none" fill-rule="evenodd">
        <g id="icon-._tool-._reset-all">
            <g id="Group-10">
                <rect id="Rectangle-1000" x="0" y="0" width="38" height="38"></rect>
                <g id="Group-36" transform="translate(4.000000, 6.000000)">
                    <path d="M25.0576522,8.64013454 C23.4312829,3.62557415 18.7215275,0 13.1649739,0 C6.2614145,0 0.66497387,5.59644063 0.66497387,12.5 C0.66497387,19.4035594 6.2614145,25 13.1649739,25 C17.687773,25 21.6495455,22.5979592 23.8441689,19 L22.6531227,19 C20.5805776,22.0195296 17.1040576,24 13.1649739,24 C6.81369925,24 1.66497387,18.8512746 1.66497387,12.5 C1.66497387,6.14872538 6.81369925,1 13.1649739,1 C18.2586937,1 22.5789298,4.31167762 24.0900516,8.89940233 L21.2385192,9.66346813 L25.6545358,12.6213048 L28,7.85173481 L25.0576522,8.64013454 Z" id="Combined-Shape" fill="#FFFFFF" transform="translate(14.332487, 12.500000) scale(-1, 1) translate(-14.332487, -12.500000) "></path>
                    <rect id="Rectangle-27" fill="#62A5BE" x="12" y="4" width="7" height="5"></rect>
                    <rect id="Rectangle-27-Copy" fill="#62A5BE" x="12" y="10" width="7" height="5"></rect>
                    <rect id="Rectangle-27-Copy-2" fill="#62A5BE" x="12" y="16" width="7" height="5"></rect>
                </g>
            </g>
        </g>
    </g>
</svg>