<?xml version="1.0" encoding="UTF-8" standalone="no"?>
<svg width="38px" height="38px" viewBox="0 0 38 38" version="1.1" xmlns="http://www.w3.org/2000/svg" xmlns:xlink="http://www.w3.org/1999/xlink">
    <!-- Generator: Sketch 43.1 (39012) - http://www.bohemiancoding.com/sketch -->
    <title>icon ._tool ._remove_head</title>
    <desc>Created with Sketch.</desc>
    <defs></defs>
    <g id="Symbols" stroke="none" stroke-width="1" fill="none" fill-rule="evenodd">
        <g id="icon-._tool-._remove_head">
            <g>
                <rect id="bg" fill-opacity="0" fill="#FFFFFF" x="0" y="0" width="38" height="38"></rect>
                <path d="M19.8607178,19.7732038 C19.8607178,18.790782 20.041748,18.6991582 21.1515503,16.770997 C22.2613525,14.8428359 22.6416261,11.4800362 20.6246338,8.85845992 C18.6076414,6.23688366 13.6855121,6.72021407 11.6905518,8.27215623 C9.6955914,9.82409839 9.9173584,10.7754522 9.19219971,11.0964361 C8.47947768,11.3250139 9.7558121,11.6299764 10.0928955,12.5216679 C10.4299789,13.4133595 9.77615667,14.2570148 10.0928955,14.5706792 C10.4096343,14.8843436 10.3155982,14.6028209 10.0928955,15.6159067 C9.87019283,16.6289925 9.18796325,16.8407602 9.43367279,17.4984751 C9.67938232,18.1561899 10.47501,17.9068407 10.8956299,19.1464853 C11.3162497,20.38613 12.3563232,20.9891968 12.9190063,21.0875854 C13.4816895,21.1859741 13.7617798,22.2498789 11.9875488,22.1272592 C10.9897794,22.058302 8.23217773,23.8518066 8,26.1271152 L21.9670792,26.1271152 L21.9670792,25.1257934 L10.0178223,25.1257934 C10.0178223,24.0974731 11.8416761,22.8677709 12.8319702,22.8656015 C14.6120605,22.861702 14.5455322,20.7478027 13.7963867,20.3634644 C13.0472412,19.979126 12.1034384,19.703248 11.7625957,18.7352915 C11.4217529,17.7673349 10.1796875,17.3173227 10.7036743,16.770997 C11.2276611,16.2246714 10.9592018,15.7069244 11.3201861,15.3253937 C11.6811705,14.9438629 12.1915708,14.7965366 11.4815464,14.3970618 C10.7036743,13.9594145 11.181191,13.808583 11.2070324,13.3158798 C11.2365808,12.7525008 10.8956299,12.2317023 11.4815464,11.9925895 C11.8277175,11.8513169 11.6159108,11.7281198 11.4815464,11.6868224 C10.8956299,11.5067387 10.0185481,11.7935629 11.2070324,10.2377325 C11.9875488,9.21596789 12.7622681,8.59460508 13.7963867,8.27215629 C14.8305054,7.9497075 18.7118584,7.67531017 20.010437,9.65411425 C21.3090156,11.6329183 21.475483,14.3488898 20.2134399,16.3291626 C18.9513969,18.3094354 18.7574434,18.5924683 18.7574431,19.7732041 C19.270691,19.7732038 19.3043162,19.7351991 19.8607178,19.7732038 Z" id="Path-667" fill="#FFFFFF"></path>
                <polygon id="Path-668" fill="#62A5BE" points="21 21 21 23 26 23 26 25 31 22 26 19 26 21"></polygon>
            </g>
        </g>
    </g>
</svg>