<?xml version="1.0" encoding="UTF-8" standalone="no"?>
<svg width="38px" height="38px" viewBox="0 0 38 38" version="1.1" xmlns="http://www.w3.org/2000/svg" xmlns:xlink="http://www.w3.org/1999/xlink">
    <!-- Generator: Sketch 43.1 (39012) - http://www.bohemiancoding.com/sketch -->
    <title>icon ._tool ._batch_spoked</title>
    <desc>Created with Sketch.</desc>
    <defs></defs>
    <g id="Symbols" stroke="none" stroke-width="1" fill="none" fill-rule="evenodd">
        <g id="icon-._tool-._batch_spoked">
            <g>
                <rect id="bg" fill-opacity="0" fill="#FFFFFF" x="0" y="0" width="38" height="38"></rect>
                <path d="M14.3287396,17.0343569 L7.71367822,13.2151494 L8.34701155,12.1181839 L14.9629789,15.9379144 C14.7082935,16.2731699 14.4944134,16.6411177 14.3287396,17.0343569 Z M15.9379144,14.9629789 L12.1181839,8.34701155 L13.2151494,7.71367822 L17.0343569,14.3287396 C16.6411177,14.4944134 16.2731699,14.7082935 15.9379144,14.9629789 Z M20.9656431,14.3287396 L24.7848506,7.71367822 L25.8818161,8.34701155 L22.0620856,14.9629789 C21.7268301,14.7082935 21.3588823,14.4944134 20.9656431,14.3287396 Z M23.0370211,15.9379144 L29.6529884,12.1181839 L30.2863218,13.2151494 L23.6712604,17.0343569 C23.5055866,16.6411177 23.2917065,16.2731699 23.0370211,15.9379144 Z M23.6712604,20.9656431 L30.2863218,24.7848506 L29.6529884,25.8818161 L23.0370211,22.0620856 C23.2917065,21.7268301 23.5055866,21.3588823 23.6712604,20.9656431 Z M22.0620856,23.0370211 L25.8818161,29.6529884 L24.7848506,30.2863218 L20.9656431,23.6712604 C21.3588823,23.5055866 21.7268301,23.2917065 22.0620856,23.0370211 Z M17.0343569,23.6712604 L13.2151494,30.2863218 L12.1181839,29.6529884 L15.9379144,23.0370211 C16.2731699,23.2917065 16.6411177,23.5055866 17.0343569,23.6712604 Z M14.9629789,22.0620856 L8.34701155,25.8818161 L7.71367822,24.7848506 L14.3287396,20.9656431 C14.4944134,21.3588823 14.7082935,21.7268301 14.9629789,22.0620856 Z" id="spoked_lines" fill="#62A5BE"></path>
                <rect id="Rectangle-25" fill="#FFFFFF" x="17.7333333" y="6.33333333" width="2.53333333" height="25.3333333"></rect>
                <rect id="Rectangle-20" fill="#FFFFFF" x="6.33333333" y="17.7333333" width="25.3333333" height="2.53333333"></rect>
            </g>
        </g>
    </g>
</svg>