<?xml version="1.0" encoding="utf-8"?>
<!-- Generator: Adobe Illustrator 19.0.0, SVG Export Plug-In . SVG Version: 6.00 Build 0)  -->
<svg version="1.1" id="Layer_1" xmlns="http://www.w3.org/2000/svg" xmlns:xlink="http://www.w3.org/1999/xlink" x="0px" y="0px"
	 viewBox="-586 411.9 18 18" style="enable-background:new -586 411.9 18 18;" xml:space="preserve">
<style type="text/css">
	.st0{fill:#CCC;}
</style>
<path class="st0" d="M-571.2,418.8l-5.7,5.7l-1.1,1.1c-0.1,0.1-0.3,0.2-0.5,0.2s-0.4-0.1-0.5-0.2l-1.1-1.1l-2.8-2.8
	c-0.1-0.1-0.2-0.3-0.2-0.5s0.1-0.4,0.2-0.5l1.1-1.1c0.1-0.1,0.3-0.2,0.5-0.2s0.4,0.1,0.5,0.2l2.3,2.3l5.1-5.1
	c0.1-0.1,0.3-0.2,0.5-0.2s0.4,0.1,0.5,0.2l1.1,1.1c0.1,0.1,0.2,0.3,0.2,0.5S-571,418.7-571.2,418.8z"/>
</svg>
