<?xml version="1.0" encoding="UTF-8"?>
<svg width="30px" height="30px" viewBox="0 0 30 30" version="1.1" xmlns="http://www.w3.org/2000/svg" xmlns:xlink="http://www.w3.org/1999/xlink">
    <!-- Generator: Sketch 61 (89581) - https://sketch.com -->
    <title>delete@2x</title>
    <desc>Created with Sketch.</desc>
    <g id="delete" stroke="none" stroke-width="1" fill="none" fill-rule="evenodd">
        <rect id="矩形" x="0" y="0" width="30" height="30"></rect>
        <g id="垃圾桶" transform="translate(4.000000, 4.000000)" fill="#FFFFFF" fill-rule="nonzero">
            <path d="M18.1112663,7.01795522 C17.6766408,7.01795522 17.2974502,7.36979549 17.2974502,7.80442068 L17.2974502,19.5688962 C17.2974502,20.0035214 16.9400666,20.3442756 16.5054389,20.3442756 L5.50007412,20.3442756 C5.06544857,20.3442756 4.70251975,19.9976088 4.70251975,19.5688962 L4.70251975,7.77152757 C4.70251975,7.33690238 4.38357234,6.98506211 3.94894464,6.98506211 C3.51431909,6.98506211 3.19536953,7.33690238 3.19536953,7.77152757 L3.19536953,19.5688962 C3.19536953,20.8668614 4.19619318,22 5.4945375,22 L16.4947244,22 C17.7926906,22 18.9203394,20.8668678 18.9203394,19.5688962 L18.9203394,7.80442068 C18.9254612,7.37570808 18.5459026,7.01795522 18.1112749,7.01795522 L18.1112663,7.01795522 Z M9.36626814,16.4285645 L9.36626814,7.78261799 C9.36626814,7.34799279 9.04732073,6.99615253 8.61269303,6.99615253 C8.17806748,6.99615253 7.85911792,7.34799279 7.85911792,7.78261799 L7.85911792,16.4230215 C7.85911792,16.8576467 8.17806533,17.2094869 8.61269303,17.2094869 C9.04731858,17.2094869 9.36626814,16.8631897 9.36626814,16.4285645 Z M14.1349566,16.4285645 L14.1349566,7.78261799 C14.1349566,7.34799279 13.7498534,6.99615253 13.3211404,6.99615253 C12.8920579,6.99615253 12.5069547,7.34799279 12.5069547,7.78261799 L12.5069547,16.4230215 C12.5069547,16.8576467 12.8920579,17.2094869 13.3211404,17.2094869 C13.7498534,17.2094869 14.1349566,16.8631897 14.1349566,16.4285645 Z M21.2135339,3.88834013 L17.2974674,3.88834013 L17.2974674,2.28805915 C17.2974674,0.99009401 16.2360331,0.00554370299 14.9487771,0.00554370299 L7.06748689,0 C5.76952069,0 4.70253264,0.984561049 4.70253264,2.28251545 L4.70253264,3.88870902 L0.786466098,3.88870902 C0.351840549,3.88870902 0,4.20765617 0,4.64228352 C0,5.07690872 0.351840549,5.39585802 0.786466098,5.39585802 L21.2135339,5.39585802 C21.6481595,5.39585802 22,5.07691086 22,4.64228352 C22,4.20765832 21.6481595,3.88833948 21.2135339,3.88833948 L21.2135339,3.88834013 Z M15.6583751,3.88834013 L6.23149417,3.88834013 L6.23149417,2.28805915 C6.23149417,1.85343396 6.63840225,1.50713675 7.0730278,1.50713675 L14.9491616,1.50713675 C15.3782441,1.50713675 15.6642984,1.84825829 15.6642984,2.28805915 L15.6583851,3.88834013 L15.6583751,3.88834013 Z" id="形状"></path>
        </g>
    </g>
</svg>