<?xml version="1.0" encoding="UTF-8" standalone="no"?>
<svg width="38px" height="38px" viewBox="0 0 38 38" version="1.1" xmlns="http://www.w3.org/2000/svg" xmlns:xlink="http://www.w3.org/1999/xlink">
    <!-- Generator: Sketch 43.1 (39012) - http://www.bohemiancoding.com/sketch -->
    <title>icon ._cmd ._back</title>
    <desc>Created with Sketch.</desc>
    <defs></defs>
    <g id="Symbols" stroke="none" stroke-width="1" fill="none" fill-rule="evenodd">
        <g id="icon-._cmd-._back" fill="#EEEEEE">
            <path d="M22,13 L20,13 L20,11 L10,11 L10,26 L20,26 L20,24 L22,24 L22,26 C22,27.1045695 21.1029399,28 19.9941413,28 L10.0058587,28 C8.89805351,28 8,27.1090746 8,26.0025781 L8,10.9974219 C8,9.89427625 8.89706013,9 10.0058587,9 L19.9941413,9 C21.1019465,9 22,9.88772964 22,11 L22,13 Z M27,18 L24.5308437,15.5262876 L25.9506836,14.0290527 L30.6987305,19.0224208 L25.9506836,24.0976562 L24.5308437,22.5214901 L27,20 L16,20 L16,18 L27,18 Z" id="Path-159"></path>
        </g>
    </g>
</svg>