<?xml version="1.0" encoding="UTF-8" standalone="no"?>
<svg width="38px" height="38px" viewBox="0 0 38 38" version="1.1" xmlns="http://www.w3.org/2000/svg" xmlns:xlink="http://www.w3.org/1999/xlink">
    <!-- Generator: Sketch 43.1 (39012) - http://www.bohemiancoding.com/sketch -->
    <title>icon.vessel.隐藏直径</title>
    <desc>Created with Sketch.</desc>
    <defs></defs>
    <g id="Symbols" stroke="none" stroke-width="1" fill="none" fill-rule="evenodd">
        <g id="icon.vessel.隐藏直径">
            <g id="Group" transform="translate(6.000000, 8.000000)">
                <path d="M9.24218929,23.2121524 C3.95835374,22.0675827 0,17.3656181 0,11.7391304 C0,5.25578772 5.25578772,3.55271368e-15 11.7391304,3.55271368e-15 C18.2224731,3.55271368e-15 23.4782609,5.25578772 23.4782609,11.7391304 C23.4782609,12.7996851 23.3376218,13.8273918 23.0739763,14.8046178 L21.9789033,14.3514895 C22.1914079,13.5159987 22.3043478,12.6407538 22.3043478,11.7391304 C22.3043478,5.90412199 17.5741389,1.17391304 11.7391304,1.17391304 C5.90412199,1.17391304 1.17391304,5.90412199 1.17391304,11.7391304 C1.17391304,16.399477 4.19131923,20.3550706 8.37904509,21.7588247 L9.24218929,23.2121524 Z" id="Rectangle-1086" fill="#EEEEEE"></path>
                <polygon id="Path-357" fill="#61A5BE" points="11.6225062 2.46445034 8.10076705 5.98618947 10.4485931 5.98618947 10.4485931 17.7886359 10.0101075 19.7068501 11.6225062 21.2608696 15.1442453 17.7253199 12.7964192 17.8560579 12.7964192 5.98618947 15.1442453 5.98618947"></polygon>
                <g id="Group-3" transform="translate(9.000000, 13.000000)" fill="#EEEEEE">
                    <path d="M3.2542822,3.22273786 L4.90756389,4.87601955 C4.64588364,5.44654872 4.5,6.08123789 4.5,6.75 C4.5,9.23528137 6.51471863,11.25 9,11.25 C9.66876211,11.25 10.3034513,11.1041164 10.8739805,10.8424361 L11.9001072,11.8685629 C11.0176083,12.1824349 10.0488061,12.375 9,12.375 C3.4031471,12.375 0,6.75 0,6.75 C0,6.75 1.16411012,4.82138076 3.2542822,3.22273786 Z M6.09359529,1.64214298 C6.97985527,1.32194957 7.95124628,1.125 9,1.125 C14.604763,1.125 18,6.75 18,6.75 C18,6.75 16.8485968,8.69405834 14.7478566,10.2964043 L13.0870757,8.63562343 C13.3521233,8.06209119 13.5,7.42331482 13.5,6.75 C13.5,4.26471863 11.4852814,2.25 9,2.25 C8.32668518,2.25 7.68790881,2.39787665 7.11437657,2.66292427 L6.09359529,1.64214298 Z" id="Oval-22"></path>
                    <polygon id="Path-345" points="3.35457297 0 15.7774267 12.4228537 14.6924727 13.5078077 2.25 1.065335"></polygon>
                </g>
            </g>
        </g>
    </g>
</svg>