<?xml version="1.0" encoding="UTF-8" standalone="no"?>
<svg width="38px" height="38px" viewBox="0 0 38 38" version="1.1" xmlns="http://www.w3.org/2000/svg" xmlns:xlink="http://www.w3.org/1999/xlink">
    <!-- Generator: Sketch 43.1 (39012) - http://www.bohemiancoding.com/sketch -->
    <title>icon.vessel.隐藏轮廓</title>
    <desc>Created with Sketch.</desc>
    <defs></defs>
    <g id="Symbols" stroke="none" stroke-width="1" fill="none" fill-rule="evenodd">
        <g id="icon.vessel.隐藏轮廓">
            <path d="M16.2421893,31.2121524 C10.9583537,30.0675827 7,25.3656181 7,19.7391304 C7,13.2557877 12.2557877,8 18.7391304,8 C25.2224731,8 30.4782609,13.2557877 30.4782609,19.7391304 C30.4782609,20.7996851 30.3376218,21.8273918 30.0739763,22.8046178 L28.8137774,22.2831624 C29.0188843,21.4686806 29.1278268,20.615976 29.1278268,19.7378264 C29.1278268,13.9995877 24.4760652,9.34782609 18.7378264,9.34782609 C12.9995877,9.34782609 8.34782609,13.9995877 8.34782609,19.7378264 C8.34782609,24.2486991 11.2224522,28.088167 15.2397357,29.5242611 L16.2421893,31.2121524 Z" id="Rectangle-1086" fill="#61A5BE"></path>
            <g id="Group-3" transform="translate(15.000000, 21.000000)" fill="#EEEEEE">
                <path d="M3.2542822,3.22273786 L4.90756389,4.87601955 C4.64588364,5.44654872 4.5,6.08123789 4.5,6.75 C4.5,9.23528137 6.51471863,11.25 9,11.25 C9.66876211,11.25 10.3034513,11.1041164 10.8739805,10.8424361 L11.9001072,11.8685629 C11.0176083,12.1824349 10.0488061,12.375 9,12.375 C3.4031471,12.375 0,6.75 0,6.75 C0,6.75 1.16411012,4.82138076 3.2542822,3.22273786 Z M6.09359529,1.64214298 C6.97985527,1.32194957 7.95124628,1.125 9,1.125 C14.604763,1.125 18,6.75 18,6.75 C18,6.75 16.8485968,8.69405834 14.7478566,10.2964043 L13.0870757,8.63562343 C13.3521233,8.06209119 13.5,7.42331482 13.5,6.75 C13.5,4.26471863 11.4852814,2.25 9,2.25 C8.32668518,2.25 7.68790881,2.39787665 7.11437657,2.66292427 L6.09359529,1.64214298 Z" id="Oval-22"></path>
                <polygon id="Path-345" points="3.35457297 0 15.7774267 12.4228537 14.6924727 13.5078077 2.25 1.065335"></polygon>
            </g>
        </g>
    </g>
</svg>