<?xml version="1.0" encoding="UTF-8" standalone="no"?>
<svg width="38px" height="38px" viewBox="0 0 38 38" version="1.1" xmlns="http://www.w3.org/2000/svg" xmlns:xlink="http://www.w3.org/1999/xlink">
    <!-- Generator: Sketch 44.1 (41455) - http://www.bohemiancoding.com/sketch -->
    <title>icon.innerview.自动提取中心线 copy</title>
    <desc>Created with Sketch.</desc>
    <defs></defs>
    <g id="Symbols" stroke="none" stroke-width="1" fill="none" fill-rule="evenodd">
        <g id="icon.innerview.自动提取中心线-copy">
            <g id="Group-9" transform="translate(9.000000, 8.000000)">
                <path d="M13.9812014,24.2310547 C10.9999997,22.8811043 6.07983399,18.141114 3.9251954,14.2847656 C1.77055681,10.4284172 0.181494138,7.99066162 0.605749512,3.39819336 C1.06409911,1.6442627 2.40812988,0.233837891 5.40970459,0.233837891 C8.4112793,0.233837891 8.99523926,1.91958008 8.99523926,1.91958008 C8.99523926,1.91958008 8.92499975,4.64071045 10.0824097,7.27340088 C11.2398196,9.90609131 12.5901131,11.4889162 15.0222293,13.7971924 C17.4543454,16.1054686 19.9653811,16.5419067 19.9653811,16.9164307" id="Combined-Shape" stroke="#EEEEEE"></path>
                <path d="M18.7103718,22.1289796 C20.3880549,20.1295947 20.8477901,17.7533353 19.7372191,16.8214556 C18.6266481,15.8895759 16.3663215,16.7549598 14.6886385,18.7543446 C13.0109554,20.7537295 12.5512202,23.1299889 13.6617912,24.0618686 C14.7723622,24.9937483 17.0326887,24.1283644 18.7103718,22.1289796 L18.7103718,22.1289796 Z" id="Oval-20" stroke="#EEEEEE"></path>
                <path d="M4.26192017,3.49486084 C4.89599611,4.93041987 5.94116182,9.37182636 8.07690425,12.0000002 C10.2126467,14.628174 10.3522156,15.3675781 12.6314026,17.098053" id="Path-249" stroke="#61A5BE"></path>
            </g>
            <rect id="Rectangle-30" fill="#62A5BE" x="14" y="3" width="21" height="8.63636364" rx="1"></rect>
            <path d="M21,5 L22,5 L22,9 L21,9 L21,5 Z M15,8 L16,8 L16,10 L15,10 L15,8 Z M16,6 L17,6 L17,8 L16,8 L16,6 Z M18,6 L19,6 L19,8 L18,8 L18,6 Z M19,8 L20,8 L20,10 L19,10 L19,8 Z M17,5 L18,5 L18,6 L17,6 L17,5 Z M17,7 L18,7 L18,8 L17,8 L17,7 Z M24,5 L25,5 L25,9 L24,9 L24,5 Z M27,6 L28,6 L28,10 L27,10 L27,6 Z M30,6 L31,6 L31,9 L30,9 L30,6 Z M33,6 L34,6 L34,9 L33,9 L33,6 Z M22,9 L24,9 L24,10 L22,10 L22,9 Z M26,5 L29,5 L29,6 L26,6 L26,5 Z M31,5 L33,5 L33,6 L31,6 L31,5 Z M31,9 L33,9 L33,10 L31,10 L31,9 Z" id="Combined-Shape" fill="#FFFFFF"></path>
        </g>
    </g>
</svg>