<?xml version="1.0" encoding="UTF-8" standalone="no"?>
<svg width="38px" height="38px" viewBox="0 0 38 38" version="1.1" xmlns="http://www.w3.org/2000/svg" xmlns:xlink="http://www.w3.org/1999/xlink">
    <!-- Generator: Sketch 44.1 (41455) - http://www.bohemiancoding.com/sketch -->
    <title>icon.精准运动矫正</title>
    <desc>Created with Sketch.</desc>
    <defs>
        <path d="M19.3118367,21.0430086 L20.7576383,13.8953658 C21.1943159,11.7365529 20.4263098,11.363416 19.0389912,13.0780457 L11.3622558,22.5659592 C10.6721761,23.4188499 10.9959949,24.1204001 12.0956517,24.1204001 L17.8784514,24.1204001 L16.4326498,31.2680429 C15.9959722,33.4268558 16.7639783,33.7999928 18.1512969,32.085363 L25.8280323,22.5974496 C26.518112,21.7445589 26.1942932,21.0430086 25.0946364,21.0430086 L19.3118367,21.0430086 Z" id="path-1"></path>
    </defs>
    <g id="Symbols" stroke="none" stroke-width="1" fill="none" fill-rule="evenodd">
        <g id="icon.精准运动矫正">
            <g id="Combined-Shape-Copy-6">
                <rect id="Rectangle-74" x="0" y="0" width="38" height="38"></rect>
                <g id="Combined-Shape">
                    <use fill-opacity="0.528702446" fill="#61A5BE" fill-rule="evenodd" xlink:href="#path-1"></use>
                    <path stroke="#61A5BE" stroke-width="1" d="M25.0946364,21.5430086 L18.7005719,21.5430086 L20.2675637,13.7962351 C20.6015345,12.1451764 20.4829015,12.0883822 19.4276929,13.3925469 L11.7509575,22.8804604 C11.3225163,23.4099839 11.4211227,23.6204001 12.0956517,23.6204001 L18.4897162,23.6204001 L16.9227244,31.3671736 C16.5887537,33.0182324 16.7073866,33.0750266 17.7625952,31.7708618 L25.4393307,22.2829484 C25.8677718,21.7534248 25.7691654,21.5430086 25.0946364,21.5430086 Z"></path>
                </g>
                <path d="M32.1365842,14.1482793 C32.1365842,14.1482793 31.8537567,7.5831097 24.8634158,6.86123459" id="Path-6" stroke="#EEEEEE" transform="translate(28.500000, 10.504757) rotate(-16.000000) translate(-28.500000, -10.504757) "></path>
                <polygon id="Rectangle" fill="#EEEEEE" points="21.1709558 7.67140127 25.9987534 5.17306265 26.0009557 10.1730626"></polygon>
            </g>
        </g>
    </g>
</svg>