<?xml version="1.0" encoding="UTF-8" standalone="no"?>
<svg width="38px" height="38px" viewBox="0 0 38 38" version="1.1" xmlns="http://www.w3.org/2000/svg" xmlns:xlink="http://www.w3.org/1999/xlink">
    <!-- Generator: Sketch 44.1 (41455) - http://www.bohemiancoding.com/sketch -->
    <title>icon.设置矫正基准点</title>
    <desc>Created with Sketch.</desc>
    <defs>
        <path d="M0,19 L27,19 L27,20 L0,20 L0,19 Z M0,16 L1,16 L1,19 L0,19 L0,16 Z M7,17 L8,17 L8,19 L7,19 L7,17 Z M20,17 L21,17 L21,19 L20,19 L20,17 Z M13,16 L14,16 L14,19 L13,19 L13,16 Z M26,16 L27,16 L27,19 L26,19 L26,16 Z" id="path-1"></path>
        <filter x="-1.9%" y="-12.5%" width="103.7%" height="150.0%" filterUnits="objectBoundingBox" id="filter-2">
            <feOffset dx="0" dy="1" in="SourceAlpha" result="shadowOffsetOuter1"></feOffset>
            <feColorMatrix values="0 0 0 0 1   0 0 0 0 1   0 0 0 0 1  0 0 0 0.6 0" type="matrix" in="shadowOffsetOuter1"></feColorMatrix>
        </filter>
    </defs>
    <g id="Symbols" stroke="none" stroke-width="1" fill="none" fill-rule="evenodd">
        <g id="icon.设置矫正基准点">
            <g id="Combined-Shape-Copy-6">
                <rect id="Rectangle-2" x="0" y="0" width="38" height="38"></rect>
                <g id="icon-.motion_correction_baseline" transform="translate(6.000000, 10.000000)">
                    <g id="Combined-Shape">
                        <use fill="black" fill-opacity="1" filter="url(#filter-2)" xlink:href="#path-1"></use>
                        <use fill="#EEEEEE" fill-rule="evenodd" xlink:href="#path-1"></use>
                    </g>
                    <polygon id="Path-2" fill="#61A5BE" points="20 0 20 16 21 16 21 0"></polygon>
                    <polygon id="Triangle" fill="#61A5BE" transform="translate(17.000000, 3.000000) rotate(90.000000) translate(-17.000000, -3.000000) " points="17 1 20 5 14 5"></polygon>
                    <polygon id="Triangle-Copy" fill="#61A5BE" transform="translate(24.000000, 3.000000) scale(-1, 1) rotate(90.000000) translate(-24.000000, -3.000000) " points="24 1 27 5 21 5"></polygon>
                    <path d="M4,4 L5,4 L5,7 L4,7 L4,4 Z M4,7 L8,7 L8,8 L4,8 L4,7 Z" id="Combined-Shape" fill="#EEEEEE"></path>
                    <path d="M5,12 C7.76142375,12 10,9.76142375 10,7 C10,4.23857625 7.76142375,2 5,2 C2.23857625,2 0,4.23857625 0,7 C0,9.76142375 2.23857625,12 5,12 Z" id="Oval-6" stroke="#EEEEEE"></path>
                </g>
            </g>
        </g>
    </g>
</svg>