<?xml version="1.0" encoding="UTF-8" standalone="no"?>
<svg width="36px" height="37px" viewBox="0 0 36 37" version="1.1" xmlns="http://www.w3.org/2000/svg" xmlns:xlink="http://www.w3.org/1999/xlink">
    <!-- Generator: Sketch 44.1 (41455) - http://www.bohemiancoding.com/sketch -->
    <title>icon.toast.2</title>
    <desc>Created with Sketch.</desc>
    <defs></defs>
    <g id="Symbols" stroke="none" stroke-width="1" fill="none" fill-rule="evenodd">
        <g id="icon.toast.2" fill="#EEEEEE">
            <path d="M20.25,26.125 C20.554689,26.125 20.8183583,26.236327 21.0410156,26.4589844 C21.263673,26.6816417 21.375,26.945311 21.375,27.25 C21.375,27.554689 21.263673,27.8183583 21.0410156,28.0410156 C20.8183583,28.263673 20.554689,28.375 20.25,28.375 L15.75,28.375 C15.445311,28.375 15.1816417,28.263673 14.9589844,28.0410156 C14.736327,27.8183583 14.625,27.554689 14.625,27.25 C14.625,26.945311 14.736327,26.6816417 14.9589844,26.4589844 C15.1816417,26.236327 15.445311,26.125 15.75,26.125 L16.875,26.125 L16.875,17.125 L15.75,17.125 C15.445311,17.125 15.1816417,17.013673 14.9589844,16.7910156 C14.736327,16.5683583 14.625,16.304689 14.625,16 C14.625,15.695311 14.736327,15.4316417 14.9589844,15.2089844 C15.1816417,14.986327 15.445311,14.875 15.75,14.875 L18,14.875 C18.304689,14.875 18.5683583,14.986327 18.7910156,15.2089844 C19.013673,15.4316417 19.125,15.695311 19.125,16 L19.125,26.125 L20.25,26.125 Z M18,12.625 C17.3671843,12.625 16.8339865,12.4082053 16.4003906,11.9746094 C15.9667947,11.5410135 15.75,11.0078157 15.75,10.375 C15.75,9.74218434 15.9667947,9.20898654 16.4003906,8.77539062 C16.8339865,8.34179471 17.3671843,8.125 18,8.125 C18.6328157,8.125 19.1660135,8.34179471 19.5996094,8.77539062 C20.0332053,9.20898654 20.25,9.74218434 20.25,10.375 C20.25,11.0078157 20.0332053,11.5410135 19.5996094,11.9746094 C19.1660135,12.4082053 18.6328157,12.625 18,12.625 Z M18,0.25 C20.4843874,0.25 22.8222547,0.718745313 25.0136719,1.65625 C27.2050891,2.59375469 29.1152262,3.87694498 30.7441406,5.50585938 C32.373055,7.13477377 33.6562453,9.04491092 34.59375,11.2363281 C35.5312547,13.4277453 36,15.7656126 36,18.25 C36,20.7343874 35.5312547,23.0722547 34.59375,25.2636719 C33.6562453,27.4550891 32.373055,29.3652262 30.7441406,30.9941406 C29.1152262,32.623055 27.2050891,33.9062453 25.0136719,34.84375 C22.8222547,35.7812547 20.4843874,36.25 18,36.25 C15.5156126,36.25 13.1777453,35.7812547 10.9863281,34.84375 C8.79491092,33.9062453 6.88477377,32.623055 5.25585938,30.9941406 C3.62694498,29.3652262 2.34375469,27.4550891 1.40625,25.2636719 C0.468745313,23.0722547 0,20.7343874 0,18.25 C0,15.7656126 0.468745313,13.4277453 1.40625,11.2363281 C2.34375469,9.04491092 3.62694498,7.13477377 5.25585938,5.50585938 C6.88477377,3.87694498 8.79491092,2.59375469 10.9863281,1.65625 C13.1777453,0.718745313 15.5156126,0.25 18,0.25 Z M18,34.0351562 C20.1796984,34.0351562 22.2245998,33.6191448 24.1347656,32.7871094 C26.0449314,31.955074 27.7089773,30.8242259 29.1269531,29.3945312 C30.544929,27.9648366 31.6699177,26.2949314 32.5019531,24.3847656 C33.3339885,22.4745998 33.75,20.4296984 33.75,18.25 C33.75,16.0703016 33.3339885,14.0254002 32.5019531,12.1152344 C31.6699177,10.2050686 30.544929,8.54102271 29.1269531,7.12304688 C27.7089773,5.70507104 26.0449314,4.58008229 24.1347656,3.74804688 C22.2245998,2.91601146 20.1796984,2.5 18,2.5 C15.8203016,2.5 13.7754002,2.91601146 11.8652344,3.74804688 C9.95506857,4.58008229 8.29102271,5.70507104 6.87304688,7.12304688 C5.45507104,8.54102271 4.33008229,10.2050686 3.49804688,12.1152344 C2.66601146,14.0254002 2.25,16.0703016 2.25,18.25 C2.25,20.4296984 2.66601146,22.4745998 3.49804688,24.3847656 C4.33008229,26.2949314 5.45507104,27.9648366 6.87304688,29.3945312 C8.29102271,30.8242259 9.95506857,31.955074 11.8652344,32.7871094 C13.7754002,33.6191448 15.8203016,34.0351562 18,34.0351562 Z" id="Info---simple-line-icons"></path>
        </g>
    </g>
</svg>