<?xml version="1.0" encoding="UTF-8" standalone="no"?>
<svg width="38px" height="38px" viewBox="0 0 38 38" version="1.1" xmlns="http://www.w3.org/2000/svg" xmlns:xlink="http://www.w3.org/1999/xlink">
    <!-- Generator: Sketch 47.1 (45422) - http://www.bohemiancoding.com/sketch -->
    <title>icon.FFR.网格切割</title>
    <desc>Created with Sketch.</desc>
    <defs></defs>
    <g id="Symbols" stroke="none" stroke-width="1" fill="none" fill-rule="evenodd">
        <g id="icon.FFR.网格切割">
            <g id="Group-9" transform="translate(8.000000, 7.000000)">
                <path d="M13.9812014,24.2310547 C10.9999997,22.8811043 6.07983399,18.141114 3.9251954,14.2847656 C1.77055681,10.4284172 0.181494138,7.99066162 0.605749512,3.39819336 C1.06409911,1.6442627 2.40812988,0.233837891 5.40970459,0.233837891 C8.4112793,0.233837891 8.99523926,1.91958008 8.99523926,1.91958008 C8.99523926,1.91958008 8.92499975,4.64071045 10.0824097,7.27340088 C11.2398196,9.90609131 12.5901131,11.4889162 15.0222293,13.7971924 C17.4543454,16.1054686 19.9653811,16.5419067 19.9653811,16.9164307" id="Combined-Shape" stroke="#EEEEEE"></path>
                <path d="M18.7103718,22.1289796 C20.3880549,20.1295947 20.8477901,17.7533353 19.7372191,16.8214556 C18.6266481,15.8895759 16.3663215,16.7549598 14.6886385,18.7543446 C13.0109554,20.7537295 12.5512202,23.1299889 13.6617912,24.0618686 C14.7723622,24.9937483 17.0326887,24.1283644 18.7103718,22.1289796 L18.7103718,22.1289796 Z" id="Oval-20" stroke="#EEEEEE" fill="#61A5BE"></path>
                <path d="M4,1 C4,2.84916059 4.87358617,7.07308547 6.71393387,10.5517401 C8.55428156,14.0303946 11.5753202,16.278634 14.1771194,18.6025209" id="Path-249" stroke="#61A5BE"></path>
                <polygon id="Path-81" fill="#EEEEEE" points="21.009 5 13.001 13.0347826 12 16.0478261 15.003 15.0434783 23.011 7.00869565"></polygon>
            </g>
            <rect id="Rectangle-3" x="0" y="0" width="38" height="38"></rect>
        </g>
    </g>
</svg>