<?xml version="1.0" encoding="UTF-8" standalone="no"?>
<svg width="38px" height="38px" viewBox="0 0 38 38" version="1.1" xmlns="http://www.w3.org/2000/svg" xmlns:xlink="http://www.w3.org/1999/xlink">
    <!-- Generator: Sketch 46 (44423) - http://www.bohemiancoding.com/sketch -->
    <title>icon ._tool .其他血管自动提取中心线</title>
    <desc>Created with Sketch.</desc>
    <defs></defs>
    <g id="Symbols" stroke="none" stroke-width="1" fill="none" fill-rule="evenodd">
        <g id="icon-._tool-.其他血管自动提取中心线">
            <g>
                <rect id="Rectangle-Copy" x="0" y="0" width="38" height="38"></rect>
                <polygon id="Path-668-Copy" fill="#65A5BD" transform="translate(27.000000, 28.000000) scale(1, -1) rotate(90.000000) translate(-27.000000, -28.000000) " points="21 27 21 29 27 29 27 31 33 28 27 25 27 27"></polygon>
                <path d="M20.1014197,5 L17.7265459,5 C17.8873966,6.17279584 17.9678219,6.99498736 17.9678219,7.46657455 C17.9678219,7.93816175 17.9678219,8.68334896 17.9678219,9.7021362 C15.5696402,9.38055398 14.1296943,9.46316303 13.6479843,9.94996334 C12.9475429,10.6578064 12.5362536,11.1211111 12.1742731,12.5898581 C11.7978265,14.1173016 12.1232387,15.9412738 11.8891287,16.8483937 C11.538908,18.2054143 9.76508082,20.9937483 8.5389149,22.0651662 C7.72147095,22.7794448 6.87516598,23.4888274 6,24.1933139 L8.5389149,23.762196 C9.46281875,22.9804586 10.0741842,22.414782 10.3730114,22.0651662 C10.6718385,21.7155504 11.177211,20.9746881 11.8891287,19.8425795 C11.9278569,21.1968805 11.862719,22.5034193 11.6937151,23.762196 C11.5247111,25.0209727 10.7322967,26.9069908 9.31647189,29.4202504 C11.0080913,28.1667422 12.1335508,26.5124193 12.6928503,24.4572817 C13.2521498,22.402144 13.5165564,19.0796033 13.4860701,14.4896594 C13.5940129,12.7442936 13.9515179,11.7019087 14.5585852,11.3625049 C15.1656525,11.0231012 15.67386,10.8895021 16.0832078,10.9617078 C17.2133731,11.0481519 17.8415778,11.3308859 17.9678219,11.8099097 C18.4163921,13.5119753 17.9464418,16.0476199 17.9678219,16.6341318 C17.986863,17.156479 17.2734889,23.2725475 17.9678219,25.9449756 C18.2440978,27.0083378 18.7124039,28.3600126 19.3727403,30 C19.1387308,26.6193702 19.0905862,24.3237104 19.2283063,23.1130205 C19.3170719,22.3326869 19.323096,20.8658386 19.6473156,17.6549749 C19.766521,16.4744412 19.917889,14.6639141 20.1014197,12.2233936 C21.732335,12.1319866 22.9115521,12.2541415 23.639071,12.5898581 C24.7303494,13.093433 25.8482701,14.8556131 25.5518134,16.6341318 C25.3541756,17.819811 25.1193419,19.4265993 24.8473122,21.4544968 C25.6605968,19.7025397 26.2428053,18.4360324 26.5939378,17.6549749 C26.9450703,16.8739175 27.0684778,16.0225325 26.9641602,15.1008202 C26.5769892,13.0991229 25.8713732,11.8530178 24.8473122,11.3625049 C23.8232511,10.8719921 22.241287,10.5759366 20.1014197,10.4743386 L20.1014197,7.46657455 C20.6613226,7.46637961 21.5050132,7.68745019 22.6324914,8.1297863 C23.7599697,8.57212241 24.733077,9.35363986 25.5518134,10.4743386 C25.4165283,8.96543162 24.7789475,7.96284359 23.639071,7.46657455 C22.4991946,6.97030552 21.3199775,6.53830163 20.1014197,6.17056289 L20.1014197,5 Z" id="Path-2-Copy" fill="#EEEEEE"></path>
            </g>
        </g>
    </g>
</svg>