<?xml version="1.0" encoding="UTF-8"?>
<svg width="30px" height="30px" viewBox="0 0 30 30" version="1.1" xmlns="http://www.w3.org/2000/svg" xmlns:xlink="http://www.w3.org/1999/xlink">
    <!-- Generator: Sketch 62 (91390) - https://sketch.com -->
    <title>说明</title>
    <desc>Created with Sketch.</desc>
    <g id="说明" stroke="none" stroke-width="1" fill="none" fill-rule="evenodd">
        <path d="M15.0101304,6 C16.2542132,6 17.4214299,6.23726617 18.5121439,6.71230303 C19.60197,7.18695645 20.5521095,7.82945394 21.361069,8.63844338 C22.1706137,9.44799789 22.8130875,10.4011391 23.2877233,11.4979679 C23.7627426,12.5953012 24,13.7656085 24,15.0096969 C24,16.2538055 23.7627426,17.4209847 23.2877233,18.511618 C22.8130875,19.6015248 22.1706339,20.5515783 21.3615735,21.3606888 C20.5521297,22.1701424 19.6019902,22.8126399 18.5121641,23.2872126 C17.4214703,23.7622091 16.2542333,24 15.0101506,24 C13.7660073,24 12.5957635,23.7622091 11.4984506,23.2872126 C10.4011982,22.8126399 9.44841519,22.1701424 8.63933459,21.3606888 C7.82989076,20.5515783 7.18743722,19.6015248 6.71278118,18.511618 C6.23729775,17.4214489 6,16.2538055 6,15.0096969 C6,13.7656085 6.23729775,12.5954223 6.712761,11.4980688 C7.18741704,10.4007355 7.82987058,9.44799789 8.63929423,8.63854429 C9.44839501,7.82945394 10.4015211,7.18695645 11.4984103,6.71240393 C12.5957433,6.23726617 13.7659871,6 15.0101304,6 Z M15.0101304,7 C13.901024,7 12.8661038,7.20991891 11.895478,7.63019326 C10.9136975,8.05494574 10.0658417,8.62621967 9.3464141,9.34563799 C8.62642638,10.0656523 8.05530084,10.9131772 7.63033389,11.8956364 C7.20998005,12.8657992 7,13.9005643 7,15.0096969 C7,16.1185321 7.20984991,17.1499282 7.62961006,18.1123376 C8.05468708,19.0884009 8.62633753,19.9337747 9.34660432,20.653745 C10.0660989,21.3735713 10.9135621,21.9447174 11.8957019,22.3695028 C12.8667788,22.7898552 13.9018186,23 15.0101506,23 C16.1179497,23 17.149252,22.7900448 18.1129178,22.3703689 C19.0888157,21.9454071 19.9343459,21.3737116 20.6544448,20.653604 C21.3742626,19.9337416 21.9458982,19.0882569 22.3709089,18.1123045 C22.7902994,17.1493936 23,16.1182423 23,15.0096969 C23,13.9006589 22.7900945,12.8656408 22.3699674,11.8951127 C21.945053,10.9131846 21.3737364,10.065333 20.6539491,9.34553708 C19.9342942,8.62585548 19.088742,8.05415753 18.1128429,7.6291229 C17.1498473,7.20971103 16.1186543,7 15.0101304,7 Z M16.064006,13.0920524 C16.3243037,13.1965169 16.7428215,13.4776211 16.6228804,14.170885 L15.859851,18.6077741 L16.8091719,17.9714908 C17.1026447,17.7758574 17.5543377,17.7929516 17.8171873,18.0113772 C18.0800369,18.2298028 18.0570695,18.5659883 17.7635966,18.7616217 L16.4442447,19.644821 C16.0384866,19.9183278 15.6863192,20 15.4107099,20 C15.2116587,20 15.0508866,19.9582142 14.9411533,19.9145291 C14.6808556,19.811964 14.2597859,19.5384572 14.379727,18.8394952 L15.1529642,14.3437262 L14.1781239,14.961016 C13.8769952,15.1509513 13.4253022,15.1243603 13.1701084,14.9002367 C12.9149146,14.676113 12.9506417,14.3399275 13.2517704,14.1499922 L14.5456029,13.3313709 C15.2601455,12.8793249 15.8037083,12.987588 16.064006,13.0920524 Z M15,10 C15.5128367,10 15.9355073,10.3860394 15.9932723,10.8833787 L16,11 L15.9932723,11.1166213 C15.9355073,11.6139606 15.5128367,12 15,12 C14.4871633,12 14.0644927,11.6139606 14.0067277,11.1166213 L14,11 L14.0067277,10.8833787 C14.0644927,10.3860394 14.4871633,10 15,10 Z" id="形状结合" fill="#C3CAD9"></path>
    </g>
</svg>