<?xml version="1.0" encoding="UTF-8" standalone="no"?>
<svg width="38px" height="38px" viewBox="0 0 38 38" version="1.1" xmlns="http://www.w3.org/2000/svg" xmlns:xlink="http://www.w3.org/1999/xlink">
    <!-- Generator: Sketch 43.1 (39012) - http://www.bohemiancoding.com/sketch -->
    <title>icon.脑灌注.缺血半暗带</title>
    <desc>Created with Sketch.</desc>
    <defs></defs>
    <g id="Symbols" stroke="none" stroke-width="1" fill="none" fill-rule="evenodd">
        <g id="icon.脑灌注.缺血半暗带">
            <g id="Group" transform="translate(9.000000, 8.000000)" fill="#EEEEEE">
                <path d="M9.87768555,9.39458124 L9.83211483,1.14152929 L9.83211483,0.817409094 L9.75461932,0.409768383 C9.75461932,0.409768383 9.56793351,0.232834818 9.36801252,0.232834818 C9.16809152,0.232834818 9.52004303,0.343592443 8.91366245,0.343592443 C8.30728187,0.343592443 8.59323158,0 7.84300541,0 C7.09277923,0 6.92072179,0.29761758 6.44181696,0.530452399 C5.96291214,0.763287217 5.15991936,0.730373395 4.85080806,1.00622257 C4.54169677,1.28207175 4.1120756,1.67233565 3.80313845,2.08367136 C3.4942013,2.49500706 3.53564834,2.67855822 3.35888892,2.96764259 C3.18212951,3.25672696 3.0515191,3.0669065 2.85316543,3.37741097 C2.65481176,3.68791545 2.93083508,3.92928348 2.80858374,4.10604289 C2.6863324,4.28280231 2.25671124,4.82161378 2.09144554,5.25280227 C1.92617983,5.68399076 1.88455865,6.07756345 1.78390156,6.46573758 C1.68324448,6.85391171 1.6848118,6.98434797 1.4634707,7.30495298 C1.2421296,7.62555799 1.19911524,8.50325992 1.12144558,8.78224375 C1.04377593,9.06122758 0.746332493,9.37713062 0.701750807,9.57705161 C0.657169122,9.77697261 0.701750807,10.1388505 0.569573076,10.482443 C0.437395344,10.8260354 0.197594637,10.7654322 0.0868370124,11.6838845 C-0.0239206126,12.6023369 -0.190753639,14.9244158 0.756258884,17.6045414 C1.70327141,20.2846669 4.17894813,22.6198068 5.65780623,23.2707691 C7.13666433,23.9217314 8.48717593,23.9104118 8.80917412,23.9318319 C9.13117231,23.953252 9.59388145,23.5236308 9.63846313,23.1800384 C9.66824173,22.9505338 9.79607569,22.5101558 9.87768555,22.2430096 C9.9592954,22.5101558 10.0871294,22.9505338 10.116908,23.1800384 C10.1614896,23.5236308 10.6241988,23.953252 10.946197,23.9318319 C11.2681952,23.9104118 12.6187068,23.9217314 14.0975649,23.2707691 C15.576423,22.6198068 18.0520997,20.2846669 18.9991122,17.6045414 C19.9461247,14.9244158 19.7792917,12.6023369 19.6685341,11.6838845 C19.5577765,10.7654322 19.3179757,10.8260354 19.185798,10.482443 C19.0536203,10.1388505 19.098202,9.77697261 19.0536203,9.57705161 C19.0090386,9.37713062 18.7115952,9.06122758 18.6339255,8.78224375 C18.5562559,8.50325992 18.5132415,7.62555799 18.2919004,7.30495298 C18.0705593,6.98434797 18.0721266,6.85391171 17.9714695,6.46573758 C17.8708124,6.07756345 17.8291913,5.68399076 17.6639256,5.25280227 C17.4986599,4.82161378 17.0690387,4.28280231 16.9467874,4.10604289 C16.824536,3.92928348 17.1005593,3.68791545 16.9022057,3.37741097 C16.703852,3.0669065 16.5732416,3.25672696 16.3964822,2.96764259 C16.2197228,2.67855822 16.2611698,2.49500706 15.9522326,2.08367136 C15.6432955,1.67233565 15.2136743,1.28207175 14.904563,1.00622257 C14.5954517,0.730373395 13.792459,0.763287217 13.3135541,0.530452399 C12.8346493,0.29761758 12.6625919,0 11.9123657,0 C11.1621395,0 11.4480892,0.343592443 10.8417086,0.343592443 C10.2353281,0.343592443 10.5872796,0.232834818 10.3873586,0.232834818 C10.1874376,0.232834818 10.0007518,0.409768383 10.0007518,0.409768383 L9.92325626,0.817409094 L9.92325626,1.14152929 L9.87768555,9.39458124 Z" id="Combined-Shape" stroke="#EEEEEE" fill-opacity="0.2"></path>
                <path d="M3.02521563,17.0881268 C2.86762756,15.0496357 3.2494131,12.9148859 10.1130236,13.0026154 C16.9766342,13.0903448 16.6724242,15.5926647 16.6724242,16.6523227 C16.6724242,17.7119807 16.9303325,21.254057 10.2941687,21.435202 C3.65800486,21.6163471 3.18280371,19.1266179 3.02521563,17.0881268 Z" id="Path-3" fill-opacity="0.596524004"></path>
                <path d="M12.1103087,11.2163649 C13.6082138,11.6082906 14.6499996,12.4782025 14.6499996,13.4884114 C14.6499996,14.7857751 12.9317767,15.8517461 10.7358459,15.9710566 C10.6271921,18.7653485 10.1961783,20.8525043 9.6810175,20.8525043 C9.15422628,20.8525043 8.71542436,18.670044 8.61932577,15.7807365 C7.07883765,15.3991574 6,14.5164278 6,13.4884114 C6,12.7128532 6.61402331,12.0199853 7.57706129,11.562609 C7.41845196,11.1757363 7.29988378,10.4095041 7.29988378,9.26391265 C7.29988378,5.80444922 7.54192982,3 7.84050875,3 C8.13908768,3 8.38113373,5.80444922 8.38113373,9.26391265 C8.38113373,10.2064441 8.30087351,10.8921827 8.1840869,11.3211284 C8.81533433,11.1133731 9.54612345,10.9946614 10.3249998,10.9946614 C10.6735261,10.9946614 11.0124238,11.0184313 11.3370827,11.0633129 C11.2533991,10.6358509 11.1995351,10.0360509 11.1995351,9.26391265 C11.1995351,5.80444922 11.4415811,3 11.7401601,3 C12.038739,3 12.2807851,5.80444922 12.2807851,9.26391265 C12.2807851,10.1331255 12.2125259,10.7839429 12.1103087,11.2163649 Z" id="Combined-Shape"></path>
            </g>
            <path d="M23.5561523,12.7556152 C21.6123047,11.2126465 22.7705078,13.5708008 19.8330078,14.6591797 C16.8955078,15.7475586 16.2470703,13.1704102 15.3852539,14.2963867 C14.5234375,15.4223633 13.1264648,15.8723145 12.8530273,17.9709473 C12.5795898,20.0695801 12.7905273,21.786377 13.3808594,23.0354004 C13.9711914,24.2844238 15.6933594,21.6291504 17.4863281,24.010498 C19.2792969,26.3918457 22.9438414,29.0366211 24.1151141,27.3806152 C25.2863868,25.7246094 26.1326837,19.8950195 25.7198692,18.4262695 C25.3070548,16.9575195 25.5,14.298584 23.5561523,12.7556152 Z" id="Path-7" fill="#61A5BE"></path>
            <path d="M20.8185342,17.2606456 C20.8185342,17.2606456 20.2050317,16.8856119 19.6160878,17.0352704 C19.0271439,17.184929 17.6157173,17.6200035 17.1720401,17.9228698 C16.7283628,18.2257361 15.3055066,19.7175404 15.4660645,19.9794922 C15.6266223,20.2414439 17.3597401,20.5860789 16.9487305,21.0612793 C16.5377208,21.5364797 17.5564059,22.2102222 17.6884665,22.4422028 C17.8205271,22.6741834 21.1449788,24.5238171 22.1428471,23.8550859 C23.1407155,23.1863548 23.86172,20.8322397 23.5100218,20.2391266 C23.1583236,19.6460134 20.8185342,17.2606456 20.8185342,17.2606456 Z" id="Path-7" fill="#294650"></path>
        </g>
    </g>
</svg>