<?xml version="1.0" encoding="UTF-8" standalone="no"?>
<svg width="37px" height="37px" viewBox="0 0 37 37" version="1.1" xmlns="http://www.w3.org/2000/svg" xmlns:xlink="http://www.w3.org/1999/xlink">
    <!-- Generator: Sketch 49.3 (51167) - http://www.bohemiancoding.com/sketch -->
    <title>icon.batch.cpr</title>
    <desc>Created with Sketch.</desc>
    <defs></defs>
    <g id="icon.batch.cpr" stroke="none" stroke-width="1" fill="none" fill-rule="evenodd">
        <g id="Group-3">
            <path d="M16.2461661,25.909219 C10.3112866,26.5036664 6.95464005,25.3089268 6.17622628,22.3250002 C5.00860564,17.8491103 9.30274559,14.3333046 12.3540973,14.0225708 C15.405449,13.7118369 19.4269171,16.712244 22.6197756,16.712244 M29.5990142,20.0286727 C30.9247896,21.4897575 31.0829443,22.5820476 30.9704451,23.6235137 C30.8579459,24.6649797 29.7924826,26.9751253 27.8108823,27.137207" id="Path-2" stroke="#FFFFFF"></path>
            <rect id="Rectangle-2" stroke="#FFFFFF" x="15.5" y="24.5" width="3" height="3"></rect>
            <g id="Rectangle-7" transform="translate(26.415064, 17.611216) rotate(30.000000) translate(-26.415064, -17.611216) translate(23.915064, 9.111216)">
                <polygon fill="#61A5BE" points="0 5 5 5 5 13 2.48458862 17.3016357 0 13"></polygon>
                <polygon id="Rectangle" fill="#EEEEEE" points="1 13 4 13 2.54443359 16.029541"></polygon>
                <rect id="Rectangle-8" fill="#61A5BE" x="0" y="3" width="5" height="1"></rect>
                <rect id="Rectangle-8" fill="#61A5BE" x="0" y="0" width="5" height="2" rx="1"></rect>
            </g>
            <circle id="Oval" fill="#FFFFFF" cx="5.5" cy="22.5" r="1.5"></circle>
            <circle id="Oval-Copy" fill="#FFFFFF" cx="11.5" cy="13.5" r="1.5"></circle>
            <circle id="Oval-Copy-2" fill="#FFFFFF" cx="29.5" cy="25.5" r="1.5"></circle>
        </g>
    </g>
</svg>