<?xml version="1.0" encoding="UTF-8" standalone="no"?>
<svg width="38px" height="38px" viewBox="0 0 38 38" version="1.1" xmlns="http://www.w3.org/2000/svg" xmlns:xlink="http://www.w3.org/1999/xlink">
    <!-- Generator: Sketch 49.3 (51167) - http://www.bohemiancoding.com/sketch -->
    <title>icon.batch.save&amp;film</title>
    <desc>Created with Sketch.</desc>
    <defs></defs>
    <g id="icon.batch.save&amp;film" stroke="none" stroke-width="1" fill="none" fill-rule="evenodd">
        <g id="Group-15">
            <rect id="Rectangle-22" fill-opacity="0" fill="#FFFFFF" x="0" y="0" width="38" height="38"></rect>
            <path d="M14.5,10.1 C14.5,10.8 14.5,11.8 14.5,12.5 C12,12.5 11.689447,13.75 11,15.5 C11,13.75 11,10.1 14.5,10.1 Z M14.5,8 L18,11.5 L14.5,15 L14.5,8 Z" id="Combined-Shape" fill="#FFFFFF"></path>
            <path d="M17,21 L17,29 L15,29 L7,29 L5,29 L5,17 L7,17 L7,20 L13,20 L13,17 L14,17 L17,21 Z M7,22 L7,27 L15,27 L15,22 L7,22 Z" id="Combined-Shape" fill="#FFFFFF"></path>
            <rect id="Rectangle-32-Copy-2" fill="#FFFFFF" x="8" y="23" width="6" height="1"></rect>
            <rect id="Rectangle-32-Copy-4" fill="#62A5BE" x="8" y="17" width="4" height="2"></rect>
            <rect id="Rectangle-32-Copy-3" fill="#FFFFFF" x="8" y="25" width="6" height="1"></rect>
            <g id="Group-14" transform="translate(20.000000, 7.000000)" fill="#FFFFFF">
                <path d="M9,16.1313131 L2,16.1313131 L2,23 L1,23 L1,22 L0,22 L0,21 L1,21 L1,20 L0,20 L0,19 L1,19 L1,18 L0,18 L0,17 L1,17 L1,16 L0,16 L0,15 L1,15 L1,14 L0,14 L0,13 L1,13 L1,12 L0,12 L0,11 L1,11 L1,10 L0,10 L0,9 L1,9 L1,8 L0,8 L0,7 L1,7 L1,6 L0,6 L0,5 L1,5 L1,4 L0,4 L0,3 L1,3 L1,2 L0,2 L0,1 L1,1 L1,0 L2,0 L2,7 L9,7 L9,0 L10,0 L10,1 L11,1 L11,2 L10,2 L10,3 L11,3 L11,4 L10,4 L10,5 L11,5 L11,6 L10,6 L10,7 L11,7 L11,8 L10,8 L10,9 L11,9 L11,10 L10,10 L10,11 L11,11 L11,12 L10,12 L10,13 L11,13 L11,14 L10,14 L10,15 L11,15 L11,16 L10,16 L10,17 L11,17 L11,18 L10,18 L10,19 L11,19 L11,20 L10,20 L10,21 L11,21 L11,22 L10,22 L10,23 L9,23 L9,16.1313131 Z M9,15 L9,8 L2,8 L2,15 L9,15 Z" id="Combined-Shape"></path>
                <rect id="Rectangle" fill-opacity="0.3" x="2" y="1" width="7" height="6"></rect>
                <rect id="Rectangle-Copy-2" fill-opacity="0.3" x="2" y="16" width="7" height="6"></rect>
                <rect id="Rectangle-Copy" fill-opacity="0.3" x="2" y="8" width="7" height="7"></rect>
            </g>
        </g>
    </g>
</svg>