<?xml version="1.0" encoding="UTF-8" standalone="no"?>
<svg width="38px" height="38px" viewBox="0 0 38 38" version="1.1" xmlns="http://www.w3.org/2000/svg" xmlns:xlink="http://www.w3.org/1999/xlink">
    <!-- Generator: Sketch 43.1 (39012) - http://www.bohemiancoding.com/sketch -->
    <title>icon.lung Nodule.十字标</title>
    <desc>Created with Sketch.</desc>
    <defs></defs>
    <g id="Symbols" stroke="none" stroke-width="1" fill="none" fill-rule="evenodd">
        <g id="icon.lung-Nodule.十字标">
            <path d="M13.5,13 L16,13 L16,14 L14,14 L14,16 L13,16 L13,13 L13.5,13 Z" id="Combined-Shape" fill="#EEEEEE"></path>
            <polygon id="Combined-Shape" fill="#EEEEEE" points="23.5 13 21 13 21 14 23 14 23 16 24 16 24 13"></polygon>
            <path d="M13.5,21 L16,21 L16,22 L14,22 L14,24 L13,24 L13,21 L13.5,21 Z" id="Combined-Shape" fill="#EEEEEE" transform="translate(14.500000, 22.500000) scale(1, -1) translate(-14.500000, -22.500000) "></path>
            <polygon id="Combined-Shape" fill="#EEEEEE" transform="translate(22.500000, 22.500000) scale(1, -1) translate(-22.500000, -22.500000) " points="23.5 21 21 21 21 22 23 22 23 24 24 24 24 21"></polygon>
            <rect id="Rectangle-3046" fill="#61A5BE" x="18" y="7" width="1" height="23"></rect>
            <rect id="Rectangle-3048-Copy" fill="#61A5BE" x="7" y="18" width="23" height="1"></rect>
        </g>
    </g>
</svg>