<?xml version="1.0" encoding="UTF-8" standalone="no"?>
<svg width="38px" height="38px" viewBox="0 0 38 38" version="1.1" xmlns="http://www.w3.org/2000/svg" xmlns:xlink="http://www.w3.org/1999/xlink">
    <!-- Generator: Sketch 44.1 (41455) - http://www.bohemiancoding.com/sketch -->
    <title>icon.影响区.配准</title>
    <desc>Created with Sketch.</desc>
    <defs></defs>
    <g id="Symbols" stroke="none" stroke-width="1" fill="none" fill-rule="evenodd">
        <g id="icon.影响区.配准">
            <g id="Group" transform="translate(7.000000, 7.000000)">
                <path d="M2.1978022,13.1868132 C0.983989561,13.1868132 0,12.2028236 0,10.989011 C0,9.77519835 0.983989561,8.79120879 2.1978022,8.79120879 C3.41161483,8.79120879 4.3956044,9.77519835 4.3956044,10.989011 C4.3956044,12.2028236 3.41161483,13.1868132 2.1978022,13.1868132 Z M7.69230769,0 L10.989011,5.49450549 L4.3956044,5.49450549 L7.69230769,0 Z" id="Path" fill="#EEEEEE"></path>
                <path d="M1.84615385,12.9230769 C1.84615385,19.0406926 6.80546123,24 12.9230769,24 L12.9230769,24 C19.0406926,24 24,19.0406926 24,12.9230769 C24,6.80546123 19.0406926,1.84615385 12.9230769,1.84615385 C10.9645121,1.84615385 9.12467042,2.35446842 7.52828033,3.24636926" id="Oval-6" stroke="#EEEEEE" stroke-width="2"></path>
            </g>
            <rect id="Rectangle-14" fill="#61A5BE" x="15" y="17" width="11" height="1"></rect>
            <rect id="Rectangle" fill="#61A5BE" x="17" y="15" width="3" height="5"></rect>
            <rect id="Rectangle-Copy" fill="#61A5BE" x="21" y="20" width="3" height="5"></rect>
            <rect id="Rectangle-14-Copy" fill="#61A5BE" x="15" y="22" width="11" height="1"></rect>
        </g>
    </g>
</svg>