<?xml version="1.0" encoding="UTF-8" standalone="no"?>
<svg width="38px" height="38px" viewBox="0 0 38 38" version="1.1" xmlns="http://www.w3.org/2000/svg" xmlns:xlink="http://www.w3.org/1999/xlink">
    <!-- Generator: Sketch 43.1 (39012) - http://www.bohemiancoding.com/sketch -->
    <title>icon.手动定义动脉</title>
    <desc>Created with Sketch.</desc>
    <defs></defs>
    <g id="Symbols" stroke="none" stroke-width="1" fill="none" fill-rule="evenodd">
        <g id="icon.手动定义动脉">
            <path d="M9.94030762,20.2178955 C9.82954999,21.1363479 9.80924636,22.9244158 10.7562589,25.6045414 C11.7032714,28.2846669 14.1789481,30.6198068 15.6578062,31.2707691 C17.1366643,31.9217314 18.4871759,31.9104118 18.8091741,31.9318319 C19.1311723,31.953252 19.5938814,31.5236308 19.6384631,31.1800384 C19.6682417,30.9505338 19.7960757,30.5101558 19.8776855,30.2430096 C19.9592954,30.5101558 20.0871294,30.9505338 20.116908,31.1800384 C20.1614896,31.5236308 20.6241988,31.953252 20.946197,31.9318319 C21.2681952,31.9104118 22.6187068,31.9217314 24.0975649,31.2707691 C25.576423,30.6198068 28.0520997,28.2846669 28.9991122,25.6045414 C29.9461247,22.9244158 29.7792917,20.6023369 29.6685341,19.6838845 C29.5577765,18.7654322 29.3179757,18.8260354 29.185798,18.482443 C29.0536203,18.1388505 29.098202,17.7769726 29.0536203,17.5770516 C29.0090386,17.3771306 28.7115952,17.0612276 28.6339255,16.7822438 C28.5562559,16.5032599 28.5132415,15.625558 28.2919004,15.304953 C28.0705593,14.984348 28.0721266,14.8539117 27.9714695,14.4657376 C27.8708124,14.0775634 27.8291913,13.6839908 27.6639256,13.2528023 C27.4986599,12.8216138 27.0690387,12.2828023 26.9467874,12.1060429 C26.824536,11.9292835 27.1005593,11.6879154 26.9022057,11.377411 C26.703852,11.0669065 26.5732416,11.256727 26.3964822,10.9676426 C26.2197228,10.6785582 26.2611698,10.4950071 25.9522326,10.0836714 C25.6432955,9.67233565 25.2136743,9.28207175 24.904563,9.00622257 C24.5954517,8.73037339 23.792459,8.76328722 23.3135541,8.5304524 C22.8346493,8.29761758 22.6625919,8 21.9123657,8 C21.1621395,8 21.4480892,8.34359244 20.8417086,8.34359244 C20.2353281,8.34359244 20.5872796,8.23283482 20.3873586,8.23283482 C20.1874376,8.23283482 20.0007518,8.40976838 20.0007518,8.40976838 L19.9232563,8.81740909 L19.9232563,9.14152929 L19.8776855,15.7391357 L19.8321148,9.14152929 L19.8321148,8.81740909 L19.7546193,8.40976838 C19.7546193,8.40976838 19.5679335,8.23283482 19.3680125,8.23283482 C19.1680915,8.23283482 19.520043,8.34359244 18.9136624,8.34359244 C18.3072819,8.34359244 17.7092106,8 16.9589844,8" id="Combined-Shape" stroke-opacity="0.798460145" stroke="#EEEEEE"></path>
            <path d="M13.0252156,25.0881268 C12.8676276,23.0496357 13.2494131,20.9148859 20.1130236,21.0026154 C26.9766342,21.0903448 26.6724242,23.5926647 26.6724242,24.6523227 C26.6724242,25.7119807 26.9303325,29.254057 20.2941687,29.435202 C13.6580049,29.6163471 13.1828037,27.1266179 13.0252156,25.0881268 Z" id="Path-3" fill-opacity="0.501981431" fill="#61A5BE"></path>
            <path d="M21.3257112,19.0031481 C21.2543665,19.0010576 21.1818484,19 21.1081543,19 C20.6367188,19 21.5137939,19.958374 21.1081543,20.1226807 C21.000019,20.1664815 20.5865273,20.1437025 20.0381675,20.124125 C19.8160711,19.9565819 19.5713263,19.9508221 19.3476727,20.1068457 C17.8653027,20.0913767 16,20.2451619 16,21.4884114 C16,22.5164278 17.0788376,23.3991574 18.6193258,23.7807365 C18.7154244,26.670044 19.1542263,28.8525043 19.6810175,28.8525043 C20.1961783,28.8525043 20.6271921,26.7653485 20.7358459,23.9710566 C22.9317767,23.8517461 24.6499996,22.7857751 24.6499996,21.4884114 C24.6499996,20.3269364 23.8298413,19.3547162 22.1402217,19.0785785 C22.2256247,18.6501756 22.2807851,18.045287 22.2807851,17.2639126 C22.2807851,13.8044492 22.038739,11 21.7401601,11 C21.4415811,11 21.1995351,13.8044492 21.1995351,17.2639126 C21.1995351,18.0004854 21.2485513,18.5802306 21.3257112,19.0031481 Z" id="Combined-Shape" fill-opacity="0.795459692" fill="#61A5BE"></path>
            <path d="M31.122488,22 L21.5744972,25.9223957 L24.3872948,28.0319938 L20.7048948,31.7143938 C20.3155922,32.1036964 20.3186801,32.7379687 20.7031994,33.122488 L20,32.4192886 C20.3883663,32.8076549 21.0187228,32.8069646 21.4080942,32.4175932 L25.0904942,28.7351932 L27.2000923,31.5479907 L31.122488,22 Z" id="Path-93" fill="#EEEEEE" transform="translate(25.561244, 27.561244) scale(-1, 1) translate(-25.561244, -27.561244) "></path>
            <path d="M19.8897836,19.0162774 L16.8410926,19.0162774 L15.8587366,16.0099293 L11.0909226,16.0099293 L10.1255038,19.0162774 L7.09375,19.0162774 L11.8954383,5.8984375 L15.1812497,5.8984375 L19.8897836,19.0162774 Z M15.1981869,13.8504399 L13.7077158,9.30280912 C13.611738,9.01487575 13.54399,8.63379319 13.5044697,8.15954999 L13.4282524,8.15954999 C13.3943779,8.54346115 13.3181614,8.91325238 13.1996006,9.26893477 L11.7006608,13.8504399 L15.1981869,13.8504399 Z" id="A" fill="#E59725"></path>
        </g>
    </g>
</svg>