<?xml version="1.0" encoding="UTF-8" standalone="no"?>
<svg width="38px" height="38px" viewBox="0 0 38 38" version="1.1" xmlns="http://www.w3.org/2000/svg" xmlns:xlink="http://www.w3.org/1999/xlink">
    <!-- Generator: Sketch 43.1 (39012) - http://www.bohemiancoding.com/sketch -->
    <title>icon.colon.手动标记</title>
    <desc>Created with Sketch.</desc>
    <defs></defs>
    <g id="Symbols" stroke="none" stroke-width="1" fill="none" fill-rule="evenodd">
        <g id="icon.colon.手动标记">
            <path d="M19.2898065,24.1345466 C19.0290517,24.622173 18.9369264,25.1664243 18.8455505,25.6384796 C18.624715,26.7793333 18.6344912,27.5239325 18.6344912,27.5239325 C18.6344912,27.5239325 19.7211136,28.2998061 19.7211136,29.7476378 C19.7211136,31.1954695 19.2974268,31.5136171 19.2974268,31.9451893 C20.9101407,31.9451893 21.2945978,30.8487884 21.4587334,29.9387227 C21.6228691,29.0286571 21.5914498,27.8355523 21.5914498,27.8355523 C21.5914498,27.8355523 21.8058932,27.490272 22.140194,27.1360062 M30.477091,20.9265477 C30.6082073,20.5471629 30.691101,20.0749199 30.691101,19.4420386 C30.691101,17.3267685 29.7651063,16.9544775 29.7651063,16.0303336 C29.7651063,15.1061897 30.4447166,14.8655302 30.4447166,12.9028841 C30.4447166,10.9402379 30.3540975,9.74571266 30.3540975,9.74571266 C30.3540975,9.74571266 31.4262613,8.34343701 30.0311711,6.98868476 C28.6360808,5.63393251 26.0749301,7.31499871 26.0749301,7.31499871 C26.0749301,7.31499871 24.0736496,6.23557401 22.2860704,6.23557401 C20.4984912,6.23557401 18.8455505,7.31499871 18.8455505,7.31499871 C18.8455505,7.31499871 17.5398995,6 15.3912951,6 C13.2426907,6 12.2305392,7.15492016 12.2305392,7.15492016 C12.2305392,7.15492016 10.8880166,6.43766747 9.63145044,6.43766747 C8.37488429,6.43766747 7.24908725,7.31499871 7.24908725,7.31499871 C7.24908725,7.31499871 6.90515688,8.98847062 7.17244502,9.74571266 C7.43973315,10.5029547 7.83092751,11.6781881 7.83092751,11.6781881 C7.83092751,11.6781881 7,12.6406699 7,13.9183319 C7,15.1959938 7.83092751,16.904245 7.83092751,16.904245 C7.83092751,16.904245 7.09580279,17.7516535 7.17244502,19.4000665 C7.24908725,21.0484795 8.52033981,22.4078706 8.52033981,22.4078706 C8.52033981,22.4078706 8.52314287,25.1486371 10.2074567,25.1486371 C11.8917706,25.1486371 12.4250622,23.4626842 12.4250622,23.4626842 C12.4250622,23.4626842 12.3429307,21.2638845 11.9302728,20.101948 C11.5176149,18.9400114 12.0594167,17.8643543 12.0594167,16.7225868 C12.0594167,15.5808193 10.8642209,14.9337797 10.9876553,13.9183319 C11.1110897,12.9028841 11.0056874,11.4819815 12.4250622,10.9924681 C13.8444369,10.5029547 14.4582768,11.5341258 15.3912951,11.5341258 C16.3243134,11.5341258 16.9337767,10.5029547 17.8220198,10.5029547 C18.7102629,10.5029547 19.23828,11.6781881 20.2071991,11.6781881 C21.1761182,11.6781881 21.2940278,10.6817295 22.7205817,10.6817295 C24.1471356,10.6817295 25.1993025,11.9359255 25.1993025,11.9359255 C25.1993025,11.9359255 25.1180956,13.7178813 25.5644568,14.9999415" id="Path-19" stroke="#EEEEEE"></path>
            <g id="Group-4" transform="translate(19.000000, 16.000000)" stroke="#61A5BE">
                <rect id="Rectangle" stroke-width="2" x="4" y="4" width="5" height="5"></rect>
                <rect id="Rectangle-11" x="0.5" y="6.5" width="2" height="1"></rect>
                <rect id="Rectangle-11-Copy" x="10.5" y="6.5" width="2" height="1"></rect>
                <rect id="Rectangle-14" x="6.5" y="0.5" width="1" height="2"></rect>
                <rect id="Rectangle-14-Copy" x="6.5" y="10.5" width="1" height="2"></rect>
            </g>
            <circle id="Oval-10" stroke="#EEEEEE" cx="11.5" cy="9.5" r="1"></circle>
            <circle id="Oval-10-Copy" fill="#EEEEEE" cx="16" cy="9" r="1"></circle>
            <circle id="Oval-10-Copy-2" fill="#EEEEEE" cx="26" cy="11" r="2"></circle>
        </g>
    </g>
</svg>