<?xml version="1.0" encoding="UTF-8" standalone="no"?>
<svg width="38px" height="38px" viewBox="0 0 38 38" version="1.1" xmlns="http://www.w3.org/2000/svg" xmlns:xlink="http://www.w3.org/1999/xlink">
    <!-- Generator: Sketch 47.1 (45422) - http://www.bohemiancoding.com/sketch -->
    <title>icon.FFR.mask</title>
    <desc>Created with Sketch.</desc>
    <defs></defs>
    <g id="Symbols" stroke="none" stroke-width="1" fill="none" fill-rule="evenodd">
        <g id="icon.FFR.mask">
            <g id="Group" transform="translate(6.000000, 8.000000)">
                <path d="M25.5,21.5 L25.5,0.5 L0.5,0.5 L0.5,21.5 L25.5,21.5 Z" id="Rectangle-2" stroke="#EEEEEE"></path>
                <rect id="Rectangle-3" fill="#EEEEEE" x="3" y="3" width="20" height="3"></rect>
                <rect id="Rectangle-3-Copy-2" fill="#EEEEEE" x="3" y="9" width="20" height="1"></rect>
                <rect id="Rectangle-3-Copy-3" fill="#EEEEEE" x="3" y="13" width="7" height="1"></rect>
                <rect id="Rectangle-3-Copy-5" fill="#EEEEEE" x="16" y="13" width="7" height="1"></rect>
                <rect id="Rectangle-3-Copy-4" fill="#EEEEEE" x="3" y="17" width="7" height="1"></rect>
                <rect id="Rectangle-3-Copy-6" fill="#EEEEEE" x="16" y="17" width="7" height="1"></rect>
                <path d="M13,25 L8,19 L18,19 L13,25 Z M12,13 L14,13 L14,19 L12,19 L12,13 Z" id="Combined-Shape" fill="#65A5BD"></path>
            </g>
            <rect id="Rectangle-11" x="0" y="0" width="38" height="38"></rect>
        </g>
    </g>
</svg>