<?xml version="1.0" encoding="UTF-8" standalone="no"?>
<svg width="48px" height="48px" viewBox="0 0 48 48" version="1.1" xmlns="http://www.w3.org/2000/svg" xmlns:xlink="http://www.w3.org/1999/xlink">
    <!-- Generator: Sketch 49.3 (51167) - http://www.bohemiancoding.com/sketch -->
    <title>icon.massagebox.4</title>
    <desc>Created with Sketch.</desc>
    <defs></defs>
    <g id="Page-1" stroke="none" stroke-width="1" fill="none" fill-rule="evenodd">
        <g id="icon.other" transform="translate(-54.000000, -945.000000)">
            <g id="icon.massagebox.4" transform="translate(54.000000, 945.000000)">
                <circle id="Oval-19-Copy-4" fill="#007FAA" fill-rule="evenodd" cx="24" cy="24" r="24"></circle>
                <path d="M24,47 C36.7025492,47 47,36.7025492 47,24 C47,11.2974508 36.7025492,1 24,1 C11.2974508,1 1,11.2974508 1,24 C1,36.7025492 11.2974508,47 24,47 Z M24,48 C10.745166,48 0,37.254834 0,24 C0,10.745166 10.745166,0 24,0 C37.254834,0 48,10.745166 48,24 C48,37.254834 37.254834,48 24,48 Z" id="Oval-19-Copy-4" fill="#FFFFFF" fill-rule="nonzero"></path>
                <path d="M24,44 C35.045695,44 44,35.045695 44,24 C44,12.954305 35.045695,4 24,4 C12.954305,4 4,12.954305 4,24 C4,35.045695 12.954305,44 24,44 Z M24,47 C11.2974508,47 1,36.7025492 1,24 C1,11.2974508 11.2974508,1 24,1 C36.7025492,1 47,11.2974508 47,24 C47,36.7025492 36.7025492,47 24,47 Z" id="Oval-3-Copy-3" fill="#FFFFFF" fill-rule="nonzero" opacity="0.3"></path>
                <path d="M24.0547945,36.109589 C23.6407894,36.109589 23.2207023,36.1156773 22.7945205,36.1278539 C22.3683388,36.1400305 21.9726046,36.1582952 21.6073059,36.1826484 C21.2420073,36.2070016 20.9254199,36.2313545 20.6575342,36.2557078 C20.3896486,36.280061 20.2191784,36.2922374 20.1461187,36.2922374 C20.1461187,36.2678842 20.1339423,36.1826491 20.109589,36.0365297 C20.0852358,35.8904102 20.0730594,35.7808223 20.0730594,35.7077626 C20.0730594,35.4642301 20.1826473,35.3181129 20.4018265,35.2694064 C21.0350108,35.1476402 21.5464212,35.0015229 21.9360731,34.8310502 C22.3257249,34.6605775 22.5205479,34.3805195 22.5205479,33.9908676 L22.5205479,24.0547945 C22.5205479,23.3241973 22.3926953,22.8006104 22.1369863,22.4840183 C21.8812773,22.1674261 21.3272493,21.9726031 20.4748858,21.8995434 C20.1582937,21.8508369 20,21.6803668 20,21.3881279 C20,21.2663616 20.0243529,21.1080679 20.0730594,20.913242 C20.3896515,20.913242 20.8340915,20.8949774 21.4063927,20.8584475 C21.9786939,20.8219176 22.4474868,20.7793001 22.8127854,20.7305936 C23.37291,20.6331806 23.8721439,20.5296809 24.3105023,20.4200913 C24.7488606,20.3105017 25.065448,20.2557078 25.260274,20.2557078 C25.6012194,20.2557078 25.7716895,20.4383543 25.7716895,20.803653 C25.7716895,21.1445984 25.7351602,21.552509 25.6621005,22.0273973 C25.5890407,22.5022855 25.5525114,23.1293721 25.5525114,23.9086758 L25.5525114,33.9908676 C25.5525114,34.3805195 25.7412462,34.6605775 26.1187215,34.8310502 C26.4961967,35.0015229 27.0258718,35.1476402 27.7077626,35.2694064 C27.9025885,35.3181129 28,35.4642301 28,35.7077626 C28,35.7808223 27.9939118,35.8904102 27.9817352,36.0365297 C27.9695585,36.1826491 27.9512939,36.2678842 27.9269406,36.2922374 C27.8538809,36.2922374 27.689499,36.280061 27.43379,36.2557078 C27.1780809,36.2313545 26.8675817,36.2070016 26.5022831,36.1826484 C26.1369845,36.1582952 25.7412502,36.1400305 25.3150685,36.1278539 C24.8888868,36.1156773 24.4687996,36.109589 24.0547945,36.109589 Z M21.9360731,14.1552511 C21.9360731,13.5707733 22.1369843,13.0654511 22.5388128,12.6392694 C22.9406413,12.2130877 23.4459635,12 24.0547945,12 C24.6392723,12 25.1263299,12.2130877 25.5159817,12.6392694 C25.9056336,13.0654511 26.1004566,13.5707733 26.1004566,14.1552511 C26.1004566,14.7884354 25.9056336,15.2998458 25.5159817,15.6894977 C25.1263299,16.0791496 24.6392723,16.2739726 24.0547945,16.2739726 C23.4459635,16.2739726 22.9406413,16.0791496 22.5388128,15.6894977 C22.1369843,15.2998458 21.9360731,14.7884354 21.9360731,14.1552511 Z" id="i-copy-2" fill="#FFFFFF" fill-rule="evenodd"></path>
            </g>
        </g>
    </g>
</svg>