<?xml version="1.0" encoding="UTF-8" standalone="no"?>
<svg width="38px" height="38px" viewBox="0 0 38 38" version="1.1" xmlns="http://www.w3.org/2000/svg" xmlns:xlink="http://www.w3.org/1999/xlink">
    <!-- Generator: Sketch 43.1 (39012) - http://www.bohemiancoding.com/sketch -->
    <title>icon.vessel.一个参考面</title>
    <desc>Created with Sketch.</desc>
    <defs></defs>
    <g id="Symbols" stroke="none" stroke-width="1" fill="none" fill-rule="evenodd">
        <g id="icon.vessel.一个参考面">
            <g id="icon——11-copy" transform="translate(8.000000, 8.000000)">
                <path d="M1,15 L9,15 L9,17 L1,17 L1,15 Z M0,14 L1,14 L1,18 L0,18 L0,14 Z" id="Combined-Shape" fill="#61A5BE"></path>
                <path d="M1,5 L9,5 L9,7 L1,7 L1,5 Z M0,4 L1,4 L1,8 L0,8 L0,4 Z" id="Combined-Shape" fill="#EEEEEE"></path>
                <path d="M20,5 L20,7 L12,7 L12,5 L20,5 Z M21,4 L21,8 L20,8 L20,4 L21,4 Z" id="Combined-Shape" fill="#EEEEEE"></path>
                <path d="M21,14 L21,18 L20,18 L20,14 L21,14 Z M20,15 L20,17 L12,17 L12,15 L20,15 Z" id="Combined-Shape" fill="#61A5BE"></path>
                <rect id="Rectangle-71" fill="#EEEEEE" x="10" y="0" width="1" height="22"></rect>
            </g>
            <rect id="Rectangle" x="0" y="0" width="38" height="38"></rect>
        </g>
    </g>
</svg>