<?xml version="1.0" encoding="UTF-8"?>
<svg width="31px" height="31px" viewBox="0 0 31 31" version="1.1" xmlns="http://www.w3.org/2000/svg" xmlns:xlink="http://www.w3.org/1999/xlink">
    <!-- Generator: Sketch 61 (89581) - https://sketch.com -->
    <title>定位@2x</title>
    <desc>Created with Sketch.</desc>
    <g id="定位" stroke="none" stroke-width="1" fill="none" fill-rule="evenodd">
        <rect id="矩形" x="0" y="0" width="31" height="31"></rect>
        <path d="M22.8888889,5 C24.0548234,5 25,5.94517664 25,7.11111111 L25,13.444 L23.733,13.444 L23.7333333,7.11111111 C23.7333333,6.68061223 23.4111903,6.32535389 22.9948142,6.27324609 L22.8888889,6.26666667 L8.11111111,6.26666667 C7.68061223,6.26666667 7.32535389,6.58880971 7.27324609,7.00518579 L7.26666667,7.11111111 L7.26666667,21.8888889 C7.26666667,22.3193878 7.58880971,22.6746461 8.00518579,22.7267539 L8.11111111,22.7333333 L16.555,22.733 L16.555,24 L8.11111111,24 C6.94517664,24 6,23.0548234 6,21.8888889 L6,7.11111111 C6,5.94517664 6.94517664,5 8.11111111,5 L22.8888889,5 Z" id="形状结合" fill="#FFFFFF" fill-rule="nonzero"></path>
        <g transform="translate(18.000000, 15.000000)" fill="#FFFFFF" fill-rule="nonzero" id="形状">
            <path d="M9.69744873,4.695586 C9.69744873,1.97412481 7.89627229,0 5,0 C2.24311183,0 0.236572266,2.1065449 0.236572266,4.695586 C0.236572266,5.97006596 1.6115236,8.64231355 4.36142626,12.7123288 C4.51701783,12.8949772 4.75040519,13 5.00162075,13 C5.25121556,13 5.48460292,12.8949772 5.64181524,12.7123288 C8.3455709,8.64231355 9.69744873,5.97006596 9.69744873,4.695586 Z M5,8 C3.34473684,8 2,6.65526316 2,5 C2,3.34473684 3.34473684,2 5,2 C6.65526316,2 8,3.34473684 8,5 C8,6.65526316 6.65526316,8 5,8 Z"></path>
        </g>
    </g>
</svg>