<?xml version="1.0" encoding="UTF-8" standalone="no"?>
<svg width="38px" height="38px" viewBox="0 0 38 38" version="1.1" xmlns="http://www.w3.org/2000/svg" xmlns:xlink="http://www.w3.org/1999/xlink">
    <!-- Generator: Sketch 44.1 (41455) - http://www.bohemiancoding.com/sketch -->
    <title>Path 3</title>
    <desc>Created with Sketch.</desc>
    <defs></defs>
    <g id="Symbols" stroke="none" stroke-width="1" fill="none" fill-rule="evenodd">
        <g id="Path-3">
            <path d="M12.4882812,23.5576172 C18.5483398,23.7148437 17.340332,16.3500977 21.5458984,16.3291016 C25.7514648,16.3081055 24.8540039,23.8632812 31.3774414,24.0166016" id="Path-2" stroke="#EEEEEE"></path>
            <path d="M8,10 L26,10 L26,11 L8,11 L8,10 Z M8,27 L26,27 L26,28 L8,28 L8,27 Z M8,11 L9,11 L9,27 L8,27 L8,11 Z M25,11 L26,11 L26,16 L25,16 L25,11 Z M25,24 L26,24 L26,27 L25,27 L25,24 Z" id="Combined-Shape" fill="#EEEEEE"></path>
            <rect id="Rectangle-9" fill="#61A5BE" x="7" y="9" width="3" height="3"></rect>
            <rect id="Rectangle-9" fill="#61A5BE" x="24" y="9" width="3" height="3"></rect>
            <rect id="Rectangle-9" fill="#61A5BE" x="7" y="26" width="3" height="3"></rect>
            <rect id="Rectangle-9" fill="#61A5BE" x="24" y="26" width="3" height="3"></rect>
        </g>
    </g>
</svg>