<?xml version="1.0" encoding="UTF-8" standalone="no"?>
<svg width="38px" height="38px" viewBox="0 0 38 38" version="1.1" xmlns="http://www.w3.org/2000/svg" xmlns:xlink="http://www.w3.org/1999/xlink">
    <!-- Generator: Sketch 44.1 (41455) - http://www.bohemiancoding.com/sketch -->
    <title>icon.vessel.其他中心线显示隐藏</title>
    <desc>Created with Sketch.</desc>
    <defs></defs>
    <g id="Symbols" stroke="none" stroke-width="1" fill="none" fill-rule="evenodd">
        <g id="icon.vessel.其他中心线显示隐藏">
            <rect id="Rectangle-25" fill-opacity="0.01" fill="#FFFFFF" x="0" y="0" width="38" height="38"></rect>
            <g id="Group" transform="translate(0.000000, 4.000000)">
                <path d="M16.1612304,0.105389747 C12.7275396,3.88414374 7.30834139,11.1283999 11.1411897,16.9015223 C14.974038,22.6746447 19.5482845,22.7106173 22.1203832,28.3448127" id="Path-249" stroke="#61A5BE" transform="translate(15.972576, 14.225101) rotate(53.000000) translate(-15.972576, -14.225101) "></path>
                <circle id="Oval-18" fill="#61A5BE" transform="translate(27.100676, 6.100676) rotate(53.000000) translate(-27.100676, -6.100676) " cx="27.1006758" cy="6.1006758" r="1.5"></circle>
                <path d="M11.1006758,13.6006758 C11.9291029,13.6006758 12.6006758,12.9291029 12.6006758,12.1006758 C12.6006758,11.2722487 11.9291029,10.6006758 11.1006758,10.6006758 C10.2722487,10.6006758 9.6006758,11.2722487 9.6006758,12.1006758 C9.6006758,12.9291029 10.2722487,13.6006758 11.1006758,13.6006758 Z" id="Oval-18" fill="#61A5BE" transform="translate(11.100676, 12.100676) rotate(53.000000) translate(-11.100676, -12.100676) "></path>
                <circle id="Oval-18" fill="#61A5BE" transform="translate(8.100676, 28.100676) rotate(53.000000) translate(-8.100676, -28.100676) " cx="8.1006758" cy="28.1006758" r="1.5"></circle>
            </g>
            <path d="M23.3391304,32.826087 C17.9531734,32.826087 14.6782609,27.4130435 14.6782609,27.4130435 C14.6782609,27.4130435 17.9455614,22 23.3391304,22 C28.7326995,22 32,27.4130435 32,27.4130435 C32,27.4130435 28.7940287,32.826087 23.3391304,32.826087 Z M23.3391304,31.7434783 C25.7307635,31.7434783 27.6695652,29.8046766 27.6695652,27.4130435 C27.6695652,25.0214104 25.7307635,23.0826087 23.3391304,23.0826087 C20.9474973,23.0826087 19.0086957,25.0214104 19.0086957,27.4130435 C19.0086957,29.8046766 20.9474973,31.7434783 23.3391304,31.7434783 Z M23.3391304,29.5782609 C22.1433139,29.5782609 21.173913,28.60886 21.173913,27.4130435 C21.173913,26.2172269 22.1433139,25.2478261 23.3391304,25.2478261 C24.534947,25.2478261 25.5043478,26.2172269 25.5043478,27.4130435 C25.5043478,28.60886 24.534947,29.5782609 23.3391304,29.5782609 Z" id="Oval-22" fill="#EEEEEE"></path>
            <g id="Group" transform="translate(19.081475, 16.253048) rotate(-45.000000) translate(-19.081475, -16.253048) translate(12.081475, 8.753048)">
                <path d="M4.38439982,2.10193888 C4.68948804,2.79266396 2.1956599,7.02107569 3.85520934,10.2056243 C5.51475879,13.390173 9.27994296,13.1605569 10.3759837,12.9530192" id="Path-249" stroke="#61A5BE" transform="translate(6.828283, 7.580536) rotate(53.000000) translate(-6.828283, -7.580536) "></path>
                <path d="M9.94333872,4.00395318 C10.7717658,4.00395318 11.4433387,3.3323803 11.4433387,2.50395318 C11.4433387,1.67552605 10.7717658,1.00395318 9.94333872,1.00395318 C9.11491159,1.00395318 8.44333872,1.67552605 8.44333872,2.50395318 C8.44333872,3.3323803 9.11491159,4.00395318 9.94333872,4.00395318 Z" id="Oval-18" fill="#61A5BE" transform="translate(9.943339, 2.503953) rotate(53.000000) translate(-9.943339, -2.503953) "></path>
                <path d="M3.90363401,7.35422875 C4.73206113,7.35422875 5.40363401,6.68265587 5.40363401,5.85422875 C5.40363401,5.02580162 4.73206113,4.35422875 3.90363401,4.35422875 C3.07520688,4.35422875 2.40363401,5.02580162 2.40363401,5.85422875 C2.40363401,6.68265587 3.07520688,7.35422875 3.90363401,7.35422875 Z" id="Oval-18" fill="#61A5BE" transform="translate(3.903634, 5.854229) rotate(53.000000) translate(-3.903634, -5.854229) "></path>
                <circle id="Oval-18" fill="#61A5BE" transform="translate(4.084403, 12.643247) rotate(53.000000) translate(-4.084403, -12.643247) " cx="4.08440282" cy="12.6432471" r="1.5"></circle>
            </g>
        </g>
    </g>
</svg>