<?xml version="1.0" encoding="UTF-8" standalone="no"?>
<svg width="38px" height="38px" viewBox="0 0 38 38" version="1.1" xmlns="http://www.w3.org/2000/svg" xmlns:xlink="http://www.w3.org/1999/xlink">
    <!-- Generator: Sketch 47.1 (45422) - http://www.bohemiancoding.com/sketch -->
    <title>icon.FFR.软组织生长</title>
    <desc>Created with Sketch.</desc>
    <defs></defs>
    <g id="Symbols" stroke="none" stroke-width="1" fill="none" fill-rule="evenodd">
        <g id="icon.FFR.软组织生长">
            <g id="Group-2">
                <g id="icon-._tool-._grow_other">
                    <path d="M20.7099001,19.4433968 C20.7033744,19.8289178 20.6997033,20.1784437 20.6997033,20.4769321 C20.6997033,21.6845998 20.7292674,23.1558988 20.7617925,24.4091318 C19.7511074,24.4326849 18.6699959,24.3738493 17.4959752,24.2860218 C13.6607259,23.99911 12.2330006,27.1875203 9.36447857,29.0983382 C6.4959565,31.0091561 7.4386032,27.7407171 6.66140513,24.7346437 C5.88420706,21.7285703 5.83614785,19.6696553 6.28745075,17.0342356 C6.73875364,14.3988159 9.42264501,12.8693783 11.6065549,12.2615219 C13.7904648,11.6536656 16.3638001,12.1831421 18.4392154,13.0527458 C19.716347,13.5878669 20.2638167,14.1293926 20.8651023,14.2622011 C20.8613596,14.3625936 20.8576024,14.4641181 20.8538402,14.566596 L16.0098137,19.4486633 L18.3135885,21.8373582 L20.7099001,19.4433968 Z M26.2946386,13.8641352 C27.8819741,14.1238861 29.5867191,14.5309542 30.9018168,14.7525572 C33.6106648,15.2090167 33.2872467,16.6035591 31.5321558,17.4020023 C29.777065,18.2004456 29.447045,20.1636546 26.8110076,22.3570525 C25.3515086,23.5714746 23.8283362,24.120398 22.1084574,24.319777 C21.9181239,23.2829139 21.7647611,21.9808403 21.7647611,20.4769323 C21.7647611,19.7955451 21.7807921,19.0742954 21.8073418,18.3470313 L26.2946386,13.8641352 Z" id="Combined-Shape" fill="#EEEEEE"></path>
                    <path d="M26.5366892,12.5123503 C26.8287508,12.6420248 27.152071,12.714077 27.4922198,12.714077 C28.7939763,12.714077 29.8492583,11.6587949 29.8492583,10.3570385 C29.8492583,9.05528208 28.7939763,8 27.4922198,8 C26.1904634,8 25.1351814,9.05528208 25.1351814,10.3570385 C25.1351814,10.7631023 25.2378641,11.1451832 25.4186804,11.478732 L17.3676793,19.3630279 L18.3453664,20.4395038 L26.5366892,12.5123503 Z" id="Combined-Shape" fill="#65A5BD"></path>
                </g>
            </g>
        </g>
    </g>
</svg>