<?xml version="1.0" encoding="UTF-8" standalone="no"?>
<svg width="28px" height="28px" viewBox="0 0 28 28" version="1.1" xmlns="http://www.w3.org/2000/svg" xmlns:xlink="http://www.w3.org/1999/xlink">
    <!-- Generator: Sketch 43.1 (39012) - http://www.bohemiancoding.com/sketch -->
    <title>icon.vessel.增强序列</title>
    <desc>Created with Sketch.</desc>
    <defs></defs>
    <g id="Symbols" stroke="none" stroke-width="1" fill="none" fill-rule="evenodd">
        <g id="icon.vessel.增强序列" fill="#EEEEEE">
            <rect id="Rectangle-4" transform="translate(19.121320, 7.621320) rotate(-45.000000) translate(-19.121320, -7.621320) " x="18.6213203" y="5.12132034" width="1" height="5"></rect>
            <polygon id="Rectangle-4-Copy" transform="translate(16.905365, 9.674603) rotate(-45.000000) translate(-16.905365, -9.674603) " points="16.2506802 5.13592904 17.5600489 5.12236848 17.5600489 14.2132776 16.2506802 14.2268381"></polygon>
            <rect id="Rectangle-5" transform="translate(13.506556, 7.485649) rotate(-45.000000) translate(-13.506556, -7.485649) " x="12.1429194" y="7.03110305" width="2.72727273" height="1"></rect>
            <rect id="Rectangle-7" transform="translate(19.291975, 13.063823) rotate(-45.000000) translate(-19.291975, -13.063823) " x="17.9283386" y="12.6092778" width="2.72727273" height="1"></rect>
            <polygon id="Rectangle-10" transform="translate(8.363961, 16.920769) rotate(-45.000000) translate(-8.363961, -16.920769) " points="7.45487012 16.9207694 9.27305194 15.1025875 9.27305194 16.9207694 7.45487012 18.7389512"></polygon>
            <polygon id="Rectangle-10" transform="translate(9.649610, 17.928473) scale(1, -1) rotate(45.000000) translate(-9.649610, -17.928473) " points="8.74051881 17.928473 10.5587006 16.1102912 10.5587006 17.928473 8.74051881 19.7466549"></polygon>
            <rect id="Rectangle-3" transform="translate(18.199174, 8.756900) rotate(-45.000000) translate(-18.199174, -8.756900) " x="17.2900826" y="7.57508198" width="1.81818182" height="2.36363636"></rect>
            <polygon id="Rectangle-3-Copy" transform="translate(7.035592, 19.414272) rotate(-45.000000) translate(-7.035592, -19.414272) " points="5.01576536 18.7280903 9.05659956 18.8013075 9.05541859 20.100453 5.01458439 20.0272358"></polygon>
            <polygon id="Rectangle-3-Copy-2" transform="translate(11.539265, 12.093785) rotate(-45.000000) translate(-11.539265, -12.093785) " points="6.78988374 11.4435174 16.3859155 11.4435174 16.2886468 12.7440528 6.69261506 12.7440528"></polygon>
            <polygon id="Rectangle-3-Copy-2" transform="translate(14.266538, 14.821058) rotate(-45.000000) translate(-14.266538, -14.821058) " points="9.51715646 14.1707902 19.1131882 14.1707902 19.0159195 15.4713256 9.41988779 15.4713256"></polygon>
            <polygon id="Rectangle-3-Copy-2" transform="translate(11.948356, 14.411967) rotate(-45.000000) translate(-11.948356, -14.411967) " points="9.19173012 13.7616993 14.8022509 13.7616993 14.7049822 15.0622346 9.09446144 15.0622346"></polygon>
        </g>
    </g>
</svg>