<?xml version="1.0" encoding="UTF-8" standalone="no"?>
<svg width="38px" height="38px" viewBox="0 0 38 38" version="1.1" xmlns="http://www.w3.org/2000/svg" xmlns:xlink="http://www.w3.org/1999/xlink">
    <!-- Generator: Sketch 43.1 (39012) - http://www.bohemiancoding.com/sketch -->
    <title>两点提取</title>
    <desc>Created with Sketch.</desc>
    <defs></defs>
    <g id="Symbols" stroke="none" stroke-width="1" fill="none" fill-rule="evenodd">
        <g id="两点提取">
            <g id="Group" transform="translate(7.000000, 9.000000)">
                <path d="M14.1596446,5.16979322 C11.5629307,2.86434782 7.95577015,2.86434783 5.91910097,2.86434783 C3.88243178,2.86434782 2.46891065,6.07044431 2.46891065,7.73007997 C2.46891065,9.38971563 0.0741283519,9.53217372 0.0741283519,10.6884578 C0.0741283519,11.8447418 -0.583726806,15.9459495 2.02008617,17.7029314 C4.62389915,19.4599134 4.41565736,18.7927352 6.61560715,20.4064677 C8.81555694,22.0202002 11.7427761,19.5540941 13.1428875,19.554094 C14.542999,19.554094 17.5435763,16.0828922 17.5435762,13.9404574 C17.5435761,11.7980225 16.7563585,7.47523862 14.1596446,5.16979322 Z" id="Path-132" stroke="#EEEEEE" fill-opacity="0.188858696" fill="#D8D8D8" stroke-dasharray="1"></path>
                <path d="M6.55396569,7.7697911 C6.55396569,7.7697911 4.5443274,12.5886812 6.75802475,13.8227802 C8.9717221,15.0568792 11.7219336,14.3197444 11.7219344,15.3039283" id="Path-136" stroke="#EEEEEE"></path>
                <ellipse id="Oval-18" fill="#65A5BD" cx="5.94782609" cy="8.98911153" rx="2.03478261" ry="2.0415879"></ellipse>
                <ellipse id="Oval-18" fill="#65A5BD" cx="11.7391304" cy="14.654518" rx="2.03478261" ry="2.0415879"></ellipse>
                <polygon id="Path-81" fill="#EEEEEE" points="23.6320364 0 14.4657818 9.19691098 13.32 12.6457526 16.7573455 11.4961387 25.9236001 2.29922774"></polygon>
            </g>
        </g>
    </g>
</svg>