<?xml version="1.0" encoding="UTF-8" standalone="no"?>
<svg width="38px" height="38px" viewBox="0 0 38 38" version="1.1" xmlns="http://www.w3.org/2000/svg" xmlns:xlink="http://www.w3.org/1999/xlink">
    <!-- Generator: Sketch 43.1 (39012) - http://www.bohemiancoding.com/sketch -->
    <title>vot</title>
    <desc>Created with Sketch.</desc>
    <defs>
        <linearGradient x1="86.0790946%" y1="25.694574%" x2="23.9773626%" y2="71.0549483%" id="linearGradient-1">
            <stop stop-color="#61A5BE" offset="0%"></stop>
            <stop stop-color="#73AEC3" stop-opacity="0" offset="100%"></stop>
        </linearGradient>
    </defs>
    <g id="Symbols" stroke="none" stroke-width="1" fill="none" fill-rule="evenodd">
        <g id="vot">
            <g id="Group-9" transform="translate(19.572758, 19.474948) rotate(-8.000000) translate(-19.572758, -19.474948) translate(8.572758, 6.274948)">
                <path d="M13.7920623,15.1340986 C15.9793551,15.1340986 18.5395671,14.625023 18.7426172,11.1736546 C18.9456673,7.7222863 15.9793551,6.22309969 13.7920623,6.22309969 C11.6047695,6.22309969 8.84150736,7.99625084 8.84150736,10.1835436 C8.84150736,12.3708364 11.6047695,15.1340986 13.7920623,15.1340986 Z" id="Oval-31" fill="url(#linearGradient-1)"></path>
                <path d="M10.3329461,6.88164841 C9.44164425,4.37636475 9.50226739,2.02777966 9.50226739,2.02777966 C9.50226739,2.02777966 8.88539178,0.247018461 5.71462949,0.247018461 C2.54386719,0.247018461 1.12407841,1.73694366 0.639893355,3.58973686 C0.191724286,8.44106545 1.87035651,11.0162282 4.14644404,15.0899447 C6.35569841,19.0440438 11.3173175,23.8775791 14.4866823,25.462101 L14.4866823,25.462101 C14.4681254,25.4478944 14.4498476,25.4332437 14.4318555,25.4181465 C13.2586857,24.4337402 13.7443345,21.9235399 15.5165823,19.8114572 C17.2888301,17.6993744 19.6765628,16.7852121 20.8497326,17.7696184 C20.9143728,17.823858 20.973977,17.8827297 21.0286076,17.9459116 L21.0907553,17.8699468 C21.0907553,17.5163805 18.9722919,17.1105796 16.6880723,15.2879447 C17.8023473,14.6834798 18.6344015,13.5725163 18.7522125,11.5700093 C18.9777984,7.73558545 15.6822654,6.07000928 13.2522125,6.07000928 C12.3030582,6.07000928 11.2562813,6.37054544 10.3329461,6.88164841 Z" id="Combined-Shape" stroke="#EEEEEE"></path>
                <path d="M19.7650057,23.3763077 C21.5372536,21.264225 22.0229023,18.7540247 20.8497326,17.7696184 C19.6765628,16.7852121 17.2888301,17.6993744 15.5165823,19.8114572 C13.7443345,21.9235399 13.2586857,24.4337402 14.4318555,25.4181465 C15.6050252,26.4025528 17.9927579,25.4883904 19.7650057,23.3763077 L19.7650057,23.3763077 Z" id="Oval-20" stroke="#EEEEEE"></path>
            </g>
        </g>
    </g>
</svg>