<?xml version="1.0" encoding="UTF-8"?>
<svg width="24px" height="24px" viewBox="0 0 24 24" version="1.1" xmlns="http://www.w3.org/2000/svg" xmlns:xlink="http://www.w3.org/1999/xlink">
    <title>icon/delete</title>
    <g id="icon/delete" stroke="none" stroke-width="1" fill="none" fill-rule="evenodd">
        <g id="icon/12px/删除备份" transform="translate(3.000000, 3.000000)" fill="#C3CAD9">
            <path d="M12.5,0 C13.2796961,0 13.9204487,0.594888083 13.9931334,1.35553999 L14,1.5 L14,2 L17.5,2 C17.7761424,2 18,2.22385763 18,2.5 C18,2.74545989 17.8231248,2.94960837 17.5898756,2.99194433 L17.5,3 L16,3 L16,16.5 C16,17.2796961 15.4051119,17.9204487 14.64446,17.9931334 L14.5,18 L3.5,18 C2.72030388,18 2.07955132,17.4051119 2.00686658,16.64446 L2,16.5 L2,3 L0.5,3 C0.223857625,3 0,2.77614237 0,2.5 C0,2.25454011 0.176875161,2.05039163 0.410124368,2.00805567 L0.5,2 L4,2 L4,1.5 C4,0.720303883 4.59488808,0.0795513218 5.35553999,0.00686657806 L5.5,0 L12.5,0 Z M15,3 L3,3 L3,16.5 C3,16.7454599 3.17687516,16.9496084 3.41012437,16.9919443 L3.5,17 L14.5,17 C14.7454599,17 14.9496084,16.8231248 14.9919443,16.5898756 L15,16.5 L15,3 Z M6.5,6 C6.74545989,6 6.94960837,6.17687516 6.99194433,6.41012437 L7,6.5 L7,13.5 C7,13.7761424 6.77614237,14 6.5,14 C6.25454011,14 6.05039163,13.8231248 6.00805567,13.5898756 L6,13.5 L6,6.5 C6,6.22385763 6.22385763,6 6.5,6 Z M11.5,6 C11.7454599,6 11.9496084,6.17687516 11.9919443,6.41012437 L12,6.5 L12,13.5 C12,13.7761424 11.7761424,14 11.5,14 C11.2545401,14 11.0503916,13.8231248 11.0080557,13.5898756 L11,13.5 L11,6.5 C11,6.22385763 11.2238576,6 11.5,6 Z M12.5,1 L5.5,1 C5.25454011,1 5.05039163,1.17687516 5.00805567,1.41012437 L5,1.5 L5,2 L13,2 L13,1.5 C13,1.25454011 12.8231248,1.05039163 12.5898756,1.00805567 L12.5,1 Z" id="形状结合"></path>
        </g>
    </g>
</svg>