<?xml version="1.0" encoding="UTF-8"?>
<svg width="24px" height="24px" viewBox="0 0 24 24" version="1.1" xmlns="http://www.w3.org/2000/svg" xmlns:xlink="http://www.w3.org/1999/xlink">
    <title>icon/save</title>
    <g id="icon/save" stroke="none" stroke-width="1" fill="none" fill-rule="evenodd">
        <path d="M19,4 C19.5522847,4 20,4.44771525 20,5 L20,19 C20,19.5522847 19.5522847,20 19,20 L5,20 C4.44771525,20 4,19.5522847 4,19 L4,5 C4,4.44771525 4.44771525,4 5,4 L19,4 Z M7,5 L5,5 L5,19 L19,19 L19,5 L17,5 L17,10 C17,10.5522847 16.5522847,11 16,11 L8,11 C7.44771525,11 7,10.5522847 7,10 L7,5 Z M16,5 L8,5 L8,10 L16,10 L16,5 Z M14,6 L14,9 L13,9 L13,6 L14,6 Z" id="形状结合" fill="#C3CAD9"></path>
    </g>
</svg>