<?xml version="1.0" encoding="UTF-8" standalone="no"?>
<svg width="38px" height="38px" viewBox="0 0 38 38" version="1.1" xmlns="http://www.w3.org/2000/svg" xmlns:xlink="http://www.w3.org/1999/xlink">
    <!-- Generator: Sketch 43.1 (39012) - http://www.bohemiancoding.com/sketch -->
    <title>icon ._tool ._pre window</title>
    <desc>Created with Sketch.</desc>
    <defs></defs>
    <g id="Symbols" stroke="none" stroke-width="1" fill="none" fill-rule="evenodd">
        <g id="icon-._tool-._pre-window">
            <g id="Group-27">
                <rect id="Rectangle-891-Copy-13" x="0" y="0" width="38" height="37.9895862"></rect>
                <g id="Group" transform="translate(6.000000, 6.494793)">
                    <path d="M20.484451,18 C21.4417283,16.569902 22,14.8501466 22,13 C22,8.02943725 17.9705627,4 13,4 C8.02943725,4 4,8.02943725 4,13 C4,16.5337213 6.03656304,19.5917778 9,21.0644804 L9,19.9297424 C6.60879452,18.5465048 5,15.9611294 5,13 C5,8.581722 8.581722,5 13,5 C17.418278,5 21,8.581722 21,13 C21,14.8918934 20.3432817,16.6304021 19.245371,18 L20.484451,18 Z" id="Combined-Shape" fill="#FFFFFF"></path>
                    <path d="M12,16 L12,6 C8.6537327,6.21349999 6,9.26588084 6,13 C6,15.50933 7.1983851,17.7107975 9,18.9497847 L9,16 L12,16 Z" id="Combined-Shape" fill="#FFFFFF"></path>
                    <path d="M10,24.1582031 L10,17 L12.3193359,17 C13.1982466,17 13.7711575,17.0358069 14.0380859,17.1074219 C14.4482442,17.2148443 14.7916653,17.4484031 15.0683594,17.8081055 C15.3450535,18.1678078 15.4833984,18.6324841 15.4833984,19.2021484 C15.4833984,19.6416038 15.4036466,20.0110662 15.2441406,20.3105469 C15.0846346,20.6100275 14.8819999,20.845214 14.6362305,21.0161133 C14.390461,21.1870126 14.1406263,21.3001299 13.8867188,21.3554688 C13.5416649,21.4238285 13.0419955,21.4580078 12.3876953,21.4580078 L11.4453125,21.4580078 L11.4453125,24.1582031 L10,24.1582031 Z M11.4453125,18.2109375 L11.4453125,20.2421875 L12.2363281,20.2421875 C12.8059924,20.2421875 13.186848,20.204753 13.3789063,20.1298828 C13.5709645,20.0550126 13.7215164,19.9378263 13.8305664,19.7783203 C13.9396164,19.6188143 13.9941406,19.4332693 13.9941406,19.2216797 C13.9941406,18.9612617 13.917644,18.7464201 13.7646484,18.5771484 C13.6116529,18.4078768 13.4179699,18.3020835 13.1835938,18.2597656 C13.0110668,18.2272134 12.6643906,18.2109375 12.1435547,18.2109375 L11.4453125,18.2109375 Z M17.9736328,24.1582031 L16.6015625,24.1582031 L16.6015625,18.9726563 L17.8759766,18.9726563 C17.8759766,18.9726563 18.7786447,18.9726562 19,18.9726562 C19.3125016,18.9726562 19.5,18.9726562 20,19 L20,20 L19,20 C19,20 18.5367845,20.1388341 18.4033203,20.2446289 C18.2698561,20.3504237 18.1648767,20.5416653 18.0883789,20.8183594 C18.0118811,21.0950535 17.9736328,21.6744748 17.9736328,22.5566406 L17.9736328,24.1582031 Z M23.5546875,22.5078125 L24.921875,22.7373047 C24.7460929,23.2386093 24.4685891,23.6202786 24.0893555,23.8823242 C23.7101218,24.1443698 23.2356799,24.2753906 22.6660156,24.2753906 C21.7643184,24.2753906 21.0970074,23.9807972 20.6640625,23.3916016 C20.3222639,22.919594 20.1513672,22.3238968 20.1513672,21.6044922 C20.1513672,20.7451129 20.3759743,20.0721053 20.8251953,19.5854492 C21.2744163,19.0987931 21.8424445,18.8554688 22.5292969,18.8554688 C23.3007851,18.8554688 23.909503,19.1101863 24.3554688,19.6196289 C24.8014345,20.1290716 25.0146485,20.9095 24.9951172,21.9609375 L21.5576172,21.9609375 C21.5673829,22.3678406 21.6780588,22.6844064 21.8896484,22.9106445 C22.101238,23.1368826 22.3649073,23.25 22.6806641,23.25 C22.8955089,23.25 23.0761711,23.1914068 23.2226562,23.0742188 C23.3691414,22.9570307 23.4798173,22.7682305 23.5546875,22.5078125 Z M23.6328125,21.1210938 C23.6230468,20.7239563 23.5205088,20.4220388 23.3251953,20.215332 C23.1298818,20.0086253 22.892254,19.9052734 22.6123047,19.9052734 C22.312824,19.9052734 22.0654307,20.0143218 21.8701172,20.2324219 C21.6748037,20.4505219 21.578776,20.7467429 21.5820312,21.1210938 L23.6328125,21.1210938 Z" id="Pre" fill="#61A5BE"></path>
                    <rect id="Combined-Shape" fill="#FFFFFF" x="12.5" y="0" width="1" height="3"></rect>
                    <path d="M12.5,0 L13.5,0 L13.5,3 L12.5,3 L12.5,0 Z M12.5,23 L13.5,23 L13.5,26 L12.5,26 L12.5,23 Z" id="Combined-Shape" fill="#FFFFFF" transform="translate(13.000000, 13.000000) rotate(-330.000000) translate(-13.000000, -13.000000) "></path>
                    <path d="M12.5,-5.32907052e-14 L13.5,-5.32907052e-14 L13.5,3 L12.5,3 L12.5,-5.32907052e-14 Z M12.5,23 L13.5,23 L13.5,26 L12.5,26 L12.5,23 Z" id="Combined-Shape" fill="#FFFFFF" transform="translate(13.000000, 13.000000) rotate(-300.000000) translate(-13.000000, -13.000000) "></path>
                    <path d="M12.5,0 L13.5,0 L13.5,3 L12.5,3 L12.5,0 Z M12.5,23 L13.5,23 L13.5,26 L12.5,26 L12.5,23 Z" id="Combined-Shape" fill="#FFFFFF" transform="translate(13.000000, 13.000000) rotate(-270.000000) translate(-13.000000, -13.000000) "></path>
                    <rect id="Combined-Shape" fill="#FFFFFF" transform="translate(3.040708, 7.250000) rotate(-240.000000) translate(-3.040708, -7.250000) " x="2.54070786" y="5.75" width="1" height="3"></rect>
                    <rect id="Combined-Shape" fill="#FFFFFF" transform="translate(7.250000, 3.040708) rotate(-210.000000) translate(-7.250000, -3.040708) " x="6.75" y="1.54070786" width="1" height="3"></rect>
                </g>
            </g>
        </g>
    </g>
</svg>